<?xml version="1.0" encoding="UTF-8" standalone="no"?>
<!DOCTYPE svg PUBLIC "-//W3C//DTD SVG 1.1//EN"
 "http://www.w3.org/Graphics/SVG/1.1/DTD/svg11.dtd">
<!-- Generated by graphviz version 2.44.0 ()
 -->
<!-- Title: ProgressTest Pages: 1 -->
<svg width="1035pt" height="758pt"
 viewBox="0.00 0.00 1035.10 757.60" xmlns="http://www.w3.org/2000/svg" xmlns:xlink="http://www.w3.org/1999/xlink">
<g id="graph0" class="graph" transform="scale(1 1) rotate(0) translate(28.8 728.8)">
<title>ProgressTest</title>
<polygon fill="white" stroke="transparent" points="-28.8,28.8 -28.8,-728.8 1006.3,-728.8 1006.3,28.8 -28.8,28.8"/>
<text text-anchor="middle" x="488.75" y="-685.6" font-family="Arial Bold" font-size="13.00">Progress Test &#45; Models</text>
<!-- m_ActiveStorage::Attachment -->
<g id="node1" class="node">
<title>m_ActiveStorage::Attachment</title>
<path fill="none" stroke="black" d="M213.5,-264.5C213.5,-264.5 400.5,-264.5 400.5,-264.5 406.5,-264.5 412.5,-270.5 412.5,-276.5 412.5,-276.5 412.5,-334.5 412.5,-334.5 412.5,-340.5 406.5,-346.5 400.5,-346.5 400.5,-346.5 213.5,-346.5 213.5,-346.5 207.5,-346.5 201.5,-340.5 201.5,-334.5 201.5,-334.5 201.5,-276.5 201.5,-276.5 201.5,-270.5 207.5,-264.5 213.5,-264.5"/>
<text text-anchor="start" x="213" y="-333.7" font-family="Arial Bold" font-size="11.00">ActiveStorage::Attachment</text>
<polyline fill="none" stroke="black" points="201.5,-326.5 412.5,-326.5 "/>
<text text-anchor="start" x="209" y="-313.5" font-family="Arial" font-size="10.00">blob_id </text>
<text text-anchor="start" x="270" y="-313.5" font-family="Arial Italic" font-size="10.00" fill="#999999">integer (8) ∗ FK</text>
<text text-anchor="start" x="209" y="-300.5" font-family="Arial" font-size="10.00">name </text>
<text text-anchor="start" x="247" y="-300.5" font-family="Arial Italic" font-size="10.00" fill="#999999">string ∗</text>
<text text-anchor="start" x="209" y="-287.5" font-family="Arial" font-size="10.00">record_id </text>
<text text-anchor="start" x="285" y="-287.5" font-family="Arial Italic" font-size="10.00" fill="#999999">integer (8) ∗ FK</text>
<text text-anchor="start" x="209" y="-274.5" font-family="Arial" font-size="10.00">record_type </text>
<text text-anchor="start" x="300" y="-274.5" font-family="Arial Italic" font-size="10.00" fill="#999999">string ∗</text>
</g>
<!-- m_ActiveStorage::Blob -->
<g id="node2" class="node">
<title>m_ActiveStorage::Blob</title>
<path fill="none" stroke="black" d="M12,-461.5C12,-461.5 176,-461.5 176,-461.5 182,-461.5 188,-467.5 188,-473.5 188,-473.5 188,-557.5 188,-557.5 188,-563.5 182,-569.5 176,-569.5 176,-569.5 12,-569.5 12,-569.5 6,-569.5 0,-563.5 0,-557.5 0,-557.5 0,-473.5 0,-473.5 0,-467.5 6,-461.5 12,-461.5"/>
<text text-anchor="start" x="23" y="-556.7" font-family="Arial Bold" font-size="11.00">ActiveStorage::Blob</text>
<polyline fill="none" stroke="black" points="0,-549.5 188,-549.5 "/>
<text text-anchor="start" x="7" y="-536.5" font-family="Arial" font-size="10.00">byte_size </text>
<text text-anchor="start" x="83" y="-536.5" font-family="Arial Italic" font-size="10.00" fill="#999999">integer (8) ∗</text>
<text text-anchor="start" x="7" y="-523.5" font-family="Arial" font-size="10.00">checksum </text>
<text text-anchor="start" x="75" y="-523.5" font-family="Arial Italic" font-size="10.00" fill="#999999">string ∗</text>
<text text-anchor="start" x="7" y="-510.5" font-family="Arial" font-size="10.00">content_type </text>
<text text-anchor="start" x="105" y="-510.5" font-family="Arial Italic" font-size="10.00" fill="#999999">string</text>
<text text-anchor="start" x="7" y="-497.5" font-family="Arial" font-size="10.00">filename </text>
<text text-anchor="start" x="75" y="-497.5" font-family="Arial Italic" font-size="10.00" fill="#999999">string ∗</text>
<text text-anchor="start" x="7" y="-484.5" font-family="Arial" font-size="10.00">key </text>
<text text-anchor="start" x="38" y="-484.5" font-family="Arial Italic" font-size="10.00" fill="#999999">string ∗</text>
<text text-anchor="start" x="7" y="-471.5" font-family="Arial" font-size="10.00">metadata </text>
<text text-anchor="start" x="75" y="-471.5" font-family="Arial Italic" font-size="10.00" fill="#999999">text</text>
</g>
<!-- m_ActiveStorage::Blob&#45;&gt;m_ActiveStorage::Attachment -->
<g id="edge1" class="edge">
<title>m_ActiveStorage::Blob&#45;&gt;m_ActiveStorage::Attachment</title>
<path fill="none" stroke="black" d="M148.3,-461.47C184.91,-425.73 232.45,-379.3 265.91,-346.62"/>
</g>
<!-- m_ActiveStorage::Blob&#45;&gt;m_ActiveStorage::Blob -->
<g id="edge14" class="edge">
<title>m_ActiveStorage::Blob&#45;&gt;m_ActiveStorage::Blob</title>
<path fill="none" stroke="black" stroke-dasharray="1,5" d="M188.11,-536.37C205.11,-533.69 217,-526.74 217,-515.5 217,-504.26 205.11,-497.31 188.11,-494.63"/>
</g>
<!-- m_Axis -->
<g id="node3" class="node">
<title>m_Axis</title>
<path fill="none" stroke="black" d="M782.5,-277.5C782.5,-277.5 961.5,-277.5 961.5,-277.5 967.5,-277.5 973.5,-283.5 973.5,-289.5 973.5,-289.5 973.5,-321.5 973.5,-321.5 973.5,-327.5 967.5,-333.5 961.5,-333.5 961.5,-333.5 782.5,-333.5 782.5,-333.5 776.5,-333.5 770.5,-327.5 770.5,-321.5 770.5,-321.5 770.5,-289.5 770.5,-289.5 770.5,-283.5 776.5,-277.5 782.5,-277.5"/>
<text text-anchor="start" x="854.5" y="-320.7" font-family="Arial Bold" font-size="11.00">Axis</text>
<polyline fill="none" stroke="black" points="770.5,-313.5 973.5,-313.5 "/>
<text text-anchor="start" x="778" y="-300.5" font-family="Arial" font-size="10.00">name </text>
<text text-anchor="start" x="816" y="-300.5" font-family="Arial Italic" font-size="10.00" fill="#999999">string ∗ U</text>
<text text-anchor="start" x="778" y="-287.5" font-family="Arial" font-size="10.00">subject_id </text>
<text text-anchor="start" x="861" y="-287.5" font-family="Arial Italic" font-size="10.00" fill="#999999">integer (8) FK</text>
</g>
<!-- m_Category -->
<g id="node4" class="node">
<title>m_Category</title>
<path fill="none" stroke="black" d="M793.5,-93.5C793.5,-93.5 950.5,-93.5 950.5,-93.5 956.5,-93.5 962.5,-99.5 962.5,-105.5 962.5,-105.5 962.5,-137.5 962.5,-137.5 962.5,-143.5 956.5,-149.5 950.5,-149.5 950.5,-149.5 793.5,-149.5 793.5,-149.5 787.5,-149.5 781.5,-143.5 781.5,-137.5 781.5,-137.5 781.5,-105.5 781.5,-105.5 781.5,-99.5 787.5,-93.5 793.5,-93.5"/>
<text text-anchor="start" x="839.5" y="-136.7" font-family="Arial Bold" font-size="11.00">Category</text>
<polyline fill="none" stroke="black" points="781.5,-129.5 962.5,-129.5 "/>
<text text-anchor="start" x="789" y="-116.5" font-family="Arial" font-size="10.00">axis_id </text>
<text text-anchor="start" x="850" y="-116.5" font-family="Arial Italic" font-size="10.00" fill="#999999">integer (8) FK</text>
<text text-anchor="start" x="789" y="-103.5" font-family="Arial" font-size="10.00">name </text>
<text text-anchor="start" x="827" y="-103.5" font-family="Arial Italic" font-size="10.00" fill="#999999">string ∗ U</text>
</g>
<!-- m_Axis&#45;&gt;m_Category -->
<g id="edge8" class="edge">
<title>m_Axis&#45;&gt;m_Category</title>
<path fill="none" stroke="black" d="M872,-277.25C872,-242.84 872,-183.99 872,-149.64"/>
</g>
<!-- m_SubCategory -->
<g id="node9" class="node">
<title>m_SubCategory</title>
<path fill="none" stroke="black" d="M778.5,-0.5C778.5,-0.5 965.5,-0.5 965.5,-0.5 971.5,-0.5 977.5,-6.5 977.5,-12.5 977.5,-12.5 977.5,-44.5 977.5,-44.5 977.5,-50.5 971.5,-56.5 965.5,-56.5 965.5,-56.5 778.5,-56.5 778.5,-56.5 772.5,-56.5 766.5,-50.5 766.5,-44.5 766.5,-44.5 766.5,-12.5 766.5,-12.5 766.5,-6.5 772.5,-0.5 778.5,-0.5"/>
<text text-anchor="start" x="828.5" y="-43.7" font-family="Arial Bold" font-size="11.00">SubCategory</text>
<polyline fill="none" stroke="black" points="766.5,-36.5 977.5,-36.5 "/>
<text text-anchor="start" x="774" y="-23.5" font-family="Arial" font-size="10.00">category_id </text>
<text text-anchor="start" x="865" y="-23.5" font-family="Arial Italic" font-size="10.00" fill="#999999">integer (8) FK</text>
<text text-anchor="start" x="774" y="-10.5" font-family="Arial" font-size="10.00">name </text>
<text text-anchor="start" x="812" y="-10.5" font-family="Arial Italic" font-size="10.00" fill="#999999">string ∗ U</text>
</g>
<!-- m_Category&#45;&gt;m_SubCategory -->
<g id="edge9" class="edge">
<title>m_Category&#45;&gt;m_SubCategory</title>
<path fill="none" stroke="black" d="M872,-93.2C872,-84.65 872,-75.07 872,-66"/>
<polygon fill="black" stroke="black" points="875.15,-65.78 872,-56.78 868.85,-65.78 875.15,-65.78"/>
</g>
<!-- m_JwtBlacklist -->
<g id="node5" class="node">
<title>m_JwtBlacklist</title>
<path fill="none" stroke="black" d="M645,-606.5C645,-606.5 765,-606.5 765,-606.5 771,-606.5 777,-612.5 777,-618.5 777,-618.5 777,-650.5 777,-650.5 777,-656.5 771,-662.5 765,-662.5 765,-662.5 645,-662.5 645,-662.5 639,-662.5 633,-656.5 633,-650.5 633,-650.5 633,-618.5 633,-618.5 633,-612.5 639,-606.5 645,-606.5"/>
<text text-anchor="start" x="657.5" y="-649.7" font-family="Arial Bold" font-size="11.00">JwtBlacklist</text>
<polyline fill="none" stroke="black" points="633,-642.5 777,-642.5 "/>
<text text-anchor="start" x="640" y="-629.5" font-family="Arial" font-size="10.00">exp </text>
<text text-anchor="start" x="671" y="-629.5" font-family="Arial Italic" font-size="10.00" fill="#999999">datetime</text>
<text text-anchor="start" x="640" y="-616.5" font-family="Arial" font-size="10.00">jti </text>
<text text-anchor="start" x="671" y="-616.5" font-family="Arial Italic" font-size="10.00" fill="#999999">string</text>
</g>
<!-- m_Objective -->
<g id="node6" class="node">
<title>m_Objective</title>
<path fill="none" stroke="black" d="M550.5,-186.5C550.5,-186.5 729.5,-186.5 729.5,-186.5 735.5,-186.5 741.5,-192.5 741.5,-198.5 741.5,-198.5 741.5,-412.5 741.5,-412.5 741.5,-418.5 735.5,-424.5 729.5,-424.5 729.5,-424.5 550.5,-424.5 550.5,-424.5 544.5,-424.5 538.5,-418.5 538.5,-412.5 538.5,-412.5 538.5,-198.5 538.5,-198.5 538.5,-192.5 544.5,-186.5 550.5,-186.5"/>
<text text-anchor="start" x="604" y="-411.7" font-family="Arial Bold" font-size="11.00">Objective</text>
<polyline fill="none" stroke="black" points="538.5,-404.5 741.5,-404.5 "/>
<text text-anchor="start" x="546" y="-391.5" font-family="Arial" font-size="10.00">alternatives </text>
<text text-anchor="start" x="644" y="-391.5" font-family="Arial Italic" font-size="10.00" fill="#999999">jsonb</text>
<text text-anchor="start" x="546" y="-378.5" font-family="Arial" font-size="10.00">authorship_year </text>
<text text-anchor="start" x="667" y="-378.5" font-family="Arial Italic" font-size="10.00" fill="#999999">string</text>
<text text-anchor="start" x="546" y="-365.5" font-family="Arial" font-size="10.00">bloom_taxonomy </text>
<text text-anchor="start" x="659" y="-365.5" font-family="Arial Italic" font-size="10.00" fill="#999999">string</text>
<text text-anchor="start" x="546" y="-352.5" font-family="Arial" font-size="10.00">body </text>
<text text-anchor="start" x="584" y="-352.5" font-family="Arial Italic" font-size="10.00" fill="#999999">text</text>
<text text-anchor="start" x="546" y="-339.5" font-family="Arial" font-size="10.00">check_type </text>
<text text-anchor="start" x="629" y="-339.5" font-family="Arial Italic" font-size="10.00" fill="#999999">string</text>
<text text-anchor="start" x="546" y="-326.5" font-family="Arial" font-size="10.00">difficulty </text>
<text text-anchor="start" x="629" y="-326.5" font-family="Arial Italic" font-size="10.00" fill="#999999">string</text>
<text text-anchor="start" x="546" y="-313.5" font-family="Arial" font-size="10.00">explanation </text>
<text text-anchor="start" x="637" y="-313.5" font-family="Arial Italic" font-size="10.00" fill="#999999">text</text>
<text text-anchor="start" x="546" y="-300.5" font-family="Arial" font-size="10.00">instruction </text>
<text text-anchor="start" x="637" y="-300.5" font-family="Arial Italic" font-size="10.00" fill="#999999">text</text>
<text text-anchor="start" x="546" y="-287.5" font-family="Arial" font-size="10.00">introduction </text>
<text text-anchor="start" x="644" y="-287.5" font-family="Arial Italic" font-size="10.00" fill="#999999">string</text>
<text text-anchor="start" x="546" y="-274.5" font-family="Arial" font-size="10.00">own </text>
<text text-anchor="start" x="577" y="-274.5" font-family="Arial Italic" font-size="10.00" fill="#999999">boolean</text>
<text text-anchor="start" x="546" y="-261.5" font-family="Arial" font-size="10.00">references </text>
<text text-anchor="start" x="629" y="-261.5" font-family="Arial Italic" font-size="10.00" fill="#999999">text</text>
<text text-anchor="start" x="546" y="-248.5" font-family="Arial" font-size="10.00">source </text>
<text text-anchor="start" x="599" y="-248.5" font-family="Arial Italic" font-size="10.00" fill="#999999">string</text>
<text text-anchor="start" x="546" y="-235.5" font-family="Arial" font-size="10.00">status </text>
<text text-anchor="start" x="599" y="-235.5" font-family="Arial Italic" font-size="10.00" fill="#999999">string ∗</text>
<text text-anchor="start" x="546" y="-222.5" font-family="Arial" font-size="10.00">subject_id </text>
<text text-anchor="start" x="629" y="-222.5" font-family="Arial Italic" font-size="10.00" fill="#999999">integer (8) FK</text>
<text text-anchor="start" x="546" y="-209.5" font-family="Arial" font-size="10.00">support </text>
<text text-anchor="start" x="607" y="-209.5" font-family="Arial Italic" font-size="10.00" fill="#999999">text</text>
<text text-anchor="start" x="546" y="-196.5" font-family="Arial" font-size="10.00">user_id </text>
<text text-anchor="start" x="607" y="-196.5" font-family="Arial Italic" font-size="10.00" fill="#999999">integer (8) FK</text>
</g>
<!-- m_ReviewRequest -->
<g id="node7" class="node">
<title>m_ReviewRequest</title>
<path fill="none" stroke="black" d="M460.5,-93.5C460.5,-93.5 669.5,-93.5 669.5,-93.5 675.5,-93.5 681.5,-99.5 681.5,-105.5 681.5,-105.5 681.5,-137.5 681.5,-137.5 681.5,-143.5 675.5,-149.5 669.5,-149.5 669.5,-149.5 460.5,-149.5 460.5,-149.5 454.5,-149.5 448.5,-143.5 448.5,-137.5 448.5,-137.5 448.5,-105.5 448.5,-105.5 448.5,-99.5 454.5,-93.5 460.5,-93.5"/>
<text text-anchor="start" x="514" y="-136.7" font-family="Arial Bold" font-size="11.00">ReviewRequest</text>
<polyline fill="none" stroke="black" points="448.5,-129.5 681.5,-129.5 "/>
<text text-anchor="start" x="456" y="-116.5" font-family="Arial" font-size="10.00">objective_id </text>
<text text-anchor="start" x="554" y="-116.5" font-family="Arial Italic" font-size="10.00" fill="#999999">integer (8) ∗ FK</text>
<text text-anchor="start" x="456" y="-103.5" font-family="Arial" font-size="10.00">user_id </text>
<text text-anchor="start" x="517" y="-103.5" font-family="Arial Italic" font-size="10.00" fill="#999999">integer (8) ∗ FK</text>
</g>
<!-- m_Objective&#45;&gt;m_ReviewRequest -->
<g id="edge12" class="edge">
<title>m_Objective&#45;&gt;m_ReviewRequest</title>
<path fill="none" stroke="black" d="M591.34,-186.41C587.17,-176.3 583.21,-166.68 579.68,-158.12"/>
<polygon fill="black" stroke="black" points="582.51,-156.72 576.17,-149.6 576.68,-159.12 582.51,-156.72"/>
</g>
<!-- m_Role -->
<g id="node8" class="node">
<title>m_Role</title>
<path fill="none" stroke="black" d="M472,-613C472,-613 592,-613 592,-613 598,-613 604,-619 604,-625 604,-625 604,-644 604,-644 604,-650 598,-656 592,-656 592,-656 472,-656 472,-656 466,-656 460,-650 460,-644 460,-644 460,-625 460,-625 460,-619 466,-613 472,-613"/>
<text text-anchor="start" x="514.5" y="-643.2" font-family="Arial Bold" font-size="11.00">Role</text>
<polyline fill="none" stroke="black" points="460,-636 604,-636 "/>
<text text-anchor="start" x="467" y="-622.5" font-family="Arial" font-size="10.00">name </text>
<text text-anchor="start" x="505" y="-622.5" font-family="Arial Italic" font-size="10.00" fill="#999999">string ∗ U</text>
</g>
<!-- m_User -->
<g id="node12" class="node">
<title>m_User</title>
<path fill="none" stroke="black" d="M420,-461.5C420,-461.5 644,-461.5 644,-461.5 650,-461.5 656,-467.5 656,-473.5 656,-473.5 656,-557.5 656,-557.5 656,-563.5 650,-569.5 644,-569.5 644,-569.5 420,-569.5 420,-569.5 414,-569.5 408,-563.5 408,-557.5 408,-557.5 408,-473.5 408,-473.5 408,-467.5 414,-461.5 420,-461.5"/>
<text text-anchor="start" x="514.5" y="-556.7" font-family="Arial Bold" font-size="11.00">User</text>
<polyline fill="none" stroke="black" points="408,-549.5 656,-549.5 "/>
<text text-anchor="start" x="415" y="-536.5" font-family="Arial" font-size="10.00">email </text>
<text text-anchor="start" x="461" y="-536.5" font-family="Arial Italic" font-size="10.00" fill="#999999">string ∗ U</text>
<text text-anchor="start" x="415" y="-523.5" font-family="Arial" font-size="10.00">encrypted_password </text>
<text text-anchor="start" x="558" y="-523.5" font-family="Arial Italic" font-size="10.00" fill="#999999">string ∗</text>
<text text-anchor="start" x="415" y="-510.5" font-family="Arial" font-size="10.00">name </text>
<text text-anchor="start" x="453" y="-510.5" font-family="Arial Italic" font-size="10.00" fill="#999999">string</text>
<text text-anchor="start" x="415" y="-497.5" font-family="Arial" font-size="10.00">remember_created_at </text>
<text text-anchor="start" x="566" y="-497.5" font-family="Arial Italic" font-size="10.00" fill="#999999">datetime</text>
<text text-anchor="start" x="415" y="-484.5" font-family="Arial" font-size="10.00">reset_password_sent_at </text>
<text text-anchor="start" x="588" y="-484.5" font-family="Arial Italic" font-size="10.00" fill="#999999">datetime</text>
<text text-anchor="start" x="415" y="-471.5" font-family="Arial" font-size="10.00">reset_password_token </text>
<text text-anchor="start" x="573" y="-471.5" font-family="Arial Italic" font-size="10.00" fill="#999999">string</text>
</g>
<!-- m_Role&#45;&gt;m_User -->
<g id="edge6" class="edge">
<title>m_Role&#45;&gt;m_User</title>
<path fill="none" stroke="black" d="M532,-603.8C532,-596.07 532,-587.45 532,-578.71"/>
<polygon fill="black" stroke="black" points="528.85,-603.85 532,-612.85 535.15,-603.85 528.85,-603.85"/>
<polygon fill="black" stroke="black" points="535.15,-578.6 532,-569.6 528.85,-578.6 535.15,-578.6"/>
</g>
<!-- m_Subject -->
<g id="node10" class="node">
<title>m_Subject</title>
<path fill="none" stroke="black" d="M755,-494C755,-494 875,-494 875,-494 881,-494 887,-500 887,-506 887,-506 887,-525 887,-525 887,-531 881,-537 875,-537 875,-537 755,-537 755,-537 749,-537 743,-531 743,-525 743,-525 743,-506 743,-506 743,-500 749,-494 755,-494"/>
<text text-anchor="start" x="786.5" y="-524.2" font-family="Arial Bold" font-size="11.00">Subject</text>
<polyline fill="none" stroke="black" points="743,-517 887,-517 "/>
<text text-anchor="start" x="750" y="-503.5" font-family="Arial" font-size="10.00">name </text>
<text text-anchor="start" x="788" y="-503.5" font-family="Arial Italic" font-size="10.00" fill="#999999">string ∗ U</text>
</g>
<!-- m_Subject&#45;&gt;m_Axis -->
<g id="edge10" class="edge">
<title>m_Subject&#45;&gt;m_Axis</title>
<path fill="none" stroke="black" d="M820.67,-493.8C831.04,-455.98 853.02,-375.77 864.56,-333.64"/>
</g>
<!-- m_Subject&#45;&gt;m_Objective -->
<g id="edge11" class="edge">
<title>m_Subject&#45;&gt;m_Objective</title>
<path fill="none" stroke="black" d="M797.58,-493.8C784.6,-478.36 765.67,-455.87 745.41,-431.79"/>
<polygon fill="black" stroke="black" points="747.58,-429.47 739.38,-424.61 742.76,-433.53 747.58,-429.47"/>
</g>
<!-- m_Upload -->
<g id="node11" class="node">
<title>m_Upload</title>
<path fill="none" stroke="black" d="M247,-494C247,-494 367,-494 367,-494 373,-494 379,-500 379,-506 379,-506 379,-525 379,-525 379,-531 373,-537 367,-537 367,-537 247,-537 247,-537 241,-537 235,-531 235,-525 235,-525 235,-506 235,-506 235,-500 241,-494 247,-494"/>
<text text-anchor="start" x="282" y="-524.2" font-family="Arial Bold" font-size="11.00">Upload</text>
<polyline fill="none" stroke="black" points="235,-517 379,-517 "/>
<text text-anchor="start" x="242" y="-503.5" font-family="Arial" font-size="10.00">filename </text>
<text text-anchor="start" x="310" y="-503.5" font-family="Arial Italic" font-size="10.00" fill="#999999">string</text>
</g>
<!-- m_Upload&#45;&gt;m_ActiveStorage::Attachment -->
<g id="edge2" class="edge">
<title>m_Upload&#45;&gt;m_ActiveStorage::Attachment</title>
<path fill="none" stroke="black" d="M307,-493.8C307,-459.58 307,-390.64 307,-346.62"/>
</g>
<!-- m_User&#45;&gt;m_ActiveStorage::Attachment -->
<g id="edge3" class="edge">
<title>m_User&#45;&gt;m_ActiveStorage::Attachment</title>
<path fill="none" stroke="black" d="M474.64,-461.47C435.97,-425.73 385.76,-379.3 350.4,-346.62"/>
</g>
<!-- m_User&#45;&gt;m_ActiveStorage::Blob -->
<g id="edge4" class="edge">
<title>m_User&#45;&gt;m_ActiveStorage::Blob</title>
<path fill="none" stroke="black" stroke-dasharray="1,5" d="M433.96,-569.53C416,-577.17 397.05,-583.84 378.5,-588 316.05,-602.01 296.69,-603.1 234.5,-588 217.43,-583.86 200.11,-577.25 183.74,-569.68"/>
</g>
<!-- m_User&#45;&gt;m_Objective -->
<g id="edge5" class="edge">
<title>m_User&#45;&gt;m_Objective</title>
<path fill="none" stroke="black" d="M559.53,-461.47C564.22,-452.45 569.25,-442.75 574.44,-432.76"/>
<polygon fill="black" stroke="black" points="577.28,-434.13 578.63,-424.69 571.69,-431.23 577.28,-434.13"/>
</g>
<!-- m_User&#45;&gt;m_ReviewRequest -->
<g id="edge7" class="edge">
<title>m_User&#45;&gt;m_ReviewRequest</title>
<path fill="none" stroke="black" d="M520.92,-461.43C509.33,-395.38 496.34,-279.85 524,-186 526.96,-175.97 532.04,-166.04 537.65,-157.11"/>
<polygon fill="black" stroke="black" points="540.32,-158.78 542.67,-149.54 535.07,-155.3 540.32,-158.78"/>
</g>
</g>
</svg>
