<?xml version="1.0" encoding="UTF-8" standalone="no"?>
<!DOCTYPE svg PUBLIC "-//W3C//DTD SVG 1.1//EN"
 "http://www.w3.org/Graphics/SVG/1.1/DTD/svg11.dtd">
<!-- Generated by graphviz version 2.44.0 ()
 -->
<!-- Title: ProgressTest Pages: 1 -->
<svg width="1224pt" height="784pt"
 viewBox="0.00 0.00 1223.60 783.60" xmlns="http://www.w3.org/2000/svg" xmlns:xlink="http://www.w3.org/1999/xlink">
<g id="graph0" class="graph" transform="scale(1 1) rotate(0) translate(28.8 754.8)">
<title>ProgressTest</title>
<polygon fill="white" stroke="transparent" points="-28.8,28.8 -28.8,-754.8 1194.8,-754.8 1194.8,28.8 -28.8,28.8"/>
<text text-anchor="middle" x="583" y="-711.6" font-family="Arial Bold" font-size="13.00">Progress Test &#45; Models</text>
<!-- m_ActiveStorage::Attachment -->
<g id="node1" class="node">
<title>m_ActiveStorage::Attachment</title>
<path fill="none" stroke="black" d="M213.5,-290.5C213.5,-290.5 400.5,-290.5 400.5,-290.5 406.5,-290.5 412.5,-296.5 412.5,-302.5 412.5,-302.5 412.5,-360.5 412.5,-360.5 412.5,-366.5 406.5,-372.5 400.5,-372.5 400.5,-372.5 213.5,-372.5 213.5,-372.5 207.5,-372.5 201.5,-366.5 201.5,-360.5 201.5,-360.5 201.5,-302.5 201.5,-302.5 201.5,-296.5 207.5,-290.5 213.5,-290.5"/>
<text text-anchor="start" x="213" y="-359.7" font-family="Arial Bold" font-size="11.00">ActiveStorage::Attachment</text>
<polyline fill="none" stroke="black" points="201.5,-352.5 412.5,-352.5 "/>
<text text-anchor="start" x="209" y="-339.5" font-family="Arial" font-size="10.00">blob_id </text>
<text text-anchor="start" x="270" y="-339.5" font-family="Arial Italic" font-size="10.00" fill="#999999">integer (8) ∗ FK</text>
<text text-anchor="start" x="209" y="-326.5" font-family="Arial" font-size="10.00">name </text>
<text text-anchor="start" x="247" y="-326.5" font-family="Arial Italic" font-size="10.00" fill="#999999">string ∗</text>
<text text-anchor="start" x="209" y="-313.5" font-family="Arial" font-size="10.00">record_id </text>
<text text-anchor="start" x="285" y="-313.5" font-family="Arial Italic" font-size="10.00" fill="#999999">integer (8) ∗ FK</text>
<text text-anchor="start" x="209" y="-300.5" font-family="Arial" font-size="10.00">record_type </text>
<text text-anchor="start" x="300" y="-300.5" font-family="Arial Italic" font-size="10.00" fill="#999999">string ∗</text>
</g>
<!-- m_ActiveStorage::Blob -->
<g id="node2" class="node">
<title>m_ActiveStorage::Blob</title>
<path fill="none" stroke="black" d="M12,-487.5C12,-487.5 176,-487.5 176,-487.5 182,-487.5 188,-493.5 188,-499.5 188,-499.5 188,-583.5 188,-583.5 188,-589.5 182,-595.5 176,-595.5 176,-595.5 12,-595.5 12,-595.5 6,-595.5 0,-589.5 0,-583.5 0,-583.5 0,-499.5 0,-499.5 0,-493.5 6,-487.5 12,-487.5"/>
<text text-anchor="start" x="23" y="-582.7" font-family="Arial Bold" font-size="11.00">ActiveStorage::Blob</text>
<polyline fill="none" stroke="black" points="0,-575.5 188,-575.5 "/>
<text text-anchor="start" x="7" y="-562.5" font-family="Arial" font-size="10.00">byte_size </text>
<text text-anchor="start" x="83" y="-562.5" font-family="Arial Italic" font-size="10.00" fill="#999999">integer (8) ∗</text>
<text text-anchor="start" x="7" y="-549.5" font-family="Arial" font-size="10.00">checksum </text>
<text text-anchor="start" x="75" y="-549.5" font-family="Arial Italic" font-size="10.00" fill="#999999">string ∗</text>
<text text-anchor="start" x="7" y="-536.5" font-family="Arial" font-size="10.00">content_type </text>
<text text-anchor="start" x="105" y="-536.5" font-family="Arial Italic" font-size="10.00" fill="#999999">string</text>
<text text-anchor="start" x="7" y="-523.5" font-family="Arial" font-size="10.00">filename </text>
<text text-anchor="start" x="75" y="-523.5" font-family="Arial Italic" font-size="10.00" fill="#999999">string ∗</text>
<text text-anchor="start" x="7" y="-510.5" font-family="Arial" font-size="10.00">key </text>
<text text-anchor="start" x="38" y="-510.5" font-family="Arial Italic" font-size="10.00" fill="#999999">string ∗</text>
<text text-anchor="start" x="7" y="-497.5" font-family="Arial" font-size="10.00">metadata </text>
<text text-anchor="start" x="75" y="-497.5" font-family="Arial Italic" font-size="10.00" fill="#999999">text</text>
</g>
<!-- m_ActiveStorage::Blob&#45;&gt;m_ActiveStorage::Attachment -->
<g id="edge4" class="edge">
<title>m_ActiveStorage::Blob&#45;&gt;m_ActiveStorage::Attachment</title>
<path fill="none" stroke="black" d="M148.3,-487.47C184.91,-451.73 232.45,-405.3 265.91,-372.62"/>
</g>
<!-- m_ActiveStorage::Blob&#45;&gt;m_ActiveStorage::Blob -->
<g id="edge17" class="edge">
<title>m_ActiveStorage::Blob&#45;&gt;m_ActiveStorage::Blob</title>
<path fill="none" stroke="black" stroke-dasharray="1,5" d="M188.11,-562.37C205.11,-559.69 217,-552.74 217,-541.5 217,-530.26 205.11,-523.31 188.11,-520.63"/>
</g>
<!-- m_Axis -->
<g id="node3" class="node">
<title>m_Axis</title>
<path fill="none" stroke="black" d="M688,-639C688,-639 808,-639 808,-639 814,-639 820,-645 820,-651 820,-651 820,-670 820,-670 820,-676 814,-682 808,-682 808,-682 688,-682 688,-682 682,-682 676,-676 676,-670 676,-670 676,-651 676,-651 676,-645 682,-639 688,-639"/>
<text text-anchor="start" x="730.5" y="-669.2" font-family="Arial Bold" font-size="11.00">Axis</text>
<polyline fill="none" stroke="black" points="676,-662 820,-662 "/>
<text text-anchor="start" x="683" y="-648.5" font-family="Arial" font-size="10.00">name </text>
<text text-anchor="start" x="721" y="-648.5" font-family="Arial Italic" font-size="10.00" fill="#999999">string ∗ U</text>
</g>
<!-- m_Subject -->
<g id="node10" class="node">
<title>m_Subject</title>
<path fill="none" stroke="black" d="M697.5,-507C697.5,-507 884.5,-507 884.5,-507 890.5,-507 896.5,-513 896.5,-519 896.5,-519 896.5,-564 896.5,-564 896.5,-570 890.5,-576 884.5,-576 884.5,-576 697.5,-576 697.5,-576 691.5,-576 685.5,-570 685.5,-564 685.5,-564 685.5,-519 685.5,-519 685.5,-513 691.5,-507 697.5,-507"/>
<text text-anchor="start" x="762.5" y="-563.2" font-family="Arial Bold" font-size="11.00">Subject</text>
<polyline fill="none" stroke="black" points="685.5,-556 896.5,-556 "/>
<text text-anchor="start" x="693" y="-542.5" font-family="Arial" font-size="10.00">axis_id </text>
<text text-anchor="start" x="754" y="-542.5" font-family="Arial Italic" font-size="10.00" fill="#999999">integer (8) FK</text>
<text text-anchor="start" x="693" y="-529.5" font-family="Arial" font-size="10.00">category_id </text>
<text text-anchor="start" x="784" y="-529.5" font-family="Arial Italic" font-size="10.00" fill="#999999">integer (8) FK</text>
<text text-anchor="start" x="693" y="-516.5" font-family="Arial" font-size="10.00">name </text>
<text text-anchor="start" x="731" y="-516.5" font-family="Arial Italic" font-size="10.00" fill="#999999">string ∗ U</text>
</g>
<!-- m_Axis&#45;&gt;m_Subject -->
<g id="edge13" class="edge">
<title>m_Axis&#45;&gt;m_Subject</title>
<path fill="none" stroke="black" d="M755.59,-638.85C761.06,-623.97 768.63,-603.36 775.37,-585.01"/>
<polygon fill="black" stroke="black" points="778.46,-585.76 778.6,-576.23 772.54,-583.59 778.46,-585.76"/>
</g>
<!-- m_Category -->
<g id="node4" class="node">
<title>m_Category</title>
<path fill="none" stroke="black" d="M861,-639C861,-639 981,-639 981,-639 987,-639 993,-645 993,-651 993,-651 993,-670 993,-670 993,-676 987,-682 981,-682 981,-682 861,-682 861,-682 855,-682 849,-676 849,-670 849,-670 849,-651 849,-651 849,-645 855,-639 861,-639"/>
<text text-anchor="start" x="888.5" y="-669.2" font-family="Arial Bold" font-size="11.00">Category</text>
<polyline fill="none" stroke="black" points="849,-662 993,-662 "/>
<text text-anchor="start" x="856" y="-648.5" font-family="Arial" font-size="10.00">name </text>
<text text-anchor="start" x="894" y="-648.5" font-family="Arial Italic" font-size="10.00" fill="#999999">string ∗ U</text>
</g>
<!-- m_Category&#45;&gt;m_Subject -->
<g id="edge14" class="edge">
<title>m_Category&#45;&gt;m_Subject</title>
<path fill="none" stroke="black" d="M898.06,-638.85C880.69,-623.22 856.31,-601.28 835.2,-582.28"/>
<polygon fill="black" stroke="black" points="837.27,-579.91 828.48,-576.23 833.06,-584.59 837.27,-579.91"/>
</g>
<!-- m_JwtBlacklist -->
<g id="node5" class="node">
<title>m_JwtBlacklist</title>
<path fill="none" stroke="black" d="M1034,-632.5C1034,-632.5 1154,-632.5 1154,-632.5 1160,-632.5 1166,-638.5 1166,-644.5 1166,-644.5 1166,-676.5 1166,-676.5 1166,-682.5 1160,-688.5 1154,-688.5 1154,-688.5 1034,-688.5 1034,-688.5 1028,-688.5 1022,-682.5 1022,-676.5 1022,-676.5 1022,-644.5 1022,-644.5 1022,-638.5 1028,-632.5 1034,-632.5"/>
<text text-anchor="start" x="1046.5" y="-675.7" font-family="Arial Bold" font-size="11.00">JwtBlacklist</text>
<polyline fill="none" stroke="black" points="1022,-668.5 1166,-668.5 "/>
<text text-anchor="start" x="1029" y="-655.5" font-family="Arial" font-size="10.00">exp </text>
<text text-anchor="start" x="1060" y="-655.5" font-family="Arial Italic" font-size="10.00" fill="#999999">datetime</text>
<text text-anchor="start" x="1029" y="-642.5" font-family="Arial" font-size="10.00">jti </text>
<text text-anchor="start" x="1060" y="-642.5" font-family="Arial Italic" font-size="10.00" fill="#999999">string</text>
</g>
<!-- m_Question -->
<g id="node6" class="node">
<title>m_Question</title>
<path fill="none" stroke="black" d="M647.5,-212.5C647.5,-212.5 826.5,-212.5 826.5,-212.5 832.5,-212.5 838.5,-218.5 838.5,-224.5 838.5,-224.5 838.5,-438.5 838.5,-438.5 838.5,-444.5 832.5,-450.5 826.5,-450.5 826.5,-450.5 647.5,-450.5 647.5,-450.5 641.5,-450.5 635.5,-444.5 635.5,-438.5 635.5,-438.5 635.5,-224.5 635.5,-224.5 635.5,-218.5 641.5,-212.5 647.5,-212.5"/>
<text text-anchor="start" x="704.5" y="-437.7" font-family="Arial Bold" font-size="11.00">Question</text>
<polyline fill="none" stroke="black" points="635.5,-430.5 838.5,-430.5 "/>
<text text-anchor="start" x="643" y="-417.5" font-family="Arial" font-size="10.00">alternatives </text>
<text text-anchor="start" x="741" y="-417.5" font-family="Arial Italic" font-size="10.00" fill="#999999">jsonb ∗</text>
<text text-anchor="start" x="643" y="-404.5" font-family="Arial" font-size="10.00">authorship_year </text>
<text text-anchor="start" x="764" y="-404.5" font-family="Arial Italic" font-size="10.00" fill="#999999">string</text>
<text text-anchor="start" x="643" y="-391.5" font-family="Arial" font-size="10.00">bloom_taxonomy </text>
<text text-anchor="start" x="756" y="-391.5" font-family="Arial Italic" font-size="10.00" fill="#999999">string</text>
<text text-anchor="start" x="643" y="-378.5" font-family="Arial" font-size="10.00">body </text>
<text text-anchor="start" x="681" y="-378.5" font-family="Arial Italic" font-size="10.00" fill="#999999">text</text>
<text text-anchor="start" x="643" y="-365.5" font-family="Arial" font-size="10.00">check_type </text>
<text text-anchor="start" x="726" y="-365.5" font-family="Arial Italic" font-size="10.00" fill="#999999">string</text>
<text text-anchor="start" x="643" y="-352.5" font-family="Arial" font-size="10.00">difficulty </text>
<text text-anchor="start" x="726" y="-352.5" font-family="Arial Italic" font-size="10.00" fill="#999999">string</text>
<text text-anchor="start" x="643" y="-339.5" font-family="Arial" font-size="10.00">explanation </text>
<text text-anchor="start" x="734" y="-339.5" font-family="Arial Italic" font-size="10.00" fill="#999999">text</text>
<text text-anchor="start" x="643" y="-326.5" font-family="Arial" font-size="10.00">instruction </text>
<text text-anchor="start" x="734" y="-326.5" font-family="Arial Italic" font-size="10.00" fill="#999999">text</text>
<text text-anchor="start" x="643" y="-313.5" font-family="Arial" font-size="10.00">introduction </text>
<text text-anchor="start" x="741" y="-313.5" font-family="Arial Italic" font-size="10.00" fill="#999999">string</text>
<text text-anchor="start" x="643" y="-300.5" font-family="Arial" font-size="10.00">references </text>
<text text-anchor="start" x="726" y="-300.5" font-family="Arial Italic" font-size="10.00" fill="#999999">text</text>
<text text-anchor="start" x="643" y="-287.5" font-family="Arial" font-size="10.00">source </text>
<text text-anchor="start" x="696" y="-287.5" font-family="Arial Italic" font-size="10.00" fill="#999999">string</text>
<text text-anchor="start" x="643" y="-274.5" font-family="Arial" font-size="10.00">status </text>
<text text-anchor="start" x="696" y="-274.5" font-family="Arial Italic" font-size="10.00" fill="#999999">string ∗</text>
<text text-anchor="start" x="643" y="-261.5" font-family="Arial" font-size="10.00">subject_id </text>
<text text-anchor="start" x="726" y="-261.5" font-family="Arial Italic" font-size="10.00" fill="#999999">integer (8) FK</text>
<text text-anchor="start" x="643" y="-248.5" font-family="Arial" font-size="10.00">support </text>
<text text-anchor="start" x="704" y="-248.5" font-family="Arial Italic" font-size="10.00" fill="#999999">text</text>
<text text-anchor="start" x="643" y="-235.5" font-family="Arial" font-size="10.00">user_id </text>
<text text-anchor="start" x="704" y="-235.5" font-family="Arial Italic" font-size="10.00" fill="#999999">integer (8) FK</text>
<text text-anchor="start" x="643" y="-222.5" font-family="Arial" font-size="10.00">uuid </text>
<text text-anchor="start" x="681" y="-222.5" font-family="Arial Italic" font-size="10.00" fill="#999999">uuid ∗</text>
</g>
<!-- m_ReviewFeedback -->
<g id="node7" class="node">
<title>m_ReviewFeedback</title>
<path fill="none" stroke="black" d="M511.5,-0.5C511.5,-0.5 758.5,-0.5 758.5,-0.5 764.5,-0.5 770.5,-6.5 770.5,-12.5 770.5,-12.5 770.5,-57.5 770.5,-57.5 770.5,-63.5 764.5,-69.5 758.5,-69.5 758.5,-69.5 511.5,-69.5 511.5,-69.5 505.5,-69.5 499.5,-63.5 499.5,-57.5 499.5,-57.5 499.5,-12.5 499.5,-12.5 499.5,-6.5 505.5,-0.5 511.5,-0.5"/>
<text text-anchor="start" x="580" y="-56.7" font-family="Arial Bold" font-size="11.00">ReviewFeedback</text>
<polyline fill="none" stroke="black" points="499.5,-49.5 770.5,-49.5 "/>
<text text-anchor="start" x="507" y="-36" font-family="Arial" font-size="10.00">comment </text>
<text text-anchor="start" x="568" y="-36" font-family="Arial Italic" font-size="10.00" fill="#999999">text</text>
<text text-anchor="start" x="507" y="-23" font-family="Arial" font-size="10.00">review_request_id </text>
<text text-anchor="start" x="643" y="-23" font-family="Arial Italic" font-size="10.00" fill="#999999">integer (8) ∗ FK</text>
<text text-anchor="start" x="507" y="-10" font-family="Arial" font-size="10.00">status </text>
<text text-anchor="start" x="560" y="-10" font-family="Arial Italic" font-size="10.00" fill="#999999">string</text>
</g>
<!-- m_Question&#45;&gt;m_ReviewFeedback -->
<g id="edge12" class="edge">
<title>m_Question&#45;&gt;m_ReviewFeedback</title>
<path fill="none" stroke="black" stroke-dasharray="1,5" d="M635.41,-289.77C587.25,-264.69 534.37,-227.37 507,-176 492.37,-148.54 491.13,-132.76 507,-106 514.33,-93.64 524.69,-83.32 536.39,-74.75"/>
<polygon fill="black" stroke="black" points="538.2,-77.32 543.83,-69.63 534.63,-72.13 538.2,-77.32"/>
</g>
<!-- m_ReviewRequest -->
<g id="node8" class="node">
<title>m_ReviewRequest</title>
<path fill="none" stroke="black" d="M534,-106.5C534,-106.5 736,-106.5 736,-106.5 742,-106.5 748,-112.5 748,-118.5 748,-118.5 748,-163.5 748,-163.5 748,-169.5 742,-175.5 736,-175.5 736,-175.5 534,-175.5 534,-175.5 528,-175.5 522,-169.5 522,-163.5 522,-163.5 522,-118.5 522,-118.5 522,-112.5 528,-106.5 534,-106.5"/>
<text text-anchor="start" x="584" y="-162.7" font-family="Arial Bold" font-size="11.00">ReviewRequest</text>
<polyline fill="none" stroke="black" points="522,-155.5 748,-155.5 "/>
<text text-anchor="start" x="529" y="-142" font-family="Arial" font-size="10.00">answered </text>
<text text-anchor="start" x="597" y="-142" font-family="Arial Italic" font-size="10.00" fill="#999999">boolean ∗</text>
<text text-anchor="start" x="529" y="-129" font-family="Arial" font-size="10.00">question_id </text>
<text text-anchor="start" x="620" y="-129" font-family="Arial Italic" font-size="10.00" fill="#999999">integer (8) ∗ FK</text>
<text text-anchor="start" x="529" y="-116" font-family="Arial" font-size="10.00">user_id </text>
<text text-anchor="start" x="590" y="-116" font-family="Arial Italic" font-size="10.00" fill="#999999">integer (8) ∗ FK</text>
</g>
<!-- m_Question&#45;&gt;m_ReviewRequest -->
<g id="edge11" class="edge">
<title>m_Question&#45;&gt;m_ReviewRequest</title>
<path fill="none" stroke="black" d="M673.13,-212.46C667.65,-202.34 662.39,-192.61 657.61,-183.78"/>
<polygon fill="black" stroke="black" points="660.24,-182.03 653.19,-175.61 654.7,-185.02 660.24,-182.03"/>
</g>
<!-- m_User -->
<g id="node12" class="node">
<title>m_User</title>
<path fill="none" stroke="black" d="M420,-487.5C420,-487.5 644,-487.5 644,-487.5 650,-487.5 656,-493.5 656,-499.5 656,-499.5 656,-583.5 656,-583.5 656,-589.5 650,-595.5 644,-595.5 644,-595.5 420,-595.5 420,-595.5 414,-595.5 408,-589.5 408,-583.5 408,-583.5 408,-499.5 408,-499.5 408,-493.5 414,-487.5 420,-487.5"/>
<text text-anchor="start" x="514.5" y="-582.7" font-family="Arial Bold" font-size="11.00">User</text>
<polyline fill="none" stroke="black" points="408,-575.5 656,-575.5 "/>
<text text-anchor="start" x="415" y="-562.5" font-family="Arial" font-size="10.00">email </text>
<text text-anchor="start" x="461" y="-562.5" font-family="Arial Italic" font-size="10.00" fill="#999999">string ∗ U</text>
<text text-anchor="start" x="415" y="-549.5" font-family="Arial" font-size="10.00">encrypted_password </text>
<text text-anchor="start" x="558" y="-549.5" font-family="Arial Italic" font-size="10.00" fill="#999999">string ∗</text>
<text text-anchor="start" x="415" y="-536.5" font-family="Arial" font-size="10.00">name </text>
<text text-anchor="start" x="453" y="-536.5" font-family="Arial Italic" font-size="10.00" fill="#999999">string ∗</text>
<text text-anchor="start" x="415" y="-523.5" font-family="Arial" font-size="10.00">remember_created_at </text>
<text text-anchor="start" x="566" y="-523.5" font-family="Arial Italic" font-size="10.00" fill="#999999">datetime</text>
<text text-anchor="start" x="415" y="-510.5" font-family="Arial" font-size="10.00">reset_password_sent_at </text>
<text text-anchor="start" x="588" y="-510.5" font-family="Arial Italic" font-size="10.00" fill="#999999">datetime</text>
<text text-anchor="start" x="415" y="-497.5" font-family="Arial" font-size="10.00">reset_password_token </text>
<text text-anchor="start" x="573" y="-497.5" font-family="Arial Italic" font-size="10.00" fill="#999999">string</text>
</g>
<!-- m_ReviewFeedback&#45;&gt;m_User -->
<g id="edge9" class="edge">
<title>m_ReviewFeedback&#45;&gt;m_User</title>
<path fill="none" stroke="black" stroke-dasharray="1,5" d="M543.83,-69.63C529.13,-79.13 515.85,-91.08 507,-106 435.52,-226.56 480.76,-400.54 511.09,-487.22"/>
</g>
<!-- m_ReviewRequest&#45;&gt;m_ReviewFeedback -->
<g id="edge8" class="edge">
<title>m_ReviewRequest&#45;&gt;m_ReviewFeedback</title>
<path fill="none" stroke="black" d="M635,-106.23C635,-97.43 635,-87.82 635,-78.62"/>
<polygon fill="black" stroke="black" points="638.15,-78.6 635,-69.6 631.85,-78.6 638.15,-78.6"/>
</g>
<!-- m_Role -->
<g id="node9" class="node">
<title>m_Role</title>
<path fill="none" stroke="black" d="M472,-639C472,-639 592,-639 592,-639 598,-639 604,-645 604,-651 604,-651 604,-670 604,-670 604,-676 598,-682 592,-682 592,-682 472,-682 472,-682 466,-682 460,-676 460,-670 460,-670 460,-651 460,-651 460,-645 466,-639 472,-639"/>
<text text-anchor="start" x="514.5" y="-669.2" font-family="Arial Bold" font-size="11.00">Role</text>
<polyline fill="none" stroke="black" points="460,-662 604,-662 "/>
<text text-anchor="start" x="467" y="-648.5" font-family="Arial" font-size="10.00">name </text>
<text text-anchor="start" x="505" y="-648.5" font-family="Arial Italic" font-size="10.00" fill="#999999">string ∗ U</text>
</g>
<!-- m_Role&#45;&gt;m_User -->
<g id="edge3" class="edge">
<title>m_Role&#45;&gt;m_User</title>
<path fill="none" stroke="black" d="M532,-629.8C532,-622.07 532,-613.45 532,-604.71"/>
<polygon fill="black" stroke="black" points="528.85,-629.85 532,-638.85 535.15,-629.85 528.85,-629.85"/>
<polygon fill="black" stroke="black" points="535.15,-604.6 532,-595.6 528.85,-604.6 535.15,-604.6"/>
</g>
<!-- m_Subject&#45;&gt;m_Question -->
<g id="edge10" class="edge">
<title>m_Subject&#45;&gt;m_Question</title>
<path fill="none" stroke="black" d="M782.2,-506.62C778.72,-493.19 774.47,-476.84 770,-459.6"/>
<polygon fill="black" stroke="black" points="772.95,-458.43 767.64,-450.51 766.85,-460.01 772.95,-458.43"/>
</g>
<!-- m_Upload -->
<g id="node11" class="node">
<title>m_Upload</title>
<path fill="none" stroke="black" d="M247,-520C247,-520 367,-520 367,-520 373,-520 379,-526 379,-532 379,-532 379,-551 379,-551 379,-557 373,-563 367,-563 367,-563 247,-563 247,-563 241,-563 235,-557 235,-551 235,-551 235,-532 235,-532 235,-526 241,-520 247,-520"/>
<text text-anchor="start" x="282" y="-550.2" font-family="Arial Bold" font-size="11.00">Upload</text>
<polyline fill="none" stroke="black" points="235,-543 379,-543 "/>
<text text-anchor="start" x="242" y="-529.5" font-family="Arial" font-size="10.00">filename </text>
<text text-anchor="start" x="310" y="-529.5" font-family="Arial Italic" font-size="10.00" fill="#999999">string</text>
</g>
<!-- m_Upload&#45;&gt;m_ActiveStorage::Attachment -->
<g id="edge5" class="edge">
<title>m_Upload&#45;&gt;m_ActiveStorage::Attachment</title>
<path fill="none" stroke="black" d="M307,-519.8C307,-485.58 307,-416.64 307,-372.62"/>
</g>
<!-- m_User&#45;&gt;m_ActiveStorage::Attachment -->
<g id="edge6" class="edge">
<title>m_User&#45;&gt;m_ActiveStorage::Attachment</title>
<path fill="none" stroke="black" d="M474.64,-487.47C435.97,-451.73 385.76,-405.3 350.4,-372.62"/>
</g>
<!-- m_User&#45;&gt;m_ActiveStorage::Blob -->
<g id="edge7" class="edge">
<title>m_User&#45;&gt;m_ActiveStorage::Blob</title>
<path fill="none" stroke="black" stroke-dasharray="1,5" d="M433.96,-595.53C416,-603.17 397.05,-609.84 378.5,-614 316.05,-628.01 296.69,-629.1 234.5,-614 217.43,-609.86 200.11,-603.25 183.74,-595.68"/>
</g>
<!-- m_User&#45;&gt;m_Question -->
<g id="edge1" class="edge">
<title>m_User&#45;&gt;m_Question</title>
<path fill="none" stroke="black" d="M584.26,-487.47C597.96,-473.57 613.25,-458.06 628.72,-442.36"/>
<polygon fill="black" stroke="black" points="631.28,-444.25 635.36,-435.63 626.8,-439.83 631.28,-444.25"/>
</g>
<!-- m_User&#45;&gt;m_ReviewRequest -->
<g id="edge2" class="edge">
<title>m_User&#45;&gt;m_ReviewRequest</title>
<path fill="none" stroke="black" d="M545.78,-487.17C566.44,-407.24 605.03,-257.96 623.96,-184.73"/>
<polygon fill="black" stroke="black" points="627.07,-185.27 626.27,-175.76 620.97,-183.69 627.07,-185.27"/>
</g>
</g>
</svg>
