<?xml version="1.0" encoding="UTF-8" standalone="no"?>
<!DOCTYPE svg PUBLIC "-//W3C//DTD SVG 1.1//EN"
 "http://www.w3.org/Graphics/SVG/1.1/DTD/svg11.dtd">
<!-- Generated by graphviz version 2.44.1 (0)
 -->
<!-- Title: ProgressTest Pages: 1 -->
<svg width="930pt" height="851pt"
 viewBox="0.00 0.00 929.60 850.60" xmlns="http://www.w3.org/2000/svg" xmlns:xlink="http://www.w3.org/1999/xlink">
<g id="graph0" class="graph" transform="scale(1 1) rotate(0) translate(28.8 821.8)">
<title>ProgressTest</title>
<polygon fill="white" stroke="transparent" points="-28.8,28.8 -28.8,-821.8 900.8,-821.8 900.8,28.8 -28.8,28.8"/>
<text text-anchor="middle" x="436" y="-778.6" font-family="Arial Bold" font-size="13.00">Progress Test &#45; Models</text>
<!-- m_ActiveStorage::Attachment -->
<g id="node1" class="node">
<title>m_ActiveStorage::Attachment</title>
<path fill="none" stroke="black" d="M199,-171.5C199,-171.5 327,-171.5 327,-171.5 333,-171.5 339,-177.5 339,-183.5 339,-183.5 339,-241.5 339,-241.5 339,-247.5 333,-253.5 327,-253.5 327,-253.5 199,-253.5 199,-253.5 193,-253.5 187,-247.5 187,-241.5 187,-241.5 187,-183.5 187,-183.5 187,-177.5 193,-171.5 199,-171.5"/>
<text text-anchor="start" x="192" y="-240.7" font-family="Arial Bold" font-size="11.00">ActiveStorage::Attachment</text>
<polyline fill="none" stroke="black" points="187,-233.5 339,-233.5 "/>
<text text-anchor="start" x="198" y="-220.5" font-family="Arial" font-size="10.00">blob_id </text>
<text text-anchor="start" x="232" y="-220.5" font-family="Arial Italic" font-size="10.00" fill="#999999">integer (8) ∗ FK</text>
<text text-anchor="start" x="198" y="-207.5" font-family="Arial" font-size="10.00">name </text>
<text text-anchor="start" x="226" y="-207.5" font-family="Arial Italic" font-size="10.00" fill="#999999">string ∗</text>
<text text-anchor="start" x="198" y="-194.5" font-family="Arial" font-size="10.00">record_id </text>
<text text-anchor="start" x="241" y="-194.5" font-family="Arial Italic" font-size="10.00" fill="#999999">integer (8) ∗ FK</text>
<text text-anchor="start" x="198" y="-181.5" font-family="Arial" font-size="10.00">record_type </text>
<text text-anchor="start" x="253" y="-181.5" font-family="Arial Italic" font-size="10.00" fill="#999999">string ∗</text>
</g>
<!-- m_ActiveStorage::Blob -->
<g id="node2" class="node">
<title>m_ActiveStorage::Blob</title>
<path fill="none" stroke="black" d="M12,-368.5C12,-368.5 132,-368.5 132,-368.5 138,-368.5 144,-374.5 144,-380.5 144,-380.5 144,-464.5 144,-464.5 144,-470.5 138,-476.5 132,-476.5 132,-476.5 12,-476.5 12,-476.5 6,-476.5 0,-470.5 0,-464.5 0,-464.5 0,-380.5 0,-380.5 0,-374.5 6,-368.5 12,-368.5"/>
<text text-anchor="start" x="17" y="-463.7" font-family="Arial Bold" font-size="11.00">ActiveStorage::Blob</text>
<polyline fill="none" stroke="black" points="0,-456.5 144,-456.5 "/>
<text text-anchor="start" x="7" y="-443.5" font-family="Arial" font-size="10.00">byte_size </text>
<text text-anchor="start" x="52" y="-443.5" font-family="Arial Italic" font-size="10.00" fill="#999999">integer (8) ∗</text>
<text text-anchor="start" x="7" y="-430.5" font-family="Arial" font-size="10.00">checksum </text>
<text text-anchor="start" x="56" y="-430.5" font-family="Arial Italic" font-size="10.00" fill="#999999">string ∗</text>
<text text-anchor="start" x="7" y="-417.5" font-family="Arial" font-size="10.00">content_type </text>
<text text-anchor="start" x="67" y="-417.5" font-family="Arial Italic" font-size="10.00" fill="#999999">string</text>
<text text-anchor="start" x="7" y="-404.5" font-family="Arial" font-size="10.00">filename </text>
<text text-anchor="start" x="47" y="-404.5" font-family="Arial Italic" font-size="10.00" fill="#999999">string ∗</text>
<text text-anchor="start" x="7" y="-391.5" font-family="Arial" font-size="10.00">key </text>
<text text-anchor="start" x="26" y="-391.5" font-family="Arial Italic" font-size="10.00" fill="#999999">string ∗</text>
<text text-anchor="start" x="7" y="-378.5" font-family="Arial" font-size="10.00">metadata </text>
<text text-anchor="start" x="51" y="-378.5" font-family="Arial Italic" font-size="10.00" fill="#999999">text</text>
</g>
<!-- m_ActiveStorage::Blob&#45;&gt;m_ActiveStorage::Attachment -->
<g id="edge1" class="edge">
<title>m_ActiveStorage::Blob&#45;&gt;m_ActiveStorage::Attachment</title>
<path fill="none" stroke="black" d="M120.69,-368.47C153.52,-332.73 196.15,-286.3 226.16,-253.62"/>
</g>
<!-- m_ActiveStorage::Blob&#45;&gt;m_ActiveStorage::Blob -->
<g id="edge14" class="edge">
<title>m_ActiveStorage::Blob&#45;&gt;m_ActiveStorage::Blob</title>
<path fill="none" stroke="black" stroke-dasharray="1,5" d="M144.18,-444.14C160.79,-442.27 173,-435.06 173,-422.5 173,-409.94 160.79,-402.73 144.18,-400.86"/>
</g>
<!-- m_Axis -->
<g id="node3" class="node">
<title>m_Axis</title>
<path fill="none" stroke="black" d="M559,-513.5C559,-513.5 695,-513.5 695,-513.5 701,-513.5 707,-519.5 707,-525.5 707,-525.5 707,-557.5 707,-557.5 707,-563.5 701,-569.5 695,-569.5 695,-569.5 559,-569.5 559,-569.5 553,-569.5 547,-563.5 547,-557.5 547,-557.5 547,-525.5 547,-525.5 547,-519.5 553,-513.5 559,-513.5"/>
<text text-anchor="start" x="613" y="-556.7" font-family="Arial Bold" font-size="11.00">Axis</text>
<polyline fill="none" stroke="black" points="547,-549.5 707,-549.5 "/>
<text text-anchor="start" x="554" y="-536.5" font-family="Arial" font-size="10.00">name </text>
<text text-anchor="start" x="582" y="-536.5" font-family="Arial Italic" font-size="10.00" fill="#999999">string ∗ U</text>
<text text-anchor="start" x="554" y="-523.5" font-family="Arial" font-size="10.00">sub_category_id </text>
<text text-anchor="start" x="630" y="-523.5" font-family="Arial Italic" font-size="10.00" fill="#999999">integer (8) ∗ FK</text>
</g>
<!-- m_Subject -->
<g id="node10" class="node">
<title>m_Subject</title>
<path fill="none" stroke="black" d="M567,-394.5C567,-394.5 687,-394.5 687,-394.5 693,-394.5 699,-400.5 699,-406.5 699,-406.5 699,-438.5 699,-438.5 699,-444.5 693,-450.5 687,-450.5 687,-450.5 567,-450.5 567,-450.5 561,-450.5 555,-444.5 555,-438.5 555,-438.5 555,-406.5 555,-406.5 555,-400.5 561,-394.5 567,-394.5"/>
<text text-anchor="start" x="605" y="-437.7" font-family="Arial Bold" font-size="11.00">Subject</text>
<polyline fill="none" stroke="black" points="555,-430.5 699,-430.5 "/>
<text text-anchor="start" x="562" y="-417.5" font-family="Arial" font-size="10.00">axis_id </text>
<text text-anchor="start" x="597" y="-417.5" font-family="Arial Italic" font-size="10.00" fill="#999999">integer (8) ∗ FK</text>
<text text-anchor="start" x="562" y="-404.5" font-family="Arial" font-size="10.00">name </text>
<text text-anchor="start" x="590" y="-404.5" font-family="Arial Italic" font-size="10.00" fill="#999999">string ∗ U</text>
</g>
<!-- m_Axis&#45;&gt;m_Subject -->
<g id="edge9" class="edge">
<title>m_Axis&#45;&gt;m_Subject</title>
<path fill="none" stroke="black" d="M627,-513.36C627,-497.53 627,-477.34 627,-460.11"/>
<polygon fill="black" stroke="black" points="630.15,-459.89 627,-450.89 623.85,-459.89 630.15,-459.89"/>
</g>
<!-- m_Category -->
<g id="node4" class="node">
<title>m_Category</title>
<path fill="none" stroke="black" d="M567,-706C567,-706 687,-706 687,-706 693,-706 699,-712 699,-718 699,-718 699,-737 699,-737 699,-743 693,-749 687,-749 687,-749 567,-749 567,-749 561,-749 555,-743 555,-737 555,-737 555,-718 555,-718 555,-712 561,-706 567,-706"/>
<text text-anchor="start" x="600.5" y="-736.2" font-family="Arial Bold" font-size="11.00">Category</text>
<polyline fill="none" stroke="black" points="555,-729 699,-729 "/>
<text text-anchor="start" x="562" y="-715.5" font-family="Arial" font-size="10.00">name </text>
<text text-anchor="start" x="590" y="-715.5" font-family="Arial Italic" font-size="10.00" fill="#999999">string ∗ U</text>
</g>
<!-- m_SubCategory -->
<g id="node9" class="node">
<title>m_SubCategory</title>
<path fill="none" stroke="black" d="M567,-606.5C567,-606.5 687,-606.5 687,-606.5 693,-606.5 699,-612.5 699,-618.5 699,-618.5 699,-650.5 699,-650.5 699,-656.5 693,-662.5 687,-662.5 687,-662.5 567,-662.5 567,-662.5 561,-662.5 555,-656.5 555,-650.5 555,-650.5 555,-618.5 555,-618.5 555,-612.5 561,-606.5 567,-606.5"/>
<text text-anchor="start" x="590" y="-649.7" font-family="Arial Bold" font-size="11.00">SubCategory</text>
<polyline fill="none" stroke="black" points="555,-642.5 699,-642.5 "/>
<text text-anchor="start" x="562" y="-629.5" font-family="Arial" font-size="10.00">category_id </text>
<text text-anchor="start" x="617" y="-629.5" font-family="Arial Italic" font-size="10.00" fill="#999999">integer (8) ∗ FK</text>
<text text-anchor="start" x="562" y="-616.5" font-family="Arial" font-size="10.00">name </text>
<text text-anchor="start" x="590" y="-616.5" font-family="Arial Italic" font-size="10.00" fill="#999999">string ∗ U</text>
</g>
<!-- m_Category&#45;&gt;m_SubCategory -->
<g id="edge7" class="edge">
<title>m_Category&#45;&gt;m_SubCategory</title>
<path fill="none" stroke="black" d="M627,-705.85C627,-695.75 627,-683.3 627,-671.7"/>
<polygon fill="black" stroke="black" points="630.15,-671.63 627,-662.63 623.85,-671.63 630.15,-671.63"/>
</g>
<!-- m_JwtBlacklist -->
<g id="node5" class="node">
<title>m_JwtBlacklist</title>
<path fill="none" stroke="black" d="M740,-699.5C740,-699.5 860,-699.5 860,-699.5 866,-699.5 872,-705.5 872,-711.5 872,-711.5 872,-743.5 872,-743.5 872,-749.5 866,-755.5 860,-755.5 860,-755.5 740,-755.5 740,-755.5 734,-755.5 728,-749.5 728,-743.5 728,-743.5 728,-711.5 728,-711.5 728,-705.5 734,-699.5 740,-699.5"/>
<text text-anchor="start" x="766" y="-742.7" font-family="Arial Bold" font-size="11.00">JwtBlacklist</text>
<polyline fill="none" stroke="black" points="728,-735.5 872,-735.5 "/>
<text text-anchor="start" x="735" y="-722.5" font-family="Arial" font-size="10.00">exp </text>
<text text-anchor="start" x="754" y="-722.5" font-family="Arial Italic" font-size="10.00" fill="#999999">datetime</text>
<text text-anchor="start" x="735" y="-709.5" font-family="Arial" font-size="10.00">jti </text>
<text text-anchor="start" x="746" y="-709.5" font-family="Arial Italic" font-size="10.00" fill="#999999">string</text>
</g>
<!-- m_Objective -->
<g id="node6" class="node">
<title>m_Objective</title>
<path fill="none" stroke="black" d="M501,-93.5C501,-93.5 621,-93.5 621,-93.5 627,-93.5 633,-99.5 633,-105.5 633,-105.5 633,-319.5 633,-319.5 633,-325.5 627,-331.5 621,-331.5 621,-331.5 501,-331.5 501,-331.5 495,-331.5 489,-325.5 489,-319.5 489,-319.5 489,-105.5 489,-105.5 489,-99.5 495,-93.5 501,-93.5"/>
<text text-anchor="start" x="534.5" y="-318.7" font-family="Arial Bold" font-size="11.00">Objective</text>
<polyline fill="none" stroke="black" points="489,-311.5 633,-311.5 "/>
<text text-anchor="start" x="496" y="-298.5" font-family="Arial" font-size="10.00">alternatives </text>
<text text-anchor="start" x="549" y="-298.5" font-family="Arial Italic" font-size="10.00" fill="#999999">jsonb</text>
<text text-anchor="start" x="496" y="-285.5" font-family="Arial" font-size="10.00">authorship_year </text>
<text text-anchor="start" x="569" y="-285.5" font-family="Arial Italic" font-size="10.00" fill="#999999">string</text>
<text text-anchor="start" x="496" y="-272.5" font-family="Arial" font-size="10.00">bloom_taxonomy </text>
<text text-anchor="start" x="574" y="-272.5" font-family="Arial Italic" font-size="10.00" fill="#999999">string</text>
<text text-anchor="start" x="496" y="-259.5" font-family="Arial" font-size="10.00">body </text>
<text text-anchor="start" x="521" y="-259.5" font-family="Arial Italic" font-size="10.00" fill="#999999">text</text>
<text text-anchor="start" x="496" y="-246.5" font-family="Arial" font-size="10.00">check_type </text>
<text text-anchor="start" x="550" y="-246.5" font-family="Arial Italic" font-size="10.00" fill="#999999">string</text>
<text text-anchor="start" x="496" y="-233.5" font-family="Arial" font-size="10.00">difficulty </text>
<text text-anchor="start" x="536" y="-233.5" font-family="Arial Italic" font-size="10.00" fill="#999999">string</text>
<text text-anchor="start" x="496" y="-220.5" font-family="Arial" font-size="10.00">explanation </text>
<text text-anchor="start" x="549" y="-220.5" font-family="Arial Italic" font-size="10.00" fill="#999999">text</text>
<text text-anchor="start" x="496" y="-207.5" font-family="Arial" font-size="10.00">instruction </text>
<text text-anchor="start" x="545" y="-207.5" font-family="Arial Italic" font-size="10.00" fill="#999999">text</text>
<text text-anchor="start" x="496" y="-194.5" font-family="Arial" font-size="10.00">introduction </text>
<text text-anchor="start" x="550" y="-194.5" font-family="Arial Italic" font-size="10.00" fill="#999999">string</text>
<text text-anchor="start" x="496" y="-181.5" font-family="Arial" font-size="10.00">own </text>
<text text-anchor="start" x="518" y="-181.5" font-family="Arial Italic" font-size="10.00" fill="#999999">boolean</text>
<text text-anchor="start" x="496" y="-168.5" font-family="Arial" font-size="10.00">references </text>
<text text-anchor="start" x="545" y="-168.5" font-family="Arial Italic" font-size="10.00" fill="#999999">text</text>
<text text-anchor="start" x="496" y="-155.5" font-family="Arial" font-size="10.00">source </text>
<text text-anchor="start" x="529" y="-155.5" font-family="Arial Italic" font-size="10.00" fill="#999999">string</text>
<text text-anchor="start" x="496" y="-142.5" font-family="Arial" font-size="10.00">status </text>
<text text-anchor="start" x="527" y="-142.5" font-family="Arial Italic" font-size="10.00" fill="#999999">string ∗</text>
<text text-anchor="start" x="496" y="-129.5" font-family="Arial" font-size="10.00">subject_id </text>
<text text-anchor="start" x="544" y="-129.5" font-family="Arial Italic" font-size="10.00" fill="#999999">integer (8) FK</text>
<text text-anchor="start" x="496" y="-116.5" font-family="Arial" font-size="10.00">support </text>
<text text-anchor="start" x="533" y="-116.5" font-family="Arial Italic" font-size="10.00" fill="#999999">text</text>
<text text-anchor="start" x="496" y="-103.5" font-family="Arial" font-size="10.00">user_id </text>
<text text-anchor="start" x="531" y="-103.5" font-family="Arial Italic" font-size="10.00" fill="#999999">integer (8) FK</text>
</g>
<!-- m_ReviewRequest -->
<g id="node7" class="node">
<title>m_ReviewRequest</title>
<path fill="none" stroke="black" d="M501,-0.5C501,-0.5 621,-0.5 621,-0.5 627,-0.5 633,-6.5 633,-12.5 633,-12.5 633,-44.5 633,-44.5 633,-50.5 627,-56.5 621,-56.5 621,-56.5 501,-56.5 501,-56.5 495,-56.5 489,-50.5 489,-44.5 489,-44.5 489,-12.5 489,-12.5 489,-6.5 495,-0.5 501,-0.5"/>
<text text-anchor="start" x="518" y="-43.7" font-family="Arial Bold" font-size="11.00">ReviewRequest</text>
<polyline fill="none" stroke="black" points="489,-36.5 633,-36.5 "/>
<text text-anchor="start" x="496" y="-23.5" font-family="Arial" font-size="10.00">objective_id </text>
<text text-anchor="start" x="551" y="-23.5" font-family="Arial Italic" font-size="10.00" fill="#999999">integer (8) ∗ FK</text>
<text text-anchor="start" x="496" y="-10.5" font-family="Arial" font-size="10.00">user_id </text>
<text text-anchor="start" x="531" y="-10.5" font-family="Arial Italic" font-size="10.00" fill="#999999">integer (8) ∗ FK</text>
</g>
<!-- m_Objective&#45;&gt;m_ReviewRequest -->
<g id="edge10" class="edge">
<title>m_Objective&#45;&gt;m_ReviewRequest</title>
<path fill="none" stroke="black" d="M561,-93.41C561,-83.51 561,-74.08 561,-65.66"/>
<polygon fill="black" stroke="black" points="564.15,-65.6 561,-56.6 557.85,-65.6 564.15,-65.6"/>
</g>
<!-- m_Role -->
<g id="node8" class="node">
<title>m_Role</title>
<path fill="none" stroke="black" d="M385,-520C385,-520 505,-520 505,-520 511,-520 517,-526 517,-532 517,-532 517,-551 517,-551 517,-557 511,-563 505,-563 505,-563 385,-563 385,-563 379,-563 373,-557 373,-551 373,-551 373,-532 373,-532 373,-526 379,-520 385,-520"/>
<text text-anchor="start" x="430.5" y="-550.2" font-family="Arial Bold" font-size="11.00">Role</text>
<polyline fill="none" stroke="black" points="373,-543 517,-543 "/>
<text text-anchor="start" x="380" y="-529.5" font-family="Arial" font-size="10.00">name </text>
<text text-anchor="start" x="408" y="-529.5" font-family="Arial Italic" font-size="10.00" fill="#999999">string ∗ U</text>
</g>
<!-- m_User -->
<g id="node12" class="node">
<title>m_User</title>
<path fill="none" stroke="black" d="M376.5,-368.5C376.5,-368.5 513.5,-368.5 513.5,-368.5 519.5,-368.5 525.5,-374.5 525.5,-380.5 525.5,-380.5 525.5,-464.5 525.5,-464.5 525.5,-470.5 519.5,-476.5 513.5,-476.5 513.5,-476.5 376.5,-476.5 376.5,-476.5 370.5,-476.5 364.5,-470.5 364.5,-464.5 364.5,-464.5 364.5,-380.5 364.5,-380.5 364.5,-374.5 370.5,-368.5 376.5,-368.5"/>
<text text-anchor="start" x="430.5" y="-463.7" font-family="Arial Bold" font-size="11.00">User</text>
<polyline fill="none" stroke="black" points="364.5,-456.5 525.5,-456.5 "/>
<text text-anchor="start" x="372" y="-443.5" font-family="Arial" font-size="10.00">email </text>
<text text-anchor="start" x="399" y="-443.5" font-family="Arial Italic" font-size="10.00" fill="#999999">string ∗ U</text>
<text text-anchor="start" x="372" y="-430.5" font-family="Arial" font-size="10.00">encrypted_password </text>
<text text-anchor="start" x="466" y="-430.5" font-family="Arial Italic" font-size="10.00" fill="#999999">string ∗</text>
<text text-anchor="start" x="372" y="-417.5" font-family="Arial" font-size="10.00">name </text>
<text text-anchor="start" x="400" y="-417.5" font-family="Arial Italic" font-size="10.00" fill="#999999">string</text>
<text text-anchor="start" x="372" y="-404.5" font-family="Arial" font-size="10.00">remember_created_at </text>
<text text-anchor="start" x="470" y="-404.5" font-family="Arial Italic" font-size="10.00" fill="#999999">datetime</text>
<text text-anchor="start" x="372" y="-391.5" font-family="Arial" font-size="10.00">reset_password_sent_at </text>
<text text-anchor="start" x="481" y="-391.5" font-family="Arial Italic" font-size="10.00" fill="#999999">datetime</text>
<text text-anchor="start" x="372" y="-378.5" font-family="Arial" font-size="10.00">reset_password_token </text>
<text text-anchor="start" x="472" y="-378.5" font-family="Arial Italic" font-size="10.00" fill="#999999">string</text>
</g>
<!-- m_Role&#45;&gt;m_User -->
<g id="edge6" class="edge">
<title>m_Role&#45;&gt;m_User</title>
<path fill="none" stroke="black" d="M445,-510.8C445,-503.07 445,-494.45 445,-485.71"/>
<polygon fill="black" stroke="black" points="441.85,-510.85 445,-519.85 448.15,-510.85 441.85,-510.85"/>
<polygon fill="black" stroke="black" points="448.15,-485.6 445,-476.6 441.85,-485.6 448.15,-485.6"/>
</g>
<!-- m_SubCategory&#45;&gt;m_Axis -->
<g id="edge8" class="edge">
<title>m_SubCategory&#45;&gt;m_Axis</title>
<path fill="none" stroke="black" d="M627,-606.2C627,-597.65 627,-588.07 627,-579"/>
<polygon fill="black" stroke="black" points="630.15,-578.78 627,-569.78 623.85,-578.78 630.15,-578.78"/>
</g>
<!-- m_Subject&#45;&gt;m_Objective -->
<g id="edge12" class="edge">
<title>m_Subject&#45;&gt;m_Objective</title>
<path fill="none" stroke="black" d="M618.37,-394.31C613.75,-379.76 607.7,-360.68 601.26,-340.37"/>
<polygon fill="black" stroke="black" points="604.2,-339.23 598.48,-331.61 598.2,-341.14 604.2,-339.23"/>
</g>
<!-- m_Upload -->
<g id="node11" class="node">
<title>m_Upload</title>
<path fill="none" stroke="black" d="M203,-401C203,-401 323,-401 323,-401 329,-401 335,-407 335,-413 335,-413 335,-432 335,-432 335,-438 329,-444 323,-444 323,-444 203,-444 203,-444 197,-444 191,-438 191,-432 191,-432 191,-413 191,-413 191,-407 197,-401 203,-401"/>
<text text-anchor="start" x="242" y="-431.2" font-family="Arial Bold" font-size="11.00">Upload</text>
<polyline fill="none" stroke="black" points="191,-424 335,-424 "/>
<text text-anchor="start" x="198" y="-410.5" font-family="Arial" font-size="10.00">filename </text>
<text text-anchor="start" x="238" y="-410.5" font-family="Arial Italic" font-size="10.00" fill="#999999">string</text>
</g>
<!-- m_Upload&#45;&gt;m_ActiveStorage::Attachment -->
<g id="edge2" class="edge">
<title>m_Upload&#45;&gt;m_ActiveStorage::Attachment</title>
<path fill="none" stroke="black" d="M263,-400.8C263,-366.58 263,-297.64 263,-253.62"/>
</g>
<!-- m_User&#45;&gt;m_ActiveStorage::Attachment -->
<g id="edge3" class="edge">
<title>m_User&#45;&gt;m_ActiveStorage::Attachment</title>
<path fill="none" stroke="black" d="M398.6,-368.47C367.32,-332.73 326.7,-286.3 298.11,-253.62"/>
</g>
<!-- m_User&#45;&gt;m_ActiveStorage::Blob -->
<g id="edge4" class="edge">
<title>m_User&#45;&gt;m_ActiveStorage::Blob</title>
<path fill="none" stroke="black" stroke-dasharray="1,5" d="M375.51,-476.58C362.51,-484.16 348.57,-490.8 334.5,-495 273.18,-513.32 252.1,-512.35 190.5,-495 174.71,-490.55 158.95,-483.35 144.32,-475.18"/>
</g>
<!-- m_User&#45;&gt;m_Objective -->
<g id="edge5" class="edge">
<title>m_User&#45;&gt;m_Objective</title>
<path fill="none" stroke="black" d="M474.57,-368.47C479.6,-359.45 485.01,-349.75 490.59,-339.76"/>
<polygon fill="black" stroke="black" points="493.45,-341.09 495.08,-331.69 487.95,-338.02 493.45,-341.09"/>
</g>
<!-- m_User&#45;&gt;m_ReviewRequest -->
<g id="edge11" class="edge">
<title>m_User&#45;&gt;m_ReviewRequest</title>
<path fill="none" stroke="black" d="M436.91,-368.38C429.2,-299.98 425.08,-179.61 474,-93 480.71,-81.11 490.67,-70.84 501.48,-62.23"/>
<polygon fill="black" stroke="black" points="503.39,-64.74 508.68,-56.81 499.6,-59.71 503.39,-64.74"/>
</g>
</g>
</svg>
