<?xml version="1.0" encoding="UTF-8" standalone="no"?>
<!DOCTYPE svg PUBLIC "-//W3C//DTD SVG 1.1//EN"
 "http://www.w3.org/Graphics/SVG/1.1/DTD/svg11.dtd">
<!-- Generated by graphviz version 2.44.1 (0)
 -->
<!-- Title: ProgressTest Pages: 1 -->
<svg width="1098pt" height="784pt"
 viewBox="0.00 0.00 1097.60 783.60" xmlns="http://www.w3.org/2000/svg" xmlns:xlink="http://www.w3.org/1999/xlink">
<g id="graph0" class="graph" transform="scale(1 1) rotate(0) translate(28.8 754.8)">
<title>ProgressTest</title>
<polygon fill="white" stroke="transparent" points="-28.8,28.8 -28.8,-754.8 1068.8,-754.8 1068.8,28.8 -28.8,28.8"/>
<text text-anchor="middle" x="520" y="-711.6" font-family="Arial Bold" font-size="13.00">Progress Test &#45; Models</text>
<!-- m_ActiveStorage::Attachment -->
<g id="node1" class="node">
<title>m_ActiveStorage::Attachment</title>
<path fill="none" stroke="black" d="M199,-290.5C199,-290.5 327,-290.5 327,-290.5 333,-290.5 339,-296.5 339,-302.5 339,-302.5 339,-360.5 339,-360.5 339,-366.5 333,-372.5 327,-372.5 327,-372.5 199,-372.5 199,-372.5 193,-372.5 187,-366.5 187,-360.5 187,-360.5 187,-302.5 187,-302.5 187,-296.5 193,-290.5 199,-290.5"/>
<text text-anchor="start" x="192" y="-359.7" font-family="Arial Bold" font-size="11.00">ActiveStorage::Attachment</text>
<polyline fill="none" stroke="black" points="187,-352.5 339,-352.5 "/>
<text text-anchor="start" x="198" y="-339.5" font-family="Arial" font-size="10.00">blob_id </text>
<text text-anchor="start" x="232" y="-339.5" font-family="Arial Italic" font-size="10.00" fill="#999999">integer (8) ∗ FK</text>
<text text-anchor="start" x="198" y="-326.5" font-family="Arial" font-size="10.00">name </text>
<text text-anchor="start" x="226" y="-326.5" font-family="Arial Italic" font-size="10.00" fill="#999999">string ∗</text>
<text text-anchor="start" x="198" y="-313.5" font-family="Arial" font-size="10.00">record_id </text>
<text text-anchor="start" x="241" y="-313.5" font-family="Arial Italic" font-size="10.00" fill="#999999">integer (8) ∗ FK</text>
<text text-anchor="start" x="198" y="-300.5" font-family="Arial" font-size="10.00">record_type </text>
<text text-anchor="start" x="253" y="-300.5" font-family="Arial Italic" font-size="10.00" fill="#999999">string ∗</text>
</g>
<!-- m_ActiveStorage::Blob -->
<g id="node2" class="node">
<title>m_ActiveStorage::Blob</title>
<path fill="none" stroke="black" d="M12,-487.5C12,-487.5 132,-487.5 132,-487.5 138,-487.5 144,-493.5 144,-499.5 144,-499.5 144,-583.5 144,-583.5 144,-589.5 138,-595.5 132,-595.5 132,-595.5 12,-595.5 12,-595.5 6,-595.5 0,-589.5 0,-583.5 0,-583.5 0,-499.5 0,-499.5 0,-493.5 6,-487.5 12,-487.5"/>
<text text-anchor="start" x="17" y="-582.7" font-family="Arial Bold" font-size="11.00">ActiveStorage::Blob</text>
<polyline fill="none" stroke="black" points="0,-575.5 144,-575.5 "/>
<text text-anchor="start" x="7" y="-562.5" font-family="Arial" font-size="10.00">byte_size </text>
<text text-anchor="start" x="52" y="-562.5" font-family="Arial Italic" font-size="10.00" fill="#999999">integer (8) ∗</text>
<text text-anchor="start" x="7" y="-549.5" font-family="Arial" font-size="10.00">checksum </text>
<text text-anchor="start" x="56" y="-549.5" font-family="Arial Italic" font-size="10.00" fill="#999999">string ∗</text>
<text text-anchor="start" x="7" y="-536.5" font-family="Arial" font-size="10.00">content_type </text>
<text text-anchor="start" x="67" y="-536.5" font-family="Arial Italic" font-size="10.00" fill="#999999">string</text>
<text text-anchor="start" x="7" y="-523.5" font-family="Arial" font-size="10.00">filename </text>
<text text-anchor="start" x="47" y="-523.5" font-family="Arial Italic" font-size="10.00" fill="#999999">string ∗</text>
<text text-anchor="start" x="7" y="-510.5" font-family="Arial" font-size="10.00">key </text>
<text text-anchor="start" x="26" y="-510.5" font-family="Arial Italic" font-size="10.00" fill="#999999">string ∗</text>
<text text-anchor="start" x="7" y="-497.5" font-family="Arial" font-size="10.00">metadata </text>
<text text-anchor="start" x="51" y="-497.5" font-family="Arial Italic" font-size="10.00" fill="#999999">text</text>
</g>
<!-- m_ActiveStorage::Blob&#45;&gt;m_ActiveStorage::Attachment -->
<g id="edge4" class="edge">
<title>m_ActiveStorage::Blob&#45;&gt;m_ActiveStorage::Attachment</title>
<path fill="none" stroke="black" d="M120.69,-487.47C153.52,-451.73 196.15,-405.3 226.16,-372.62"/>
</g>
<!-- m_ActiveStorage::Blob&#45;&gt;m_ActiveStorage::Blob -->
<g id="edge14" class="edge">
<title>m_ActiveStorage::Blob&#45;&gt;m_ActiveStorage::Blob</title>
<path fill="none" stroke="black" stroke-dasharray="1,5" d="M144.18,-563.14C160.79,-561.27 173,-554.06 173,-541.5 173,-528.94 160.79,-521.73 144.18,-519.86"/>
</g>
<!-- m_Axis -->
<g id="node3" class="node">
<title>m_Axis</title>
<path fill="none" stroke="black" d="M735,-639C735,-639 855,-639 855,-639 861,-639 867,-645 867,-651 867,-651 867,-670 867,-670 867,-676 861,-682 855,-682 855,-682 735,-682 735,-682 729,-682 723,-676 723,-670 723,-670 723,-651 723,-651 723,-645 729,-639 735,-639"/>
<text text-anchor="start" x="781" y="-669.2" font-family="Arial Bold" font-size="11.00">Axis</text>
<polyline fill="none" stroke="black" points="723,-662 867,-662 "/>
<text text-anchor="start" x="730" y="-648.5" font-family="Arial" font-size="10.00">name </text>
<text text-anchor="start" x="758" y="-648.5" font-family="Arial Italic" font-size="10.00" fill="#999999">string ∗ U</text>
</g>
<!-- m_Subject -->
<g id="node10" class="node">
<title>m_Subject</title>
<path fill="none" stroke="black" d="M567,-507C567,-507 687,-507 687,-507 693,-507 699,-513 699,-519 699,-519 699,-564 699,-564 699,-570 693,-576 687,-576 687,-576 567,-576 567,-576 561,-576 555,-570 555,-564 555,-564 555,-519 555,-519 555,-513 561,-507 567,-507"/>
<text text-anchor="start" x="605" y="-563.2" font-family="Arial Bold" font-size="11.00">Subject</text>
<polyline fill="none" stroke="black" points="555,-556 699,-556 "/>
<text text-anchor="start" x="562" y="-542.5" font-family="Arial" font-size="10.00">axis_id </text>
<text text-anchor="start" x="597" y="-542.5" font-family="Arial Italic" font-size="10.00" fill="#999999">integer (8) FK</text>
<text text-anchor="start" x="562" y="-529.5" font-family="Arial" font-size="10.00">category_id </text>
<text text-anchor="start" x="617" y="-529.5" font-family="Arial Italic" font-size="10.00" fill="#999999">integer (8) FK</text>
<text text-anchor="start" x="562" y="-516.5" font-family="Arial" font-size="10.00">name </text>
<text text-anchor="start" x="590" y="-516.5" font-family="Arial Italic" font-size="10.00" fill="#999999">string ∗ U</text>
</g>
<!-- m_Axis&#45;&gt;m_Subject -->
<g id="edge8" class="edge">
<title>m_Axis&#45;&gt;m_Subject</title>
<path fill="none" stroke="black" d="M765.35,-638.85C742.62,-623.02 710.58,-600.71 683.06,-581.54"/>
<polygon fill="black" stroke="black" points="684.62,-578.79 675.43,-576.23 681.02,-583.96 684.62,-578.79"/>
</g>
<!-- m_Category -->
<g id="node4" class="node">
<title>m_Category</title>
<path fill="none" stroke="black" d="M562,-639C562,-639 682,-639 682,-639 688,-639 694,-645 694,-651 694,-651 694,-670 694,-670 694,-676 688,-682 682,-682 682,-682 562,-682 562,-682 556,-682 550,-676 550,-670 550,-670 550,-651 550,-651 550,-645 556,-639 562,-639"/>
<text text-anchor="start" x="595.5" y="-669.2" font-family="Arial Bold" font-size="11.00">Category</text>
<polyline fill="none" stroke="black" points="550,-662 694,-662 "/>
<text text-anchor="start" x="557" y="-648.5" font-family="Arial" font-size="10.00">name </text>
<text text-anchor="start" x="585" y="-648.5" font-family="Arial Italic" font-size="10.00" fill="#999999">string ∗ U</text>
</g>
<!-- m_Category&#45;&gt;m_Subject -->
<g id="edge12" class="edge">
<title>m_Category&#45;&gt;m_Subject</title>
<path fill="none" stroke="black" d="M622.88,-638.85C623.52,-624.04 624.39,-603.54 625.17,-585.27"/>
<polygon fill="black" stroke="black" points="628.32,-585.35 625.56,-576.23 622.03,-585.09 628.32,-585.35"/>
</g>
<!-- m_JwtBlacklist -->
<g id="node5" class="node">
<title>m_JwtBlacklist</title>
<path fill="none" stroke="black" d="M908,-632.5C908,-632.5 1028,-632.5 1028,-632.5 1034,-632.5 1040,-638.5 1040,-644.5 1040,-644.5 1040,-676.5 1040,-676.5 1040,-682.5 1034,-688.5 1028,-688.5 1028,-688.5 908,-688.5 908,-688.5 902,-688.5 896,-682.5 896,-676.5 896,-676.5 896,-644.5 896,-644.5 896,-638.5 902,-632.5 908,-632.5"/>
<text text-anchor="start" x="934" y="-675.7" font-family="Arial Bold" font-size="11.00">JwtBlacklist</text>
<polyline fill="none" stroke="black" points="896,-668.5 1040,-668.5 "/>
<text text-anchor="start" x="903" y="-655.5" font-family="Arial" font-size="10.00">exp </text>
<text text-anchor="start" x="922" y="-655.5" font-family="Arial Italic" font-size="10.00" fill="#999999">datetime</text>
<text text-anchor="start" x="903" y="-642.5" font-family="Arial" font-size="10.00">jti </text>
<text text-anchor="start" x="914" y="-642.5" font-family="Arial Italic" font-size="10.00" fill="#999999">string</text>
</g>
<!-- m_Question -->
<g id="node6" class="node">
<title>m_Question</title>
<path fill="none" stroke="black" d="M501,-212.5C501,-212.5 621,-212.5 621,-212.5 627,-212.5 633,-218.5 633,-224.5 633,-224.5 633,-438.5 633,-438.5 633,-444.5 627,-450.5 621,-450.5 621,-450.5 501,-450.5 501,-450.5 495,-450.5 489,-444.5 489,-438.5 489,-438.5 489,-224.5 489,-224.5 489,-218.5 495,-212.5 501,-212.5"/>
<text text-anchor="start" x="534.5" y="-437.7" font-family="Arial Bold" font-size="11.00">Question</text>
<polyline fill="none" stroke="black" points="489,-430.5 633,-430.5 "/>
<text text-anchor="start" x="496" y="-417.5" font-family="Arial" font-size="10.00">alternatives </text>
<text text-anchor="start" x="549" y="-417.5" font-family="Arial Italic" font-size="10.00" fill="#999999">jsonb</text>
<text text-anchor="start" x="496" y="-404.5" font-family="Arial" font-size="10.00">authorship_year </text>
<text text-anchor="start" x="569" y="-404.5" font-family="Arial Italic" font-size="10.00" fill="#999999">string</text>
<text text-anchor="start" x="496" y="-391.5" font-family="Arial" font-size="10.00">bloom_taxonomy </text>
<text text-anchor="start" x="574" y="-391.5" font-family="Arial Italic" font-size="10.00" fill="#999999">string</text>
<text text-anchor="start" x="496" y="-378.5" font-family="Arial" font-size="10.00">body </text>
<text text-anchor="start" x="521" y="-378.5" font-family="Arial Italic" font-size="10.00" fill="#999999">text</text>
<text text-anchor="start" x="496" y="-365.5" font-family="Arial" font-size="10.00">check_type </text>
<text text-anchor="start" x="550" y="-365.5" font-family="Arial Italic" font-size="10.00" fill="#999999">string</text>
<text text-anchor="start" x="496" y="-352.5" font-family="Arial" font-size="10.00">difficulty </text>
<text text-anchor="start" x="536" y="-352.5" font-family="Arial Italic" font-size="10.00" fill="#999999">string</text>
<text text-anchor="start" x="496" y="-339.5" font-family="Arial" font-size="10.00">explanation </text>
<text text-anchor="start" x="549" y="-339.5" font-family="Arial Italic" font-size="10.00" fill="#999999">text</text>
<text text-anchor="start" x="496" y="-326.5" font-family="Arial" font-size="10.00">instruction </text>
<text text-anchor="start" x="545" y="-326.5" font-family="Arial Italic" font-size="10.00" fill="#999999">text</text>
<text text-anchor="start" x="496" y="-313.5" font-family="Arial" font-size="10.00">introduction </text>
<text text-anchor="start" x="550" y="-313.5" font-family="Arial Italic" font-size="10.00" fill="#999999">string</text>
<text text-anchor="start" x="496" y="-300.5" font-family="Arial" font-size="10.00">references </text>
<text text-anchor="start" x="545" y="-300.5" font-family="Arial Italic" font-size="10.00" fill="#999999">text</text>
<text text-anchor="start" x="496" y="-287.5" font-family="Arial" font-size="10.00">source </text>
<text text-anchor="start" x="529" y="-287.5" font-family="Arial Italic" font-size="10.00" fill="#999999">string</text>
<text text-anchor="start" x="496" y="-274.5" font-family="Arial" font-size="10.00">status </text>
<text text-anchor="start" x="527" y="-274.5" font-family="Arial Italic" font-size="10.00" fill="#999999">string ∗</text>
<text text-anchor="start" x="496" y="-261.5" font-family="Arial" font-size="10.00">subject_id </text>
<text text-anchor="start" x="544" y="-261.5" font-family="Arial Italic" font-size="10.00" fill="#999999">integer (8) FK</text>
<text text-anchor="start" x="496" y="-248.5" font-family="Arial" font-size="10.00">support </text>
<text text-anchor="start" x="533" y="-248.5" font-family="Arial Italic" font-size="10.00" fill="#999999">text</text>
<text text-anchor="start" x="496" y="-235.5" font-family="Arial" font-size="10.00">user_id </text>
<text text-anchor="start" x="531" y="-235.5" font-family="Arial Italic" font-size="10.00" fill="#999999">integer (8) FK</text>
<text text-anchor="start" x="496" y="-222.5" font-family="Arial" font-size="10.00">uuid </text>
<text text-anchor="start" x="518" y="-222.5" font-family="Arial Italic" font-size="10.00" fill="#999999">uuid ∗</text>
</g>
<!-- m_ReviewRequest -->
<g id="node8" class="node">
<title>m_ReviewRequest</title>
<path fill="none" stroke="black" d="M443,-106.5C443,-106.5 563,-106.5 563,-106.5 569,-106.5 575,-112.5 575,-118.5 575,-118.5 575,-163.5 575,-163.5 575,-169.5 569,-175.5 563,-175.5 563,-175.5 443,-175.5 443,-175.5 437,-175.5 431,-169.5 431,-163.5 431,-163.5 431,-118.5 431,-118.5 431,-112.5 437,-106.5 443,-106.5"/>
<text text-anchor="start" x="460" y="-162.7" font-family="Arial Bold" font-size="11.00">ReviewRequest</text>
<polyline fill="none" stroke="black" points="431,-155.5 575,-155.5 "/>
<text text-anchor="start" x="438" y="-142" font-family="Arial" font-size="10.00">answered </text>
<text text-anchor="start" x="483" y="-142" font-family="Arial Italic" font-size="10.00" fill="#999999">boolean ∗</text>
<text text-anchor="start" x="438" y="-129" font-family="Arial" font-size="10.00">question_id </text>
<text text-anchor="start" x="491" y="-129" font-family="Arial Italic" font-size="10.00" fill="#999999">integer (8) ∗ FK</text>
<text text-anchor="start" x="438" y="-116" font-family="Arial" font-size="10.00">user_id </text>
<text text-anchor="start" x="473" y="-116" font-family="Arial Italic" font-size="10.00" fill="#999999">integer (8) ∗ FK</text>
</g>
<!-- m_Question&#45;&gt;m_ReviewRequest -->
<g id="edge10" class="edge">
<title>m_Question&#45;&gt;m_ReviewRequest</title>
<path fill="none" stroke="black" d="M524.68,-212.46C521.63,-202.55 518.7,-193.01 516.02,-184.33"/>
<polygon fill="black" stroke="black" points="519,-183.29 513.34,-175.61 512.98,-185.14 519,-183.29"/>
</g>
<!-- m_ReviewFeedback -->
<g id="node7" class="node">
<title>m_ReviewFeedback</title>
<path fill="none" stroke="black" d="M432,-0.5C432,-0.5 574,-0.5 574,-0.5 580,-0.5 586,-6.5 586,-12.5 586,-12.5 586,-57.5 586,-57.5 586,-63.5 580,-69.5 574,-69.5 574,-69.5 432,-69.5 432,-69.5 426,-69.5 420,-63.5 420,-57.5 420,-57.5 420,-12.5 420,-12.5 420,-6.5 426,-0.5 432,-0.5"/>
<text text-anchor="start" x="457" y="-56.7" font-family="Arial Bold" font-size="11.00">ReviewFeedback</text>
<polyline fill="none" stroke="black" points="420,-49.5 586,-49.5 "/>
<text text-anchor="start" x="427" y="-36" font-family="Arial" font-size="10.00">comment </text>
<text text-anchor="start" x="471" y="-36" font-family="Arial Italic" font-size="10.00" fill="#999999">text</text>
<text text-anchor="start" x="427" y="-23" font-family="Arial" font-size="10.00">review_request_id </text>
<text text-anchor="start" x="509" y="-23" font-family="Arial Italic" font-size="10.00" fill="#999999">integer (8) ∗ FK</text>
<text text-anchor="start" x="427" y="-10" font-family="Arial" font-size="10.00">status </text>
<text text-anchor="start" x="458" y="-10" font-family="Arial Italic" font-size="10.00" fill="#999999">string</text>
</g>
<!-- m_ReviewRequest&#45;&gt;m_ReviewFeedback -->
<g id="edge9" class="edge">
<title>m_ReviewRequest&#45;&gt;m_ReviewFeedback</title>
<path fill="none" stroke="black" d="M503,-106.23C503,-97.43 503,-87.82 503,-78.62"/>
<polygon fill="black" stroke="black" points="506.15,-78.6 503,-69.6 499.85,-78.6 506.15,-78.6"/>
</g>
<!-- m_Role -->
<g id="node9" class="node">
<title>m_Role</title>
<path fill="none" stroke="black" d="M385,-639C385,-639 505,-639 505,-639 511,-639 517,-645 517,-651 517,-651 517,-670 517,-670 517,-676 511,-682 505,-682 505,-682 385,-682 385,-682 379,-682 373,-676 373,-670 373,-670 373,-651 373,-651 373,-645 379,-639 385,-639"/>
<text text-anchor="start" x="430.5" y="-669.2" font-family="Arial Bold" font-size="11.00">Role</text>
<polyline fill="none" stroke="black" points="373,-662 517,-662 "/>
<text text-anchor="start" x="380" y="-648.5" font-family="Arial" font-size="10.00">name </text>
<text text-anchor="start" x="408" y="-648.5" font-family="Arial Italic" font-size="10.00" fill="#999999">string ∗ U</text>
</g>
<!-- m_User -->
<g id="node12" class="node">
<title>m_User</title>
<path fill="none" stroke="black" d="M376.5,-487.5C376.5,-487.5 513.5,-487.5 513.5,-487.5 519.5,-487.5 525.5,-493.5 525.5,-499.5 525.5,-499.5 525.5,-583.5 525.5,-583.5 525.5,-589.5 519.5,-595.5 513.5,-595.5 513.5,-595.5 376.5,-595.5 376.5,-595.5 370.5,-595.5 364.5,-589.5 364.5,-583.5 364.5,-583.5 364.5,-499.5 364.5,-499.5 364.5,-493.5 370.5,-487.5 376.5,-487.5"/>
<text text-anchor="start" x="430.5" y="-582.7" font-family="Arial Bold" font-size="11.00">User</text>
<polyline fill="none" stroke="black" points="364.5,-575.5 525.5,-575.5 "/>
<text text-anchor="start" x="372" y="-562.5" font-family="Arial" font-size="10.00">email </text>
<text text-anchor="start" x="399" y="-562.5" font-family="Arial Italic" font-size="10.00" fill="#999999">string ∗ U</text>
<text text-anchor="start" x="372" y="-549.5" font-family="Arial" font-size="10.00">encrypted_password </text>
<text text-anchor="start" x="466" y="-549.5" font-family="Arial Italic" font-size="10.00" fill="#999999">string ∗</text>
<text text-anchor="start" x="372" y="-536.5" font-family="Arial" font-size="10.00">name </text>
<text text-anchor="start" x="400" y="-536.5" font-family="Arial Italic" font-size="10.00" fill="#999999">string</text>
<text text-anchor="start" x="372" y="-523.5" font-family="Arial" font-size="10.00">remember_created_at </text>
<text text-anchor="start" x="470" y="-523.5" font-family="Arial Italic" font-size="10.00" fill="#999999">datetime</text>
<text text-anchor="start" x="372" y="-510.5" font-family="Arial" font-size="10.00">reset_password_sent_at </text>
<text text-anchor="start" x="481" y="-510.5" font-family="Arial Italic" font-size="10.00" fill="#999999">datetime</text>
<text text-anchor="start" x="372" y="-497.5" font-family="Arial" font-size="10.00">reset_password_token </text>
<text text-anchor="start" x="472" y="-497.5" font-family="Arial Italic" font-size="10.00" fill="#999999">string</text>
</g>
<!-- m_Role&#45;&gt;m_User -->
<g id="edge3" class="edge">
<title>m_Role&#45;&gt;m_User</title>
<path fill="none" stroke="black" d="M445,-629.8C445,-622.07 445,-613.45 445,-604.71"/>
<polygon fill="black" stroke="black" points="441.85,-629.85 445,-638.85 448.15,-629.85 441.85,-629.85"/>
<polygon fill="black" stroke="black" points="448.15,-604.6 445,-595.6 441.85,-604.6 448.15,-604.6"/>
</g>
<!-- m_Subject&#45;&gt;m_Question -->
<g id="edge11" class="edge">
<title>m_Subject&#45;&gt;m_Question</title>
<path fill="none" stroke="black" d="M616.25,-506.62C611.95,-493.07 606.7,-476.54 601.18,-459.12"/>
<polygon fill="black" stroke="black" points="604.17,-458.14 598.45,-450.51 598.17,-460.04 604.17,-458.14"/>
</g>
<!-- m_Upload -->
<g id="node11" class="node">
<title>m_Upload</title>
<path fill="none" stroke="black" d="M203,-520C203,-520 323,-520 323,-520 329,-520 335,-526 335,-532 335,-532 335,-551 335,-551 335,-557 329,-563 323,-563 323,-563 203,-563 203,-563 197,-563 191,-557 191,-551 191,-551 191,-532 191,-532 191,-526 197,-520 203,-520"/>
<text text-anchor="start" x="242" y="-550.2" font-family="Arial Bold" font-size="11.00">Upload</text>
<polyline fill="none" stroke="black" points="191,-543 335,-543 "/>
<text text-anchor="start" x="198" y="-529.5" font-family="Arial" font-size="10.00">filename </text>
<text text-anchor="start" x="238" y="-529.5" font-family="Arial Italic" font-size="10.00" fill="#999999">string</text>
</g>
<!-- m_Upload&#45;&gt;m_ActiveStorage::Attachment -->
<g id="edge5" class="edge">
<title>m_Upload&#45;&gt;m_ActiveStorage::Attachment</title>
<path fill="none" stroke="black" d="M263,-519.8C263,-485.58 263,-416.64 263,-372.62"/>
</g>
<!-- m_User&#45;&gt;m_ActiveStorage::Attachment -->
<g id="edge6" class="edge">
<title>m_User&#45;&gt;m_ActiveStorage::Attachment</title>
<path fill="none" stroke="black" d="M398.6,-487.47C367.32,-451.73 326.7,-405.3 298.11,-372.62"/>
</g>
<!-- m_User&#45;&gt;m_ActiveStorage::Blob -->
<g id="edge7" class="edge">
<title>m_User&#45;&gt;m_ActiveStorage::Blob</title>
<path fill="none" stroke="black" stroke-dasharray="1,5" d="M375.51,-595.58C362.51,-603.16 348.57,-609.8 334.5,-614 273.18,-632.32 252.1,-631.35 190.5,-614 174.71,-609.55 158.95,-602.35 144.32,-594.18"/>
</g>
<!-- m_User&#45;&gt;m_Question -->
<g id="edge1" class="edge">
<title>m_User&#45;&gt;m_Question</title>
<path fill="none" stroke="black" d="M474.57,-487.47C479.6,-478.45 485.01,-468.75 490.59,-458.76"/>
<polygon fill="black" stroke="black" points="493.45,-460.09 495.08,-450.69 487.95,-457.02 493.45,-460.09"/>
</g>
<!-- m_User&#45;&gt;m_ReviewRequest -->
<g id="edge2" class="edge">
<title>m_User&#45;&gt;m_ReviewRequest</title>
<path fill="none" stroke="black" d="M444.76,-487.35C445.58,-421.71 450.69,-307.09 474,-212 476.25,-202.8 479.53,-193.24 483.09,-184.25"/>
<polygon fill="black" stroke="black" points="486.04,-185.36 486.55,-175.83 480.21,-182.96 486.04,-185.36"/>
</g>
</g>
</svg>
