<?xml version="1.0" encoding="UTF-8" standalone="no"?>
<!DOCTYPE svg PUBLIC "-//W3C//DTD SVG 1.1//EN"
 "http://www.w3.org/Graphics/SVG/1.1/DTD/svg11.dtd">
<!-- Generated by graphviz version 2.49.0 (0)
 -->
<!-- Title: ProgressTest Pages: 1 -->
<svg width="912pt" height="665pt"
 viewBox="0.00 0.00 911.60 664.60" xmlns="http://www.w3.org/2000/svg" xmlns:xlink="http://www.w3.org/1999/xlink">
<g id="graph0" class="graph" transform="scale(1 1) rotate(0) translate(28.8 635.8)">
<title>ProgressTest</title>
<polygon fill="white" stroke="transparent" points="-28.8,28.8 -28.8,-635.8 882.8,-635.8 882.8,28.8 -28.8,28.8"/>
<text text-anchor="middle" x="427" y="-592.6" font-family="Arial Bold" font-size="13.00">Progress Test &#45; Models</text>
<!-- m_ActiveStorage::Attachment -->
<g id="node1" class="node">
<title>m_ActiveStorage::Attachment</title>
<path fill="none" stroke="black" d="M198.5,-191C198.5,-191 327.5,-191 327.5,-191 333.5,-191 339.5,-197 339.5,-203 339.5,-203 339.5,-261 339.5,-261 339.5,-267 333.5,-273 327.5,-273 327.5,-273 198.5,-273 198.5,-273 192.5,-273 186.5,-267 186.5,-261 186.5,-261 186.5,-203 186.5,-203 186.5,-197 192.5,-191 198.5,-191"/>
<text text-anchor="start" x="192" y="-260.2" font-family="Arial Bold" font-size="11.00">ActiveStorage::Attachment</text>
<polyline fill="none" stroke="black" points="186.5,-253 339.5,-253 "/>
<text text-anchor="start" x="198" y="-240" font-family="Arial" font-size="10.00">blob_id </text>
<text text-anchor="start" x="232" y="-240" font-family="Arial Italic" font-size="10.00" fill="#999999">integer (8) ∗ FK</text>
<text text-anchor="start" x="198" y="-227" font-family="Arial" font-size="10.00">name </text>
<text text-anchor="start" x="226" y="-227" font-family="Arial Italic" font-size="10.00" fill="#999999">string ∗</text>
<text text-anchor="start" x="198" y="-214" font-family="Arial" font-size="10.00">record_id </text>
<text text-anchor="start" x="241" y="-214" font-family="Arial Italic" font-size="10.00" fill="#999999">integer (8) ∗ FK</text>
<text text-anchor="start" x="198" y="-201" font-family="Arial" font-size="10.00">record_type </text>
<text text-anchor="start" x="253" y="-201" font-family="Arial Italic" font-size="10.00" fill="#999999">string ∗</text>
</g>
<!-- m_ActiveStorage::Blob -->
<g id="node2" class="node">
<title>m_ActiveStorage::Blob</title>
<path fill="none" stroke="black" d="M12,-381.5C12,-381.5 132,-381.5 132,-381.5 138,-381.5 144,-387.5 144,-393.5 144,-393.5 144,-477.5 144,-477.5 144,-483.5 138,-489.5 132,-489.5 132,-489.5 12,-489.5 12,-489.5 6,-489.5 0,-483.5 0,-477.5 0,-477.5 0,-393.5 0,-393.5 0,-387.5 6,-381.5 12,-381.5"/>
<text text-anchor="start" x="16.5" y="-476.7" font-family="Arial Bold" font-size="11.00">ActiveStorage::Blob</text>
<polyline fill="none" stroke="black" points="0,-469.5 144,-469.5 "/>
<text text-anchor="start" x="7" y="-456.5" font-family="Arial" font-size="10.00">byte_size </text>
<text text-anchor="start" x="53" y="-456.5" font-family="Arial Italic" font-size="10.00" fill="#999999">integer (8) ∗</text>
<text text-anchor="start" x="7" y="-443.5" font-family="Arial" font-size="10.00">checksum </text>
<text text-anchor="start" x="56" y="-443.5" font-family="Arial Italic" font-size="10.00" fill="#999999">string ∗</text>
<text text-anchor="start" x="7" y="-430.5" font-family="Arial" font-size="10.00">content_type </text>
<text text-anchor="start" x="67" y="-430.5" font-family="Arial Italic" font-size="10.00" fill="#999999">string</text>
<text text-anchor="start" x="7" y="-417.5" font-family="Arial" font-size="10.00">filename </text>
<text text-anchor="start" x="47" y="-417.5" font-family="Arial Italic" font-size="10.00" fill="#999999">string ∗</text>
<text text-anchor="start" x="7" y="-404.5" font-family="Arial" font-size="10.00">key </text>
<text text-anchor="start" x="26" y="-404.5" font-family="Arial Italic" font-size="10.00" fill="#999999">string ∗</text>
<text text-anchor="start" x="7" y="-391.5" font-family="Arial" font-size="10.00">metadata </text>
<text text-anchor="start" x="51" y="-391.5" font-family="Arial Italic" font-size="10.00" fill="#999999">text</text>
</g>
<!-- m_ActiveStorage::Blob&#45;&gt;m_ActiveStorage::Attachment -->
<g id="edge4" class="edge">
<title>m_ActiveStorage::Blob&#45;&gt;m_ActiveStorage::Attachment</title>
<path fill="none" stroke="black" d="M122.43,-381.29C154.59,-347.36 195.61,-304.1 225.02,-273.07"/>
</g>
<!-- m_ActiveStorage::Blob&#45;&gt;m_ActiveStorage::Blob -->
<g id="edge15" class="edge">
<title>m_ActiveStorage::Blob&#45;&gt;m_ActiveStorage::Blob</title>
<path fill="none" stroke="black" stroke-dasharray="1,5" d="M144.18,-456.04C160.79,-454.27 173,-447.42 173,-435.5 173,-423.58 160.79,-416.73 144.18,-414.96"/>
</g>
<!-- m_Axis -->
<g id="node3" class="node">
<title>m_Axis</title>
<path fill="none" stroke="black" d="M722,-526.5C722,-526.5 842,-526.5 842,-526.5 848,-526.5 854,-532.5 854,-538.5 854,-538.5 854,-557.5 854,-557.5 854,-563.5 848,-569.5 842,-569.5 842,-569.5 722,-569.5 722,-569.5 716,-569.5 710,-563.5 710,-557.5 710,-557.5 710,-538.5 710,-538.5 710,-532.5 716,-526.5 722,-526.5"/>
<text text-anchor="start" x="768" y="-556.7" font-family="Arial Bold" font-size="11.00">Axis</text>
<polyline fill="none" stroke="black" points="710,-549.5 854,-549.5 "/>
<text text-anchor="start" x="717" y="-536" font-family="Arial" font-size="10.00">name </text>
<text text-anchor="start" x="745" y="-536" font-family="Arial Italic" font-size="10.00" fill="#999999">string ∗ U</text>
</g>
<!-- m_Subject -->
<g id="node9" class="node">
<title>m_Subject</title>
<path fill="none" stroke="black" d="M549,-401C549,-401 669,-401 669,-401 675,-401 681,-407 681,-413 681,-413 681,-458 681,-458 681,-464 675,-470 669,-470 669,-470 549,-470 549,-470 543,-470 537,-464 537,-458 537,-458 537,-413 537,-413 537,-407 543,-401 549,-401"/>
<text text-anchor="start" x="587" y="-457.2" font-family="Arial Bold" font-size="11.00">Subject</text>
<polyline fill="none" stroke="black" points="537,-450 681,-450 "/>
<text text-anchor="start" x="544" y="-436.5" font-family="Arial" font-size="10.00">axis_id </text>
<text text-anchor="start" x="578" y="-436.5" font-family="Arial Italic" font-size="10.00" fill="#999999">integer (8) FK</text>
<text text-anchor="start" x="544" y="-423.5" font-family="Arial" font-size="10.00">category_id </text>
<text text-anchor="start" x="598" y="-423.5" font-family="Arial Italic" font-size="10.00" fill="#999999">integer (8) FK</text>
<text text-anchor="start" x="544" y="-410.5" font-family="Arial" font-size="10.00">name </text>
<text text-anchor="start" x="572" y="-410.5" font-family="Arial Italic" font-size="10.00" fill="#999999">string ∗ U</text>
</g>
<!-- m_Axis&#45;&gt;m_Subject -->
<g id="edge8" class="edge">
<title>m_Axis&#45;&gt;m_Subject</title>
<path fill="none" stroke="black" d="M749.87,-526.47C727.36,-512.1 696.61,-492.46 669.58,-475.19"/>
<polygon fill="black" stroke="black" points="670.97,-472.35 661.69,-470.16 667.58,-477.66 670.97,-472.35"/>
</g>
<!-- m_Category -->
<g id="node4" class="node">
<title>m_Category</title>
<path fill="none" stroke="black" d="M549,-526.5C549,-526.5 669,-526.5 669,-526.5 675,-526.5 681,-532.5 681,-538.5 681,-538.5 681,-557.5 681,-557.5 681,-563.5 675,-569.5 669,-569.5 669,-569.5 549,-569.5 549,-569.5 543,-569.5 537,-563.5 537,-557.5 537,-557.5 537,-538.5 537,-538.5 537,-532.5 543,-526.5 549,-526.5"/>
<text text-anchor="start" x="582.5" y="-556.7" font-family="Arial Bold" font-size="11.00">Category</text>
<polyline fill="none" stroke="black" points="537,-549.5 681,-549.5 "/>
<text text-anchor="start" x="544" y="-536" font-family="Arial" font-size="10.00">name </text>
<text text-anchor="start" x="572" y="-536" font-family="Arial Italic" font-size="10.00" fill="#999999">string ∗ U</text>
</g>
<!-- m_Category&#45;&gt;m_Subject -->
<g id="edge13" class="edge">
<title>m_Category&#45;&gt;m_Subject</title>
<path fill="none" stroke="black" d="M609,-526.47C609,-513.33 609,-495.77 609,-479.65"/>
<polygon fill="black" stroke="black" points="612.15,-479.37 609,-470.37 605.85,-479.37 612.15,-479.37"/>
</g>
<!-- m_Question -->
<g id="node5" class="node">
<title>m_Question</title>
<path fill="none" stroke="black" d="M492,-119.5C492,-119.5 612,-119.5 612,-119.5 618,-119.5 624,-125.5 624,-131.5 624,-131.5 624,-332.5 624,-332.5 624,-338.5 618,-344.5 612,-344.5 612,-344.5 492,-344.5 492,-344.5 486,-344.5 480,-338.5 480,-332.5 480,-332.5 480,-131.5 480,-131.5 480,-125.5 486,-119.5 492,-119.5"/>
<text text-anchor="start" x="526" y="-331.7" font-family="Arial Bold" font-size="11.00">Question</text>
<polyline fill="none" stroke="black" points="480,-324.5 624,-324.5 "/>
<text text-anchor="start" x="487" y="-311" font-family="Arial" font-size="10.00">alternatives </text>
<text text-anchor="start" x="541" y="-311" font-family="Arial Italic" font-size="10.00" fill="#999999">jsonb ∗</text>
<text text-anchor="start" x="487" y="-298" font-family="Arial" font-size="10.00">authorship_year </text>
<text text-anchor="start" x="560" y="-298" font-family="Arial Italic" font-size="10.00" fill="#999999">string</text>
<text text-anchor="start" x="487" y="-285" font-family="Arial" font-size="10.00">bloom_taxonomy </text>
<text text-anchor="start" x="565" y="-285" font-family="Arial Italic" font-size="10.00" fill="#999999">string</text>
<text text-anchor="start" x="487" y="-272" font-family="Arial" font-size="10.00">body </text>
<text text-anchor="start" x="512" y="-272" font-family="Arial Italic" font-size="10.00" fill="#999999">text</text>
<text text-anchor="start" x="487" y="-259" font-family="Arial" font-size="10.00">check_type </text>
<text text-anchor="start" x="541" y="-259" font-family="Arial Italic" font-size="10.00" fill="#999999">string</text>
<text text-anchor="start" x="487" y="-246" font-family="Arial" font-size="10.00">difficulty </text>
<text text-anchor="start" x="527" y="-246" font-family="Arial Italic" font-size="10.00" fill="#999999">string</text>
<text text-anchor="start" x="487" y="-233" font-family="Arial" font-size="10.00">explanation </text>
<text text-anchor="start" x="540" y="-233" font-family="Arial Italic" font-size="10.00" fill="#999999">text</text>
<text text-anchor="start" x="487" y="-220" font-family="Arial" font-size="10.00">instruction </text>
<text text-anchor="start" x="536" y="-220" font-family="Arial Italic" font-size="10.00" fill="#999999">text</text>
<text text-anchor="start" x="487" y="-207" font-family="Arial" font-size="10.00">intention </text>
<text text-anchor="start" x="527" y="-207" font-family="Arial Italic" font-size="10.00" fill="#999999">text</text>
<text text-anchor="start" x="487" y="-194" font-family="Arial" font-size="10.00">references </text>
<text text-anchor="start" x="536" y="-194" font-family="Arial Italic" font-size="10.00" fill="#999999">text</text>
<text text-anchor="start" x="487" y="-181" font-family="Arial" font-size="10.00">source </text>
<text text-anchor="start" x="520" y="-181" font-family="Arial Italic" font-size="10.00" fill="#999999">string</text>
<text text-anchor="start" x="487" y="-168" font-family="Arial" font-size="10.00">status </text>
<text text-anchor="start" x="518" y="-168" font-family="Arial Italic" font-size="10.00" fill="#999999">string ∗</text>
<text text-anchor="start" x="487" y="-155" font-family="Arial" font-size="10.00">subject_id </text>
<text text-anchor="start" x="535" y="-155" font-family="Arial Italic" font-size="10.00" fill="#999999">integer (8) FK</text>
<text text-anchor="start" x="487" y="-142" font-family="Arial" font-size="10.00">support </text>
<text text-anchor="start" x="523" y="-142" font-family="Arial Italic" font-size="10.00" fill="#999999">text</text>
<text text-anchor="start" x="487" y="-129" font-family="Arial" font-size="10.00">user_id </text>
<text text-anchor="start" x="522" y="-129" font-family="Arial Italic" font-size="10.00" fill="#999999">integer (8) FK</text>
</g>
<!-- m_ReviewMessage -->
<g id="node6" class="node">
<title>m_ReviewMessage</title>
<path fill="none" stroke="black" d="M549,-0.5C549,-0.5 669,-0.5 669,-0.5 675,-0.5 681,-6.5 681,-12.5 681,-12.5 681,-70.5 681,-70.5 681,-76.5 675,-82.5 669,-82.5 669,-82.5 549,-82.5 549,-82.5 543,-82.5 537,-76.5 537,-70.5 537,-70.5 537,-12.5 537,-12.5 537,-6.5 543,-0.5 549,-0.5"/>
<text text-anchor="start" x="565" y="-69.7" font-family="Arial Bold" font-size="11.00">ReviewMessage</text>
<polyline fill="none" stroke="black" points="537,-62.5 681,-62.5 "/>
<text text-anchor="start" x="544" y="-49.5" font-family="Arial" font-size="10.00">feedback_type </text>
<text text-anchor="start" x="611" y="-49.5" font-family="Arial Italic" font-size="10.00" fill="#999999">string ∗</text>
<text text-anchor="start" x="544" y="-36.5" font-family="Arial" font-size="10.00">question_id </text>
<text text-anchor="start" x="597" y="-36.5" font-family="Arial Italic" font-size="10.00" fill="#999999">integer (8) ∗ FK</text>
<text text-anchor="start" x="544" y="-23.5" font-family="Arial" font-size="10.00">text </text>
<text text-anchor="start" x="564" y="-23.5" font-family="Arial Italic" font-size="10.00" fill="#999999">string ∗</text>
<text text-anchor="start" x="544" y="-10.5" font-family="Arial" font-size="10.00">user_id </text>
<text text-anchor="start" x="579" y="-10.5" font-family="Arial Italic" font-size="10.00" fill="#999999">integer (8) ∗ FK</text>
</g>
<!-- m_Question&#45;&gt;m_ReviewMessage -->
<g id="edge12" class="edge">
<title>m_Question&#45;&gt;m_ReviewMessage</title>
<path fill="none" stroke="black" d="M585.73,-119.44C588.66,-109.77 591.51,-100.34 594.15,-91.6"/>
<polygon fill="black" stroke="black" points="597.24,-92.27 596.83,-82.75 591.21,-90.45 597.24,-92.27"/>
</g>
<!-- m_ReviewRequest -->
<g id="node7" class="node">
<title>m_ReviewRequest</title>
<path fill="none" stroke="black" d="M376,-7C376,-7 496,-7 496,-7 502,-7 508,-13 508,-19 508,-19 508,-64 508,-64 508,-70 502,-76 496,-76 496,-76 376,-76 376,-76 370,-76 364,-70 364,-64 364,-64 364,-19 364,-19 364,-13 370,-7 376,-7"/>
<text text-anchor="start" x="393" y="-63.2" font-family="Arial Bold" font-size="11.00">ReviewRequest</text>
<polyline fill="none" stroke="black" points="364,-56 508,-56 "/>
<text text-anchor="start" x="371" y="-42.5" font-family="Arial" font-size="10.00">answered </text>
<text text-anchor="start" x="417" y="-42.5" font-family="Arial Italic" font-size="10.00" fill="#999999">boolean ∗</text>
<text text-anchor="start" x="371" y="-29.5" font-family="Arial" font-size="10.00">question_id </text>
<text text-anchor="start" x="424" y="-29.5" font-family="Arial Italic" font-size="10.00" fill="#999999">integer (8) ∗ FK</text>
<text text-anchor="start" x="371" y="-16.5" font-family="Arial" font-size="10.00">user_id </text>
<text text-anchor="start" x="406" y="-16.5" font-family="Arial Italic" font-size="10.00" fill="#999999">integer (8) ∗ FK</text>
</g>
<!-- m_Question&#45;&gt;m_ReviewRequest -->
<g id="edge9" class="edge">
<title>m_Question&#45;&gt;m_ReviewRequest</title>
<path fill="none" stroke="black" d="M483.35,-119.44C475.63,-106.9 468.17,-94.78 461.55,-84.01"/>
<polygon fill="black" stroke="black" points="464.05,-82.08 456.65,-76.06 458.69,-85.38 464.05,-82.08"/>
</g>
<!-- m_Role -->
<g id="node8" class="node">
<title>m_Role</title>
<path fill="none" stroke="black" d="M376,-526.5C376,-526.5 496,-526.5 496,-526.5 502,-526.5 508,-532.5 508,-538.5 508,-538.5 508,-557.5 508,-557.5 508,-563.5 502,-569.5 496,-569.5 496,-569.5 376,-569.5 376,-569.5 370,-569.5 364,-563.5 364,-557.5 364,-557.5 364,-538.5 364,-538.5 364,-532.5 370,-526.5 376,-526.5"/>
<text text-anchor="start" x="421.5" y="-556.7" font-family="Arial Bold" font-size="11.00">Role</text>
<polyline fill="none" stroke="black" points="364,-549.5 508,-549.5 "/>
<text text-anchor="start" x="371" y="-536" font-family="Arial" font-size="10.00">name </text>
<text text-anchor="start" x="399" y="-536" font-family="Arial Italic" font-size="10.00" fill="#999999">string ∗ U</text>
</g>
<!-- m_User -->
<g id="node11" class="node">
<title>m_User</title>
<path fill="none" stroke="black" d="M376,-407.5C376,-407.5 496,-407.5 496,-407.5 502,-407.5 508,-413.5 508,-419.5 508,-419.5 508,-451.5 508,-451.5 508,-457.5 502,-463.5 496,-463.5 496,-463.5 376,-463.5 376,-463.5 370,-463.5 364,-457.5 364,-451.5 364,-451.5 364,-419.5 364,-419.5 364,-413.5 370,-407.5 376,-407.5"/>
<text text-anchor="start" x="421.5" y="-450.7" font-family="Arial Bold" font-size="11.00">User</text>
<polyline fill="none" stroke="black" points="364,-443.5 508,-443.5 "/>
<text text-anchor="start" x="371" y="-430.5" font-family="Arial" font-size="10.00">email </text>
<text text-anchor="start" x="398" y="-430.5" font-family="Arial Italic" font-size="10.00" fill="#999999">string ∗ U</text>
<text text-anchor="start" x="371" y="-417.5" font-family="Arial" font-size="10.00">name </text>
<text text-anchor="start" x="399" y="-417.5" font-family="Arial Italic" font-size="10.00" fill="#999999">string ∗</text>
</g>
<!-- m_Role&#45;&gt;m_User -->
<g id="edge1" class="edge">
<title>m_Role&#45;&gt;m_User</title>
<path fill="none" stroke="black" d="M436,-517.17C436,-503.47 436,-487.11 436,-472.72"/>
<polygon fill="black" stroke="black" points="432.85,-517.47 436,-526.47 439.15,-517.47 432.85,-517.47"/>
<polygon fill="black" stroke="black" points="439.15,-472.59 436,-463.59 432.85,-472.59 439.15,-472.59"/>
</g>
<!-- m_Subject&#45;&gt;m_Question -->
<g id="edge10" class="edge">
<title>m_Subject&#45;&gt;m_Question</title>
<path fill="none" stroke="black" d="M599.46,-400.77C595.65,-387.32 591.02,-370.95 586.16,-353.77"/>
<polygon fill="black" stroke="black" points="589.09,-352.53 583.61,-344.73 583.02,-354.24 589.09,-352.53"/>
</g>
<!-- m_Upload -->
<g id="node10" class="node">
<title>m_Upload</title>
<path fill="none" stroke="black" d="M203,-417.5C203,-417.5 323,-417.5 323,-417.5 329,-417.5 335,-423.5 335,-429.5 335,-429.5 335,-441.5 335,-441.5 335,-447.5 329,-453.5 323,-453.5 323,-453.5 203,-453.5 203,-453.5 197,-453.5 191,-447.5 191,-441.5 191,-441.5 191,-429.5 191,-429.5 191,-423.5 197,-417.5 203,-417.5"/>
<text text-anchor="start" x="242" y="-432.7" font-family="Arial Bold" font-size="11.00">Upload</text>
</g>
<!-- m_Upload&#45;&gt;m_ActiveStorage::Attachment -->
<g id="edge5" class="edge">
<title>m_Upload&#45;&gt;m_ActiveStorage::Attachment</title>
<path fill="none" stroke="black" d="M263,-417.32C263,-385.63 263,-317.19 263,-273.21"/>
</g>
<!-- m_User&#45;&gt;m_ActiveStorage::Attachment -->
<g id="edge6" class="edge">
<title>m_User&#45;&gt;m_ActiveStorage::Attachment</title>
<path fill="none" stroke="black" d="M412.67,-407.32C383.06,-372.84 331.75,-313.08 297.59,-273.28"/>
</g>
<!-- m_User&#45;&gt;m_ActiveStorage::Blob -->
<g id="edge7" class="edge">
<title>m_User&#45;&gt;m_ActiveStorage::Blob</title>
<path fill="none" stroke="black" stroke-dasharray="1,5" d="M407.22,-463.54C388.25,-479.99 361.93,-499.21 334.5,-508 273.55,-527.53 252.1,-525.35 190.5,-508 174.71,-503.55 158.95,-496.35 144.32,-488.18"/>
</g>
<!-- m_User&#45;&gt;m_Question -->
<g id="edge2" class="edge">
<title>m_User&#45;&gt;m_Question</title>
<path fill="none" stroke="black" d="M451.64,-407.32C460.14,-392.56 471.31,-373.16 483.1,-352.68"/>
<polygon fill="black" stroke="black" points="485.89,-354.15 487.65,-344.78 480.43,-351.01 485.89,-354.15"/>
</g>
<!-- m_User&#45;&gt;m_ReviewMessage -->
<g id="edge11" class="edge">
<title>m_User&#45;&gt;m_ReviewMessage</title>
<path fill="none" stroke="black" d="M436,-231C446.88,-180.74 433.15,-159.37 465,-119 469.93,-112.75 498.31,-97.23 528.59,-81.79"/>
<polygon fill="black" stroke="black" points="530.14,-84.54 536.74,-77.66 527.29,-78.92 530.14,-84.54"/>
</g>
<!-- m_User&#45;&gt;m_ReviewRequest -->
<g id="edge3" class="edge">
<title>m_User&#45;&gt;m_ReviewRequest</title>
<path fill="none" stroke="black" d="M432.41,-407.39C428.03,-368.33 422.76,-294.2 436,-233"/>
<path fill="none" stroke="black" d="M436,-231C446.59,-182.05 444.52,-124.27 441.14,-85.7"/>
<polygon fill="black" stroke="black" points="444.24,-84.99 440.26,-76.33 437.97,-85.58 444.24,-84.99"/>
</g>
</g>
</svg>
