<?xml version="1.0" encoding="UTF-8" standalone="no"?>
<!DOCTYPE svg PUBLIC "-//W3C//DTD SVG 1.1//EN"
 "http://www.w3.org/Graphics/SVG/1.1/DTD/svg11.dtd">
<!-- Generated by graphviz version 2.44.1 (0)
 -->
<!-- Title: ProgressTest Pages: 1 -->
<svg width="1134pt" height="784pt"
 viewBox="0.00 0.00 1133.60 783.60" xmlns="http://www.w3.org/2000/svg" xmlns:xlink="http://www.w3.org/1999/xlink">
<g id="graph0" class="graph" transform="scale(1 1) rotate(0) translate(28.8 754.8)">
<title>ProgressTest</title>
<polygon fill="white" stroke="transparent" points="-28.8,28.8 -28.8,-754.8 1104.8,-754.8 1104.8,28.8 -28.8,28.8"/>
<text text-anchor="middle" x="538" y="-711.6" font-family="Arial Bold" font-size="13.00">Progress Test &#45; Models</text>
<!-- m_ActiveStorage::Attachment -->
<g id="node1" class="node">
<title>m_ActiveStorage::Attachment</title>
<path fill="none" stroke="black" d="M192,-290.5C192,-290.5 320,-290.5 320,-290.5 326,-290.5 332,-296.5 332,-302.5 332,-302.5 332,-360.5 332,-360.5 332,-366.5 326,-372.5 320,-372.5 320,-372.5 192,-372.5 192,-372.5 186,-372.5 180,-366.5 180,-360.5 180,-360.5 180,-302.5 180,-302.5 180,-296.5 186,-290.5 192,-290.5"/>
<text text-anchor="start" x="185" y="-359.7" font-family="Arial Bold" font-size="11.00">ActiveStorage::Attachment</text>
<polyline fill="none" stroke="black" points="180,-352.5 332,-352.5 "/>
<text text-anchor="start" x="191" y="-339.5" font-family="Arial" font-size="10.00">blob_id </text>
<text text-anchor="start" x="225" y="-339.5" font-family="Arial Italic" font-size="10.00" fill="#999999">integer (8) ∗ FK</text>
<text text-anchor="start" x="191" y="-326.5" font-family="Arial" font-size="10.00">name </text>
<text text-anchor="start" x="219" y="-326.5" font-family="Arial Italic" font-size="10.00" fill="#999999">string ∗</text>
<text text-anchor="start" x="191" y="-313.5" font-family="Arial" font-size="10.00">record_id </text>
<text text-anchor="start" x="234" y="-313.5" font-family="Arial Italic" font-size="10.00" fill="#999999">integer (8) ∗ FK</text>
<text text-anchor="start" x="191" y="-300.5" font-family="Arial" font-size="10.00">record_type </text>
<text text-anchor="start" x="246" y="-300.5" font-family="Arial Italic" font-size="10.00" fill="#999999">string ∗</text>
</g>
<!-- m_ActiveStorage::Blob -->
<g id="node2" class="node">
<title>m_ActiveStorage::Blob</title>
<path fill="none" stroke="black" d="M12,-487.5C12,-487.5 132,-487.5 132,-487.5 138,-487.5 144,-493.5 144,-499.5 144,-499.5 144,-583.5 144,-583.5 144,-589.5 138,-595.5 132,-595.5 132,-595.5 12,-595.5 12,-595.5 6,-595.5 0,-589.5 0,-583.5 0,-583.5 0,-499.5 0,-499.5 0,-493.5 6,-487.5 12,-487.5"/>
<text text-anchor="start" x="17" y="-582.7" font-family="Arial Bold" font-size="11.00">ActiveStorage::Blob</text>
<polyline fill="none" stroke="black" points="0,-575.5 144,-575.5 "/>
<text text-anchor="start" x="7" y="-562.5" font-family="Arial" font-size="10.00">byte_size </text>
<text text-anchor="start" x="52" y="-562.5" font-family="Arial Italic" font-size="10.00" fill="#999999">integer (8) ∗</text>
<text text-anchor="start" x="7" y="-549.5" font-family="Arial" font-size="10.00">checksum </text>
<text text-anchor="start" x="56" y="-549.5" font-family="Arial Italic" font-size="10.00" fill="#999999">string ∗</text>
<text text-anchor="start" x="7" y="-536.5" font-family="Arial" font-size="10.00">content_type </text>
<text text-anchor="start" x="67" y="-536.5" font-family="Arial Italic" font-size="10.00" fill="#999999">string</text>
<text text-anchor="start" x="7" y="-523.5" font-family="Arial" font-size="10.00">filename </text>
<text text-anchor="start" x="47" y="-523.5" font-family="Arial Italic" font-size="10.00" fill="#999999">string ∗</text>
<text text-anchor="start" x="7" y="-510.5" font-family="Arial" font-size="10.00">key </text>
<text text-anchor="start" x="26" y="-510.5" font-family="Arial Italic" font-size="10.00" fill="#999999">string ∗</text>
<text text-anchor="start" x="7" y="-497.5" font-family="Arial" font-size="10.00">metadata </text>
<text text-anchor="start" x="51" y="-497.5" font-family="Arial Italic" font-size="10.00" fill="#999999">text</text>
</g>
<!-- m_ActiveStorage::Blob&#45;&gt;m_ActiveStorage::Attachment -->
<g id="edge4" class="edge">
<title>m_ActiveStorage::Blob&#45;&gt;m_ActiveStorage::Attachment</title>
<path fill="none" stroke="black" d="M118.91,-487.47C150.53,-451.73 191.6,-405.3 220.51,-372.62"/>
</g>
<!-- m_ActiveStorage::Blob&#45;&gt;m_ActiveStorage::Blob -->
<g id="edge17" class="edge">
<title>m_ActiveStorage::Blob&#45;&gt;m_ActiveStorage::Blob</title>
<path fill="none" stroke="black" stroke-dasharray="1,5" d="M144.18,-563.14C160.79,-561.27 173,-554.06 173,-541.5 173,-528.94 160.79,-521.73 144.18,-519.86"/>
</g>
<!-- m_Axis -->
<g id="node3" class="node">
<title>m_Axis</title>
<path fill="none" stroke="black" d="M771,-639C771,-639 891,-639 891,-639 897,-639 903,-645 903,-651 903,-651 903,-670 903,-670 903,-676 897,-682 891,-682 891,-682 771,-682 771,-682 765,-682 759,-676 759,-670 759,-670 759,-651 759,-651 759,-645 765,-639 771,-639"/>
<text text-anchor="start" x="817" y="-669.2" font-family="Arial Bold" font-size="11.00">Axis</text>
<polyline fill="none" stroke="black" points="759,-662 903,-662 "/>
<text text-anchor="start" x="766" y="-648.5" font-family="Arial" font-size="10.00">name </text>
<text text-anchor="start" x="794" y="-648.5" font-family="Arial Italic" font-size="10.00" fill="#999999">string ∗ U</text>
</g>
<!-- m_Subject -->
<g id="node11" class="node">
<title>m_Subject</title>
<path fill="none" stroke="black" d="M605,-507C605,-507 725,-507 725,-507 731,-507 737,-513 737,-519 737,-519 737,-564 737,-564 737,-570 731,-576 725,-576 725,-576 605,-576 605,-576 599,-576 593,-570 593,-564 593,-564 593,-519 593,-519 593,-513 599,-507 605,-507"/>
<text text-anchor="start" x="643" y="-563.2" font-family="Arial Bold" font-size="11.00">Subject</text>
<polyline fill="none" stroke="black" points="593,-556 737,-556 "/>
<text text-anchor="start" x="600" y="-542.5" font-family="Arial" font-size="10.00">axis_id </text>
<text text-anchor="start" x="635" y="-542.5" font-family="Arial Italic" font-size="10.00" fill="#999999">integer (8) FK</text>
<text text-anchor="start" x="600" y="-529.5" font-family="Arial" font-size="10.00">category_id </text>
<text text-anchor="start" x="655" y="-529.5" font-family="Arial Italic" font-size="10.00" fill="#999999">integer (8) FK</text>
<text text-anchor="start" x="600" y="-516.5" font-family="Arial" font-size="10.00">name </text>
<text text-anchor="start" x="628" y="-516.5" font-family="Arial Italic" font-size="10.00" fill="#999999">string ∗ U</text>
</g>
<!-- m_Axis&#45;&gt;m_Subject -->
<g id="edge8" class="edge">
<title>m_Axis&#45;&gt;m_Subject</title>
<path fill="none" stroke="black" d="M801.7,-638.85C779.24,-623.02 747.59,-600.71 720.39,-581.54"/>
<polygon fill="black" stroke="black" points="722.03,-578.84 712.85,-576.23 718.4,-583.99 722.03,-578.84"/>
</g>
<!-- m_Category -->
<g id="node4" class="node">
<title>m_Category</title>
<path fill="none" stroke="black" d="M598,-639C598,-639 718,-639 718,-639 724,-639 730,-645 730,-651 730,-651 730,-670 730,-670 730,-676 724,-682 718,-682 718,-682 598,-682 598,-682 592,-682 586,-676 586,-670 586,-670 586,-651 586,-651 586,-645 592,-639 598,-639"/>
<text text-anchor="start" x="631.5" y="-669.2" font-family="Arial Bold" font-size="11.00">Category</text>
<polyline fill="none" stroke="black" points="586,-662 730,-662 "/>
<text text-anchor="start" x="593" y="-648.5" font-family="Arial" font-size="10.00">name </text>
<text text-anchor="start" x="621" y="-648.5" font-family="Arial Italic" font-size="10.00" fill="#999999">string ∗ U</text>
</g>
<!-- m_Category&#45;&gt;m_Subject -->
<g id="edge14" class="edge">
<title>m_Category&#45;&gt;m_Subject</title>
<path fill="none" stroke="black" d="M659.24,-638.85C660.12,-624.04 661.35,-603.54 662.44,-585.27"/>
<polygon fill="black" stroke="black" points="665.59,-585.4 662.98,-576.23 659.3,-585.02 665.59,-585.4"/>
</g>
<!-- m_JwtBlacklist -->
<g id="node5" class="node">
<title>m_JwtBlacklist</title>
<path fill="none" stroke="black" d="M944,-632.5C944,-632.5 1064,-632.5 1064,-632.5 1070,-632.5 1076,-638.5 1076,-644.5 1076,-644.5 1076,-676.5 1076,-676.5 1076,-682.5 1070,-688.5 1064,-688.5 1064,-688.5 944,-688.5 944,-688.5 938,-688.5 932,-682.5 932,-676.5 932,-676.5 932,-644.5 932,-644.5 932,-638.5 938,-632.5 944,-632.5"/>
<text text-anchor="start" x="970" y="-675.7" font-family="Arial Bold" font-size="11.00">JwtBlacklist</text>
<polyline fill="none" stroke="black" points="932,-668.5 1076,-668.5 "/>
<text text-anchor="start" x="939" y="-655.5" font-family="Arial" font-size="10.00">exp </text>
<text text-anchor="start" x="958" y="-655.5" font-family="Arial Italic" font-size="10.00" fill="#999999">datetime</text>
<text text-anchor="start" x="939" y="-642.5" font-family="Arial" font-size="10.00">jti </text>
<text text-anchor="start" x="950" y="-642.5" font-family="Arial Italic" font-size="10.00" fill="#999999">string</text>
</g>
<!-- m_Objective -->
<g id="node6" class="node">
<title>m_Objective</title>
<path fill="none" stroke="black" d="M432,-212.5C432,-212.5 552,-212.5 552,-212.5 558,-212.5 564,-218.5 564,-224.5 564,-224.5 564,-438.5 564,-438.5 564,-444.5 558,-450.5 552,-450.5 552,-450.5 432,-450.5 432,-450.5 426,-450.5 420,-444.5 420,-438.5 420,-438.5 420,-224.5 420,-224.5 420,-218.5 426,-212.5 432,-212.5"/>
<text text-anchor="start" x="465.5" y="-437.7" font-family="Arial Bold" font-size="11.00">Objective</text>
<polyline fill="none" stroke="black" points="420,-430.5 564,-430.5 "/>
<text text-anchor="start" x="427" y="-417.5" font-family="Arial" font-size="10.00">alternatives </text>
<text text-anchor="start" x="480" y="-417.5" font-family="Arial Italic" font-size="10.00" fill="#999999">jsonb</text>
<text text-anchor="start" x="427" y="-404.5" font-family="Arial" font-size="10.00">authorship_year </text>
<text text-anchor="start" x="500" y="-404.5" font-family="Arial Italic" font-size="10.00" fill="#999999">string</text>
<text text-anchor="start" x="427" y="-391.5" font-family="Arial" font-size="10.00">bloom_taxonomy </text>
<text text-anchor="start" x="505" y="-391.5" font-family="Arial Italic" font-size="10.00" fill="#999999">string</text>
<text text-anchor="start" x="427" y="-378.5" font-family="Arial" font-size="10.00">body </text>
<text text-anchor="start" x="452" y="-378.5" font-family="Arial Italic" font-size="10.00" fill="#999999">text</text>
<text text-anchor="start" x="427" y="-365.5" font-family="Arial" font-size="10.00">check_type </text>
<text text-anchor="start" x="481" y="-365.5" font-family="Arial Italic" font-size="10.00" fill="#999999">string</text>
<text text-anchor="start" x="427" y="-352.5" font-family="Arial" font-size="10.00">difficulty </text>
<text text-anchor="start" x="467" y="-352.5" font-family="Arial Italic" font-size="10.00" fill="#999999">string</text>
<text text-anchor="start" x="427" y="-339.5" font-family="Arial" font-size="10.00">explanation </text>
<text text-anchor="start" x="480" y="-339.5" font-family="Arial Italic" font-size="10.00" fill="#999999">text</text>
<text text-anchor="start" x="427" y="-326.5" font-family="Arial" font-size="10.00">instruction </text>
<text text-anchor="start" x="476" y="-326.5" font-family="Arial Italic" font-size="10.00" fill="#999999">text</text>
<text text-anchor="start" x="427" y="-313.5" font-family="Arial" font-size="10.00">introduction </text>
<text text-anchor="start" x="481" y="-313.5" font-family="Arial Italic" font-size="10.00" fill="#999999">string</text>
<text text-anchor="start" x="427" y="-300.5" font-family="Arial" font-size="10.00">own </text>
<text text-anchor="start" x="449" y="-300.5" font-family="Arial Italic" font-size="10.00" fill="#999999">boolean</text>
<text text-anchor="start" x="427" y="-287.5" font-family="Arial" font-size="10.00">references </text>
<text text-anchor="start" x="476" y="-287.5" font-family="Arial Italic" font-size="10.00" fill="#999999">text</text>
<text text-anchor="start" x="427" y="-274.5" font-family="Arial" font-size="10.00">source </text>
<text text-anchor="start" x="460" y="-274.5" font-family="Arial Italic" font-size="10.00" fill="#999999">string</text>
<text text-anchor="start" x="427" y="-261.5" font-family="Arial" font-size="10.00">status </text>
<text text-anchor="start" x="458" y="-261.5" font-family="Arial Italic" font-size="10.00" fill="#999999">string ∗</text>
<text text-anchor="start" x="427" y="-248.5" font-family="Arial" font-size="10.00">subject_id </text>
<text text-anchor="start" x="475" y="-248.5" font-family="Arial Italic" font-size="10.00" fill="#999999">integer (8) FK</text>
<text text-anchor="start" x="427" y="-235.5" font-family="Arial" font-size="10.00">support </text>
<text text-anchor="start" x="464" y="-235.5" font-family="Arial Italic" font-size="10.00" fill="#999999">text</text>
<text text-anchor="start" x="427" y="-222.5" font-family="Arial" font-size="10.00">user_id </text>
<text text-anchor="start" x="462" y="-222.5" font-family="Arial Italic" font-size="10.00" fill="#999999">integer (8) FK</text>
</g>
<!-- m_ReviewRequest -->
<g id="node9" class="node">
<title>m_ReviewRequest</title>
<path fill="none" stroke="black" d="M432,-106.5C432,-106.5 552,-106.5 552,-106.5 558,-106.5 564,-112.5 564,-118.5 564,-118.5 564,-163.5 564,-163.5 564,-169.5 558,-175.5 552,-175.5 552,-175.5 432,-175.5 432,-175.5 426,-175.5 420,-169.5 420,-163.5 420,-163.5 420,-118.5 420,-118.5 420,-112.5 426,-106.5 432,-106.5"/>
<text text-anchor="start" x="449" y="-162.7" font-family="Arial Bold" font-size="11.00">ReviewRequest</text>
<polyline fill="none" stroke="black" points="420,-155.5 564,-155.5 "/>
<text text-anchor="start" x="427" y="-142" font-family="Arial" font-size="10.00">answered </text>
<text text-anchor="start" x="472" y="-142" font-family="Arial Italic" font-size="10.00" fill="#999999">boolean ∗</text>
<text text-anchor="start" x="427" y="-129" font-family="Arial" font-size="10.00">objective_id </text>
<text text-anchor="start" x="482" y="-129" font-family="Arial Italic" font-size="10.00" fill="#999999">integer (8) ∗ FK</text>
<text text-anchor="start" x="427" y="-116" font-family="Arial" font-size="10.00">user_id </text>
<text text-anchor="start" x="462" y="-116" font-family="Arial Italic" font-size="10.00" fill="#999999">integer (8) ∗ FK</text>
</g>
<!-- m_Objective&#45;&gt;m_ReviewRequest -->
<g id="edge10" class="edge">
<title>m_Objective&#45;&gt;m_ReviewRequest</title>
<path fill="none" stroke="black" d="M492,-212.46C492,-202.76 492,-193.41 492,-184.88"/>
<polygon fill="black" stroke="black" points="495.15,-184.61 492,-175.61 488.85,-184.61 495.15,-184.61"/>
</g>
<!-- m_Question -->
<g id="node7" class="node">
<title>m_Question</title>
<path fill="none" stroke="black" d="M605,-212.5C605,-212.5 725,-212.5 725,-212.5 731,-212.5 737,-218.5 737,-224.5 737,-224.5 737,-438.5 737,-438.5 737,-444.5 731,-450.5 725,-450.5 725,-450.5 605,-450.5 605,-450.5 599,-450.5 593,-444.5 593,-438.5 593,-438.5 593,-224.5 593,-224.5 593,-218.5 599,-212.5 605,-212.5"/>
<text text-anchor="start" x="638.5" y="-437.7" font-family="Arial Bold" font-size="11.00">Question</text>
<polyline fill="none" stroke="black" points="593,-430.5 737,-430.5 "/>
<text text-anchor="start" x="600" y="-417.5" font-family="Arial" font-size="10.00">alternatives </text>
<text text-anchor="start" x="653" y="-417.5" font-family="Arial Italic" font-size="10.00" fill="#999999">jsonb</text>
<text text-anchor="start" x="600" y="-404.5" font-family="Arial" font-size="10.00">authorship_year </text>
<text text-anchor="start" x="673" y="-404.5" font-family="Arial Italic" font-size="10.00" fill="#999999">string</text>
<text text-anchor="start" x="600" y="-391.5" font-family="Arial" font-size="10.00">bloom_taxonomy </text>
<text text-anchor="start" x="678" y="-391.5" font-family="Arial Italic" font-size="10.00" fill="#999999">string</text>
<text text-anchor="start" x="600" y="-378.5" font-family="Arial" font-size="10.00">body </text>
<text text-anchor="start" x="625" y="-378.5" font-family="Arial Italic" font-size="10.00" fill="#999999">text</text>
<text text-anchor="start" x="600" y="-365.5" font-family="Arial" font-size="10.00">check_type </text>
<text text-anchor="start" x="654" y="-365.5" font-family="Arial Italic" font-size="10.00" fill="#999999">string</text>
<text text-anchor="start" x="600" y="-352.5" font-family="Arial" font-size="10.00">difficulty </text>
<text text-anchor="start" x="640" y="-352.5" font-family="Arial Italic" font-size="10.00" fill="#999999">string</text>
<text text-anchor="start" x="600" y="-339.5" font-family="Arial" font-size="10.00">explanation </text>
<text text-anchor="start" x="653" y="-339.5" font-family="Arial Italic" font-size="10.00" fill="#999999">text</text>
<text text-anchor="start" x="600" y="-326.5" font-family="Arial" font-size="10.00">instruction </text>
<text text-anchor="start" x="649" y="-326.5" font-family="Arial Italic" font-size="10.00" fill="#999999">text</text>
<text text-anchor="start" x="600" y="-313.5" font-family="Arial" font-size="10.00">introduction </text>
<text text-anchor="start" x="654" y="-313.5" font-family="Arial Italic" font-size="10.00" fill="#999999">string</text>
<text text-anchor="start" x="600" y="-300.5" font-family="Arial" font-size="10.00">own </text>
<text text-anchor="start" x="622" y="-300.5" font-family="Arial Italic" font-size="10.00" fill="#999999">boolean</text>
<text text-anchor="start" x="600" y="-287.5" font-family="Arial" font-size="10.00">references </text>
<text text-anchor="start" x="649" y="-287.5" font-family="Arial Italic" font-size="10.00" fill="#999999">text</text>
<text text-anchor="start" x="600" y="-274.5" font-family="Arial" font-size="10.00">source </text>
<text text-anchor="start" x="633" y="-274.5" font-family="Arial Italic" font-size="10.00" fill="#999999">string</text>
<text text-anchor="start" x="600" y="-261.5" font-family="Arial" font-size="10.00">status </text>
<text text-anchor="start" x="631" y="-261.5" font-family="Arial Italic" font-size="10.00" fill="#999999">string ∗</text>
<text text-anchor="start" x="600" y="-248.5" font-family="Arial" font-size="10.00">subject_id </text>
<text text-anchor="start" x="648" y="-248.5" font-family="Arial Italic" font-size="10.00" fill="#999999">integer (8) FK</text>
<text text-anchor="start" x="600" y="-235.5" font-family="Arial" font-size="10.00">support </text>
<text text-anchor="start" x="637" y="-235.5" font-family="Arial Italic" font-size="10.00" fill="#999999">text</text>
<text text-anchor="start" x="600" y="-222.5" font-family="Arial" font-size="10.00">user_id </text>
<text text-anchor="start" x="635" y="-222.5" font-family="Arial Italic" font-size="10.00" fill="#999999">integer (8) FK</text>
</g>
<!-- m_Question&#45;&gt;m_ReviewRequest -->
<g id="edge13" class="edge">
<title>m_Question&#45;&gt;m_ReviewRequest</title>
<path fill="none" stroke="black" d="M592.77,-227.31C588.25,-222.02 583.64,-216.88 579,-212 568.93,-201.42 557.25,-191 545.78,-181.56"/>
<polygon fill="black" stroke="black" points="547.66,-179.03 538.68,-175.82 543.7,-183.93 547.66,-179.03"/>
</g>
<!-- m_ReviewFeedback -->
<g id="node8" class="node">
<title>m_ReviewFeedback</title>
<path fill="none" stroke="black" d="M421,-0.5C421,-0.5 563,-0.5 563,-0.5 569,-0.5 575,-6.5 575,-12.5 575,-12.5 575,-57.5 575,-57.5 575,-63.5 569,-69.5 563,-69.5 563,-69.5 421,-69.5 421,-69.5 415,-69.5 409,-63.5 409,-57.5 409,-57.5 409,-12.5 409,-12.5 409,-6.5 415,-0.5 421,-0.5"/>
<text text-anchor="start" x="446" y="-56.7" font-family="Arial Bold" font-size="11.00">ReviewFeedback</text>
<polyline fill="none" stroke="black" points="409,-49.5 575,-49.5 "/>
<text text-anchor="start" x="416" y="-36" font-family="Arial" font-size="10.00">comment </text>
<text text-anchor="start" x="460" y="-36" font-family="Arial Italic" font-size="10.00" fill="#999999">text</text>
<text text-anchor="start" x="416" y="-23" font-family="Arial" font-size="10.00">review_request_id </text>
<text text-anchor="start" x="498" y="-23" font-family="Arial Italic" font-size="10.00" fill="#999999">integer (8) ∗ FK</text>
<text text-anchor="start" x="416" y="-10" font-family="Arial" font-size="10.00">status </text>
<text text-anchor="start" x="447" y="-10" font-family="Arial Italic" font-size="10.00" fill="#999999">string</text>
</g>
<!-- m_ReviewRequest&#45;&gt;m_ReviewFeedback -->
<g id="edge9" class="edge">
<title>m_ReviewRequest&#45;&gt;m_ReviewFeedback</title>
<path fill="none" stroke="black" d="M492,-106.23C492,-97.43 492,-87.82 492,-78.62"/>
<polygon fill="black" stroke="black" points="495.15,-78.6 492,-69.6 488.85,-78.6 495.15,-78.6"/>
</g>
<!-- m_Role -->
<g id="node10" class="node">
<title>m_Role</title>
<path fill="none" stroke="black" d="M398,-639C398,-639 518,-639 518,-639 524,-639 530,-645 530,-651 530,-651 530,-670 530,-670 530,-676 524,-682 518,-682 518,-682 398,-682 398,-682 392,-682 386,-676 386,-670 386,-670 386,-651 386,-651 386,-645 392,-639 398,-639"/>
<text text-anchor="start" x="443.5" y="-669.2" font-family="Arial Bold" font-size="11.00">Role</text>
<polyline fill="none" stroke="black" points="386,-662 530,-662 "/>
<text text-anchor="start" x="393" y="-648.5" font-family="Arial" font-size="10.00">name </text>
<text text-anchor="start" x="421" y="-648.5" font-family="Arial Italic" font-size="10.00" fill="#999999">string ∗ U</text>
</g>
<!-- m_User -->
<g id="node13" class="node">
<title>m_User</title>
<path fill="none" stroke="black" d="M389.5,-487.5C389.5,-487.5 526.5,-487.5 526.5,-487.5 532.5,-487.5 538.5,-493.5 538.5,-499.5 538.5,-499.5 538.5,-583.5 538.5,-583.5 538.5,-589.5 532.5,-595.5 526.5,-595.5 526.5,-595.5 389.5,-595.5 389.5,-595.5 383.5,-595.5 377.5,-589.5 377.5,-583.5 377.5,-583.5 377.5,-499.5 377.5,-499.5 377.5,-493.5 383.5,-487.5 389.5,-487.5"/>
<text text-anchor="start" x="443.5" y="-582.7" font-family="Arial Bold" font-size="11.00">User</text>
<polyline fill="none" stroke="black" points="377.5,-575.5 538.5,-575.5 "/>
<text text-anchor="start" x="385" y="-562.5" font-family="Arial" font-size="10.00">email </text>
<text text-anchor="start" x="412" y="-562.5" font-family="Arial Italic" font-size="10.00" fill="#999999">string ∗ U</text>
<text text-anchor="start" x="385" y="-549.5" font-family="Arial" font-size="10.00">encrypted_password </text>
<text text-anchor="start" x="479" y="-549.5" font-family="Arial Italic" font-size="10.00" fill="#999999">string ∗</text>
<text text-anchor="start" x="385" y="-536.5" font-family="Arial" font-size="10.00">name </text>
<text text-anchor="start" x="413" y="-536.5" font-family="Arial Italic" font-size="10.00" fill="#999999">string</text>
<text text-anchor="start" x="385" y="-523.5" font-family="Arial" font-size="10.00">remember_created_at </text>
<text text-anchor="start" x="483" y="-523.5" font-family="Arial Italic" font-size="10.00" fill="#999999">datetime</text>
<text text-anchor="start" x="385" y="-510.5" font-family="Arial" font-size="10.00">reset_password_sent_at </text>
<text text-anchor="start" x="494" y="-510.5" font-family="Arial Italic" font-size="10.00" fill="#999999">datetime</text>
<text text-anchor="start" x="385" y="-497.5" font-family="Arial" font-size="10.00">reset_password_token </text>
<text text-anchor="start" x="485" y="-497.5" font-family="Arial Italic" font-size="10.00" fill="#999999">string</text>
</g>
<!-- m_Role&#45;&gt;m_User -->
<g id="edge3" class="edge">
<title>m_Role&#45;&gt;m_User</title>
<path fill="none" stroke="black" d="M458,-629.8C458,-622.07 458,-613.45 458,-604.71"/>
<polygon fill="black" stroke="black" points="454.85,-629.85 458,-638.85 461.15,-629.85 454.85,-629.85"/>
<polygon fill="black" stroke="black" points="461.15,-604.6 458,-595.6 454.85,-604.6 461.15,-604.6"/>
</g>
<!-- m_Subject&#45;&gt;m_Objective -->
<g id="edge15" class="edge">
<title>m_Subject&#45;&gt;m_Objective</title>
<path fill="none" stroke="black" d="M630.41,-506.64C614.26,-490.3 595.09,-470.13 579,-451 576,-447.43 572.98,-443.76 569.96,-440.04"/>
<polygon fill="black" stroke="black" points="572.25,-437.86 564.17,-432.8 567.34,-441.8 572.25,-437.86"/>
</g>
<!-- m_Subject&#45;&gt;m_Question -->
<g id="edge12" class="edge">
<title>m_Subject&#45;&gt;m_Question</title>
<path fill="none" stroke="black" d="M665,-506.62C665,-493.19 665,-476.84 665,-459.6"/>
<polygon fill="black" stroke="black" points="668.15,-459.51 665,-450.51 661.85,-459.51 668.15,-459.51"/>
</g>
<!-- m_Upload -->
<g id="node12" class="node">
<title>m_Upload</title>
<path fill="none" stroke="black" d="M203,-520C203,-520 323,-520 323,-520 329,-520 335,-526 335,-532 335,-532 335,-551 335,-551 335,-557 329,-563 323,-563 323,-563 203,-563 203,-563 197,-563 191,-557 191,-551 191,-551 191,-532 191,-532 191,-526 197,-520 203,-520"/>
<text text-anchor="start" x="242" y="-550.2" font-family="Arial Bold" font-size="11.00">Upload</text>
<polyline fill="none" stroke="black" points="191,-543 335,-543 "/>
<text text-anchor="start" x="198" y="-529.5" font-family="Arial" font-size="10.00">filename </text>
<text text-anchor="start" x="238" y="-529.5" font-family="Arial Italic" font-size="10.00" fill="#999999">string</text>
</g>
<!-- m_Upload&#45;&gt;m_ActiveStorage::Attachment -->
<g id="edge5" class="edge">
<title>m_Upload&#45;&gt;m_ActiveStorage::Attachment</title>
<path fill="none" stroke="black" d="M262.3,-519.8C261.15,-485.58 258.83,-416.64 257.35,-372.62"/>
</g>
<!-- m_User&#45;&gt;m_ActiveStorage::Attachment -->
<g id="edge6" class="edge">
<title>m_User&#45;&gt;m_ActiveStorage::Attachment</title>
<path fill="none" stroke="black" d="M392.94,-487.48C379.68,-475.86 366.09,-463.33 354,-451 329.79,-426.32 305,-396.28 286.41,-372.63"/>
</g>
<!-- m_User&#45;&gt;m_ActiveStorage::Blob -->
<g id="edge7" class="edge">
<title>m_User&#45;&gt;m_ActiveStorage::Blob</title>
<path fill="none" stroke="black" stroke-dasharray="1,5" d="M379.71,-595.63C365.25,-603.21 349.85,-609.83 334.5,-614 272.74,-630.79 252.1,-631.35 190.5,-614 174.71,-609.55 158.95,-602.35 144.32,-594.18"/>
</g>
<!-- m_User&#45;&gt;m_Objective -->
<g id="edge1" class="edge">
<title>m_User&#45;&gt;m_Objective</title>
<path fill="none" stroke="black" d="M466.67,-487.47C468.1,-478.72 469.63,-469.33 471.22,-459.65"/>
<polygon fill="black" stroke="black" points="474.34,-460.08 472.68,-450.69 468.12,-459.07 474.34,-460.08"/>
</g>
<!-- m_User&#45;&gt;m_Question -->
<g id="edge11" class="edge">
<title>m_User&#45;&gt;m_Question</title>
<path fill="none" stroke="black" d="M537.37,-487.25C551.88,-476.03 566.4,-463.71 579,-451 581.47,-448.51 583.93,-445.94 586.36,-443.31"/>
<polygon fill="black" stroke="black" points="589.07,-445.01 592.75,-436.21 584.38,-440.79 589.07,-445.01"/>
</g>
<!-- m_User&#45;&gt;m_ReviewRequest -->
<g id="edge2" class="edge">
<title>m_User&#45;&gt;m_ReviewRequest</title>
<path fill="none" stroke="black" d="M420.98,-487.14C414.8,-475.69 409.32,-463.32 406,-451 378.37,-348.43 360.39,-307.93 406,-212 411.39,-200.67 419.61,-190.57 428.87,-181.81"/>
<polygon fill="black" stroke="black" points="431.14,-184 435.77,-175.67 426.95,-179.3 431.14,-184"/>
</g>
</g>
</svg>
