<?xml version="1.0" encoding="UTF-8" standalone="no"?>
<!DOCTYPE svg PUBLIC "-//W3C//DTD SVG 1.1//EN"
 "http://www.w3.org/Graphics/SVG/1.1/DTD/svg11.dtd">
<!-- Generated by graphviz version 2.47.2 (0)
 -->
<!-- Title: ProgressTest Pages: 1 -->
<svg width="1098pt" height="758pt"
 viewBox="0.00 0.00 1097.60 757.60" xmlns="http://www.w3.org/2000/svg" xmlns:xlink="http://www.w3.org/1999/xlink">
<g id="graph0" class="graph" transform="scale(1 1) rotate(0) translate(28.8 728.8)">
<title>ProgressTest</title>
<polygon fill="white" stroke="transparent" points="-28.8,28.8 -28.8,-728.8 1068.8,-728.8 1068.8,28.8 -28.8,28.8"/>
<text text-anchor="middle" x="520" y="-685.6" font-family="Arial Bold" font-size="13.00">Progress Test &#45; Models</text>
<!-- m_ActiveStorage::Attachment -->
<g id="node1" class="node">
<title>m_ActiveStorage::Attachment</title>
<path fill="none" stroke="black" d="M198.5,-277.5C198.5,-277.5 327.5,-277.5 327.5,-277.5 333.5,-277.5 339.5,-283.5 339.5,-289.5 339.5,-289.5 339.5,-347.5 339.5,-347.5 339.5,-353.5 333.5,-359.5 327.5,-359.5 327.5,-359.5 198.5,-359.5 198.5,-359.5 192.5,-359.5 186.5,-353.5 186.5,-347.5 186.5,-347.5 186.5,-289.5 186.5,-289.5 186.5,-283.5 192.5,-277.5 198.5,-277.5"/>
<text text-anchor="start" x="192" y="-346.7" font-family="Arial Bold" font-size="11.00">ActiveStorage::Attachment</text>
<polyline fill="none" stroke="black" points="186.5,-339.5 339.5,-339.5 "/>
<text text-anchor="start" x="198" y="-326.5" font-family="Arial" font-size="10.00">blob_id </text>
<text text-anchor="start" x="232" y="-326.5" font-family="Arial Italic" font-size="10.00" fill="#999999">integer (8) ∗ FK</text>
<text text-anchor="start" x="198" y="-313.5" font-family="Arial" font-size="10.00">name </text>
<text text-anchor="start" x="226" y="-313.5" font-family="Arial Italic" font-size="10.00" fill="#999999">string ∗</text>
<text text-anchor="start" x="198" y="-300.5" font-family="Arial" font-size="10.00">record_id </text>
<text text-anchor="start" x="241" y="-300.5" font-family="Arial Italic" font-size="10.00" fill="#999999">integer (8) ∗ FK</text>
<text text-anchor="start" x="198" y="-287.5" font-family="Arial" font-size="10.00">record_type </text>
<text text-anchor="start" x="253" y="-287.5" font-family="Arial Italic" font-size="10.00" fill="#999999">string ∗</text>
</g>
<!-- m_ActiveStorage::Blob -->
<g id="node2" class="node">
<title>m_ActiveStorage::Blob</title>
<path fill="none" stroke="black" d="M12,-461.5C12,-461.5 132,-461.5 132,-461.5 138,-461.5 144,-467.5 144,-473.5 144,-473.5 144,-557.5 144,-557.5 144,-563.5 138,-569.5 132,-569.5 132,-569.5 12,-569.5 12,-569.5 6,-569.5 0,-563.5 0,-557.5 0,-557.5 0,-473.5 0,-473.5 0,-467.5 6,-461.5 12,-461.5"/>
<text text-anchor="start" x="16.5" y="-556.7" font-family="Arial Bold" font-size="11.00">ActiveStorage::Blob</text>
<polyline fill="none" stroke="black" points="0,-549.5 144,-549.5 "/>
<text text-anchor="start" x="7" y="-536.5" font-family="Arial" font-size="10.00">byte_size </text>
<text text-anchor="start" x="53" y="-536.5" font-family="Arial Italic" font-size="10.00" fill="#999999">integer (8) ∗</text>
<text text-anchor="start" x="7" y="-523.5" font-family="Arial" font-size="10.00">checksum </text>
<text text-anchor="start" x="56" y="-523.5" font-family="Arial Italic" font-size="10.00" fill="#999999">string ∗</text>
<text text-anchor="start" x="7" y="-510.5" font-family="Arial" font-size="10.00">content_type </text>
<text text-anchor="start" x="67" y="-510.5" font-family="Arial Italic" font-size="10.00" fill="#999999">string</text>
<text text-anchor="start" x="7" y="-497.5" font-family="Arial" font-size="10.00">filename </text>
<text text-anchor="start" x="47" y="-497.5" font-family="Arial Italic" font-size="10.00" fill="#999999">string ∗</text>
<text text-anchor="start" x="7" y="-484.5" font-family="Arial" font-size="10.00">key </text>
<text text-anchor="start" x="26" y="-484.5" font-family="Arial Italic" font-size="10.00" fill="#999999">string ∗</text>
<text text-anchor="start" x="7" y="-471.5" font-family="Arial" font-size="10.00">metadata </text>
<text text-anchor="start" x="51" y="-471.5" font-family="Arial Italic" font-size="10.00" fill="#999999">text</text>
</g>
<!-- m_ActiveStorage::Blob&#45;&gt;m_ActiveStorage::Attachment -->
<g id="edge4" class="edge">
<title>m_ActiveStorage::Blob&#45;&gt;m_ActiveStorage::Attachment</title>
<path fill="none" stroke="black" d="M123.94,-461.47C155.42,-429.33 194.94,-388.98 223.8,-359.52"/>
</g>
<!-- m_ActiveStorage::Blob&#45;&gt;m_ActiveStorage::Blob -->
<g id="edge16" class="edge">
<title>m_ActiveStorage::Blob&#45;&gt;m_ActiveStorage::Blob</title>
<path fill="none" stroke="black" stroke-dasharray="1,5" d="M144.18,-537.14C160.79,-535.27 173,-528.06 173,-515.5 173,-502.94 160.79,-495.73 144.18,-493.86"/>
</g>
<!-- m_Axis -->
<g id="node3" class="node">
<title>m_Axis</title>
<path fill="none" stroke="black" d="M562,-613C562,-613 682,-613 682,-613 688,-613 694,-619 694,-625 694,-625 694,-644 694,-644 694,-650 688,-656 682,-656 682,-656 562,-656 562,-656 556,-656 550,-650 550,-644 550,-644 550,-625 550,-625 550,-619 556,-613 562,-613"/>
<text text-anchor="start" x="608" y="-643.2" font-family="Arial Bold" font-size="11.00">Axis</text>
<polyline fill="none" stroke="black" points="550,-636 694,-636 "/>
<text text-anchor="start" x="557" y="-622.5" font-family="Arial" font-size="10.00">name </text>
<text text-anchor="start" x="585" y="-622.5" font-family="Arial Italic" font-size="10.00" fill="#999999">string ∗ U</text>
</g>
<!-- m_Subject -->
<g id="node10" class="node">
<title>m_Subject</title>
<path fill="none" stroke="black" d="M567,-481C567,-481 687,-481 687,-481 693,-481 699,-487 699,-493 699,-493 699,-538 699,-538 699,-544 693,-550 687,-550 687,-550 567,-550 567,-550 561,-550 555,-544 555,-538 555,-538 555,-493 555,-493 555,-487 561,-481 567,-481"/>
<text text-anchor="start" x="605" y="-537.2" font-family="Arial Bold" font-size="11.00">Subject</text>
<polyline fill="none" stroke="black" points="555,-530 699,-530 "/>
<text text-anchor="start" x="562" y="-516.5" font-family="Arial" font-size="10.00">axis_id </text>
<text text-anchor="start" x="596" y="-516.5" font-family="Arial Italic" font-size="10.00" fill="#999999">integer (8) FK</text>
<text text-anchor="start" x="562" y="-503.5" font-family="Arial" font-size="10.00">category_id </text>
<text text-anchor="start" x="616" y="-503.5" font-family="Arial Italic" font-size="10.00" fill="#999999">integer (8) FK</text>
<text text-anchor="start" x="562" y="-490.5" font-family="Arial" font-size="10.00">name </text>
<text text-anchor="start" x="590" y="-490.5" font-family="Arial Italic" font-size="10.00" fill="#999999">string ∗ U</text>
</g>
<!-- m_Axis&#45;&gt;m_Subject -->
<g id="edge8" class="edge">
<title>m_Axis&#45;&gt;m_Subject</title>
<path fill="none" stroke="black" d="M622.88,-612.85C623.52,-598.04 624.39,-577.54 625.17,-559.27"/>
<polygon fill="black" stroke="black" points="628.32,-559.35 625.56,-550.23 622.03,-559.09 628.32,-559.35"/>
</g>
<!-- m_Category -->
<g id="node4" class="node">
<title>m_Category</title>
<path fill="none" stroke="black" d="M735,-613C735,-613 855,-613 855,-613 861,-613 867,-619 867,-625 867,-625 867,-644 867,-644 867,-650 861,-656 855,-656 855,-656 735,-656 735,-656 729,-656 723,-650 723,-644 723,-644 723,-625 723,-625 723,-619 729,-613 735,-613"/>
<text text-anchor="start" x="768.5" y="-643.2" font-family="Arial Bold" font-size="11.00">Category</text>
<polyline fill="none" stroke="black" points="723,-636 867,-636 "/>
<text text-anchor="start" x="730" y="-622.5" font-family="Arial" font-size="10.00">name </text>
<text text-anchor="start" x="758" y="-622.5" font-family="Arial Italic" font-size="10.00" fill="#999999">string ∗ U</text>
</g>
<!-- m_Category&#45;&gt;m_Subject -->
<g id="edge14" class="edge">
<title>m_Category&#45;&gt;m_Subject</title>
<path fill="none" stroke="black" d="M765.35,-612.85C742.62,-597.02 710.58,-574.71 683.06,-555.54"/>
<polygon fill="black" stroke="black" points="684.62,-552.79 675.43,-550.23 681.02,-557.96 684.62,-552.79"/>
</g>
<!-- m_JwtBlacklist -->
<g id="node5" class="node">
<title>m_JwtBlacklist</title>
<path fill="none" stroke="black" d="M908,-606.5C908,-606.5 1028,-606.5 1028,-606.5 1034,-606.5 1040,-612.5 1040,-618.5 1040,-618.5 1040,-650.5 1040,-650.5 1040,-656.5 1034,-662.5 1028,-662.5 1028,-662.5 908,-662.5 908,-662.5 902,-662.5 896,-656.5 896,-650.5 896,-650.5 896,-618.5 896,-618.5 896,-612.5 902,-606.5 908,-606.5"/>
<text text-anchor="start" x="934" y="-649.7" font-family="Arial Bold" font-size="11.00">JwtBlacklist</text>
<polyline fill="none" stroke="black" points="896,-642.5 1040,-642.5 "/>
<text text-anchor="start" x="903" y="-629.5" font-family="Arial" font-size="10.00">exp </text>
<text text-anchor="start" x="922" y="-629.5" font-family="Arial Italic" font-size="10.00" fill="#999999">datetime</text>
<text text-anchor="start" x="903" y="-616.5" font-family="Arial" font-size="10.00">jti </text>
<text text-anchor="start" x="914" y="-616.5" font-family="Arial Italic" font-size="10.00" fill="#999999">string</text>
</g>
<!-- m_Question -->
<g id="node6" class="node">
<title>m_Question</title>
<path fill="none" stroke="black" d="M560,-212.5C560,-212.5 680,-212.5 680,-212.5 686,-212.5 692,-218.5 692,-224.5 692,-224.5 692,-412.5 692,-412.5 692,-418.5 686,-424.5 680,-424.5 680,-424.5 560,-424.5 560,-424.5 554,-424.5 548,-418.5 548,-412.5 548,-412.5 548,-224.5 548,-224.5 548,-218.5 554,-212.5 560,-212.5"/>
<text text-anchor="start" x="594" y="-411.7" font-family="Arial Bold" font-size="11.00">Question</text>
<polyline fill="none" stroke="black" points="548,-404.5 692,-404.5 "/>
<text text-anchor="start" x="555" y="-391.5" font-family="Arial" font-size="10.00">alternatives </text>
<text text-anchor="start" x="609" y="-391.5" font-family="Arial Italic" font-size="10.00" fill="#999999">jsonb ∗</text>
<text text-anchor="start" x="555" y="-378.5" font-family="Arial" font-size="10.00">authorship_year </text>
<text text-anchor="start" x="628" y="-378.5" font-family="Arial Italic" font-size="10.00" fill="#999999">string</text>
<text text-anchor="start" x="555" y="-365.5" font-family="Arial" font-size="10.00">bloom_taxonomy </text>
<text text-anchor="start" x="633" y="-365.5" font-family="Arial Italic" font-size="10.00" fill="#999999">string</text>
<text text-anchor="start" x="555" y="-352.5" font-family="Arial" font-size="10.00">body </text>
<text text-anchor="start" x="580" y="-352.5" font-family="Arial Italic" font-size="10.00" fill="#999999">text</text>
<text text-anchor="start" x="555" y="-339.5" font-family="Arial" font-size="10.00">check_type </text>
<text text-anchor="start" x="609" y="-339.5" font-family="Arial Italic" font-size="10.00" fill="#999999">string</text>
<text text-anchor="start" x="555" y="-326.5" font-family="Arial" font-size="10.00">difficulty </text>
<text text-anchor="start" x="595" y="-326.5" font-family="Arial Italic" font-size="10.00" fill="#999999">string</text>
<text text-anchor="start" x="555" y="-313.5" font-family="Arial" font-size="10.00">explanation </text>
<text text-anchor="start" x="608" y="-313.5" font-family="Arial Italic" font-size="10.00" fill="#999999">text</text>
<text text-anchor="start" x="555" y="-300.5" font-family="Arial" font-size="10.00">instruction </text>
<text text-anchor="start" x="604" y="-300.5" font-family="Arial Italic" font-size="10.00" fill="#999999">text</text>
<text text-anchor="start" x="555" y="-287.5" font-family="Arial" font-size="10.00">references </text>
<text text-anchor="start" x="604" y="-287.5" font-family="Arial Italic" font-size="10.00" fill="#999999">text</text>
<text text-anchor="start" x="555" y="-274.5" font-family="Arial" font-size="10.00">source </text>
<text text-anchor="start" x="588" y="-274.5" font-family="Arial Italic" font-size="10.00" fill="#999999">string</text>
<text text-anchor="start" x="555" y="-261.5" font-family="Arial" font-size="10.00">status </text>
<text text-anchor="start" x="586" y="-261.5" font-family="Arial Italic" font-size="10.00" fill="#999999">string ∗</text>
<text text-anchor="start" x="555" y="-248.5" font-family="Arial" font-size="10.00">subject_id </text>
<text text-anchor="start" x="603" y="-248.5" font-family="Arial Italic" font-size="10.00" fill="#999999">integer (8) FK</text>
<text text-anchor="start" x="555" y="-235.5" font-family="Arial" font-size="10.00">support </text>
<text text-anchor="start" x="591" y="-235.5" font-family="Arial Italic" font-size="10.00" fill="#999999">text</text>
<text text-anchor="start" x="555" y="-222.5" font-family="Arial" font-size="10.00">user_id </text>
<text text-anchor="start" x="590" y="-222.5" font-family="Arial Italic" font-size="10.00" fill="#999999">integer (8) FK</text>
</g>
<!-- m_ReviewFeedback -->
<g id="node7" class="node">
<title>m_ReviewFeedback</title>
<path fill="none" stroke="black" d="M462,-0.5C462,-0.5 604,-0.5 604,-0.5 610,-0.5 616,-6.5 616,-12.5 616,-12.5 616,-57.5 616,-57.5 616,-63.5 610,-69.5 604,-69.5 604,-69.5 462,-69.5 462,-69.5 456,-69.5 450,-63.5 450,-57.5 450,-57.5 450,-12.5 450,-12.5 450,-6.5 456,-0.5 462,-0.5"/>
<text text-anchor="start" x="487" y="-56.7" font-family="Arial Bold" font-size="11.00">ReviewFeedback</text>
<polyline fill="none" stroke="black" points="450,-49.5 616,-49.5 "/>
<text text-anchor="start" x="457" y="-36" font-family="Arial" font-size="10.00">comment </text>
<text text-anchor="start" x="501" y="-36" font-family="Arial Italic" font-size="10.00" fill="#999999">text</text>
<text text-anchor="start" x="457" y="-23" font-family="Arial" font-size="10.00">review_request_id </text>
<text text-anchor="start" x="539" y="-23" font-family="Arial Italic" font-size="10.00" fill="#999999">integer (8) ∗ FK</text>
<text text-anchor="start" x="457" y="-10" font-family="Arial" font-size="10.00">status </text>
<text text-anchor="start" x="488" y="-10" font-family="Arial Italic" font-size="10.00" fill="#999999">string</text>
</g>
<!-- m_Question&#45;&gt;m_ReviewFeedback -->
<g id="edge13" class="edge">
<title>m_Question&#45;&gt;m_ReviewFeedback</title>
<path fill="none" stroke="black" stroke-dasharray="1,5" d="M547.71,-279.65C509.89,-255.55 467.16,-220.48 446,-176 432.64,-147.91 432.56,-134.06 446,-106 451.46,-94.6 459.78,-84.47 469.14,-75.7"/>
<polygon fill="black" stroke="black" points="471.45,-77.87 476.13,-69.56 467.29,-73.14 471.45,-77.87"/>
</g>
<!-- m_ReviewRequest -->
<g id="node8" class="node">
<title>m_ReviewRequest</title>
<path fill="none" stroke="black" d="M473,-106.5C473,-106.5 593,-106.5 593,-106.5 599,-106.5 605,-112.5 605,-118.5 605,-118.5 605,-163.5 605,-163.5 605,-169.5 599,-175.5 593,-175.5 593,-175.5 473,-175.5 473,-175.5 467,-175.5 461,-169.5 461,-163.5 461,-163.5 461,-118.5 461,-118.5 461,-112.5 467,-106.5 473,-106.5"/>
<text text-anchor="start" x="490" y="-162.7" font-family="Arial Bold" font-size="11.00">ReviewRequest</text>
<polyline fill="none" stroke="black" points="461,-155.5 605,-155.5 "/>
<text text-anchor="start" x="468" y="-142" font-family="Arial" font-size="10.00">answered </text>
<text text-anchor="start" x="514" y="-142" font-family="Arial Italic" font-size="10.00" fill="#999999">boolean ∗</text>
<text text-anchor="start" x="468" y="-129" font-family="Arial" font-size="10.00">question_id </text>
<text text-anchor="start" x="521" y="-129" font-family="Arial Italic" font-size="10.00" fill="#999999">integer (8) ∗ FK</text>
<text text-anchor="start" x="468" y="-116" font-family="Arial" font-size="10.00">user_id </text>
<text text-anchor="start" x="503" y="-116" font-family="Arial Italic" font-size="10.00" fill="#999999">integer (8) ∗ FK</text>
</g>
<!-- m_Question&#45;&gt;m_ReviewRequest -->
<g id="edge11" class="edge">
<title>m_Question&#45;&gt;m_ReviewRequest</title>
<path fill="none" stroke="black" d="M567.88,-212.37C562.95,-202.41 558.17,-192.77 553.81,-183.97"/>
<polygon fill="black" stroke="black" points="556.58,-182.48 549.76,-175.82 550.94,-185.28 556.58,-182.48"/>
</g>
<!-- m_User -->
<g id="node12" class="node">
<title>m_User</title>
<path fill="none" stroke="black" d="M376,-461.5C376,-461.5 514,-461.5 514,-461.5 520,-461.5 526,-467.5 526,-473.5 526,-473.5 526,-557.5 526,-557.5 526,-563.5 520,-569.5 514,-569.5 514,-569.5 376,-569.5 376,-569.5 370,-569.5 364,-563.5 364,-557.5 364,-557.5 364,-473.5 364,-473.5 364,-467.5 370,-461.5 376,-461.5"/>
<text text-anchor="start" x="430.5" y="-556.7" font-family="Arial Bold" font-size="11.00">User</text>
<polyline fill="none" stroke="black" points="364,-549.5 526,-549.5 "/>
<text text-anchor="start" x="371" y="-536.5" font-family="Arial" font-size="10.00">email </text>
<text text-anchor="start" x="398" y="-536.5" font-family="Arial Italic" font-size="10.00" fill="#999999">string ∗ U</text>
<text text-anchor="start" x="371" y="-523.5" font-family="Arial" font-size="10.00">encrypted_password </text>
<text text-anchor="start" x="465" y="-523.5" font-family="Arial Italic" font-size="10.00" fill="#999999">string ∗</text>
<text text-anchor="start" x="371" y="-510.5" font-family="Arial" font-size="10.00">name </text>
<text text-anchor="start" x="399" y="-510.5" font-family="Arial Italic" font-size="10.00" fill="#999999">string ∗</text>
<text text-anchor="start" x="371" y="-497.5" font-family="Arial" font-size="10.00">remember_created_at </text>
<text text-anchor="start" x="469" y="-497.5" font-family="Arial Italic" font-size="10.00" fill="#999999">datetime</text>
<text text-anchor="start" x="371" y="-484.5" font-family="Arial" font-size="10.00">reset_password_sent_at </text>
<text text-anchor="start" x="481" y="-484.5" font-family="Arial Italic" font-size="10.00" fill="#999999">datetime</text>
<text text-anchor="start" x="371" y="-471.5" font-family="Arial" font-size="10.00">reset_password_token </text>
<text text-anchor="start" x="473" y="-471.5" font-family="Arial Italic" font-size="10.00" fill="#999999">string</text>
</g>
<!-- m_ReviewFeedback&#45;&gt;m_User -->
<g id="edge10" class="edge">
<title>m_ReviewFeedback&#45;&gt;m_User</title>
<path fill="none" stroke="black" stroke-dasharray="1,5" d="M476.15,-69.57C464.01,-79.64 452.8,-91.85 446,-106 390.03,-222.51 413.24,-380.16 431.27,-461.33"/>
</g>
<!-- m_ReviewRequest&#45;&gt;m_ReviewFeedback -->
<g id="edge9" class="edge">
<title>m_ReviewRequest&#45;&gt;m_ReviewFeedback</title>
<path fill="none" stroke="black" d="M533,-106.23C533,-97.43 533,-87.82 533,-78.62"/>
<polygon fill="black" stroke="black" points="536.15,-78.6 533,-69.6 529.85,-78.6 536.15,-78.6"/>
</g>
<!-- m_Role -->
<g id="node9" class="node">
<title>m_Role</title>
<path fill="none" stroke="black" d="M385,-613C385,-613 505,-613 505,-613 511,-613 517,-619 517,-625 517,-625 517,-644 517,-644 517,-650 511,-656 505,-656 505,-656 385,-656 385,-656 379,-656 373,-650 373,-644 373,-644 373,-625 373,-625 373,-619 379,-613 385,-613"/>
<text text-anchor="start" x="430.5" y="-643.2" font-family="Arial Bold" font-size="11.00">Role</text>
<polyline fill="none" stroke="black" points="373,-636 517,-636 "/>
<text text-anchor="start" x="380" y="-622.5" font-family="Arial" font-size="10.00">name </text>
<text text-anchor="start" x="408" y="-622.5" font-family="Arial Italic" font-size="10.00" fill="#999999">string ∗ U</text>
</g>
<!-- m_Role&#45;&gt;m_User -->
<g id="edge3" class="edge">
<title>m_Role&#45;&gt;m_User</title>
<path fill="none" stroke="black" d="M445,-603.8C445,-596.07 445,-587.45 445,-578.71"/>
<polygon fill="black" stroke="black" points="441.85,-603.85 445,-612.85 448.15,-603.85 441.85,-603.85"/>
<polygon fill="black" stroke="black" points="448.15,-578.6 445,-569.6 441.85,-578.6 448.15,-578.6"/>
</g>
<!-- m_Subject&#45;&gt;m_Question -->
<g id="edge12" class="edge">
<title>m_Subject&#45;&gt;m_Question</title>
<path fill="none" stroke="black" d="M625.8,-480.98C625.31,-467.44 624.72,-450.95 624.1,-433.75"/>
<polygon fill="black" stroke="black" points="627.25,-433.58 623.78,-424.7 620.95,-433.81 627.25,-433.58"/>
</g>
<!-- m_Upload -->
<g id="node11" class="node">
<title>m_Upload</title>
<path fill="none" stroke="black" d="M203,-497.5C203,-497.5 323,-497.5 323,-497.5 329,-497.5 335,-503.5 335,-509.5 335,-509.5 335,-521.5 335,-521.5 335,-527.5 329,-533.5 323,-533.5 323,-533.5 203,-533.5 203,-533.5 197,-533.5 191,-527.5 191,-521.5 191,-521.5 191,-509.5 191,-509.5 191,-503.5 197,-497.5 203,-497.5"/>
<text text-anchor="start" x="242" y="-512.7" font-family="Arial Bold" font-size="11.00">Upload</text>
</g>
<!-- m_Upload&#45;&gt;m_ActiveStorage::Attachment -->
<g id="edge5" class="edge">
<title>m_Upload&#45;&gt;m_ActiveStorage::Attachment</title>
<path fill="none" stroke="black" d="M263,-497.2C263,-466.53 263,-401.9 263,-359.62"/>
</g>
<!-- m_User&#45;&gt;m_ActiveStorage::Attachment -->
<g id="edge6" class="edge">
<title>m_User&#45;&gt;m_ActiveStorage::Attachment</title>
<path fill="none" stroke="black" d="M395.51,-461.47C365.51,-429.33 327.85,-388.98 300.35,-359.52"/>
</g>
<!-- m_User&#45;&gt;m_ActiveStorage::Blob -->
<g id="edge7" class="edge">
<title>m_User&#45;&gt;m_ActiveStorage::Blob</title>
<path fill="none" stroke="black" stroke-dasharray="1,5" d="M375.51,-569.58C362.51,-577.16 348.57,-583.8 334.5,-588 273.18,-606.32 252.1,-605.35 190.5,-588 174.71,-583.55 158.95,-576.35 144.32,-568.18"/>
</g>
<!-- m_User&#45;&gt;m_Question -->
<g id="edge1" class="edge">
<title>m_User&#45;&gt;m_Question</title>
<path fill="none" stroke="black" d="M493.47,-461.08C504.2,-449.22 515.5,-436.69 526,-425 531.12,-419.29 536.4,-413.41 541.71,-407.47"/>
<polygon fill="black" stroke="black" points="544.31,-409.29 547.96,-400.48 539.61,-405.09 544.31,-409.29"/>
</g>
<!-- m_User&#45;&gt;m_ReviewRequest -->
<g id="edge2" class="edge">
<title>m_User&#45;&gt;m_ReviewRequest</title>
<path fill="none" stroke="black" d="M457.61,-461.13C475.23,-386.53 506.88,-252.57 522.99,-184.38"/>
<polygon fill="black" stroke="black" points="526.06,-185.09 525.06,-175.6 519.93,-183.64 526.06,-185.09"/>
</g>
</g>
</svg>
