<?xml version="1.0" encoding="UTF-8" standalone="no"?>
<!DOCTYPE svg PUBLIC "-//W3C//DTD SVG 1.1//EN"
 "http://www.w3.org/Graphics/SVG/1.1/DTD/svg11.dtd">
<!-- Generated by graphviz version 2.44.1 (0)
 -->
<!-- Title: ProgressTest Pages: 1 -->
<svg width="930pt" height="957pt"
 viewBox="0.00 0.00 929.60 956.60" xmlns="http://www.w3.org/2000/svg" xmlns:xlink="http://www.w3.org/1999/xlink">
<g id="graph0" class="graph" transform="scale(1 1) rotate(0) translate(28.8 927.8)">
<title>ProgressTest</title>
<polygon fill="white" stroke="transparent" points="-28.8,28.8 -28.8,-927.8 900.8,-927.8 900.8,28.8 -28.8,28.8"/>
<text text-anchor="middle" x="436" y="-884.6" font-family="Arial Bold" font-size="13.00">Progress Test &#45; Models</text>
<!-- m_ActiveStorage::Attachment -->
<g id="node1" class="node">
<title>m_ActiveStorage::Attachment</title>
<path fill="none" stroke="black" d="M199,-277.5C199,-277.5 327,-277.5 327,-277.5 333,-277.5 339,-283.5 339,-289.5 339,-289.5 339,-347.5 339,-347.5 339,-353.5 333,-359.5 327,-359.5 327,-359.5 199,-359.5 199,-359.5 193,-359.5 187,-353.5 187,-347.5 187,-347.5 187,-289.5 187,-289.5 187,-283.5 193,-277.5 199,-277.5"/>
<text text-anchor="start" x="192" y="-346.7" font-family="Arial Bold" font-size="11.00">ActiveStorage::Attachment</text>
<polyline fill="none" stroke="black" points="187,-339.5 339,-339.5 "/>
<text text-anchor="start" x="198" y="-326.5" font-family="Arial" font-size="10.00">blob_id </text>
<text text-anchor="start" x="232" y="-326.5" font-family="Arial Italic" font-size="10.00" fill="#999999">integer (8) ∗ FK</text>
<text text-anchor="start" x="198" y="-313.5" font-family="Arial" font-size="10.00">name </text>
<text text-anchor="start" x="226" y="-313.5" font-family="Arial Italic" font-size="10.00" fill="#999999">string ∗</text>
<text text-anchor="start" x="198" y="-300.5" font-family="Arial" font-size="10.00">record_id </text>
<text text-anchor="start" x="241" y="-300.5" font-family="Arial Italic" font-size="10.00" fill="#999999">integer (8) ∗ FK</text>
<text text-anchor="start" x="198" y="-287.5" font-family="Arial" font-size="10.00">record_type </text>
<text text-anchor="start" x="253" y="-287.5" font-family="Arial Italic" font-size="10.00" fill="#999999">string ∗</text>
</g>
<!-- m_ActiveStorage::Blob -->
<g id="node2" class="node">
<title>m_ActiveStorage::Blob</title>
<path fill="none" stroke="black" d="M12,-474.5C12,-474.5 132,-474.5 132,-474.5 138,-474.5 144,-480.5 144,-486.5 144,-486.5 144,-570.5 144,-570.5 144,-576.5 138,-582.5 132,-582.5 132,-582.5 12,-582.5 12,-582.5 6,-582.5 0,-576.5 0,-570.5 0,-570.5 0,-486.5 0,-486.5 0,-480.5 6,-474.5 12,-474.5"/>
<text text-anchor="start" x="17" y="-569.7" font-family="Arial Bold" font-size="11.00">ActiveStorage::Blob</text>
<polyline fill="none" stroke="black" points="0,-562.5 144,-562.5 "/>
<text text-anchor="start" x="7" y="-549.5" font-family="Arial" font-size="10.00">byte_size </text>
<text text-anchor="start" x="52" y="-549.5" font-family="Arial Italic" font-size="10.00" fill="#999999">integer (8) ∗</text>
<text text-anchor="start" x="7" y="-536.5" font-family="Arial" font-size="10.00">checksum </text>
<text text-anchor="start" x="56" y="-536.5" font-family="Arial Italic" font-size="10.00" fill="#999999">string ∗</text>
<text text-anchor="start" x="7" y="-523.5" font-family="Arial" font-size="10.00">content_type </text>
<text text-anchor="start" x="67" y="-523.5" font-family="Arial Italic" font-size="10.00" fill="#999999">string</text>
<text text-anchor="start" x="7" y="-510.5" font-family="Arial" font-size="10.00">filename </text>
<text text-anchor="start" x="47" y="-510.5" font-family="Arial Italic" font-size="10.00" fill="#999999">string ∗</text>
<text text-anchor="start" x="7" y="-497.5" font-family="Arial" font-size="10.00">key </text>
<text text-anchor="start" x="26" y="-497.5" font-family="Arial Italic" font-size="10.00" fill="#999999">string ∗</text>
<text text-anchor="start" x="7" y="-484.5" font-family="Arial" font-size="10.00">metadata </text>
<text text-anchor="start" x="51" y="-484.5" font-family="Arial Italic" font-size="10.00" fill="#999999">text</text>
</g>
<!-- m_ActiveStorage::Blob&#45;&gt;m_ActiveStorage::Attachment -->
<g id="edge4" class="edge">
<title>m_ActiveStorage::Blob&#45;&gt;m_ActiveStorage::Attachment</title>
<path fill="none" stroke="black" d="M120.69,-474.47C153.52,-438.73 196.15,-392.3 226.16,-359.62"/>
</g>
<!-- m_ActiveStorage::Blob&#45;&gt;m_ActiveStorage::Blob -->
<g id="edge15" class="edge">
<title>m_ActiveStorage::Blob&#45;&gt;m_ActiveStorage::Blob</title>
<path fill="none" stroke="black" stroke-dasharray="1,5" d="M144.18,-550.14C160.79,-548.27 173,-541.06 173,-528.5 173,-515.94 160.79,-508.73 144.18,-506.86"/>
</g>
<!-- m_Axis -->
<g id="node3" class="node">
<title>m_Axis</title>
<path fill="none" stroke="black" d="M559,-619.5C559,-619.5 695,-619.5 695,-619.5 701,-619.5 707,-625.5 707,-631.5 707,-631.5 707,-663.5 707,-663.5 707,-669.5 701,-675.5 695,-675.5 695,-675.5 559,-675.5 559,-675.5 553,-675.5 547,-669.5 547,-663.5 547,-663.5 547,-631.5 547,-631.5 547,-625.5 553,-619.5 559,-619.5"/>
<text text-anchor="start" x="613" y="-662.7" font-family="Arial Bold" font-size="11.00">Axis</text>
<polyline fill="none" stroke="black" points="547,-655.5 707,-655.5 "/>
<text text-anchor="start" x="554" y="-642.5" font-family="Arial" font-size="10.00">name </text>
<text text-anchor="start" x="582" y="-642.5" font-family="Arial Italic" font-size="10.00" fill="#999999">string ∗ U</text>
<text text-anchor="start" x="554" y="-629.5" font-family="Arial" font-size="10.00">sub_category_id </text>
<text text-anchor="start" x="630" y="-629.5" font-family="Arial Italic" font-size="10.00" fill="#999999">integer (8) ∗ FK</text>
</g>
<!-- m_Subject -->
<g id="node11" class="node">
<title>m_Subject</title>
<path fill="none" stroke="black" d="M567,-500.5C567,-500.5 687,-500.5 687,-500.5 693,-500.5 699,-506.5 699,-512.5 699,-512.5 699,-544.5 699,-544.5 699,-550.5 693,-556.5 687,-556.5 687,-556.5 567,-556.5 567,-556.5 561,-556.5 555,-550.5 555,-544.5 555,-544.5 555,-512.5 555,-512.5 555,-506.5 561,-500.5 567,-500.5"/>
<text text-anchor="start" x="605" y="-543.7" font-family="Arial Bold" font-size="11.00">Subject</text>
<polyline fill="none" stroke="black" points="555,-536.5 699,-536.5 "/>
<text text-anchor="start" x="562" y="-523.5" font-family="Arial" font-size="10.00">axis_id </text>
<text text-anchor="start" x="597" y="-523.5" font-family="Arial Italic" font-size="10.00" fill="#999999">integer (8) ∗ FK</text>
<text text-anchor="start" x="562" y="-510.5" font-family="Arial" font-size="10.00">name </text>
<text text-anchor="start" x="590" y="-510.5" font-family="Arial Italic" font-size="10.00" fill="#999999">string ∗ U</text>
</g>
<!-- m_Axis&#45;&gt;m_Subject -->
<g id="edge10" class="edge">
<title>m_Axis&#45;&gt;m_Subject</title>
<path fill="none" stroke="black" d="M627,-619.36C627,-603.53 627,-583.34 627,-566.11"/>
<polygon fill="black" stroke="black" points="630.15,-565.89 627,-556.89 623.85,-565.89 630.15,-565.89"/>
</g>
<!-- m_Category -->
<g id="node4" class="node">
<title>m_Category</title>
<path fill="none" stroke="black" d="M567,-812C567,-812 687,-812 687,-812 693,-812 699,-818 699,-824 699,-824 699,-843 699,-843 699,-849 693,-855 687,-855 687,-855 567,-855 567,-855 561,-855 555,-849 555,-843 555,-843 555,-824 555,-824 555,-818 561,-812 567,-812"/>
<text text-anchor="start" x="600.5" y="-842.2" font-family="Arial Bold" font-size="11.00">Category</text>
<polyline fill="none" stroke="black" points="555,-835 699,-835 "/>
<text text-anchor="start" x="562" y="-821.5" font-family="Arial" font-size="10.00">name </text>
<text text-anchor="start" x="590" y="-821.5" font-family="Arial Italic" font-size="10.00" fill="#999999">string ∗ U</text>
</g>
<!-- m_SubCategory -->
<g id="node10" class="node">
<title>m_SubCategory</title>
<path fill="none" stroke="black" d="M567,-712.5C567,-712.5 687,-712.5 687,-712.5 693,-712.5 699,-718.5 699,-724.5 699,-724.5 699,-756.5 699,-756.5 699,-762.5 693,-768.5 687,-768.5 687,-768.5 567,-768.5 567,-768.5 561,-768.5 555,-762.5 555,-756.5 555,-756.5 555,-724.5 555,-724.5 555,-718.5 561,-712.5 567,-712.5"/>
<text text-anchor="start" x="590" y="-755.7" font-family="Arial Bold" font-size="11.00">SubCategory</text>
<polyline fill="none" stroke="black" points="555,-748.5 699,-748.5 "/>
<text text-anchor="start" x="562" y="-735.5" font-family="Arial" font-size="10.00">category_id </text>
<text text-anchor="start" x="617" y="-735.5" font-family="Arial Italic" font-size="10.00" fill="#999999">integer (8) ∗ FK</text>
<text text-anchor="start" x="562" y="-722.5" font-family="Arial" font-size="10.00">name </text>
<text text-anchor="start" x="590" y="-722.5" font-family="Arial Italic" font-size="10.00" fill="#999999">string ∗ U</text>
</g>
<!-- m_Category&#45;&gt;m_SubCategory -->
<g id="edge8" class="edge">
<title>m_Category&#45;&gt;m_SubCategory</title>
<path fill="none" stroke="black" d="M627,-811.85C627,-801.75 627,-789.3 627,-777.7"/>
<polygon fill="black" stroke="black" points="630.15,-777.63 627,-768.63 623.85,-777.63 630.15,-777.63"/>
</g>
<!-- m_JwtBlacklist -->
<g id="node5" class="node">
<title>m_JwtBlacklist</title>
<path fill="none" stroke="black" d="M740,-805.5C740,-805.5 860,-805.5 860,-805.5 866,-805.5 872,-811.5 872,-817.5 872,-817.5 872,-849.5 872,-849.5 872,-855.5 866,-861.5 860,-861.5 860,-861.5 740,-861.5 740,-861.5 734,-861.5 728,-855.5 728,-849.5 728,-849.5 728,-817.5 728,-817.5 728,-811.5 734,-805.5 740,-805.5"/>
<text text-anchor="start" x="766" y="-848.7" font-family="Arial Bold" font-size="11.00">JwtBlacklist</text>
<polyline fill="none" stroke="black" points="728,-841.5 872,-841.5 "/>
<text text-anchor="start" x="735" y="-828.5" font-family="Arial" font-size="10.00">exp </text>
<text text-anchor="start" x="754" y="-828.5" font-family="Arial Italic" font-size="10.00" fill="#999999">datetime</text>
<text text-anchor="start" x="735" y="-815.5" font-family="Arial" font-size="10.00">jti </text>
<text text-anchor="start" x="746" y="-815.5" font-family="Arial Italic" font-size="10.00" fill="#999999">string</text>
</g>
<!-- m_Objective -->
<g id="node6" class="node">
<title>m_Objective</title>
<path fill="none" stroke="black" d="M501,-199.5C501,-199.5 621,-199.5 621,-199.5 627,-199.5 633,-205.5 633,-211.5 633,-211.5 633,-425.5 633,-425.5 633,-431.5 627,-437.5 621,-437.5 621,-437.5 501,-437.5 501,-437.5 495,-437.5 489,-431.5 489,-425.5 489,-425.5 489,-211.5 489,-211.5 489,-205.5 495,-199.5 501,-199.5"/>
<text text-anchor="start" x="534.5" y="-424.7" font-family="Arial Bold" font-size="11.00">Objective</text>
<polyline fill="none" stroke="black" points="489,-417.5 633,-417.5 "/>
<text text-anchor="start" x="496" y="-404.5" font-family="Arial" font-size="10.00">alternatives </text>
<text text-anchor="start" x="549" y="-404.5" font-family="Arial Italic" font-size="10.00" fill="#999999">jsonb</text>
<text text-anchor="start" x="496" y="-391.5" font-family="Arial" font-size="10.00">authorship_year </text>
<text text-anchor="start" x="569" y="-391.5" font-family="Arial Italic" font-size="10.00" fill="#999999">string</text>
<text text-anchor="start" x="496" y="-378.5" font-family="Arial" font-size="10.00">bloom_taxonomy </text>
<text text-anchor="start" x="574" y="-378.5" font-family="Arial Italic" font-size="10.00" fill="#999999">string</text>
<text text-anchor="start" x="496" y="-365.5" font-family="Arial" font-size="10.00">body </text>
<text text-anchor="start" x="521" y="-365.5" font-family="Arial Italic" font-size="10.00" fill="#999999">text</text>
<text text-anchor="start" x="496" y="-352.5" font-family="Arial" font-size="10.00">check_type </text>
<text text-anchor="start" x="550" y="-352.5" font-family="Arial Italic" font-size="10.00" fill="#999999">string</text>
<text text-anchor="start" x="496" y="-339.5" font-family="Arial" font-size="10.00">difficulty </text>
<text text-anchor="start" x="536" y="-339.5" font-family="Arial Italic" font-size="10.00" fill="#999999">string</text>
<text text-anchor="start" x="496" y="-326.5" font-family="Arial" font-size="10.00">explanation </text>
<text text-anchor="start" x="549" y="-326.5" font-family="Arial Italic" font-size="10.00" fill="#999999">text</text>
<text text-anchor="start" x="496" y="-313.5" font-family="Arial" font-size="10.00">instruction </text>
<text text-anchor="start" x="545" y="-313.5" font-family="Arial Italic" font-size="10.00" fill="#999999">text</text>
<text text-anchor="start" x="496" y="-300.5" font-family="Arial" font-size="10.00">introduction </text>
<text text-anchor="start" x="550" y="-300.5" font-family="Arial Italic" font-size="10.00" fill="#999999">string</text>
<text text-anchor="start" x="496" y="-287.5" font-family="Arial" font-size="10.00">own </text>
<text text-anchor="start" x="518" y="-287.5" font-family="Arial Italic" font-size="10.00" fill="#999999">boolean</text>
<text text-anchor="start" x="496" y="-274.5" font-family="Arial" font-size="10.00">references </text>
<text text-anchor="start" x="545" y="-274.5" font-family="Arial Italic" font-size="10.00" fill="#999999">text</text>
<text text-anchor="start" x="496" y="-261.5" font-family="Arial" font-size="10.00">source </text>
<text text-anchor="start" x="529" y="-261.5" font-family="Arial Italic" font-size="10.00" fill="#999999">string</text>
<text text-anchor="start" x="496" y="-248.5" font-family="Arial" font-size="10.00">status </text>
<text text-anchor="start" x="527" y="-248.5" font-family="Arial Italic" font-size="10.00" fill="#999999">string ∗</text>
<text text-anchor="start" x="496" y="-235.5" font-family="Arial" font-size="10.00">subject_id </text>
<text text-anchor="start" x="544" y="-235.5" font-family="Arial Italic" font-size="10.00" fill="#999999">integer (8) FK</text>
<text text-anchor="start" x="496" y="-222.5" font-family="Arial" font-size="10.00">support </text>
<text text-anchor="start" x="533" y="-222.5" font-family="Arial Italic" font-size="10.00" fill="#999999">text</text>
<text text-anchor="start" x="496" y="-209.5" font-family="Arial" font-size="10.00">user_id </text>
<text text-anchor="start" x="531" y="-209.5" font-family="Arial Italic" font-size="10.00" fill="#999999">integer (8) FK</text>
</g>
<!-- m_ReviewRequest -->
<g id="node8" class="node">
<title>m_ReviewRequest</title>
<path fill="none" stroke="black" d="M443,-106.5C443,-106.5 563,-106.5 563,-106.5 569,-106.5 575,-112.5 575,-118.5 575,-118.5 575,-150.5 575,-150.5 575,-156.5 569,-162.5 563,-162.5 563,-162.5 443,-162.5 443,-162.5 437,-162.5 431,-156.5 431,-150.5 431,-150.5 431,-118.5 431,-118.5 431,-112.5 437,-106.5 443,-106.5"/>
<text text-anchor="start" x="460" y="-149.7" font-family="Arial Bold" font-size="11.00">ReviewRequest</text>
<polyline fill="none" stroke="black" points="431,-142.5 575,-142.5 "/>
<text text-anchor="start" x="438" y="-129.5" font-family="Arial" font-size="10.00">objective_id </text>
<text text-anchor="start" x="493" y="-129.5" font-family="Arial Italic" font-size="10.00" fill="#999999">integer (8) ∗ FK</text>
<text text-anchor="start" x="438" y="-116.5" font-family="Arial" font-size="10.00">user_id </text>
<text text-anchor="start" x="473" y="-116.5" font-family="Arial Italic" font-size="10.00" fill="#999999">integer (8) ∗ FK</text>
</g>
<!-- m_Objective&#45;&gt;m_ReviewRequest -->
<g id="edge12" class="edge">
<title>m_Objective&#45;&gt;m_ReviewRequest</title>
<path fill="none" stroke="black" d="M523.37,-199.41C520.18,-189.41 517.14,-179.88 514.44,-171.39"/>
<polygon fill="black" stroke="black" points="517.37,-170.22 511.64,-162.6 511.37,-172.13 517.37,-170.22"/>
</g>
<!-- m_ReviewFeedback -->
<g id="node7" class="node">
<title>m_ReviewFeedback</title>
<path fill="none" stroke="black" d="M432,-0.5C432,-0.5 574,-0.5 574,-0.5 580,-0.5 586,-6.5 586,-12.5 586,-12.5 586,-57.5 586,-57.5 586,-63.5 580,-69.5 574,-69.5 574,-69.5 432,-69.5 432,-69.5 426,-69.5 420,-63.5 420,-57.5 420,-57.5 420,-12.5 420,-12.5 420,-6.5 426,-0.5 432,-0.5"/>
<text text-anchor="start" x="457" y="-56.7" font-family="Arial Bold" font-size="11.00">ReviewFeedback</text>
<polyline fill="none" stroke="black" points="420,-49.5 586,-49.5 "/>
<text text-anchor="start" x="427" y="-36" font-family="Arial" font-size="10.00">comment </text>
<text text-anchor="start" x="471" y="-36" font-family="Arial Italic" font-size="10.00" fill="#999999">text</text>
<text text-anchor="start" x="427" y="-23" font-family="Arial" font-size="10.00">review_request_id </text>
<text text-anchor="start" x="509" y="-23" font-family="Arial Italic" font-size="10.00" fill="#999999">integer (8) ∗ FK</text>
<text text-anchor="start" x="427" y="-10" font-family="Arial" font-size="10.00">status </text>
<text text-anchor="start" x="458" y="-10" font-family="Arial Italic" font-size="10.00" fill="#999999">string</text>
</g>
<!-- m_ReviewRequest&#45;&gt;m_ReviewFeedback -->
<g id="edge11" class="edge">
<title>m_ReviewRequest&#45;&gt;m_ReviewFeedback</title>
<path fill="none" stroke="black" d="M503,-106.34C503,-97.8 503,-88.16 503,-78.81"/>
<polygon fill="black" stroke="black" points="506.15,-78.62 503,-69.62 499.85,-78.62 506.15,-78.62"/>
</g>
<!-- m_Role -->
<g id="node9" class="node">
<title>m_Role</title>
<path fill="none" stroke="black" d="M385,-626C385,-626 505,-626 505,-626 511,-626 517,-632 517,-638 517,-638 517,-657 517,-657 517,-663 511,-669 505,-669 505,-669 385,-669 385,-669 379,-669 373,-663 373,-657 373,-657 373,-638 373,-638 373,-632 379,-626 385,-626"/>
<text text-anchor="start" x="430.5" y="-656.2" font-family="Arial Bold" font-size="11.00">Role</text>
<polyline fill="none" stroke="black" points="373,-649 517,-649 "/>
<text text-anchor="start" x="380" y="-635.5" font-family="Arial" font-size="10.00">name </text>
<text text-anchor="start" x="408" y="-635.5" font-family="Arial Italic" font-size="10.00" fill="#999999">string ∗ U</text>
</g>
<!-- m_User -->
<g id="node13" class="node">
<title>m_User</title>
<path fill="none" stroke="black" d="M376.5,-474.5C376.5,-474.5 513.5,-474.5 513.5,-474.5 519.5,-474.5 525.5,-480.5 525.5,-486.5 525.5,-486.5 525.5,-570.5 525.5,-570.5 525.5,-576.5 519.5,-582.5 513.5,-582.5 513.5,-582.5 376.5,-582.5 376.5,-582.5 370.5,-582.5 364.5,-576.5 364.5,-570.5 364.5,-570.5 364.5,-486.5 364.5,-486.5 364.5,-480.5 370.5,-474.5 376.5,-474.5"/>
<text text-anchor="start" x="430.5" y="-569.7" font-family="Arial Bold" font-size="11.00">User</text>
<polyline fill="none" stroke="black" points="364.5,-562.5 525.5,-562.5 "/>
<text text-anchor="start" x="372" y="-549.5" font-family="Arial" font-size="10.00">email </text>
<text text-anchor="start" x="399" y="-549.5" font-family="Arial Italic" font-size="10.00" fill="#999999">string ∗ U</text>
<text text-anchor="start" x="372" y="-536.5" font-family="Arial" font-size="10.00">encrypted_password </text>
<text text-anchor="start" x="466" y="-536.5" font-family="Arial Italic" font-size="10.00" fill="#999999">string ∗</text>
<text text-anchor="start" x="372" y="-523.5" font-family="Arial" font-size="10.00">name </text>
<text text-anchor="start" x="400" y="-523.5" font-family="Arial Italic" font-size="10.00" fill="#999999">string</text>
<text text-anchor="start" x="372" y="-510.5" font-family="Arial" font-size="10.00">remember_created_at </text>
<text text-anchor="start" x="470" y="-510.5" font-family="Arial Italic" font-size="10.00" fill="#999999">datetime</text>
<text text-anchor="start" x="372" y="-497.5" font-family="Arial" font-size="10.00">reset_password_sent_at </text>
<text text-anchor="start" x="481" y="-497.5" font-family="Arial Italic" font-size="10.00" fill="#999999">datetime</text>
<text text-anchor="start" x="372" y="-484.5" font-family="Arial" font-size="10.00">reset_password_token </text>
<text text-anchor="start" x="472" y="-484.5" font-family="Arial Italic" font-size="10.00" fill="#999999">string</text>
</g>
<!-- m_Role&#45;&gt;m_User -->
<g id="edge3" class="edge">
<title>m_Role&#45;&gt;m_User</title>
<path fill="none" stroke="black" d="M445,-616.8C445,-609.07 445,-600.45 445,-591.71"/>
<polygon fill="black" stroke="black" points="441.85,-616.85 445,-625.85 448.15,-616.85 441.85,-616.85"/>
<polygon fill="black" stroke="black" points="448.15,-591.6 445,-582.6 441.85,-591.6 448.15,-591.6"/>
</g>
<!-- m_SubCategory&#45;&gt;m_Axis -->
<g id="edge9" class="edge">
<title>m_SubCategory&#45;&gt;m_Axis</title>
<path fill="none" stroke="black" d="M627,-712.2C627,-703.65 627,-694.07 627,-685"/>
<polygon fill="black" stroke="black" points="630.15,-684.78 627,-675.78 623.85,-684.78 630.15,-684.78"/>
</g>
<!-- m_Subject&#45;&gt;m_Objective -->
<g id="edge13" class="edge">
<title>m_Subject&#45;&gt;m_Objective</title>
<path fill="none" stroke="black" d="M618.37,-500.31C613.75,-485.76 607.7,-466.68 601.26,-446.37"/>
<polygon fill="black" stroke="black" points="604.2,-445.23 598.48,-437.61 598.2,-447.14 604.2,-445.23"/>
</g>
<!-- m_Upload -->
<g id="node12" class="node">
<title>m_Upload</title>
<path fill="none" stroke="black" d="M203,-507C203,-507 323,-507 323,-507 329,-507 335,-513 335,-519 335,-519 335,-538 335,-538 335,-544 329,-550 323,-550 323,-550 203,-550 203,-550 197,-550 191,-544 191,-538 191,-538 191,-519 191,-519 191,-513 197,-507 203,-507"/>
<text text-anchor="start" x="242" y="-537.2" font-family="Arial Bold" font-size="11.00">Upload</text>
<polyline fill="none" stroke="black" points="191,-530 335,-530 "/>
<text text-anchor="start" x="198" y="-516.5" font-family="Arial" font-size="10.00">filename </text>
<text text-anchor="start" x="238" y="-516.5" font-family="Arial Italic" font-size="10.00" fill="#999999">string</text>
</g>
<!-- m_Upload&#45;&gt;m_ActiveStorage::Attachment -->
<g id="edge5" class="edge">
<title>m_Upload&#45;&gt;m_ActiveStorage::Attachment</title>
<path fill="none" stroke="black" d="M263,-506.8C263,-472.58 263,-403.64 263,-359.62"/>
</g>
<!-- m_User&#45;&gt;m_ActiveStorage::Attachment -->
<g id="edge6" class="edge">
<title>m_User&#45;&gt;m_ActiveStorage::Attachment</title>
<path fill="none" stroke="black" d="M398.6,-474.47C367.32,-438.73 326.7,-392.3 298.11,-359.62"/>
</g>
<!-- m_User&#45;&gt;m_ActiveStorage::Blob -->
<g id="edge7" class="edge">
<title>m_User&#45;&gt;m_ActiveStorage::Blob</title>
<path fill="none" stroke="black" stroke-dasharray="1,5" d="M375.51,-582.58C362.51,-590.16 348.57,-596.8 334.5,-601 273.18,-619.32 252.1,-618.35 190.5,-601 174.71,-596.55 158.95,-589.35 144.32,-581.18"/>
</g>
<!-- m_User&#45;&gt;m_Objective -->
<g id="edge1" class="edge">
<title>m_User&#45;&gt;m_Objective</title>
<path fill="none" stroke="black" d="M474.57,-474.47C479.6,-465.45 485.01,-455.75 490.59,-445.76"/>
<polygon fill="black" stroke="black" points="493.45,-447.09 495.08,-437.69 487.95,-444.02 493.45,-447.09"/>
</g>
<!-- m_User&#45;&gt;m_ReviewRequest -->
<g id="edge2" class="edge">
<title>m_User&#45;&gt;m_ReviewRequest</title>
<path fill="none" stroke="black" d="M444.2,-474.5C444.45,-408.76 448.96,-293.8 474,-199 476.49,-189.59 480.27,-179.83 484.29,-170.87"/>
<polygon fill="black" stroke="black" points="487.21,-172.05 488.18,-162.56 481.51,-169.38 487.21,-172.05"/>
</g>
</g>
</svg>
