<?xml version="1.0" encoding="UTF-8" standalone="no"?>
<!DOCTYPE svg PUBLIC "-//W3C//DTD SVG 1.1//EN"
 "http://www.w3.org/Graphics/SVG/1.1/DTD/svg11.dtd">
<!-- Generated by graphviz version 2.48.0 (0)
 -->
<!-- Title: ProgressTest Pages: 1 -->
<svg width="1086pt" height="784pt"
 viewBox="0.00 0.00 1085.60 783.60" xmlns="http://www.w3.org/2000/svg" xmlns:xlink="http://www.w3.org/1999/xlink">
<g id="graph0" class="graph" transform="scale(1 1) rotate(0) translate(28.8 754.8)">
<title>ProgressTest</title>
<polygon fill="white" stroke="transparent" points="-28.8,28.8 -28.8,-754.8 1056.8,-754.8 1056.8,28.8 -28.8,28.8"/>
<text text-anchor="middle" x="514" y="-711.6" font-family="Arial Bold" font-size="13.00">Progress Test &#45; Models</text>
<!-- m_ActiveStorage::Attachment -->
<g id="node1" class="node">
<title>m_ActiveStorage::Attachment</title>
<path fill="none" stroke="black" d="M198.5,-290.5C198.5,-290.5 327.5,-290.5 327.5,-290.5 333.5,-290.5 339.5,-296.5 339.5,-302.5 339.5,-302.5 339.5,-360.5 339.5,-360.5 339.5,-366.5 333.5,-372.5 327.5,-372.5 327.5,-372.5 198.5,-372.5 198.5,-372.5 192.5,-372.5 186.5,-366.5 186.5,-360.5 186.5,-360.5 186.5,-302.5 186.5,-302.5 186.5,-296.5 192.5,-290.5 198.5,-290.5"/>
<text text-anchor="start" x="192" y="-359.7" font-family="Arial Bold" font-size="11.00">ActiveStorage::Attachment</text>
<polyline fill="none" stroke="black" points="186.5,-352.5 339.5,-352.5 "/>
<text text-anchor="start" x="198" y="-339.5" font-family="Arial" font-size="10.00">blob_id </text>
<text text-anchor="start" x="232" y="-339.5" font-family="Arial Italic" font-size="10.00" fill="#999999">integer (8) ∗ FK</text>
<text text-anchor="start" x="198" y="-326.5" font-family="Arial" font-size="10.00">name </text>
<text text-anchor="start" x="226" y="-326.5" font-family="Arial Italic" font-size="10.00" fill="#999999">string ∗</text>
<text text-anchor="start" x="198" y="-313.5" font-family="Arial" font-size="10.00">record_id </text>
<text text-anchor="start" x="241" y="-313.5" font-family="Arial Italic" font-size="10.00" fill="#999999">integer (8) ∗ FK</text>
<text text-anchor="start" x="198" y="-300.5" font-family="Arial" font-size="10.00">record_type </text>
<text text-anchor="start" x="253" y="-300.5" font-family="Arial Italic" font-size="10.00" fill="#999999">string ∗</text>
</g>
<!-- m_ActiveStorage::Blob -->
<g id="node2" class="node">
<title>m_ActiveStorage::Blob</title>
<path fill="none" stroke="black" d="M12,-487.5C12,-487.5 132,-487.5 132,-487.5 138,-487.5 144,-493.5 144,-499.5 144,-499.5 144,-583.5 144,-583.5 144,-589.5 138,-595.5 132,-595.5 132,-595.5 12,-595.5 12,-595.5 6,-595.5 0,-589.5 0,-583.5 0,-583.5 0,-499.5 0,-499.5 0,-493.5 6,-487.5 12,-487.5"/>
<text text-anchor="start" x="16.5" y="-582.7" font-family="Arial Bold" font-size="11.00">ActiveStorage::Blob</text>
<polyline fill="none" stroke="black" points="0,-575.5 144,-575.5 "/>
<text text-anchor="start" x="7" y="-562.5" font-family="Arial" font-size="10.00">byte_size </text>
<text text-anchor="start" x="53" y="-562.5" font-family="Arial Italic" font-size="10.00" fill="#999999">integer (8) ∗</text>
<text text-anchor="start" x="7" y="-549.5" font-family="Arial" font-size="10.00">checksum </text>
<text text-anchor="start" x="56" y="-549.5" font-family="Arial Italic" font-size="10.00" fill="#999999">string ∗</text>
<text text-anchor="start" x="7" y="-536.5" font-family="Arial" font-size="10.00">content_type </text>
<text text-anchor="start" x="67" y="-536.5" font-family="Arial Italic" font-size="10.00" fill="#999999">string</text>
<text text-anchor="start" x="7" y="-523.5" font-family="Arial" font-size="10.00">filename </text>
<text text-anchor="start" x="47" y="-523.5" font-family="Arial Italic" font-size="10.00" fill="#999999">string ∗</text>
<text text-anchor="start" x="7" y="-510.5" font-family="Arial" font-size="10.00">key </text>
<text text-anchor="start" x="26" y="-510.5" font-family="Arial Italic" font-size="10.00" fill="#999999">string ∗</text>
<text text-anchor="start" x="7" y="-497.5" font-family="Arial" font-size="10.00">metadata </text>
<text text-anchor="start" x="51" y="-497.5" font-family="Arial Italic" font-size="10.00" fill="#999999">text</text>
</g>
<!-- m_ActiveStorage::Blob&#45;&gt;m_ActiveStorage::Attachment -->
<g id="edge1" class="edge">
<title>m_ActiveStorage::Blob&#45;&gt;m_ActiveStorage::Attachment</title>
<path fill="none" stroke="black" d="M120.69,-487.47C153.52,-451.73 196.15,-405.3 226.16,-372.62"/>
</g>
<!-- m_ActiveStorage::Blob&#45;&gt;m_ActiveStorage::Blob -->
<g id="edge16" class="edge">
<title>m_ActiveStorage::Blob&#45;&gt;m_ActiveStorage::Blob</title>
<path fill="none" stroke="black" stroke-dasharray="1,5" d="M144.18,-563.14C160.79,-561.27 173,-554.06 173,-541.5 173,-528.94 160.79,-521.73 144.18,-519.86"/>
</g>
<!-- m_Axis -->
<g id="node3" class="node">
<title>m_Axis</title>
<path fill="none" stroke="black" d="M550,-639C550,-639 670,-639 670,-639 676,-639 682,-645 682,-651 682,-651 682,-670 682,-670 682,-676 676,-682 670,-682 670,-682 550,-682 550,-682 544,-682 538,-676 538,-670 538,-670 538,-651 538,-651 538,-645 544,-639 550,-639"/>
<text text-anchor="start" x="596" y="-669.2" font-family="Arial Bold" font-size="11.00">Axis</text>
<polyline fill="none" stroke="black" points="538,-662 682,-662 "/>
<text text-anchor="start" x="545" y="-648.5" font-family="Arial" font-size="10.00">name </text>
<text text-anchor="start" x="573" y="-648.5" font-family="Arial Italic" font-size="10.00" fill="#999999">string ∗ U</text>
</g>
<!-- m_Subject -->
<g id="node10" class="node">
<title>m_Subject</title>
<path fill="none" stroke="black" d="M551,-507C551,-507 671,-507 671,-507 677,-507 683,-513 683,-519 683,-519 683,-564 683,-564 683,-570 677,-576 671,-576 671,-576 551,-576 551,-576 545,-576 539,-570 539,-564 539,-564 539,-519 539,-519 539,-513 545,-507 551,-507"/>
<text text-anchor="start" x="589" y="-563.2" font-family="Arial Bold" font-size="11.00">Subject</text>
<polyline fill="none" stroke="black" points="539,-556 683,-556 "/>
<text text-anchor="start" x="546" y="-542.5" font-family="Arial" font-size="10.00">axis_id </text>
<text text-anchor="start" x="580" y="-542.5" font-family="Arial Italic" font-size="10.00" fill="#999999">integer (8) FK</text>
<text text-anchor="start" x="546" y="-529.5" font-family="Arial" font-size="10.00">category_id </text>
<text text-anchor="start" x="600" y="-529.5" font-family="Arial Italic" font-size="10.00" fill="#999999">integer (8) FK</text>
<text text-anchor="start" x="546" y="-516.5" font-family="Arial" font-size="10.00">name </text>
<text text-anchor="start" x="574" y="-516.5" font-family="Arial Italic" font-size="10.00" fill="#999999">string ∗ U</text>
</g>
<!-- m_Axis&#45;&gt;m_Subject -->
<g id="edge12" class="edge">
<title>m_Axis&#45;&gt;m_Subject</title>
<path fill="none" stroke="black" d="M610.18,-638.85C610.3,-624.04 610.48,-603.54 610.63,-585.27"/>
<polygon fill="black" stroke="black" points="613.78,-585.26 610.71,-576.23 607.48,-585.2 613.78,-585.26"/>
</g>
<!-- m_Category -->
<g id="node4" class="node">
<title>m_Category</title>
<path fill="none" stroke="black" d="M723,-639C723,-639 843,-639 843,-639 849,-639 855,-645 855,-651 855,-651 855,-670 855,-670 855,-676 849,-682 843,-682 843,-682 723,-682 723,-682 717,-682 711,-676 711,-670 711,-670 711,-651 711,-651 711,-645 717,-639 723,-639"/>
<text text-anchor="start" x="756.5" y="-669.2" font-family="Arial Bold" font-size="11.00">Category</text>
<polyline fill="none" stroke="black" points="711,-662 855,-662 "/>
<text text-anchor="start" x="718" y="-648.5" font-family="Arial" font-size="10.00">name </text>
<text text-anchor="start" x="746" y="-648.5" font-family="Arial Italic" font-size="10.00" fill="#999999">string ∗ U</text>
</g>
<!-- m_Category&#45;&gt;m_Subject -->
<g id="edge9" class="edge">
<title>m_Category&#45;&gt;m_Subject</title>
<path fill="none" stroke="black" d="M752.65,-638.85C729.27,-622.95 696.29,-600.52 668.04,-581.3"/>
<polygon fill="black" stroke="black" points="669.8,-578.69 660.58,-576.23 666.25,-583.89 669.8,-578.69"/>
</g>
<!-- m_JwtBlacklist -->
<g id="node5" class="node">
<title>m_JwtBlacklist</title>
<path fill="none" stroke="black" d="M896,-632.5C896,-632.5 1016,-632.5 1016,-632.5 1022,-632.5 1028,-638.5 1028,-644.5 1028,-644.5 1028,-676.5 1028,-676.5 1028,-682.5 1022,-688.5 1016,-688.5 1016,-688.5 896,-688.5 896,-688.5 890,-688.5 884,-682.5 884,-676.5 884,-676.5 884,-644.5 884,-644.5 884,-638.5 890,-632.5 896,-632.5"/>
<text text-anchor="start" x="922" y="-675.7" font-family="Arial Bold" font-size="11.00">JwtBlacklist</text>
<polyline fill="none" stroke="black" points="884,-668.5 1028,-668.5 "/>
<text text-anchor="start" x="891" y="-655.5" font-family="Arial" font-size="10.00">exp </text>
<text text-anchor="start" x="910" y="-655.5" font-family="Arial Italic" font-size="10.00" fill="#999999">datetime</text>
<text text-anchor="start" x="891" y="-642.5" font-family="Arial" font-size="10.00">jti </text>
<text text-anchor="start" x="902" y="-642.5" font-family="Arial Italic" font-size="10.00" fill="#999999">string</text>
</g>
<!-- m_Question -->
<g id="node6" class="node">
<title>m_Question</title>
<path fill="none" stroke="black" d="M551,-212.5C551,-212.5 671,-212.5 671,-212.5 677,-212.5 683,-218.5 683,-224.5 683,-224.5 683,-438.5 683,-438.5 683,-444.5 677,-450.5 671,-450.5 671,-450.5 551,-450.5 551,-450.5 545,-450.5 539,-444.5 539,-438.5 539,-438.5 539,-224.5 539,-224.5 539,-218.5 545,-212.5 551,-212.5"/>
<text text-anchor="start" x="585" y="-437.7" font-family="Arial Bold" font-size="11.00">Question</text>
<polyline fill="none" stroke="black" points="539,-430.5 683,-430.5 "/>
<text text-anchor="start" x="546" y="-417.5" font-family="Arial" font-size="10.00">alternatives </text>
<text text-anchor="start" x="600" y="-417.5" font-family="Arial Italic" font-size="10.00" fill="#999999">jsonb ∗</text>
<text text-anchor="start" x="546" y="-404.5" font-family="Arial" font-size="10.00">authorship_year </text>
<text text-anchor="start" x="619" y="-404.5" font-family="Arial Italic" font-size="10.00" fill="#999999">string</text>
<text text-anchor="start" x="546" y="-391.5" font-family="Arial" font-size="10.00">bloom_taxonomy </text>
<text text-anchor="start" x="624" y="-391.5" font-family="Arial Italic" font-size="10.00" fill="#999999">string</text>
<text text-anchor="start" x="546" y="-378.5" font-family="Arial" font-size="10.00">body </text>
<text text-anchor="start" x="571" y="-378.5" font-family="Arial Italic" font-size="10.00" fill="#999999">text</text>
<text text-anchor="start" x="546" y="-365.5" font-family="Arial" font-size="10.00">check_type </text>
<text text-anchor="start" x="600" y="-365.5" font-family="Arial Italic" font-size="10.00" fill="#999999">string</text>
<text text-anchor="start" x="546" y="-352.5" font-family="Arial" font-size="10.00">difficulty </text>
<text text-anchor="start" x="586" y="-352.5" font-family="Arial Italic" font-size="10.00" fill="#999999">string</text>
<text text-anchor="start" x="546" y="-339.5" font-family="Arial" font-size="10.00">explanation </text>
<text text-anchor="start" x="599" y="-339.5" font-family="Arial Italic" font-size="10.00" fill="#999999">text</text>
<text text-anchor="start" x="546" y="-326.5" font-family="Arial" font-size="10.00">instruction </text>
<text text-anchor="start" x="595" y="-326.5" font-family="Arial Italic" font-size="10.00" fill="#999999">text</text>
<text text-anchor="start" x="546" y="-313.5" font-family="Arial" font-size="10.00">intention </text>
<text text-anchor="start" x="586" y="-313.5" font-family="Arial Italic" font-size="10.00" fill="#999999">string</text>
<text text-anchor="start" x="546" y="-300.5" font-family="Arial" font-size="10.00">references </text>
<text text-anchor="start" x="595" y="-300.5" font-family="Arial Italic" font-size="10.00" fill="#999999">text</text>
<text text-anchor="start" x="546" y="-287.5" font-family="Arial" font-size="10.00">source </text>
<text text-anchor="start" x="579" y="-287.5" font-family="Arial Italic" font-size="10.00" fill="#999999">string</text>
<text text-anchor="start" x="546" y="-274.5" font-family="Arial" font-size="10.00">status </text>
<text text-anchor="start" x="577" y="-274.5" font-family="Arial Italic" font-size="10.00" fill="#999999">string ∗</text>
<text text-anchor="start" x="546" y="-261.5" font-family="Arial" font-size="10.00">subject_id </text>
<text text-anchor="start" x="594" y="-261.5" font-family="Arial Italic" font-size="10.00" fill="#999999">integer (8) FK</text>
<text text-anchor="start" x="546" y="-248.5" font-family="Arial" font-size="10.00">support </text>
<text text-anchor="start" x="582" y="-248.5" font-family="Arial Italic" font-size="10.00" fill="#999999">text</text>
<text text-anchor="start" x="546" y="-235.5" font-family="Arial" font-size="10.00">targeted_knowledge </text>
<text text-anchor="start" x="637" y="-235.5" font-family="Arial Italic" font-size="10.00" fill="#999999">string</text>
<text text-anchor="start" x="546" y="-222.5" font-family="Arial" font-size="10.00">user_id </text>
<text text-anchor="start" x="581" y="-222.5" font-family="Arial Italic" font-size="10.00" fill="#999999">integer (8) FK</text>
</g>
<!-- m_ReviewFeedback -->
<g id="node7" class="node">
<title>m_ReviewFeedback</title>
<path fill="none" stroke="black" d="M453,-0.5C453,-0.5 595,-0.5 595,-0.5 601,-0.5 607,-6.5 607,-12.5 607,-12.5 607,-57.5 607,-57.5 607,-63.5 601,-69.5 595,-69.5 595,-69.5 453,-69.5 453,-69.5 447,-69.5 441,-63.5 441,-57.5 441,-57.5 441,-12.5 441,-12.5 441,-6.5 447,-0.5 453,-0.5"/>
<text text-anchor="start" x="478" y="-56.7" font-family="Arial Bold" font-size="11.00">ReviewFeedback</text>
<polyline fill="none" stroke="black" points="441,-49.5 607,-49.5 "/>
<text text-anchor="start" x="448" y="-36" font-family="Arial" font-size="10.00">comment </text>
<text text-anchor="start" x="492" y="-36" font-family="Arial Italic" font-size="10.00" fill="#999999">text</text>
<text text-anchor="start" x="448" y="-23" font-family="Arial" font-size="10.00">review_request_id </text>
<text text-anchor="start" x="530" y="-23" font-family="Arial Italic" font-size="10.00" fill="#999999">integer (8) ∗ FK</text>
<text text-anchor="start" x="448" y="-10" font-family="Arial" font-size="10.00">status </text>
<text text-anchor="start" x="479" y="-10" font-family="Arial Italic" font-size="10.00" fill="#999999">string</text>
</g>
<!-- m_Question&#45;&gt;m_ReviewFeedback -->
<g id="edge15" class="edge">
<title>m_Question&#45;&gt;m_ReviewFeedback</title>
<path fill="none" stroke="black" stroke-dasharray="1,5" d="M538.55,-287.68C500.68,-260.88 457.95,-222.61 437,-176 424.25,-147.62 423.56,-134.06 437,-106 442.46,-94.6 450.78,-84.47 460.14,-75.7"/>
<polygon fill="black" stroke="black" points="462.45,-77.87 467.13,-69.56 458.29,-73.14 462.45,-77.87"/>
</g>
<!-- m_ReviewRequest -->
<g id="node8" class="node">
<title>m_ReviewRequest</title>
<path fill="none" stroke="black" d="M464,-106.5C464,-106.5 584,-106.5 584,-106.5 590,-106.5 596,-112.5 596,-118.5 596,-118.5 596,-163.5 596,-163.5 596,-169.5 590,-175.5 584,-175.5 584,-175.5 464,-175.5 464,-175.5 458,-175.5 452,-169.5 452,-163.5 452,-163.5 452,-118.5 452,-118.5 452,-112.5 458,-106.5 464,-106.5"/>
<text text-anchor="start" x="481" y="-162.7" font-family="Arial Bold" font-size="11.00">ReviewRequest</text>
<polyline fill="none" stroke="black" points="452,-155.5 596,-155.5 "/>
<text text-anchor="start" x="459" y="-142" font-family="Arial" font-size="10.00">answered </text>
<text text-anchor="start" x="505" y="-142" font-family="Arial Italic" font-size="10.00" fill="#999999">boolean ∗</text>
<text text-anchor="start" x="459" y="-129" font-family="Arial" font-size="10.00">question_id </text>
<text text-anchor="start" x="512" y="-129" font-family="Arial Italic" font-size="10.00" fill="#999999">integer (8) ∗ FK</text>
<text text-anchor="start" x="459" y="-116" font-family="Arial" font-size="10.00">user_id </text>
<text text-anchor="start" x="494" y="-116" font-family="Arial Italic" font-size="10.00" fill="#999999">integer (8) ∗ FK</text>
</g>
<!-- m_Question&#45;&gt;m_ReviewRequest -->
<g id="edge5" class="edge">
<title>m_Question&#45;&gt;m_ReviewRequest</title>
<path fill="none" stroke="black" d="M556.52,-212.46C551.9,-202.44 547.45,-192.81 543.41,-184.05"/>
<polygon fill="black" stroke="black" points="546.14,-182.46 539.51,-175.61 540.42,-185.1 546.14,-182.46"/>
</g>
<!-- m_User -->
<g id="node12" class="node">
<title>m_User</title>
<path fill="none" stroke="black" d="M376,-513.5C376,-513.5 496,-513.5 496,-513.5 502,-513.5 508,-519.5 508,-525.5 508,-525.5 508,-557.5 508,-557.5 508,-563.5 502,-569.5 496,-569.5 496,-569.5 376,-569.5 376,-569.5 370,-569.5 364,-563.5 364,-557.5 364,-557.5 364,-525.5 364,-525.5 364,-519.5 370,-513.5 376,-513.5"/>
<text text-anchor="start" x="421.5" y="-556.7" font-family="Arial Bold" font-size="11.00">User</text>
<polyline fill="none" stroke="black" points="364,-549.5 508,-549.5 "/>
<text text-anchor="start" x="371" y="-536.5" font-family="Arial" font-size="10.00">email </text>
<text text-anchor="start" x="398" y="-536.5" font-family="Arial Italic" font-size="10.00" fill="#999999">string ∗ U</text>
<text text-anchor="start" x="371" y="-523.5" font-family="Arial" font-size="10.00">name </text>
<text text-anchor="start" x="399" y="-523.5" font-family="Arial Italic" font-size="10.00" fill="#999999">string ∗</text>
</g>
<!-- m_ReviewFeedback&#45;&gt;m_User -->
<g id="edge14" class="edge">
<title>m_ReviewFeedback&#45;&gt;m_User</title>
<path fill="none" stroke="black" stroke-dasharray="1,5" d="M467.15,-69.57C455.01,-79.64 443.8,-91.85 437,-106 369.72,-246.07 410.07,-442.06 428.4,-513.28"/>
</g>
<!-- m_ReviewRequest&#45;&gt;m_ReviewFeedback -->
<g id="edge7" class="edge">
<title>m_ReviewRequest&#45;&gt;m_ReviewFeedback</title>
<path fill="none" stroke="black" d="M524,-106.23C524,-97.43 524,-87.82 524,-78.62"/>
<polygon fill="black" stroke="black" points="527.15,-78.6 524,-69.6 520.85,-78.6 527.15,-78.6"/>
</g>
<!-- m_Role -->
<g id="node9" class="node">
<title>m_Role</title>
<path fill="none" stroke="black" d="M376,-639C376,-639 496,-639 496,-639 502,-639 508,-645 508,-651 508,-651 508,-670 508,-670 508,-676 502,-682 496,-682 496,-682 376,-682 376,-682 370,-682 364,-676 364,-670 364,-670 364,-651 364,-651 364,-645 370,-639 376,-639"/>
<text text-anchor="start" x="421.5" y="-669.2" font-family="Arial Bold" font-size="11.00">Role</text>
<polyline fill="none" stroke="black" points="364,-662 508,-662 "/>
<text text-anchor="start" x="371" y="-648.5" font-family="Arial" font-size="10.00">name </text>
<text text-anchor="start" x="399" y="-648.5" font-family="Arial Italic" font-size="10.00" fill="#999999">string ∗ U</text>
</g>
<!-- m_Role&#45;&gt;m_User -->
<g id="edge8" class="edge">
<title>m_Role&#45;&gt;m_User</title>
<path fill="none" stroke="black" d="M436,-629.68C436,-614.19 436,-595.14 436,-578.8"/>
<polygon fill="black" stroke="black" points="432.85,-629.85 436,-638.85 439.15,-629.85 432.85,-629.85"/>
<polygon fill="black" stroke="black" points="439.15,-578.54 436,-569.54 432.85,-578.54 439.15,-578.54"/>
</g>
<!-- m_Subject&#45;&gt;m_Question -->
<g id="edge13" class="edge">
<title>m_Subject&#45;&gt;m_Question</title>
<path fill="none" stroke="black" d="M611,-506.62C611,-493.19 611,-476.84 611,-459.6"/>
<polygon fill="black" stroke="black" points="614.15,-459.51 611,-450.51 607.85,-459.51 614.15,-459.51"/>
</g>
<!-- m_Upload -->
<g id="node11" class="node">
<title>m_Upload</title>
<path fill="none" stroke="black" d="M203,-523.5C203,-523.5 323,-523.5 323,-523.5 329,-523.5 335,-529.5 335,-535.5 335,-535.5 335,-547.5 335,-547.5 335,-553.5 329,-559.5 323,-559.5 323,-559.5 203,-559.5 203,-559.5 197,-559.5 191,-553.5 191,-547.5 191,-547.5 191,-535.5 191,-535.5 191,-529.5 197,-523.5 203,-523.5"/>
<text text-anchor="start" x="242" y="-538.7" font-family="Arial Bold" font-size="11.00">Upload</text>
</g>
<!-- m_Upload&#45;&gt;m_ActiveStorage::Attachment -->
<g id="edge2" class="edge">
<title>m_Upload&#45;&gt;m_ActiveStorage::Attachment</title>
<path fill="none" stroke="black" d="M263,-523.48C263,-490.78 263,-418.39 263,-372.72"/>
</g>
<!-- m_User&#45;&gt;m_ActiveStorage::Attachment -->
<g id="edge3" class="edge">
<title>m_User&#45;&gt;m_ActiveStorage::Attachment</title>
<path fill="none" stroke="black" d="M413.38,-513.31C383.53,-477.41 330.72,-413.92 296.3,-372.54"/>
</g>
<!-- m_User&#45;&gt;m_ActiveStorage::Blob -->
<g id="edge11" class="edge">
<title>m_User&#45;&gt;m_ActiveStorage::Blob</title>
<path fill="none" stroke="black" stroke-dasharray="1,5" d="M407.22,-569.54C388.25,-585.99 361.93,-605.21 334.5,-614 273.55,-633.53 252.1,-631.35 190.5,-614 174.71,-609.55 158.95,-602.35 144.32,-594.18"/>
</g>
<!-- m_User&#45;&gt;m_Question -->
<g id="edge10" class="edge">
<title>m_User&#45;&gt;m_Question</title>
<path fill="none" stroke="black" d="M461.28,-513.49C477.5,-495.94 498.84,-472.42 517,-451 522.3,-444.75 527.7,-438.26 533.11,-431.68"/>
<polygon fill="black" stroke="black" points="535.71,-433.48 538.97,-424.52 530.83,-429.49 535.71,-433.48"/>
</g>
<!-- m_User&#45;&gt;m_ReviewRequest -->
<g id="edge6" class="edge">
<title>m_User&#45;&gt;m_ReviewRequest</title>
<path fill="none" stroke="black" d="M441.98,-513.42C456.99,-445.45 496.36,-267.16 514.55,-184.82"/>
<polygon fill="black" stroke="black" points="517.69,-185.2 516.55,-175.73 511.53,-183.84 517.69,-185.2"/>
</g>
</g>
</svg>
