<?xml version="1.0" encoding="UTF-8" standalone="no"?>
<!DOCTYPE svg PUBLIC "-//W3C//DTD SVG 1.1//EN"
 "http://www.w3.org/Graphics/SVG/1.1/DTD/svg11.dtd">
<!-- Generated by graphviz version 2.44.1 (0)
 -->
<!-- Title: ProgressTest Pages: 1 -->
<svg width="985pt" height="838pt"
 viewBox="0.00 0.00 984.60 837.60" xmlns="http://www.w3.org/2000/svg" xmlns:xlink="http://www.w3.org/1999/xlink">
<g id="graph0" class="graph" transform="scale(1 1) rotate(0) translate(28.8 808.8)">
<title>ProgressTest</title>
<polygon fill="white" stroke="transparent" points="-28.8,28.8 -28.8,-808.8 955.8,-808.8 955.8,28.8 -28.8,28.8"/>
<text text-anchor="middle" x="463.5" y="-765.6" font-family="Arial Bold" font-size="13.00">Progress Test &#45; Models</text>
<!-- m_ActiveStorage::Attachment -->
<g id="node1" class="node">
<title>m_ActiveStorage::Attachment</title>
<path fill="none" stroke="black" d="M199,-171.5C199,-171.5 327,-171.5 327,-171.5 333,-171.5 339,-177.5 339,-183.5 339,-183.5 339,-241.5 339,-241.5 339,-247.5 333,-253.5 327,-253.5 327,-253.5 199,-253.5 199,-253.5 193,-253.5 187,-247.5 187,-241.5 187,-241.5 187,-183.5 187,-183.5 187,-177.5 193,-171.5 199,-171.5"/>
<text text-anchor="start" x="192" y="-240.7" font-family="Arial Bold" font-size="11.00">ActiveStorage::Attachment</text>
<polyline fill="none" stroke="black" points="187,-233.5 339,-233.5 "/>
<text text-anchor="start" x="198" y="-220.5" font-family="Arial" font-size="10.00">blob_id </text>
<text text-anchor="start" x="232" y="-220.5" font-family="Arial Italic" font-size="10.00" fill="#999999">integer (8) ∗ FK</text>
<text text-anchor="start" x="198" y="-207.5" font-family="Arial" font-size="10.00">name </text>
<text text-anchor="start" x="226" y="-207.5" font-family="Arial Italic" font-size="10.00" fill="#999999">string ∗</text>
<text text-anchor="start" x="198" y="-194.5" font-family="Arial" font-size="10.00">record_id </text>
<text text-anchor="start" x="241" y="-194.5" font-family="Arial Italic" font-size="10.00" fill="#999999">integer (8) ∗ FK</text>
<text text-anchor="start" x="198" y="-181.5" font-family="Arial" font-size="10.00">record_type </text>
<text text-anchor="start" x="253" y="-181.5" font-family="Arial Italic" font-size="10.00" fill="#999999">string ∗</text>
</g>
<!-- m_ActiveStorage::Blob -->
<g id="node2" class="node">
<title>m_ActiveStorage::Blob</title>
<path fill="none" stroke="black" d="M12,-368.5C12,-368.5 132,-368.5 132,-368.5 138,-368.5 144,-374.5 144,-380.5 144,-380.5 144,-464.5 144,-464.5 144,-470.5 138,-476.5 132,-476.5 132,-476.5 12,-476.5 12,-476.5 6,-476.5 0,-470.5 0,-464.5 0,-464.5 0,-380.5 0,-380.5 0,-374.5 6,-368.5 12,-368.5"/>
<text text-anchor="start" x="17" y="-463.7" font-family="Arial Bold" font-size="11.00">ActiveStorage::Blob</text>
<polyline fill="none" stroke="black" points="0,-456.5 144,-456.5 "/>
<text text-anchor="start" x="7" y="-443.5" font-family="Arial" font-size="10.00">byte_size </text>
<text text-anchor="start" x="52" y="-443.5" font-family="Arial Italic" font-size="10.00" fill="#999999">integer (8) ∗</text>
<text text-anchor="start" x="7" y="-430.5" font-family="Arial" font-size="10.00">checksum </text>
<text text-anchor="start" x="56" y="-430.5" font-family="Arial Italic" font-size="10.00" fill="#999999">string ∗</text>
<text text-anchor="start" x="7" y="-417.5" font-family="Arial" font-size="10.00">content_type </text>
<text text-anchor="start" x="67" y="-417.5" font-family="Arial Italic" font-size="10.00" fill="#999999">string</text>
<text text-anchor="start" x="7" y="-404.5" font-family="Arial" font-size="10.00">filename </text>
<text text-anchor="start" x="47" y="-404.5" font-family="Arial Italic" font-size="10.00" fill="#999999">string ∗</text>
<text text-anchor="start" x="7" y="-391.5" font-family="Arial" font-size="10.00">key </text>
<text text-anchor="start" x="26" y="-391.5" font-family="Arial Italic" font-size="10.00" fill="#999999">string ∗</text>
<text text-anchor="start" x="7" y="-378.5" font-family="Arial" font-size="10.00">metadata </text>
<text text-anchor="start" x="51" y="-378.5" font-family="Arial Italic" font-size="10.00" fill="#999999">text</text>
</g>
<!-- m_ActiveStorage::Blob&#45;&gt;m_ActiveStorage::Attachment -->
<g id="edge4" class="edge">
<title>m_ActiveStorage::Blob&#45;&gt;m_ActiveStorage::Attachment</title>
<path fill="none" stroke="black" d="M120.69,-368.47C153.52,-332.73 196.15,-286.3 226.16,-253.62"/>
</g>
<!-- m_ActiveStorage::Blob&#45;&gt;m_ActiveStorage::Blob -->
<g id="edge15" class="edge">
<title>m_ActiveStorage::Blob&#45;&gt;m_ActiveStorage::Blob</title>
<path fill="none" stroke="black" stroke-dasharray="1,5" d="M144.18,-444.14C160.79,-442.27 173,-435.06 173,-422.5 173,-409.94 160.79,-402.73 144.18,-400.86"/>
</g>
<!-- m_Axis -->
<g id="node3" class="node">
<title>m_Axis</title>
<path fill="none" stroke="black" d="M622,-693C622,-693 742,-693 742,-693 748,-693 754,-699 754,-705 754,-705 754,-724 754,-724 754,-730 748,-736 742,-736 742,-736 622,-736 622,-736 616,-736 610,-730 610,-724 610,-724 610,-705 610,-705 610,-699 616,-693 622,-693"/>
<text text-anchor="start" x="668" y="-723.2" font-family="Arial Bold" font-size="11.00">Axis</text>
<polyline fill="none" stroke="black" points="610,-716 754,-716 "/>
<text text-anchor="start" x="617" y="-702.5" font-family="Arial" font-size="10.00">name </text>
<text text-anchor="start" x="645" y="-702.5" font-family="Arial Italic" font-size="10.00" fill="#999999">string ∗ U</text>
</g>
<!-- m_Category -->
<g id="node4" class="node">
<title>m_Category</title>
<path fill="none" stroke="black" d="M622,-606.5C622,-606.5 742,-606.5 742,-606.5 748,-606.5 754,-612.5 754,-618.5 754,-618.5 754,-637.5 754,-637.5 754,-643.5 748,-649.5 742,-649.5 742,-649.5 622,-649.5 622,-649.5 616,-649.5 610,-643.5 610,-637.5 610,-637.5 610,-618.5 610,-618.5 610,-612.5 616,-606.5 622,-606.5"/>
<text text-anchor="start" x="655.5" y="-636.7" font-family="Arial Bold" font-size="11.00">Category</text>
<polyline fill="none" stroke="black" points="610,-629.5 754,-629.5 "/>
<text text-anchor="start" x="617" y="-616" font-family="Arial" font-size="10.00">name </text>
<text text-anchor="start" x="645" y="-616" font-family="Arial Italic" font-size="10.00" fill="#999999">string ∗ U</text>
</g>
<!-- m_Axis&#45;&gt;m_Category -->
<g id="edge10" class="edge">
<title>m_Axis&#45;&gt;m_Category</title>
<path fill="none" stroke="black" d="M682,-683.56C682,-675.49 682,-666.77 682,-658.72"/>
<polygon fill="black" stroke="black" points="678.85,-683.61 682,-692.61 685.15,-683.61 678.85,-683.61"/>
<polygon fill="black" stroke="black" points="685.15,-658.65 682,-649.65 678.85,-658.65 685.15,-658.65"/>
</g>
<!-- m_SubCategory -->
<g id="node9" class="node">
<title>m_SubCategory</title>
<path fill="none" stroke="black" d="M564,-513.5C564,-513.5 684,-513.5 684,-513.5 690,-513.5 696,-519.5 696,-525.5 696,-525.5 696,-557.5 696,-557.5 696,-563.5 690,-569.5 684,-569.5 684,-569.5 564,-569.5 564,-569.5 558,-569.5 552,-563.5 552,-557.5 552,-557.5 552,-525.5 552,-525.5 552,-519.5 558,-513.5 564,-513.5"/>
<text text-anchor="start" x="587" y="-556.7" font-family="Arial Bold" font-size="11.00">SubCategory</text>
<polyline fill="none" stroke="black" points="552,-549.5 696,-549.5 "/>
<text text-anchor="start" x="559" y="-536.5" font-family="Arial" font-size="10.00">category_id </text>
<text text-anchor="start" x="614" y="-536.5" font-family="Arial Italic" font-size="10.00" fill="#999999">integer (8) FK</text>
<text text-anchor="start" x="559" y="-523.5" font-family="Arial" font-size="10.00">name </text>
<text text-anchor="start" x="587" y="-523.5" font-family="Arial Italic" font-size="10.00" fill="#999999">string ∗ U</text>
</g>
<!-- m_Category&#45;&gt;m_SubCategory -->
<g id="edge8" class="edge">
<title>m_Category&#45;&gt;m_SubCategory</title>
<path fill="none" stroke="black" d="M667.66,-606.11C661.68,-597.4 654.57,-587.04 647.84,-577.23"/>
<polygon fill="black" stroke="black" points="650.24,-575.17 642.55,-569.53 645.05,-578.74 650.24,-575.17"/>
</g>
<!-- m_Subject -->
<g id="node10" class="node">
<title>m_Subject</title>
<path fill="none" stroke="black" d="M567,-388C567,-388 693,-388 693,-388 699,-388 705,-394 705,-400 705,-400 705,-445 705,-445 705,-451 699,-457 693,-457 693,-457 567,-457 567,-457 561,-457 555,-451 555,-445 555,-445 555,-400 555,-400 555,-394 561,-388 567,-388"/>
<text text-anchor="start" x="608" y="-444.2" font-family="Arial Bold" font-size="11.00">Subject</text>
<polyline fill="none" stroke="black" points="555,-437 705,-437 "/>
<text text-anchor="start" x="562" y="-423.5" font-family="Arial" font-size="10.00">category_id </text>
<text text-anchor="start" x="617" y="-423.5" font-family="Arial Italic" font-size="10.00" fill="#999999">integer (8) FK</text>
<text text-anchor="start" x="562" y="-410.5" font-family="Arial" font-size="10.00">name </text>
<text text-anchor="start" x="590" y="-410.5" font-family="Arial Italic" font-size="10.00" fill="#999999">string ∗ U</text>
<text text-anchor="start" x="562" y="-397.5" font-family="Arial" font-size="10.00">sub_category_id </text>
<text text-anchor="start" x="638" y="-397.5" font-family="Arial Italic" font-size="10.00" fill="#999999">integer (8) FK</text>
</g>
<!-- m_Category&#45;&gt;m_Subject -->
<g id="edge13" class="edge">
<title>m_Category&#45;&gt;m_Subject</title>
<path fill="none" stroke="black" d="M695.53,-606.27C701.55,-595.85 707.95,-582.74 711,-570 716.91,-545.36 720.11,-536.64 711,-513 703.94,-494.68 691.2,-477.79 677.89,-463.73"/>
<polygon fill="black" stroke="black" points="679.88,-461.26 671.33,-457.06 675.39,-465.68 679.88,-461.26"/>
</g>
<!-- m_JwtBlacklist -->
<g id="node5" class="node">
<title>m_JwtBlacklist</title>
<path fill="none" stroke="black" d="M795,-686.5C795,-686.5 915,-686.5 915,-686.5 921,-686.5 927,-692.5 927,-698.5 927,-698.5 927,-730.5 927,-730.5 927,-736.5 921,-742.5 915,-742.5 915,-742.5 795,-742.5 795,-742.5 789,-742.5 783,-736.5 783,-730.5 783,-730.5 783,-698.5 783,-698.5 783,-692.5 789,-686.5 795,-686.5"/>
<text text-anchor="start" x="821" y="-729.7" font-family="Arial Bold" font-size="11.00">JwtBlacklist</text>
<polyline fill="none" stroke="black" points="783,-722.5 927,-722.5 "/>
<text text-anchor="start" x="790" y="-709.5" font-family="Arial" font-size="10.00">exp </text>
<text text-anchor="start" x="809" y="-709.5" font-family="Arial Italic" font-size="10.00" fill="#999999">datetime</text>
<text text-anchor="start" x="790" y="-696.5" font-family="Arial" font-size="10.00">jti </text>
<text text-anchor="start" x="801" y="-696.5" font-family="Arial Italic" font-size="10.00" fill="#999999">string</text>
</g>
<!-- m_Objective -->
<g id="node6" class="node">
<title>m_Objective</title>
<path fill="none" stroke="black" d="M501,-93.5C501,-93.5 621,-93.5 621,-93.5 627,-93.5 633,-99.5 633,-105.5 633,-105.5 633,-319.5 633,-319.5 633,-325.5 627,-331.5 621,-331.5 621,-331.5 501,-331.5 501,-331.5 495,-331.5 489,-325.5 489,-319.5 489,-319.5 489,-105.5 489,-105.5 489,-99.5 495,-93.5 501,-93.5"/>
<text text-anchor="start" x="534.5" y="-318.7" font-family="Arial Bold" font-size="11.00">Objective</text>
<polyline fill="none" stroke="black" points="489,-311.5 633,-311.5 "/>
<text text-anchor="start" x="496" y="-298.5" font-family="Arial" font-size="10.00">alternatives </text>
<text text-anchor="start" x="549" y="-298.5" font-family="Arial Italic" font-size="10.00" fill="#999999">jsonb</text>
<text text-anchor="start" x="496" y="-285.5" font-family="Arial" font-size="10.00">authorship_year </text>
<text text-anchor="start" x="569" y="-285.5" font-family="Arial Italic" font-size="10.00" fill="#999999">string</text>
<text text-anchor="start" x="496" y="-272.5" font-family="Arial" font-size="10.00">bloom_taxonomy </text>
<text text-anchor="start" x="574" y="-272.5" font-family="Arial Italic" font-size="10.00" fill="#999999">string</text>
<text text-anchor="start" x="496" y="-259.5" font-family="Arial" font-size="10.00">body </text>
<text text-anchor="start" x="521" y="-259.5" font-family="Arial Italic" font-size="10.00" fill="#999999">text</text>
<text text-anchor="start" x="496" y="-246.5" font-family="Arial" font-size="10.00">check_type </text>
<text text-anchor="start" x="550" y="-246.5" font-family="Arial Italic" font-size="10.00" fill="#999999">string</text>
<text text-anchor="start" x="496" y="-233.5" font-family="Arial" font-size="10.00">difficulty </text>
<text text-anchor="start" x="536" y="-233.5" font-family="Arial Italic" font-size="10.00" fill="#999999">string</text>
<text text-anchor="start" x="496" y="-220.5" font-family="Arial" font-size="10.00">explanation </text>
<text text-anchor="start" x="549" y="-220.5" font-family="Arial Italic" font-size="10.00" fill="#999999">text</text>
<text text-anchor="start" x="496" y="-207.5" font-family="Arial" font-size="10.00">instruction </text>
<text text-anchor="start" x="545" y="-207.5" font-family="Arial Italic" font-size="10.00" fill="#999999">text</text>
<text text-anchor="start" x="496" y="-194.5" font-family="Arial" font-size="10.00">introduction </text>
<text text-anchor="start" x="550" y="-194.5" font-family="Arial Italic" font-size="10.00" fill="#999999">string</text>
<text text-anchor="start" x="496" y="-181.5" font-family="Arial" font-size="10.00">own </text>
<text text-anchor="start" x="518" y="-181.5" font-family="Arial Italic" font-size="10.00" fill="#999999">boolean</text>
<text text-anchor="start" x="496" y="-168.5" font-family="Arial" font-size="10.00">references </text>
<text text-anchor="start" x="545" y="-168.5" font-family="Arial Italic" font-size="10.00" fill="#999999">text</text>
<text text-anchor="start" x="496" y="-155.5" font-family="Arial" font-size="10.00">source </text>
<text text-anchor="start" x="529" y="-155.5" font-family="Arial Italic" font-size="10.00" fill="#999999">string</text>
<text text-anchor="start" x="496" y="-142.5" font-family="Arial" font-size="10.00">status </text>
<text text-anchor="start" x="527" y="-142.5" font-family="Arial Italic" font-size="10.00" fill="#999999">string ∗</text>
<text text-anchor="start" x="496" y="-129.5" font-family="Arial" font-size="10.00">subject_id </text>
<text text-anchor="start" x="544" y="-129.5" font-family="Arial Italic" font-size="10.00" fill="#999999">integer (8) FK</text>
<text text-anchor="start" x="496" y="-116.5" font-family="Arial" font-size="10.00">support </text>
<text text-anchor="start" x="533" y="-116.5" font-family="Arial Italic" font-size="10.00" fill="#999999">text</text>
<text text-anchor="start" x="496" y="-103.5" font-family="Arial" font-size="10.00">user_id </text>
<text text-anchor="start" x="531" y="-103.5" font-family="Arial Italic" font-size="10.00" fill="#999999">integer (8) FK</text>
</g>
<!-- m_ReviewRequest -->
<g id="node7" class="node">
<title>m_ReviewRequest</title>
<path fill="none" stroke="black" d="M443,-0.5C443,-0.5 563,-0.5 563,-0.5 569,-0.5 575,-6.5 575,-12.5 575,-12.5 575,-44.5 575,-44.5 575,-50.5 569,-56.5 563,-56.5 563,-56.5 443,-56.5 443,-56.5 437,-56.5 431,-50.5 431,-44.5 431,-44.5 431,-12.5 431,-12.5 431,-6.5 437,-0.5 443,-0.5"/>
<text text-anchor="start" x="460" y="-43.7" font-family="Arial Bold" font-size="11.00">ReviewRequest</text>
<polyline fill="none" stroke="black" points="431,-36.5 575,-36.5 "/>
<text text-anchor="start" x="438" y="-23.5" font-family="Arial" font-size="10.00">objective_id </text>
<text text-anchor="start" x="493" y="-23.5" font-family="Arial Italic" font-size="10.00" fill="#999999">integer (8) ∗ FK</text>
<text text-anchor="start" x="438" y="-10.5" font-family="Arial" font-size="10.00">user_id </text>
<text text-anchor="start" x="473" y="-10.5" font-family="Arial Italic" font-size="10.00" fill="#999999">integer (8) ∗ FK</text>
</g>
<!-- m_Objective&#45;&gt;m_ReviewRequest -->
<g id="edge11" class="edge">
<title>m_Objective&#45;&gt;m_ReviewRequest</title>
<path fill="none" stroke="black" d="M523.37,-93.41C520.18,-83.41 517.14,-73.88 514.44,-65.39"/>
<polygon fill="black" stroke="black" points="517.37,-64.22 511.64,-56.6 511.37,-66.13 517.37,-64.22"/>
</g>
<!-- m_Role -->
<g id="node8" class="node">
<title>m_Role</title>
<path fill="none" stroke="black" d="M385,-520C385,-520 505,-520 505,-520 511,-520 517,-526 517,-532 517,-532 517,-551 517,-551 517,-557 511,-563 505,-563 505,-563 385,-563 385,-563 379,-563 373,-557 373,-551 373,-551 373,-532 373,-532 373,-526 379,-520 385,-520"/>
<text text-anchor="start" x="430.5" y="-550.2" font-family="Arial Bold" font-size="11.00">Role</text>
<polyline fill="none" stroke="black" points="373,-543 517,-543 "/>
<text text-anchor="start" x="380" y="-529.5" font-family="Arial" font-size="10.00">name </text>
<text text-anchor="start" x="408" y="-529.5" font-family="Arial Italic" font-size="10.00" fill="#999999">string ∗ U</text>
</g>
<!-- m_User -->
<g id="node12" class="node">
<title>m_User</title>
<path fill="none" stroke="black" d="M376.5,-368.5C376.5,-368.5 513.5,-368.5 513.5,-368.5 519.5,-368.5 525.5,-374.5 525.5,-380.5 525.5,-380.5 525.5,-464.5 525.5,-464.5 525.5,-470.5 519.5,-476.5 513.5,-476.5 513.5,-476.5 376.5,-476.5 376.5,-476.5 370.5,-476.5 364.5,-470.5 364.5,-464.5 364.5,-464.5 364.5,-380.5 364.5,-380.5 364.5,-374.5 370.5,-368.5 376.5,-368.5"/>
<text text-anchor="start" x="430.5" y="-463.7" font-family="Arial Bold" font-size="11.00">User</text>
<polyline fill="none" stroke="black" points="364.5,-456.5 525.5,-456.5 "/>
<text text-anchor="start" x="372" y="-443.5" font-family="Arial" font-size="10.00">email </text>
<text text-anchor="start" x="399" y="-443.5" font-family="Arial Italic" font-size="10.00" fill="#999999">string ∗ U</text>
<text text-anchor="start" x="372" y="-430.5" font-family="Arial" font-size="10.00">encrypted_password </text>
<text text-anchor="start" x="466" y="-430.5" font-family="Arial Italic" font-size="10.00" fill="#999999">string ∗</text>
<text text-anchor="start" x="372" y="-417.5" font-family="Arial" font-size="10.00">name </text>
<text text-anchor="start" x="400" y="-417.5" font-family="Arial Italic" font-size="10.00" fill="#999999">string</text>
<text text-anchor="start" x="372" y="-404.5" font-family="Arial" font-size="10.00">remember_created_at </text>
<text text-anchor="start" x="470" y="-404.5" font-family="Arial Italic" font-size="10.00" fill="#999999">datetime</text>
<text text-anchor="start" x="372" y="-391.5" font-family="Arial" font-size="10.00">reset_password_sent_at </text>
<text text-anchor="start" x="481" y="-391.5" font-family="Arial Italic" font-size="10.00" fill="#999999">datetime</text>
<text text-anchor="start" x="372" y="-378.5" font-family="Arial" font-size="10.00">reset_password_token </text>
<text text-anchor="start" x="472" y="-378.5" font-family="Arial Italic" font-size="10.00" fill="#999999">string</text>
</g>
<!-- m_Role&#45;&gt;m_User -->
<g id="edge3" class="edge">
<title>m_Role&#45;&gt;m_User</title>
<path fill="none" stroke="black" d="M445,-510.8C445,-503.07 445,-494.45 445,-485.71"/>
<polygon fill="black" stroke="black" points="441.85,-510.85 445,-519.85 448.15,-510.85 441.85,-510.85"/>
<polygon fill="black" stroke="black" points="448.15,-485.6 445,-476.6 441.85,-485.6 448.15,-485.6"/>
</g>
<!-- m_SubCategory&#45;&gt;m_Subject -->
<g id="edge9" class="edge">
<title>m_SubCategory&#45;&gt;m_Subject</title>
<path fill="none" stroke="black" d="M625.39,-513.36C626.11,-499.37 627,-481.97 627.81,-466.23"/>
<polygon fill="black" stroke="black" points="630.96,-466.33 628.27,-457.18 624.67,-466.01 630.96,-466.33"/>
</g>
<!-- m_Subject&#45;&gt;m_Objective -->
<g id="edge12" class="edge">
<title>m_Subject&#45;&gt;m_Objective</title>
<path fill="none" stroke="black" d="M618.76,-387.62C614.26,-374.07 608.78,-357.54 603,-340.12"/>
<polygon fill="black" stroke="black" points="605.97,-339.06 600.15,-331.51 599.99,-341.04 605.97,-339.06"/>
</g>
<!-- m_Upload -->
<g id="node11" class="node">
<title>m_Upload</title>
<path fill="none" stroke="black" d="M203,-401C203,-401 323,-401 323,-401 329,-401 335,-407 335,-413 335,-413 335,-432 335,-432 335,-438 329,-444 323,-444 323,-444 203,-444 203,-444 197,-444 191,-438 191,-432 191,-432 191,-413 191,-413 191,-407 197,-401 203,-401"/>
<text text-anchor="start" x="242" y="-431.2" font-family="Arial Bold" font-size="11.00">Upload</text>
<polyline fill="none" stroke="black" points="191,-424 335,-424 "/>
<text text-anchor="start" x="198" y="-410.5" font-family="Arial" font-size="10.00">filename </text>
<text text-anchor="start" x="238" y="-410.5" font-family="Arial Italic" font-size="10.00" fill="#999999">string</text>
</g>
<!-- m_Upload&#45;&gt;m_ActiveStorage::Attachment -->
<g id="edge5" class="edge">
<title>m_Upload&#45;&gt;m_ActiveStorage::Attachment</title>
<path fill="none" stroke="black" d="M263,-400.8C263,-366.58 263,-297.64 263,-253.62"/>
</g>
<!-- m_User&#45;&gt;m_ActiveStorage::Attachment -->
<g id="edge6" class="edge">
<title>m_User&#45;&gt;m_ActiveStorage::Attachment</title>
<path fill="none" stroke="black" d="M398.6,-368.47C367.32,-332.73 326.7,-286.3 298.11,-253.62"/>
</g>
<!-- m_User&#45;&gt;m_ActiveStorage::Blob -->
<g id="edge7" class="edge">
<title>m_User&#45;&gt;m_ActiveStorage::Blob</title>
<path fill="none" stroke="black" stroke-dasharray="1,5" d="M375.51,-476.58C362.51,-484.16 348.57,-490.8 334.5,-495 273.18,-513.32 252.1,-512.35 190.5,-495 174.71,-490.55 158.95,-483.35 144.32,-475.18"/>
</g>
<!-- m_User&#45;&gt;m_Objective -->
<g id="edge1" class="edge">
<title>m_User&#45;&gt;m_Objective</title>
<path fill="none" stroke="black" d="M474.57,-368.47C479.6,-359.45 485.01,-349.75 490.59,-339.76"/>
<polygon fill="black" stroke="black" points="493.45,-341.09 495.08,-331.69 487.95,-338.02 493.45,-341.09"/>
</g>
<!-- m_User&#45;&gt;m_ReviewRequest -->
<g id="edge2" class="edge">
<title>m_User&#45;&gt;m_ReviewRequest</title>
<path fill="none" stroke="black" d="M444.2,-368.5C444.45,-302.76 448.96,-187.8 474,-93 476.49,-83.59 480.27,-73.83 484.29,-64.87"/>
<polygon fill="black" stroke="black" points="487.21,-66.05 488.18,-56.56 481.51,-63.38 487.21,-66.05"/>
</g>
</g>
</svg>
