<?xml version="1.0" encoding="UTF-8" standalone="no"?>
<!DOCTYPE svg PUBLIC "-//W3C//DTD SVG 1.1//EN"
 "http://www.w3.org/Graphics/SVG/1.1/DTD/svg11.dtd">
<!-- Generated by graphviz version 2.44.1 (0)
 -->
<!-- Title: ProgressTest Pages: 1 -->
<svg width="1120pt" height="784pt"
 viewBox="0.00 0.00 1119.60 783.60" xmlns="http://www.w3.org/2000/svg" xmlns:xlink="http://www.w3.org/1999/xlink">
<g id="graph0" class="graph" transform="scale(1 1) rotate(0) translate(28.8 754.8)">
<title>ProgressTest</title>
<polygon fill="white" stroke="transparent" points="-28.8,28.8 -28.8,-754.8 1090.8,-754.8 1090.8,28.8 -28.8,28.8"/>
<text text-anchor="middle" x="531" y="-711.6" font-family="Arial Bold" font-size="13.00">Progress Test &#45; Models</text>
<!-- m_ActiveStorage::Attachment -->
<g id="node1" class="node">
<title>m_ActiveStorage::Attachment</title>
<path fill="none" stroke="black" d="M176,-290.5C176,-290.5 304,-290.5 304,-290.5 310,-290.5 316,-296.5 316,-302.5 316,-302.5 316,-360.5 316,-360.5 316,-366.5 310,-372.5 304,-372.5 304,-372.5 176,-372.5 176,-372.5 170,-372.5 164,-366.5 164,-360.5 164,-360.5 164,-302.5 164,-302.5 164,-296.5 170,-290.5 176,-290.5"/>
<text text-anchor="start" x="169" y="-359.7" font-family="Arial Bold" font-size="11.00">ActiveStorage::Attachment</text>
<polyline fill="none" stroke="black" points="164,-352.5 316,-352.5 "/>
<text text-anchor="start" x="175" y="-339.5" font-family="Arial" font-size="10.00">blob_id </text>
<text text-anchor="start" x="209" y="-339.5" font-family="Arial Italic" font-size="10.00" fill="#999999">integer (8) ∗ FK</text>
<text text-anchor="start" x="175" y="-326.5" font-family="Arial" font-size="10.00">name </text>
<text text-anchor="start" x="203" y="-326.5" font-family="Arial Italic" font-size="10.00" fill="#999999">string ∗</text>
<text text-anchor="start" x="175" y="-313.5" font-family="Arial" font-size="10.00">record_id </text>
<text text-anchor="start" x="218" y="-313.5" font-family="Arial Italic" font-size="10.00" fill="#999999">integer (8) ∗ FK</text>
<text text-anchor="start" x="175" y="-300.5" font-family="Arial" font-size="10.00">record_type </text>
<text text-anchor="start" x="230" y="-300.5" font-family="Arial Italic" font-size="10.00" fill="#999999">string ∗</text>
</g>
<!-- m_ActiveStorage::Blob -->
<g id="node2" class="node">
<title>m_ActiveStorage::Blob</title>
<path fill="none" stroke="black" d="M12,-487.5C12,-487.5 132,-487.5 132,-487.5 138,-487.5 144,-493.5 144,-499.5 144,-499.5 144,-583.5 144,-583.5 144,-589.5 138,-595.5 132,-595.5 132,-595.5 12,-595.5 12,-595.5 6,-595.5 0,-589.5 0,-583.5 0,-583.5 0,-499.5 0,-499.5 0,-493.5 6,-487.5 12,-487.5"/>
<text text-anchor="start" x="17" y="-582.7" font-family="Arial Bold" font-size="11.00">ActiveStorage::Blob</text>
<polyline fill="none" stroke="black" points="0,-575.5 144,-575.5 "/>
<text text-anchor="start" x="7" y="-562.5" font-family="Arial" font-size="10.00">byte_size </text>
<text text-anchor="start" x="52" y="-562.5" font-family="Arial Italic" font-size="10.00" fill="#999999">integer (8) ∗</text>
<text text-anchor="start" x="7" y="-549.5" font-family="Arial" font-size="10.00">checksum </text>
<text text-anchor="start" x="56" y="-549.5" font-family="Arial Italic" font-size="10.00" fill="#999999">string ∗</text>
<text text-anchor="start" x="7" y="-536.5" font-family="Arial" font-size="10.00">content_type </text>
<text text-anchor="start" x="67" y="-536.5" font-family="Arial Italic" font-size="10.00" fill="#999999">string</text>
<text text-anchor="start" x="7" y="-523.5" font-family="Arial" font-size="10.00">filename </text>
<text text-anchor="start" x="47" y="-523.5" font-family="Arial Italic" font-size="10.00" fill="#999999">string ∗</text>
<text text-anchor="start" x="7" y="-510.5" font-family="Arial" font-size="10.00">key </text>
<text text-anchor="start" x="26" y="-510.5" font-family="Arial Italic" font-size="10.00" fill="#999999">string ∗</text>
<text text-anchor="start" x="7" y="-497.5" font-family="Arial" font-size="10.00">metadata </text>
<text text-anchor="start" x="51" y="-497.5" font-family="Arial Italic" font-size="10.00" fill="#999999">text</text>
</g>
<!-- m_ActiveStorage::Blob&#45;&gt;m_ActiveStorage::Attachment -->
<g id="edge5" class="edge">
<title>m_ActiveStorage::Blob&#45;&gt;m_ActiveStorage::Attachment</title>
<path fill="none" stroke="black" d="M114.83,-487.47C143.7,-451.73 181.2,-405.3 207.59,-372.62"/>
</g>
<!-- m_ActiveStorage::Blob&#45;&gt;m_ActiveStorage::Blob -->
<g id="edge17" class="edge">
<title>m_ActiveStorage::Blob&#45;&gt;m_ActiveStorage::Blob</title>
<path fill="none" stroke="black" stroke-dasharray="1,5" d="M144.18,-563.14C160.79,-561.27 173,-554.06 173,-541.5 173,-528.94 160.79,-521.73 144.18,-519.86"/>
</g>
<!-- m_Axis -->
<g id="node3" class="node">
<title>m_Axis</title>
<path fill="none" stroke="black" d="M757,-639C757,-639 877,-639 877,-639 883,-639 889,-645 889,-651 889,-651 889,-670 889,-670 889,-676 883,-682 877,-682 877,-682 757,-682 757,-682 751,-682 745,-676 745,-670 745,-670 745,-651 745,-651 745,-645 751,-639 757,-639"/>
<text text-anchor="start" x="803" y="-669.2" font-family="Arial Bold" font-size="11.00">Axis</text>
<polyline fill="none" stroke="black" points="745,-662 889,-662 "/>
<text text-anchor="start" x="752" y="-648.5" font-family="Arial" font-size="10.00">name </text>
<text text-anchor="start" x="780" y="-648.5" font-family="Arial Italic" font-size="10.00" fill="#999999">string ∗ U</text>
</g>
<!-- m_Subject -->
<g id="node11" class="node">
<title>m_Subject</title>
<path fill="none" stroke="black" d="M589,-507C589,-507 709,-507 709,-507 715,-507 721,-513 721,-519 721,-519 721,-564 721,-564 721,-570 715,-576 709,-576 709,-576 589,-576 589,-576 583,-576 577,-570 577,-564 577,-564 577,-519 577,-519 577,-513 583,-507 589,-507"/>
<text text-anchor="start" x="627" y="-563.2" font-family="Arial Bold" font-size="11.00">Subject</text>
<polyline fill="none" stroke="black" points="577,-556 721,-556 "/>
<text text-anchor="start" x="584" y="-542.5" font-family="Arial" font-size="10.00">axis_id </text>
<text text-anchor="start" x="619" y="-542.5" font-family="Arial Italic" font-size="10.00" fill="#999999">integer (8) FK</text>
<text text-anchor="start" x="584" y="-529.5" font-family="Arial" font-size="10.00">category_id </text>
<text text-anchor="start" x="639" y="-529.5" font-family="Arial Italic" font-size="10.00" fill="#999999">integer (8) FK</text>
<text text-anchor="start" x="584" y="-516.5" font-family="Arial" font-size="10.00">name </text>
<text text-anchor="start" x="612" y="-516.5" font-family="Arial Italic" font-size="10.00" fill="#999999">string ∗ U</text>
</g>
<!-- m_Axis&#45;&gt;m_Subject -->
<g id="edge9" class="edge">
<title>m_Axis&#45;&gt;m_Subject</title>
<path fill="none" stroke="black" d="M787.35,-638.85C764.62,-623.02 732.58,-600.71 705.06,-581.54"/>
<polygon fill="black" stroke="black" points="706.62,-578.79 697.43,-576.23 703.02,-583.96 706.62,-578.79"/>
</g>
<!-- m_Category -->
<g id="node4" class="node">
<title>m_Category</title>
<path fill="none" stroke="black" d="M584,-639C584,-639 704,-639 704,-639 710,-639 716,-645 716,-651 716,-651 716,-670 716,-670 716,-676 710,-682 704,-682 704,-682 584,-682 584,-682 578,-682 572,-676 572,-670 572,-670 572,-651 572,-651 572,-645 578,-639 584,-639"/>
<text text-anchor="start" x="617.5" y="-669.2" font-family="Arial Bold" font-size="11.00">Category</text>
<polyline fill="none" stroke="black" points="572,-662 716,-662 "/>
<text text-anchor="start" x="579" y="-648.5" font-family="Arial" font-size="10.00">name </text>
<text text-anchor="start" x="607" y="-648.5" font-family="Arial Italic" font-size="10.00" fill="#999999">string ∗ U</text>
</g>
<!-- m_Category&#45;&gt;m_Subject -->
<g id="edge14" class="edge">
<title>m_Category&#45;&gt;m_Subject</title>
<path fill="none" stroke="black" d="M644.88,-638.85C645.52,-624.04 646.39,-603.54 647.17,-585.27"/>
<polygon fill="black" stroke="black" points="650.32,-585.35 647.56,-576.23 644.03,-585.09 650.32,-585.35"/>
</g>
<!-- m_JwtBlacklist -->
<g id="node5" class="node">
<title>m_JwtBlacklist</title>
<path fill="none" stroke="black" d="M930,-632.5C930,-632.5 1050,-632.5 1050,-632.5 1056,-632.5 1062,-638.5 1062,-644.5 1062,-644.5 1062,-676.5 1062,-676.5 1062,-682.5 1056,-688.5 1050,-688.5 1050,-688.5 930,-688.5 930,-688.5 924,-688.5 918,-682.5 918,-676.5 918,-676.5 918,-644.5 918,-644.5 918,-638.5 924,-632.5 930,-632.5"/>
<text text-anchor="start" x="956" y="-675.7" font-family="Arial Bold" font-size="11.00">JwtBlacklist</text>
<polyline fill="none" stroke="black" points="918,-668.5 1062,-668.5 "/>
<text text-anchor="start" x="925" y="-655.5" font-family="Arial" font-size="10.00">exp </text>
<text text-anchor="start" x="944" y="-655.5" font-family="Arial Italic" font-size="10.00" fill="#999999">datetime</text>
<text text-anchor="start" x="925" y="-642.5" font-family="Arial" font-size="10.00">jti </text>
<text text-anchor="start" x="936" y="-642.5" font-family="Arial Italic" font-size="10.00" fill="#999999">string</text>
</g>
<!-- m_Objective -->
<g id="node6" class="node">
<title>m_Objective</title>
<path fill="none" stroke="black" d="M416,-212.5C416,-212.5 536,-212.5 536,-212.5 542,-212.5 548,-218.5 548,-224.5 548,-224.5 548,-438.5 548,-438.5 548,-444.5 542,-450.5 536,-450.5 536,-450.5 416,-450.5 416,-450.5 410,-450.5 404,-444.5 404,-438.5 404,-438.5 404,-224.5 404,-224.5 404,-218.5 410,-212.5 416,-212.5"/>
<text text-anchor="start" x="449.5" y="-437.7" font-family="Arial Bold" font-size="11.00">Objective</text>
<polyline fill="none" stroke="black" points="404,-430.5 548,-430.5 "/>
<text text-anchor="start" x="411" y="-417.5" font-family="Arial" font-size="10.00">alternatives </text>
<text text-anchor="start" x="464" y="-417.5" font-family="Arial Italic" font-size="10.00" fill="#999999">jsonb</text>
<text text-anchor="start" x="411" y="-404.5" font-family="Arial" font-size="10.00">authorship_year </text>
<text text-anchor="start" x="484" y="-404.5" font-family="Arial Italic" font-size="10.00" fill="#999999">string</text>
<text text-anchor="start" x="411" y="-391.5" font-family="Arial" font-size="10.00">bloom_taxonomy </text>
<text text-anchor="start" x="489" y="-391.5" font-family="Arial Italic" font-size="10.00" fill="#999999">string</text>
<text text-anchor="start" x="411" y="-378.5" font-family="Arial" font-size="10.00">body </text>
<text text-anchor="start" x="436" y="-378.5" font-family="Arial Italic" font-size="10.00" fill="#999999">text</text>
<text text-anchor="start" x="411" y="-365.5" font-family="Arial" font-size="10.00">check_type </text>
<text text-anchor="start" x="465" y="-365.5" font-family="Arial Italic" font-size="10.00" fill="#999999">string</text>
<text text-anchor="start" x="411" y="-352.5" font-family="Arial" font-size="10.00">difficulty </text>
<text text-anchor="start" x="451" y="-352.5" font-family="Arial Italic" font-size="10.00" fill="#999999">string</text>
<text text-anchor="start" x="411" y="-339.5" font-family="Arial" font-size="10.00">explanation </text>
<text text-anchor="start" x="464" y="-339.5" font-family="Arial Italic" font-size="10.00" fill="#999999">text</text>
<text text-anchor="start" x="411" y="-326.5" font-family="Arial" font-size="10.00">instruction </text>
<text text-anchor="start" x="460" y="-326.5" font-family="Arial Italic" font-size="10.00" fill="#999999">text</text>
<text text-anchor="start" x="411" y="-313.5" font-family="Arial" font-size="10.00">introduction </text>
<text text-anchor="start" x="465" y="-313.5" font-family="Arial Italic" font-size="10.00" fill="#999999">string</text>
<text text-anchor="start" x="411" y="-300.5" font-family="Arial" font-size="10.00">own </text>
<text text-anchor="start" x="433" y="-300.5" font-family="Arial Italic" font-size="10.00" fill="#999999">boolean</text>
<text text-anchor="start" x="411" y="-287.5" font-family="Arial" font-size="10.00">references </text>
<text text-anchor="start" x="460" y="-287.5" font-family="Arial Italic" font-size="10.00" fill="#999999">text</text>
<text text-anchor="start" x="411" y="-274.5" font-family="Arial" font-size="10.00">source </text>
<text text-anchor="start" x="444" y="-274.5" font-family="Arial Italic" font-size="10.00" fill="#999999">string</text>
<text text-anchor="start" x="411" y="-261.5" font-family="Arial" font-size="10.00">status </text>
<text text-anchor="start" x="442" y="-261.5" font-family="Arial Italic" font-size="10.00" fill="#999999">string ∗</text>
<text text-anchor="start" x="411" y="-248.5" font-family="Arial" font-size="10.00">subject_id </text>
<text text-anchor="start" x="459" y="-248.5" font-family="Arial Italic" font-size="10.00" fill="#999999">integer (8) FK</text>
<text text-anchor="start" x="411" y="-235.5" font-family="Arial" font-size="10.00">support </text>
<text text-anchor="start" x="448" y="-235.5" font-family="Arial Italic" font-size="10.00" fill="#999999">text</text>
<text text-anchor="start" x="411" y="-222.5" font-family="Arial" font-size="10.00">user_id </text>
<text text-anchor="start" x="446" y="-222.5" font-family="Arial Italic" font-size="10.00" fill="#999999">integer (8) FK</text>
</g>
<!-- m_ReviewRequest -->
<g id="node9" class="node">
<title>m_ReviewRequest</title>
<path fill="none" stroke="black" d="M502,-106.5C502,-106.5 622,-106.5 622,-106.5 628,-106.5 634,-112.5 634,-118.5 634,-118.5 634,-163.5 634,-163.5 634,-169.5 628,-175.5 622,-175.5 622,-175.5 502,-175.5 502,-175.5 496,-175.5 490,-169.5 490,-163.5 490,-163.5 490,-118.5 490,-118.5 490,-112.5 496,-106.5 502,-106.5"/>
<text text-anchor="start" x="519" y="-162.7" font-family="Arial Bold" font-size="11.00">ReviewRequest</text>
<polyline fill="none" stroke="black" points="490,-155.5 634,-155.5 "/>
<text text-anchor="start" x="497" y="-142" font-family="Arial" font-size="10.00">answered </text>
<text text-anchor="start" x="542" y="-142" font-family="Arial Italic" font-size="10.00" fill="#999999">boolean ∗</text>
<text text-anchor="start" x="497" y="-129" font-family="Arial" font-size="10.00">question_id </text>
<text text-anchor="start" x="550" y="-129" font-family="Arial Italic" font-size="10.00" fill="#999999">integer (8) ∗</text>
<text text-anchor="start" x="497" y="-116" font-family="Arial" font-size="10.00">user_id </text>
<text text-anchor="start" x="532" y="-116" font-family="Arial Italic" font-size="10.00" fill="#999999">integer (8) ∗ FK</text>
</g>
<!-- m_Objective&#45;&gt;m_ReviewRequest -->
<g id="edge11" class="edge">
<title>m_Objective&#45;&gt;m_ReviewRequest</title>
<path fill="none" stroke="black" d="M529.85,-212.46C534.42,-202.44 538.82,-192.81 542.81,-184.05"/>
<polygon fill="black" stroke="black" points="545.8,-185.11 546.67,-175.61 540.06,-182.49 545.8,-185.11"/>
</g>
<!-- m_Question -->
<g id="node7" class="node">
<title>m_Question</title>
<path fill="none" stroke="black" d="M589,-212.5C589,-212.5 709,-212.5 709,-212.5 715,-212.5 721,-218.5 721,-224.5 721,-224.5 721,-438.5 721,-438.5 721,-444.5 715,-450.5 709,-450.5 709,-450.5 589,-450.5 589,-450.5 583,-450.5 577,-444.5 577,-438.5 577,-438.5 577,-224.5 577,-224.5 577,-218.5 583,-212.5 589,-212.5"/>
<text text-anchor="start" x="622.5" y="-437.7" font-family="Arial Bold" font-size="11.00">Question</text>
<polyline fill="none" stroke="black" points="577,-430.5 721,-430.5 "/>
<text text-anchor="start" x="584" y="-417.5" font-family="Arial" font-size="10.00">alternatives </text>
<text text-anchor="start" x="637" y="-417.5" font-family="Arial Italic" font-size="10.00" fill="#999999">jsonb</text>
<text text-anchor="start" x="584" y="-404.5" font-family="Arial" font-size="10.00">authorship_year </text>
<text text-anchor="start" x="657" y="-404.5" font-family="Arial Italic" font-size="10.00" fill="#999999">string</text>
<text text-anchor="start" x="584" y="-391.5" font-family="Arial" font-size="10.00">bloom_taxonomy </text>
<text text-anchor="start" x="662" y="-391.5" font-family="Arial Italic" font-size="10.00" fill="#999999">string</text>
<text text-anchor="start" x="584" y="-378.5" font-family="Arial" font-size="10.00">body </text>
<text text-anchor="start" x="609" y="-378.5" font-family="Arial Italic" font-size="10.00" fill="#999999">text</text>
<text text-anchor="start" x="584" y="-365.5" font-family="Arial" font-size="10.00">check_type </text>
<text text-anchor="start" x="638" y="-365.5" font-family="Arial Italic" font-size="10.00" fill="#999999">string</text>
<text text-anchor="start" x="584" y="-352.5" font-family="Arial" font-size="10.00">difficulty </text>
<text text-anchor="start" x="624" y="-352.5" font-family="Arial Italic" font-size="10.00" fill="#999999">string</text>
<text text-anchor="start" x="584" y="-339.5" font-family="Arial" font-size="10.00">explanation </text>
<text text-anchor="start" x="637" y="-339.5" font-family="Arial Italic" font-size="10.00" fill="#999999">text</text>
<text text-anchor="start" x="584" y="-326.5" font-family="Arial" font-size="10.00">instruction </text>
<text text-anchor="start" x="633" y="-326.5" font-family="Arial Italic" font-size="10.00" fill="#999999">text</text>
<text text-anchor="start" x="584" y="-313.5" font-family="Arial" font-size="10.00">introduction </text>
<text text-anchor="start" x="638" y="-313.5" font-family="Arial Italic" font-size="10.00" fill="#999999">string</text>
<text text-anchor="start" x="584" y="-300.5" font-family="Arial" font-size="10.00">own </text>
<text text-anchor="start" x="606" y="-300.5" font-family="Arial Italic" font-size="10.00" fill="#999999">boolean</text>
<text text-anchor="start" x="584" y="-287.5" font-family="Arial" font-size="10.00">references </text>
<text text-anchor="start" x="633" y="-287.5" font-family="Arial Italic" font-size="10.00" fill="#999999">text</text>
<text text-anchor="start" x="584" y="-274.5" font-family="Arial" font-size="10.00">source </text>
<text text-anchor="start" x="617" y="-274.5" font-family="Arial Italic" font-size="10.00" fill="#999999">string</text>
<text text-anchor="start" x="584" y="-261.5" font-family="Arial" font-size="10.00">status </text>
<text text-anchor="start" x="615" y="-261.5" font-family="Arial Italic" font-size="10.00" fill="#999999">string ∗</text>
<text text-anchor="start" x="584" y="-248.5" font-family="Arial" font-size="10.00">subject_id </text>
<text text-anchor="start" x="632" y="-248.5" font-family="Arial Italic" font-size="10.00" fill="#999999">integer (8) FK</text>
<text text-anchor="start" x="584" y="-235.5" font-family="Arial" font-size="10.00">support </text>
<text text-anchor="start" x="621" y="-235.5" font-family="Arial Italic" font-size="10.00" fill="#999999">text</text>
<text text-anchor="start" x="584" y="-222.5" font-family="Arial" font-size="10.00">user_id </text>
<text text-anchor="start" x="619" y="-222.5" font-family="Arial Italic" font-size="10.00" fill="#999999">integer (8) FK</text>
</g>
<!-- m_Question&#45;&gt;m_ReviewRequest -->
<g id="edge12" class="edge">
<title>m_Question&#45;&gt;m_ReviewRequest</title>
<path fill="none" stroke="black" d="M594.52,-212.46C589.9,-202.44 585.45,-192.81 581.41,-184.05"/>
<polygon fill="black" stroke="black" points="584.14,-182.46 577.51,-175.61 578.42,-185.1 584.14,-182.46"/>
</g>
<!-- m_ReviewFeedback -->
<g id="node8" class="node">
<title>m_ReviewFeedback</title>
<path fill="none" stroke="black" d="M491,-0.5C491,-0.5 633,-0.5 633,-0.5 639,-0.5 645,-6.5 645,-12.5 645,-12.5 645,-57.5 645,-57.5 645,-63.5 639,-69.5 633,-69.5 633,-69.5 491,-69.5 491,-69.5 485,-69.5 479,-63.5 479,-57.5 479,-57.5 479,-12.5 479,-12.5 479,-6.5 485,-0.5 491,-0.5"/>
<text text-anchor="start" x="516" y="-56.7" font-family="Arial Bold" font-size="11.00">ReviewFeedback</text>
<polyline fill="none" stroke="black" points="479,-49.5 645,-49.5 "/>
<text text-anchor="start" x="486" y="-36" font-family="Arial" font-size="10.00">comment </text>
<text text-anchor="start" x="530" y="-36" font-family="Arial Italic" font-size="10.00" fill="#999999">text</text>
<text text-anchor="start" x="486" y="-23" font-family="Arial" font-size="10.00">review_request_id </text>
<text text-anchor="start" x="568" y="-23" font-family="Arial Italic" font-size="10.00" fill="#999999">integer (8) ∗ FK</text>
<text text-anchor="start" x="486" y="-10" font-family="Arial" font-size="10.00">status </text>
<text text-anchor="start" x="517" y="-10" font-family="Arial Italic" font-size="10.00" fill="#999999">string</text>
</g>
<!-- m_ReviewRequest&#45;&gt;m_ReviewFeedback -->
<g id="edge10" class="edge">
<title>m_ReviewRequest&#45;&gt;m_ReviewFeedback</title>
<path fill="none" stroke="black" d="M562,-106.23C562,-97.43 562,-87.82 562,-78.62"/>
<polygon fill="black" stroke="black" points="565.15,-78.6 562,-69.6 558.85,-78.6 565.15,-78.6"/>
</g>
<!-- m_Role -->
<g id="node10" class="node">
<title>m_Role</title>
<path fill="none" stroke="black" d="M407,-639C407,-639 527,-639 527,-639 533,-639 539,-645 539,-651 539,-651 539,-670 539,-670 539,-676 533,-682 527,-682 527,-682 407,-682 407,-682 401,-682 395,-676 395,-670 395,-670 395,-651 395,-651 395,-645 401,-639 407,-639"/>
<text text-anchor="start" x="452.5" y="-669.2" font-family="Arial Bold" font-size="11.00">Role</text>
<polyline fill="none" stroke="black" points="395,-662 539,-662 "/>
<text text-anchor="start" x="402" y="-648.5" font-family="Arial" font-size="10.00">name </text>
<text text-anchor="start" x="430" y="-648.5" font-family="Arial Italic" font-size="10.00" fill="#999999">string ∗ U</text>
</g>
<!-- m_User -->
<g id="node13" class="node">
<title>m_User</title>
<path fill="none" stroke="black" d="M398.5,-487.5C398.5,-487.5 535.5,-487.5 535.5,-487.5 541.5,-487.5 547.5,-493.5 547.5,-499.5 547.5,-499.5 547.5,-583.5 547.5,-583.5 547.5,-589.5 541.5,-595.5 535.5,-595.5 535.5,-595.5 398.5,-595.5 398.5,-595.5 392.5,-595.5 386.5,-589.5 386.5,-583.5 386.5,-583.5 386.5,-499.5 386.5,-499.5 386.5,-493.5 392.5,-487.5 398.5,-487.5"/>
<text text-anchor="start" x="452.5" y="-582.7" font-family="Arial Bold" font-size="11.00">User</text>
<polyline fill="none" stroke="black" points="386.5,-575.5 547.5,-575.5 "/>
<text text-anchor="start" x="394" y="-562.5" font-family="Arial" font-size="10.00">email </text>
<text text-anchor="start" x="421" y="-562.5" font-family="Arial Italic" font-size="10.00" fill="#999999">string ∗ U</text>
<text text-anchor="start" x="394" y="-549.5" font-family="Arial" font-size="10.00">encrypted_password </text>
<text text-anchor="start" x="488" y="-549.5" font-family="Arial Italic" font-size="10.00" fill="#999999">string ∗</text>
<text text-anchor="start" x="394" y="-536.5" font-family="Arial" font-size="10.00">name </text>
<text text-anchor="start" x="422" y="-536.5" font-family="Arial Italic" font-size="10.00" fill="#999999">string</text>
<text text-anchor="start" x="394" y="-523.5" font-family="Arial" font-size="10.00">remember_created_at </text>
<text text-anchor="start" x="492" y="-523.5" font-family="Arial Italic" font-size="10.00" fill="#999999">datetime</text>
<text text-anchor="start" x="394" y="-510.5" font-family="Arial" font-size="10.00">reset_password_sent_at </text>
<text text-anchor="start" x="503" y="-510.5" font-family="Arial Italic" font-size="10.00" fill="#999999">datetime</text>
<text text-anchor="start" x="394" y="-497.5" font-family="Arial" font-size="10.00">reset_password_token </text>
<text text-anchor="start" x="494" y="-497.5" font-family="Arial Italic" font-size="10.00" fill="#999999">string</text>
</g>
<!-- m_Role&#45;&gt;m_User -->
<g id="edge4" class="edge">
<title>m_Role&#45;&gt;m_User</title>
<path fill="none" stroke="black" d="M467,-629.8C467,-622.07 467,-613.45 467,-604.71"/>
<polygon fill="black" stroke="black" points="463.85,-629.85 467,-638.85 470.15,-629.85 463.85,-629.85"/>
<polygon fill="black" stroke="black" points="470.15,-604.6 467,-595.6 463.85,-604.6 470.15,-604.6"/>
</g>
<!-- m_Subject&#45;&gt;m_Objective -->
<g id="edge15" class="edge">
<title>m_Subject&#45;&gt;m_Objective</title>
<path fill="none" stroke="black" d="M614.41,-506.64C598.26,-490.3 579.09,-470.13 563,-451 560,-447.43 556.98,-443.76 553.96,-440.04"/>
<polygon fill="black" stroke="black" points="556.25,-437.86 548.17,-432.8 551.34,-441.8 556.25,-437.86"/>
</g>
<!-- m_Subject&#45;&gt;m_Question -->
<g id="edge13" class="edge">
<title>m_Subject&#45;&gt;m_Question</title>
<path fill="none" stroke="black" d="M649,-506.62C649,-493.19 649,-476.84 649,-459.6"/>
<polygon fill="black" stroke="black" points="652.15,-459.51 649,-450.51 645.85,-459.51 652.15,-459.51"/>
</g>
<!-- m_Upload -->
<g id="node12" class="node">
<title>m_Upload</title>
<path fill="none" stroke="black" d="M203,-520C203,-520 323,-520 323,-520 329,-520 335,-526 335,-532 335,-532 335,-551 335,-551 335,-557 329,-563 323,-563 323,-563 203,-563 203,-563 197,-563 191,-557 191,-551 191,-551 191,-532 191,-532 191,-526 197,-520 203,-520"/>
<text text-anchor="start" x="242" y="-550.2" font-family="Arial Bold" font-size="11.00">Upload</text>
<polyline fill="none" stroke="black" points="191,-543 335,-543 "/>
<text text-anchor="start" x="198" y="-529.5" font-family="Arial" font-size="10.00">filename </text>
<text text-anchor="start" x="238" y="-529.5" font-family="Arial Italic" font-size="10.00" fill="#999999">string</text>
</g>
<!-- m_Upload&#45;&gt;m_ActiveStorage::Attachment -->
<g id="edge6" class="edge">
<title>m_Upload&#45;&gt;m_ActiveStorage::Attachment</title>
<path fill="none" stroke="black" d="M260.71,-519.8C256.93,-485.58 249.3,-416.64 244.44,-372.62"/>
</g>
<!-- m_User&#45;&gt;m_ActiveStorage::Attachment -->
<g id="edge7" class="edge">
<title>m_User&#45;&gt;m_ActiveStorage::Attachment</title>
<path fill="none" stroke="black" d="M386.29,-489.56C369.67,-477.71 352.75,-464.56 338,-451 312.25,-427.34 287.19,-396.86 268.86,-372.74"/>
</g>
<!-- m_User&#45;&gt;m_ActiveStorage::Blob -->
<g id="edge8" class="edge">
<title>m_User&#45;&gt;m_ActiveStorage::Blob</title>
<path fill="none" stroke="black" stroke-dasharray="1,5" d="M386.25,-593.86C369.73,-602.18 352.03,-609.52 334.5,-614 272.49,-629.85 252.1,-631.35 190.5,-614 174.71,-609.55 158.95,-602.35 144.32,-594.18"/>
</g>
<!-- m_User&#45;&gt;m_Objective -->
<g id="edge1" class="edge">
<title>m_User&#45;&gt;m_Objective</title>
<path fill="none" stroke="black" d="M469.29,-487.47C469.67,-478.81 470.07,-469.52 470.49,-459.95"/>
<polygon fill="black" stroke="black" points="473.64,-459.82 470.89,-450.69 467.35,-459.55 473.64,-459.82"/>
</g>
<!-- m_User&#45;&gt;m_Question -->
<g id="edge2" class="edge">
<title>m_User&#45;&gt;m_Question</title>
<path fill="none" stroke="black" d="M527.65,-487.3C539.78,-475.75 552.13,-463.29 563,-451 565.68,-447.97 568.35,-444.86 571.02,-441.7"/>
<polygon fill="black" stroke="black" points="573.52,-443.62 576.83,-434.68 568.67,-439.6 573.52,-443.62"/>
</g>
<!-- m_User&#45;&gt;m_ReviewRequest -->
<g id="edge3" class="edge">
<title>m_User&#45;&gt;m_ReviewRequest</title>
<path fill="none" stroke="black" d="M410.87,-487.24C402.33,-476.14 394.78,-463.88 390,-451 353.06,-351.41 330.71,-300.14 390,-212 410.48,-181.55 446.76,-164.34 480.73,-154.61"/>
<polygon fill="black" stroke="black" points="481.89,-157.56 489.77,-152.18 480.26,-151.48 481.89,-157.56"/>
</g>
</g>
</svg>
