<?xml version="1.0" encoding="UTF-8" standalone="no"?>
<!DOCTYPE svg PUBLIC "-//W3C//DTD SVG 1.1//EN"
 "http://www.w3.org/Graphics/SVG/1.1/DTD/svg11.dtd">
<!-- Generated by graphviz version 2.49.0 (0)
 -->
<!-- Title: ProgressTest Pages: 1 -->
<svg width="913pt" height="758pt"
 viewBox="0.00 0.00 912.60 757.60" xmlns="http://www.w3.org/2000/svg" xmlns:xlink="http://www.w3.org/1999/xlink">
<g id="graph0" class="graph" transform="scale(1 1) rotate(0) translate(28.8 728.8)">
<title>ProgressTest</title>
<polygon fill="white" stroke="transparent" points="-28.8,28.8 -28.8,-728.8 883.8,-728.8 883.8,28.8 -28.8,28.8"/>
<text text-anchor="middle" x="427.5" y="-685.6" font-family="Arial Bold" font-size="13.00">Progress Test &#45; Models</text>
<!-- m_ActiveStorage::Attachment -->
<g id="node1" class="node">
<title>m_ActiveStorage::Attachment</title>
<path fill="none" stroke="black" d="M198.5,-284C198.5,-284 327.5,-284 327.5,-284 333.5,-284 339.5,-290 339.5,-296 339.5,-296 339.5,-354 339.5,-354 339.5,-360 333.5,-366 327.5,-366 327.5,-366 198.5,-366 198.5,-366 192.5,-366 186.5,-360 186.5,-354 186.5,-354 186.5,-296 186.5,-296 186.5,-290 192.5,-284 198.5,-284"/>
<text text-anchor="start" x="192" y="-353.2" font-family="Arial Bold" font-size="11.00">ActiveStorage::Attachment</text>
<polyline fill="none" stroke="black" points="186.5,-346 339.5,-346 "/>
<text text-anchor="start" x="198" y="-333" font-family="Arial" font-size="10.00">blob_id </text>
<text text-anchor="start" x="232" y="-333" font-family="Arial Italic" font-size="10.00" fill="#999999">integer (8) ∗ FK</text>
<text text-anchor="start" x="198" y="-320" font-family="Arial" font-size="10.00">name </text>
<text text-anchor="start" x="226" y="-320" font-family="Arial Italic" font-size="10.00" fill="#999999">string ∗</text>
<text text-anchor="start" x="198" y="-307" font-family="Arial" font-size="10.00">record_id </text>
<text text-anchor="start" x="241" y="-307" font-family="Arial Italic" font-size="10.00" fill="#999999">integer (8) ∗ FK</text>
<text text-anchor="start" x="198" y="-294" font-family="Arial" font-size="10.00">record_type </text>
<text text-anchor="start" x="253" y="-294" font-family="Arial Italic" font-size="10.00" fill="#999999">string ∗</text>
</g>
<!-- m_ActiveStorage::Blob -->
<g id="node2" class="node">
<title>m_ActiveStorage::Blob</title>
<path fill="none" stroke="black" d="M12,-474.5C12,-474.5 132,-474.5 132,-474.5 138,-474.5 144,-480.5 144,-486.5 144,-486.5 144,-570.5 144,-570.5 144,-576.5 138,-582.5 132,-582.5 132,-582.5 12,-582.5 12,-582.5 6,-582.5 0,-576.5 0,-570.5 0,-570.5 0,-486.5 0,-486.5 0,-480.5 6,-474.5 12,-474.5"/>
<text text-anchor="start" x="16.5" y="-569.7" font-family="Arial Bold" font-size="11.00">ActiveStorage::Blob</text>
<polyline fill="none" stroke="black" points="0,-562.5 144,-562.5 "/>
<text text-anchor="start" x="7" y="-549.5" font-family="Arial" font-size="10.00">byte_size </text>
<text text-anchor="start" x="53" y="-549.5" font-family="Arial Italic" font-size="10.00" fill="#999999">integer (8) ∗</text>
<text text-anchor="start" x="7" y="-536.5" font-family="Arial" font-size="10.00">checksum </text>
<text text-anchor="start" x="56" y="-536.5" font-family="Arial Italic" font-size="10.00" fill="#999999">string ∗</text>
<text text-anchor="start" x="7" y="-523.5" font-family="Arial" font-size="10.00">content_type </text>
<text text-anchor="start" x="67" y="-523.5" font-family="Arial Italic" font-size="10.00" fill="#999999">string</text>
<text text-anchor="start" x="7" y="-510.5" font-family="Arial" font-size="10.00">filename </text>
<text text-anchor="start" x="47" y="-510.5" font-family="Arial Italic" font-size="10.00" fill="#999999">string ∗</text>
<text text-anchor="start" x="7" y="-497.5" font-family="Arial" font-size="10.00">key </text>
<text text-anchor="start" x="26" y="-497.5" font-family="Arial Italic" font-size="10.00" fill="#999999">string ∗</text>
<text text-anchor="start" x="7" y="-484.5" font-family="Arial" font-size="10.00">metadata </text>
<text text-anchor="start" x="51" y="-484.5" font-family="Arial Italic" font-size="10.00" fill="#999999">text</text>
</g>
<!-- m_ActiveStorage::Blob&#45;&gt;m_ActiveStorage::Attachment -->
<g id="edge4" class="edge">
<title>m_ActiveStorage::Blob&#45;&gt;m_ActiveStorage::Attachment</title>
<path fill="none" stroke="black" d="M122.43,-474.29C154.59,-440.36 195.61,-397.1 225.02,-366.07"/>
</g>
<!-- m_ActiveStorage::Blob&#45;&gt;m_ActiveStorage::Blob -->
<g id="edge16" class="edge">
<title>m_ActiveStorage::Blob&#45;&gt;m_ActiveStorage::Blob</title>
<path fill="none" stroke="black" stroke-dasharray="1,5" d="M144.18,-549.04C160.79,-547.27 173,-540.42 173,-528.5 173,-516.58 160.79,-509.73 144.18,-507.96"/>
</g>
<!-- m_Axis -->
<g id="node3" class="node">
<title>m_Axis</title>
<path fill="none" stroke="black" d="M550,-619.5C550,-619.5 670,-619.5 670,-619.5 676,-619.5 682,-625.5 682,-631.5 682,-631.5 682,-650.5 682,-650.5 682,-656.5 676,-662.5 670,-662.5 670,-662.5 550,-662.5 550,-662.5 544,-662.5 538,-656.5 538,-650.5 538,-650.5 538,-631.5 538,-631.5 538,-625.5 544,-619.5 550,-619.5"/>
<text text-anchor="start" x="596" y="-649.7" font-family="Arial Bold" font-size="11.00">Axis</text>
<polyline fill="none" stroke="black" points="538,-642.5 682,-642.5 "/>
<text text-anchor="start" x="545" y="-629" font-family="Arial" font-size="10.00">name </text>
<text text-anchor="start" x="573" y="-629" font-family="Arial Italic" font-size="10.00" fill="#999999">string ∗ U</text>
</g>
<!-- m_Subject -->
<g id="node9" class="node">
<title>m_Subject</title>
<path fill="none" stroke="black" d="M551,-494C551,-494 671,-494 671,-494 677,-494 683,-500 683,-506 683,-506 683,-551 683,-551 683,-557 677,-563 671,-563 671,-563 551,-563 551,-563 545,-563 539,-557 539,-551 539,-551 539,-506 539,-506 539,-500 545,-494 551,-494"/>
<text text-anchor="start" x="589" y="-550.2" font-family="Arial Bold" font-size="11.00">Subject</text>
<polyline fill="none" stroke="black" points="539,-543 683,-543 "/>
<text text-anchor="start" x="546" y="-529.5" font-family="Arial" font-size="10.00">axis_id </text>
<text text-anchor="start" x="580" y="-529.5" font-family="Arial Italic" font-size="10.00" fill="#999999">integer (8) FK</text>
<text text-anchor="start" x="546" y="-516.5" font-family="Arial" font-size="10.00">category_id </text>
<text text-anchor="start" x="600" y="-516.5" font-family="Arial Italic" font-size="10.00" fill="#999999">integer (8) FK</text>
<text text-anchor="start" x="546" y="-503.5" font-family="Arial" font-size="10.00">name </text>
<text text-anchor="start" x="574" y="-503.5" font-family="Arial Italic" font-size="10.00" fill="#999999">string ∗ U</text>
</g>
<!-- m_Axis&#45;&gt;m_Subject -->
<g id="edge8" class="edge">
<title>m_Axis&#45;&gt;m_Subject</title>
<path fill="none" stroke="black" d="M610.19,-619.47C610.3,-606.33 610.46,-588.77 610.61,-572.65"/>
<polygon fill="black" stroke="black" points="613.76,-572.4 610.69,-563.37 607.46,-572.35 613.76,-572.4"/>
</g>
<!-- m_Category -->
<g id="node4" class="node">
<title>m_Category</title>
<path fill="none" stroke="black" d="M723,-619.5C723,-619.5 843,-619.5 843,-619.5 849,-619.5 855,-625.5 855,-631.5 855,-631.5 855,-650.5 855,-650.5 855,-656.5 849,-662.5 843,-662.5 843,-662.5 723,-662.5 723,-662.5 717,-662.5 711,-656.5 711,-650.5 711,-650.5 711,-631.5 711,-631.5 711,-625.5 717,-619.5 723,-619.5"/>
<text text-anchor="start" x="756.5" y="-649.7" font-family="Arial Bold" font-size="11.00">Category</text>
<polyline fill="none" stroke="black" points="711,-642.5 855,-642.5 "/>
<text text-anchor="start" x="718" y="-629" font-family="Arial" font-size="10.00">name </text>
<text text-anchor="start" x="746" y="-629" font-family="Arial Italic" font-size="10.00" fill="#999999">string ∗ U</text>
</g>
<!-- m_Category&#45;&gt;m_Subject -->
<g id="edge14" class="edge">
<title>m_Category&#45;&gt;m_Subject</title>
<path fill="none" stroke="black" d="M751.05,-619.47C728.68,-605.1 698.1,-585.46 671.23,-568.19"/>
<polygon fill="black" stroke="black" points="672.66,-565.37 663.39,-563.16 669.26,-570.67 672.66,-565.37"/>
</g>
<!-- m_Question -->
<g id="node5" class="node">
<title>m_Question</title>
<path fill="none" stroke="black" d="M551,-212.5C551,-212.5 671,-212.5 671,-212.5 677,-212.5 683,-218.5 683,-224.5 683,-224.5 683,-425.5 683,-425.5 683,-431.5 677,-437.5 671,-437.5 671,-437.5 551,-437.5 551,-437.5 545,-437.5 539,-431.5 539,-425.5 539,-425.5 539,-224.5 539,-224.5 539,-218.5 545,-212.5 551,-212.5"/>
<text text-anchor="start" x="585" y="-424.7" font-family="Arial Bold" font-size="11.00">Question</text>
<polyline fill="none" stroke="black" points="539,-417.5 683,-417.5 "/>
<text text-anchor="start" x="546" y="-404" font-family="Arial" font-size="10.00">alternatives </text>
<text text-anchor="start" x="600" y="-404" font-family="Arial Italic" font-size="10.00" fill="#999999">jsonb ∗</text>
<text text-anchor="start" x="546" y="-391" font-family="Arial" font-size="10.00">authorship_year </text>
<text text-anchor="start" x="619" y="-391" font-family="Arial Italic" font-size="10.00" fill="#999999">string</text>
<text text-anchor="start" x="546" y="-378" font-family="Arial" font-size="10.00">bloom_taxonomy </text>
<text text-anchor="start" x="624" y="-378" font-family="Arial Italic" font-size="10.00" fill="#999999">string</text>
<text text-anchor="start" x="546" y="-365" font-family="Arial" font-size="10.00">body </text>
<text text-anchor="start" x="571" y="-365" font-family="Arial Italic" font-size="10.00" fill="#999999">text</text>
<text text-anchor="start" x="546" y="-352" font-family="Arial" font-size="10.00">check_type </text>
<text text-anchor="start" x="600" y="-352" font-family="Arial Italic" font-size="10.00" fill="#999999">string</text>
<text text-anchor="start" x="546" y="-339" font-family="Arial" font-size="10.00">difficulty </text>
<text text-anchor="start" x="586" y="-339" font-family="Arial Italic" font-size="10.00" fill="#999999">string</text>
<text text-anchor="start" x="546" y="-326" font-family="Arial" font-size="10.00">explanation </text>
<text text-anchor="start" x="599" y="-326" font-family="Arial Italic" font-size="10.00" fill="#999999">text</text>
<text text-anchor="start" x="546" y="-313" font-family="Arial" font-size="10.00">instruction </text>
<text text-anchor="start" x="595" y="-313" font-family="Arial Italic" font-size="10.00" fill="#999999">text</text>
<text text-anchor="start" x="546" y="-300" font-family="Arial" font-size="10.00">intention </text>
<text text-anchor="start" x="586" y="-300" font-family="Arial Italic" font-size="10.00" fill="#999999">text</text>
<text text-anchor="start" x="546" y="-287" font-family="Arial" font-size="10.00">references </text>
<text text-anchor="start" x="595" y="-287" font-family="Arial Italic" font-size="10.00" fill="#999999">text</text>
<text text-anchor="start" x="546" y="-274" font-family="Arial" font-size="10.00">source </text>
<text text-anchor="start" x="579" y="-274" font-family="Arial Italic" font-size="10.00" fill="#999999">string</text>
<text text-anchor="start" x="546" y="-261" font-family="Arial" font-size="10.00">status </text>
<text text-anchor="start" x="577" y="-261" font-family="Arial Italic" font-size="10.00" fill="#999999">string ∗</text>
<text text-anchor="start" x="546" y="-248" font-family="Arial" font-size="10.00">subject_id </text>
<text text-anchor="start" x="594" y="-248" font-family="Arial Italic" font-size="10.00" fill="#999999">integer (8) FK</text>
<text text-anchor="start" x="546" y="-235" font-family="Arial" font-size="10.00">support </text>
<text text-anchor="start" x="582" y="-235" font-family="Arial Italic" font-size="10.00" fill="#999999">text</text>
<text text-anchor="start" x="546" y="-222" font-family="Arial" font-size="10.00">user_id </text>
<text text-anchor="start" x="581" y="-222" font-family="Arial Italic" font-size="10.00" fill="#999999">integer (8) FK</text>
</g>
<!-- m_ReviewFeedback -->
<g id="node6" class="node">
<title>m_ReviewFeedback</title>
<path fill="none" stroke="black" d="M453,-0.5C453,-0.5 595,-0.5 595,-0.5 601,-0.5 607,-6.5 607,-12.5 607,-12.5 607,-57.5 607,-57.5 607,-63.5 601,-69.5 595,-69.5 595,-69.5 453,-69.5 453,-69.5 447,-69.5 441,-63.5 441,-57.5 441,-57.5 441,-12.5 441,-12.5 441,-6.5 447,-0.5 453,-0.5"/>
<text text-anchor="start" x="478" y="-56.7" font-family="Arial Bold" font-size="11.00">ReviewFeedback</text>
<polyline fill="none" stroke="black" points="441,-49.5 607,-49.5 "/>
<text text-anchor="start" x="448" y="-36" font-family="Arial" font-size="10.00">comment </text>
<text text-anchor="start" x="492" y="-36" font-family="Arial Italic" font-size="10.00" fill="#999999">text</text>
<text text-anchor="start" x="448" y="-23" font-family="Arial" font-size="10.00">review_request_id </text>
<text text-anchor="start" x="530" y="-23" font-family="Arial Italic" font-size="10.00" fill="#999999">integer (8) ∗ FK</text>
<text text-anchor="start" x="448" y="-10" font-family="Arial" font-size="10.00">status </text>
<text text-anchor="start" x="479" y="-10" font-family="Arial Italic" font-size="10.00" fill="#999999">string</text>
</g>
<!-- m_Question&#45;&gt;m_ReviewFeedback -->
<g id="edge13" class="edge">
<title>m_Question&#45;&gt;m_ReviewFeedback</title>
<path fill="none" stroke="black" stroke-dasharray="1,5" d="M538.63,-283.66C500.78,-258.21 458.05,-221.54 437,-176 423.95,-147.76 423.56,-134.06 437,-106 442.46,-94.6 450.78,-84.47 460.14,-75.7"/>
<polygon fill="black" stroke="black" points="462.45,-77.87 467.13,-69.56 458.29,-73.14 462.45,-77.87"/>
</g>
<!-- m_ReviewRequest -->
<g id="node7" class="node">
<title>m_ReviewRequest</title>
<path fill="none" stroke="black" d="M464,-106.5C464,-106.5 584,-106.5 584,-106.5 590,-106.5 596,-112.5 596,-118.5 596,-118.5 596,-163.5 596,-163.5 596,-169.5 590,-175.5 584,-175.5 584,-175.5 464,-175.5 464,-175.5 458,-175.5 452,-169.5 452,-163.5 452,-163.5 452,-118.5 452,-118.5 452,-112.5 458,-106.5 464,-106.5"/>
<text text-anchor="start" x="481" y="-162.7" font-family="Arial Bold" font-size="11.00">ReviewRequest</text>
<polyline fill="none" stroke="black" points="452,-155.5 596,-155.5 "/>
<text text-anchor="start" x="459" y="-142" font-family="Arial" font-size="10.00">answered </text>
<text text-anchor="start" x="505" y="-142" font-family="Arial Italic" font-size="10.00" fill="#999999">boolean ∗</text>
<text text-anchor="start" x="459" y="-129" font-family="Arial" font-size="10.00">question_id </text>
<text text-anchor="start" x="512" y="-129" font-family="Arial Italic" font-size="10.00" fill="#999999">integer (8) ∗ FK</text>
<text text-anchor="start" x="459" y="-116" font-family="Arial" font-size="10.00">user_id </text>
<text text-anchor="start" x="494" y="-116" font-family="Arial Italic" font-size="10.00" fill="#999999">integer (8) ∗ FK</text>
</g>
<!-- m_Question&#45;&gt;m_ReviewRequest -->
<g id="edge11" class="edge">
<title>m_Question&#45;&gt;m_ReviewRequest</title>
<path fill="none" stroke="black" d="M557.64,-212.37C552.84,-202.33 548.21,-192.65 544,-183.84"/>
<polygon fill="black" stroke="black" points="546.82,-182.44 540.1,-175.68 541.14,-185.16 546.82,-182.44"/>
</g>
<!-- m_User -->
<g id="node11" class="node">
<title>m_User</title>
<path fill="none" stroke="black" d="M376,-500.5C376,-500.5 496,-500.5 496,-500.5 502,-500.5 508,-506.5 508,-512.5 508,-512.5 508,-544.5 508,-544.5 508,-550.5 502,-556.5 496,-556.5 496,-556.5 376,-556.5 376,-556.5 370,-556.5 364,-550.5 364,-544.5 364,-544.5 364,-512.5 364,-512.5 364,-506.5 370,-500.5 376,-500.5"/>
<text text-anchor="start" x="421.5" y="-543.7" font-family="Arial Bold" font-size="11.00">User</text>
<polyline fill="none" stroke="black" points="364,-536.5 508,-536.5 "/>
<text text-anchor="start" x="371" y="-523.5" font-family="Arial" font-size="10.00">email </text>
<text text-anchor="start" x="398" y="-523.5" font-family="Arial Italic" font-size="10.00" fill="#999999">string ∗ U</text>
<text text-anchor="start" x="371" y="-510.5" font-family="Arial" font-size="10.00">name </text>
<text text-anchor="start" x="399" y="-510.5" font-family="Arial Italic" font-size="10.00" fill="#999999">string ∗</text>
</g>
<!-- m_ReviewFeedback&#45;&gt;m_User -->
<g id="edge10" class="edge">
<title>m_ReviewFeedback&#45;&gt;m_User</title>
<path fill="none" stroke="black" stroke-dasharray="1,5" d="M467.15,-69.57C455.01,-79.64 443.8,-91.85 437,-106 371.97,-241.39 410.57,-430.63 428.43,-500.33"/>
</g>
<!-- m_ReviewRequest&#45;&gt;m_ReviewFeedback -->
<g id="edge9" class="edge">
<title>m_ReviewRequest&#45;&gt;m_ReviewFeedback</title>
<path fill="none" stroke="black" d="M524,-106.23C524,-97.43 524,-87.82 524,-78.62"/>
<polygon fill="black" stroke="black" points="527.15,-78.6 524,-69.6 520.85,-78.6 527.15,-78.6"/>
</g>
<!-- m_Role -->
<g id="node8" class="node">
<title>m_Role</title>
<path fill="none" stroke="black" d="M376,-619.5C376,-619.5 496,-619.5 496,-619.5 502,-619.5 508,-625.5 508,-631.5 508,-631.5 508,-650.5 508,-650.5 508,-656.5 502,-662.5 496,-662.5 496,-662.5 376,-662.5 376,-662.5 370,-662.5 364,-656.5 364,-650.5 364,-650.5 364,-631.5 364,-631.5 364,-625.5 370,-619.5 376,-619.5"/>
<text text-anchor="start" x="421.5" y="-649.7" font-family="Arial Bold" font-size="11.00">Role</text>
<polyline fill="none" stroke="black" points="364,-642.5 508,-642.5 "/>
<text text-anchor="start" x="371" y="-629" font-family="Arial" font-size="10.00">name </text>
<text text-anchor="start" x="399" y="-629" font-family="Arial Italic" font-size="10.00" fill="#999999">string ∗ U</text>
</g>
<!-- m_Role&#45;&gt;m_User -->
<g id="edge1" class="edge">
<title>m_Role&#45;&gt;m_User</title>
<path fill="none" stroke="black" d="M436,-610.17C436,-596.47 436,-580.11 436,-565.72"/>
<polygon fill="black" stroke="black" points="432.85,-610.47 436,-619.47 439.15,-610.47 432.85,-610.47"/>
<polygon fill="black" stroke="black" points="439.15,-565.59 436,-556.59 432.85,-565.59 439.15,-565.59"/>
</g>
<!-- m_Subject&#45;&gt;m_Question -->
<g id="edge12" class="edge">
<title>m_Subject&#45;&gt;m_Question</title>
<path fill="none" stroke="black" d="M611,-493.77C611,-480.32 611,-463.95 611,-446.77"/>
<polygon fill="black" stroke="black" points="614.15,-446.73 611,-437.73 607.85,-446.73 614.15,-446.73"/>
</g>
<!-- m_Upload -->
<g id="node10" class="node">
<title>m_Upload</title>
<path fill="none" stroke="black" d="M203,-510.5C203,-510.5 323,-510.5 323,-510.5 329,-510.5 335,-516.5 335,-522.5 335,-522.5 335,-534.5 335,-534.5 335,-540.5 329,-546.5 323,-546.5 323,-546.5 203,-546.5 203,-546.5 197,-546.5 191,-540.5 191,-534.5 191,-534.5 191,-522.5 191,-522.5 191,-516.5 197,-510.5 203,-510.5"/>
<text text-anchor="start" x="242" y="-525.7" font-family="Arial Bold" font-size="11.00">Upload</text>
</g>
<!-- m_Upload&#45;&gt;m_ActiveStorage::Attachment -->
<g id="edge5" class="edge">
<title>m_Upload&#45;&gt;m_ActiveStorage::Attachment</title>
<path fill="none" stroke="black" d="M263,-510.32C263,-478.63 263,-410.19 263,-366.21"/>
</g>
<!-- m_User&#45;&gt;m_ActiveStorage::Attachment -->
<g id="edge6" class="edge">
<title>m_User&#45;&gt;m_ActiveStorage::Attachment</title>
<path fill="none" stroke="black" d="M412.67,-500.32C383.06,-465.84 331.75,-406.08 297.59,-366.28"/>
</g>
<!-- m_User&#45;&gt;m_ActiveStorage::Blob -->
<g id="edge7" class="edge">
<title>m_User&#45;&gt;m_ActiveStorage::Blob</title>
<path fill="none" stroke="black" stroke-dasharray="1,5" d="M407.22,-556.54C388.25,-572.99 361.93,-592.21 334.5,-601 273.55,-620.53 252.1,-618.35 190.5,-601 174.71,-596.55 158.95,-589.35 144.32,-581.18"/>
</g>
<!-- m_User&#45;&gt;m_Question -->
<g id="edge2" class="edge">
<title>m_User&#45;&gt;m_Question</title>
<path fill="none" stroke="black" d="M461.08,-500.32C477.22,-482.7 498.55,-459.17 517,-438 522.27,-431.96 527.67,-425.7 533.08,-419.38"/>
<polygon fill="black" stroke="black" points="535.51,-421.38 538.96,-412.49 530.72,-417.29 535.51,-421.38"/>
</g>
<!-- m_User&#45;&gt;m_ReviewRequest -->
<g id="edge3" class="edge">
<title>m_User&#45;&gt;m_ReviewRequest</title>
<path fill="none" stroke="black" d="M442.19,-500.39C457.29,-434.22 496.14,-264.03 514.34,-184.34"/>
<polygon fill="black" stroke="black" points="517.41,-185.02 516.34,-175.54 511.27,-183.61 517.41,-185.02"/>
</g>
</g>
</svg>
