<?xml version="1.0" encoding="UTF-8" standalone="no"?>
<!DOCTYPE svg PUBLIC "-//W3C//DTD SVG 1.1//EN"
 "http://www.w3.org/Graphics/SVG/1.1/DTD/svg11.dtd">
<!-- Generated by graphviz version 2.46.1 (0)
 -->
<!-- Title: ProgressTest Pages: 1 -->
<svg width="1271pt" height="823pt"
 viewBox="0.00 0.00 1270.60 822.60" xmlns="http://www.w3.org/2000/svg" xmlns:xlink="http://www.w3.org/1999/xlink">
<g id="graph0" class="graph" transform="scale(1 1) rotate(0) translate(28.8 793.8)">
<title>ProgressTest</title>
<polygon fill="white" stroke="transparent" points="-28.8,28.8 -28.8,-793.8 1241.8,-793.8 1241.8,28.8 -28.8,28.8"/>
<text text-anchor="middle" x="606.5" y="-750.6" font-family="Arial Bold" font-size="13.00">Progress Test &#45; Models</text>
<!-- m_ActiveStorage::Attachment -->
<g id="node1" class="node">
<title>m_ActiveStorage::Attachment</title>
<path fill="none" stroke="black" d="M198.5,-290.5C198.5,-290.5 327.5,-290.5 327.5,-290.5 333.5,-290.5 339.5,-296.5 339.5,-302.5 339.5,-302.5 339.5,-360.5 339.5,-360.5 339.5,-366.5 333.5,-372.5 327.5,-372.5 327.5,-372.5 198.5,-372.5 198.5,-372.5 192.5,-372.5 186.5,-366.5 186.5,-360.5 186.5,-360.5 186.5,-302.5 186.5,-302.5 186.5,-296.5 192.5,-290.5 198.5,-290.5"/>
<text text-anchor="start" x="192" y="-359.7" font-family="Arial Bold" font-size="11.00">ActiveStorage::Attachment</text>
<polyline fill="none" stroke="black" points="186.5,-352.5 339.5,-352.5 "/>
<text text-anchor="start" x="198" y="-339.5" font-family="Arial" font-size="10.00">blob_id </text>
<text text-anchor="start" x="232" y="-339.5" font-family="Arial Italic" font-size="10.00" fill="#999999">integer (8) ∗ FK</text>
<text text-anchor="start" x="198" y="-326.5" font-family="Arial" font-size="10.00">name </text>
<text text-anchor="start" x="226" y="-326.5" font-family="Arial Italic" font-size="10.00" fill="#999999">string ∗</text>
<text text-anchor="start" x="198" y="-313.5" font-family="Arial" font-size="10.00">record_id </text>
<text text-anchor="start" x="241" y="-313.5" font-family="Arial Italic" font-size="10.00" fill="#999999">integer (8) ∗ FK</text>
<text text-anchor="start" x="198" y="-300.5" font-family="Arial" font-size="10.00">record_type </text>
<text text-anchor="start" x="253" y="-300.5" font-family="Arial Italic" font-size="10.00" fill="#999999">string ∗</text>
</g>
<!-- m_ActiveStorage::Blob -->
<g id="node2" class="node">
<title>m_ActiveStorage::Blob</title>
<path fill="none" stroke="black" d="M12,-487.5C12,-487.5 132,-487.5 132,-487.5 138,-487.5 144,-493.5 144,-499.5 144,-499.5 144,-583.5 144,-583.5 144,-589.5 138,-595.5 132,-595.5 132,-595.5 12,-595.5 12,-595.5 6,-595.5 0,-589.5 0,-583.5 0,-583.5 0,-499.5 0,-499.5 0,-493.5 6,-487.5 12,-487.5"/>
<text text-anchor="start" x="16.5" y="-582.7" font-family="Arial Bold" font-size="11.00">ActiveStorage::Blob</text>
<polyline fill="none" stroke="black" points="0,-575.5 144,-575.5 "/>
<text text-anchor="start" x="7" y="-562.5" font-family="Arial" font-size="10.00">byte_size </text>
<text text-anchor="start" x="53" y="-562.5" font-family="Arial Italic" font-size="10.00" fill="#999999">integer (8) ∗</text>
<text text-anchor="start" x="7" y="-549.5" font-family="Arial" font-size="10.00">checksum </text>
<text text-anchor="start" x="56" y="-549.5" font-family="Arial Italic" font-size="10.00" fill="#999999">string ∗</text>
<text text-anchor="start" x="7" y="-536.5" font-family="Arial" font-size="10.00">content_type </text>
<text text-anchor="start" x="67" y="-536.5" font-family="Arial Italic" font-size="10.00" fill="#999999">string</text>
<text text-anchor="start" x="7" y="-523.5" font-family="Arial" font-size="10.00">filename </text>
<text text-anchor="start" x="47" y="-523.5" font-family="Arial Italic" font-size="10.00" fill="#999999">string ∗</text>
<text text-anchor="start" x="7" y="-510.5" font-family="Arial" font-size="10.00">key </text>
<text text-anchor="start" x="26" y="-510.5" font-family="Arial Italic" font-size="10.00" fill="#999999">string ∗</text>
<text text-anchor="start" x="7" y="-497.5" font-family="Arial" font-size="10.00">metadata </text>
<text text-anchor="start" x="51" y="-497.5" font-family="Arial Italic" font-size="10.00" fill="#999999">text</text>
</g>
<!-- m_ActiveStorage::Blob&#45;&gt;m_ActiveStorage::Attachment -->
<g id="edge4" class="edge">
<title>m_ActiveStorage::Blob&#45;&gt;m_ActiveStorage::Attachment</title>
<path fill="none" stroke="black" d="M120.69,-487.47C153.52,-451.73 196.15,-405.3 226.16,-372.62"/>
</g>
<!-- m_ActiveStorage::Blob&#45;&gt;m_ActiveStorage::Blob -->
<g id="edge16" class="edge">
<title>m_ActiveStorage::Blob&#45;&gt;m_ActiveStorage::Blob</title>
<path fill="none" stroke="black" stroke-dasharray="1,5" d="M144.18,-566.8C160.79,-564.62 173,-556.19 173,-541.5 173,-526.81 160.79,-518.38 144.18,-516.2"/>
</g>
<!-- m_Axis -->
<g id="node3" class="node">
<title>m_Axis</title>
<path fill="none" stroke="black" d="M562,-658.5C562,-658.5 682,-658.5 682,-658.5 688,-658.5 694,-664.5 694,-670.5 694,-670.5 694,-689.5 694,-689.5 694,-695.5 688,-701.5 682,-701.5 682,-701.5 562,-701.5 562,-701.5 556,-701.5 550,-695.5 550,-689.5 550,-689.5 550,-670.5 550,-670.5 550,-664.5 556,-658.5 562,-658.5"/>
<text text-anchor="start" x="608" y="-688.7" font-family="Arial Bold" font-size="11.00">Axis</text>
<polyline fill="none" stroke="black" points="550,-681.5 694,-681.5 "/>
<text text-anchor="start" x="557" y="-668" font-family="Arial" font-size="10.00">name </text>
<text text-anchor="start" x="585" y="-668" font-family="Arial Italic" font-size="10.00" fill="#999999">string ∗ U</text>
</g>
<!-- m_Subject -->
<g id="node11" class="node">
<title>m_Subject</title>
<path fill="none" stroke="black" d="M567,-507C567,-507 687,-507 687,-507 693,-507 699,-513 699,-519 699,-519 699,-564 699,-564 699,-570 693,-576 687,-576 687,-576 567,-576 567,-576 561,-576 555,-570 555,-564 555,-564 555,-519 555,-519 555,-513 561,-507 567,-507"/>
<text text-anchor="start" x="605" y="-563.2" font-family="Arial Bold" font-size="11.00">Subject</text>
<polyline fill="none" stroke="black" points="555,-556 699,-556 "/>
<text text-anchor="start" x="562" y="-542.5" font-family="Arial" font-size="10.00">axis_id </text>
<text text-anchor="start" x="596" y="-542.5" font-family="Arial Italic" font-size="10.00" fill="#999999">integer (8) FK</text>
<text text-anchor="start" x="562" y="-529.5" font-family="Arial" font-size="10.00">category_id </text>
<text text-anchor="start" x="616" y="-529.5" font-family="Arial Italic" font-size="10.00" fill="#999999">integer (8) FK</text>
<text text-anchor="start" x="562" y="-516.5" font-family="Arial" font-size="10.00">name </text>
<text text-anchor="start" x="590" y="-516.5" font-family="Arial Italic" font-size="10.00" fill="#999999">string ∗ U</text>
</g>
<!-- m_Axis&#45;&gt;m_Subject -->
<g id="edge8" class="edge">
<title>m_Axis&#45;&gt;m_Subject</title>
<path fill="none" stroke="black" d="M622.76,-658.27C623.47,-638.96 624.54,-609.57 625.43,-585.24"/>
<polygon fill="black" stroke="black" points="628.58,-585.3 625.77,-576.19 622.29,-585.07 628.58,-585.3"/>
</g>
<!-- m_Category -->
<g id="node4" class="node">
<title>m_Category</title>
<path fill="none" stroke="black" d="M735,-658.5C735,-658.5 855,-658.5 855,-658.5 861,-658.5 867,-664.5 867,-670.5 867,-670.5 867,-689.5 867,-689.5 867,-695.5 861,-701.5 855,-701.5 855,-701.5 735,-701.5 735,-701.5 729,-701.5 723,-695.5 723,-689.5 723,-689.5 723,-670.5 723,-670.5 723,-664.5 729,-658.5 735,-658.5"/>
<text text-anchor="start" x="768.5" y="-688.7" font-family="Arial Bold" font-size="11.00">Category</text>
<polyline fill="none" stroke="black" points="723,-681.5 867,-681.5 "/>
<text text-anchor="start" x="730" y="-668" font-family="Arial" font-size="10.00">name </text>
<text text-anchor="start" x="758" y="-668" font-family="Arial Italic" font-size="10.00" fill="#999999">string ∗ U</text>
</g>
<!-- m_Category&#45;&gt;m_Subject -->
<g id="edge14" class="edge">
<title>m_Category&#45;&gt;m_Subject</title>
<path fill="none" stroke="black" d="M769.48,-658.27C744.67,-638.11 706.34,-606.96 675.68,-582.05"/>
<polygon fill="black" stroke="black" points="677.44,-579.42 668.47,-576.19 673.47,-584.31 677.44,-579.42"/>
</g>
<!-- m_JwtBlacklist -->
<g id="node5" class="node">
<title>m_JwtBlacklist</title>
<path fill="none" stroke="black" d="M908,-652C908,-652 1028,-652 1028,-652 1034,-652 1040,-658 1040,-664 1040,-664 1040,-696 1040,-696 1040,-702 1034,-708 1028,-708 1028,-708 908,-708 908,-708 902,-708 896,-702 896,-696 896,-696 896,-664 896,-664 896,-658 902,-652 908,-652"/>
<text text-anchor="start" x="934" y="-695.2" font-family="Arial Bold" font-size="11.00">JwtBlacklist</text>
<polyline fill="none" stroke="black" points="896,-688 1040,-688 "/>
<text text-anchor="start" x="903" y="-675" font-family="Arial" font-size="10.00">exp </text>
<text text-anchor="start" x="922" y="-675" font-family="Arial Italic" font-size="10.00" fill="#999999">datetime</text>
<text text-anchor="start" x="903" y="-662" font-family="Arial" font-size="10.00">jti </text>
<text text-anchor="start" x="914" y="-662" font-family="Arial Italic" font-size="10.00" fill="#999999">string</text>
</g>
<!-- m_Notification -->
<g id="node6" class="node">
<title>m_Notification</title>
<path fill="none" stroke="black" d="M1081,-632.5C1081,-632.5 1201,-632.5 1201,-632.5 1207,-632.5 1213,-638.5 1213,-644.5 1213,-644.5 1213,-715.5 1213,-715.5 1213,-721.5 1207,-727.5 1201,-727.5 1201,-727.5 1081,-727.5 1081,-727.5 1075,-727.5 1069,-721.5 1069,-715.5 1069,-715.5 1069,-644.5 1069,-644.5 1069,-638.5 1075,-632.5 1081,-632.5"/>
<text text-anchor="start" x="1108.5" y="-714.7" font-family="Arial Bold" font-size="11.00">Notification</text>
<polyline fill="none" stroke="black" points="1069,-707.5 1213,-707.5 "/>
<text text-anchor="start" x="1076" y="-694" font-family="Arial" font-size="10.00">params </text>
<text text-anchor="start" x="1112" y="-694" font-family="Arial Italic" font-size="10.00" fill="#999999">jsonb</text>
<text text-anchor="start" x="1076" y="-681" font-family="Arial" font-size="10.00">read_at </text>
<text text-anchor="start" x="1112" y="-681" font-family="Arial Italic" font-size="10.00" fill="#999999">datetime</text>
<text text-anchor="start" x="1076" y="-668" font-family="Arial" font-size="10.00">recipient_id </text>
<text text-anchor="start" x="1129" y="-668" font-family="Arial Italic" font-size="10.00" fill="#999999">integer (8) ∗</text>
<text text-anchor="start" x="1076" y="-655" font-family="Arial" font-size="10.00">recipient_type </text>
<text text-anchor="start" x="1140" y="-655" font-family="Arial Italic" font-size="10.00" fill="#999999">string ∗</text>
<text text-anchor="start" x="1076" y="-642" font-family="Arial" font-size="10.00">type </text>
<text text-anchor="start" x="1098" y="-642" font-family="Arial Italic" font-size="10.00" fill="#999999">string ∗</text>
</g>
<!-- m_Question -->
<g id="node7" class="node">
<title>m_Question</title>
<path fill="none" stroke="black" d="M560,-212.5C560,-212.5 680,-212.5 680,-212.5 686,-212.5 692,-218.5 692,-224.5 692,-224.5 692,-438.5 692,-438.5 692,-444.5 686,-450.5 680,-450.5 680,-450.5 560,-450.5 560,-450.5 554,-450.5 548,-444.5 548,-438.5 548,-438.5 548,-224.5 548,-224.5 548,-218.5 554,-212.5 560,-212.5"/>
<text text-anchor="start" x="594" y="-437.7" font-family="Arial Bold" font-size="11.00">Question</text>
<polyline fill="none" stroke="black" points="548,-430.5 692,-430.5 "/>
<text text-anchor="start" x="555" y="-417.5" font-family="Arial" font-size="10.00">alternatives </text>
<text text-anchor="start" x="609" y="-417.5" font-family="Arial Italic" font-size="10.00" fill="#999999">jsonb ∗</text>
<text text-anchor="start" x="555" y="-404.5" font-family="Arial" font-size="10.00">authorship_year </text>
<text text-anchor="start" x="628" y="-404.5" font-family="Arial Italic" font-size="10.00" fill="#999999">string</text>
<text text-anchor="start" x="555" y="-391.5" font-family="Arial" font-size="10.00">bloom_taxonomy </text>
<text text-anchor="start" x="633" y="-391.5" font-family="Arial Italic" font-size="10.00" fill="#999999">string</text>
<text text-anchor="start" x="555" y="-378.5" font-family="Arial" font-size="10.00">body </text>
<text text-anchor="start" x="580" y="-378.5" font-family="Arial Italic" font-size="10.00" fill="#999999">text</text>
<text text-anchor="start" x="555" y="-365.5" font-family="Arial" font-size="10.00">check_type </text>
<text text-anchor="start" x="609" y="-365.5" font-family="Arial Italic" font-size="10.00" fill="#999999">string</text>
<text text-anchor="start" x="555" y="-352.5" font-family="Arial" font-size="10.00">difficulty </text>
<text text-anchor="start" x="595" y="-352.5" font-family="Arial Italic" font-size="10.00" fill="#999999">string</text>
<text text-anchor="start" x="555" y="-339.5" font-family="Arial" font-size="10.00">explanation </text>
<text text-anchor="start" x="608" y="-339.5" font-family="Arial Italic" font-size="10.00" fill="#999999">text</text>
<text text-anchor="start" x="555" y="-326.5" font-family="Arial" font-size="10.00">instruction </text>
<text text-anchor="start" x="604" y="-326.5" font-family="Arial Italic" font-size="10.00" fill="#999999">text</text>
<text text-anchor="start" x="555" y="-313.5" font-family="Arial" font-size="10.00">introduction </text>
<text text-anchor="start" x="609" y="-313.5" font-family="Arial Italic" font-size="10.00" fill="#999999">string</text>
<text text-anchor="start" x="555" y="-300.5" font-family="Arial" font-size="10.00">references </text>
<text text-anchor="start" x="604" y="-300.5" font-family="Arial Italic" font-size="10.00" fill="#999999">text</text>
<text text-anchor="start" x="555" y="-287.5" font-family="Arial" font-size="10.00">source </text>
<text text-anchor="start" x="588" y="-287.5" font-family="Arial Italic" font-size="10.00" fill="#999999">string</text>
<text text-anchor="start" x="555" y="-274.5" font-family="Arial" font-size="10.00">status </text>
<text text-anchor="start" x="586" y="-274.5" font-family="Arial Italic" font-size="10.00" fill="#999999">string ∗</text>
<text text-anchor="start" x="555" y="-261.5" font-family="Arial" font-size="10.00">subject_id </text>
<text text-anchor="start" x="603" y="-261.5" font-family="Arial Italic" font-size="10.00" fill="#999999">integer (8) FK</text>
<text text-anchor="start" x="555" y="-248.5" font-family="Arial" font-size="10.00">support </text>
<text text-anchor="start" x="591" y="-248.5" font-family="Arial Italic" font-size="10.00" fill="#999999">text</text>
<text text-anchor="start" x="555" y="-235.5" font-family="Arial" font-size="10.00">user_id </text>
<text text-anchor="start" x="590" y="-235.5" font-family="Arial Italic" font-size="10.00" fill="#999999">integer (8) FK</text>
<text text-anchor="start" x="555" y="-222.5" font-family="Arial" font-size="10.00">uuid </text>
<text text-anchor="start" x="577" y="-222.5" font-family="Arial Italic" font-size="10.00" fill="#999999">uuid ∗</text>
</g>
<!-- m_ReviewFeedback -->
<g id="node8" class="node">
<title>m_ReviewFeedback</title>
<path fill="none" stroke="black" d="M462,-0.5C462,-0.5 604,-0.5 604,-0.5 610,-0.5 616,-6.5 616,-12.5 616,-12.5 616,-57.5 616,-57.5 616,-63.5 610,-69.5 604,-69.5 604,-69.5 462,-69.5 462,-69.5 456,-69.5 450,-63.5 450,-57.5 450,-57.5 450,-12.5 450,-12.5 450,-6.5 456,-0.5 462,-0.5"/>
<text text-anchor="start" x="487" y="-56.7" font-family="Arial Bold" font-size="11.00">ReviewFeedback</text>
<polyline fill="none" stroke="black" points="450,-49.5 616,-49.5 "/>
<text text-anchor="start" x="457" y="-36" font-family="Arial" font-size="10.00">comment </text>
<text text-anchor="start" x="501" y="-36" font-family="Arial Italic" font-size="10.00" fill="#999999">text</text>
<text text-anchor="start" x="457" y="-23" font-family="Arial" font-size="10.00">review_request_id </text>
<text text-anchor="start" x="539" y="-23" font-family="Arial Italic" font-size="10.00" fill="#999999">integer (8) ∗ FK</text>
<text text-anchor="start" x="457" y="-10" font-family="Arial" font-size="10.00">status </text>
<text text-anchor="start" x="488" y="-10" font-family="Arial Italic" font-size="10.00" fill="#999999">string</text>
</g>
<!-- m_Question&#45;&gt;m_ReviewFeedback -->
<g id="edge13" class="edge">
<title>m_Question&#45;&gt;m_ReviewFeedback</title>
<path fill="none" stroke="black" stroke-dasharray="1,5" d="M547.55,-287.68C509.68,-260.88 466.95,-222.61 446,-176 433.25,-147.62 432.56,-134.06 446,-106 451.46,-94.6 459.78,-84.47 469.14,-75.7"/>
<polygon fill="black" stroke="black" points="471.45,-77.87 476.13,-69.56 467.29,-73.14 471.45,-77.87"/>
</g>
<!-- m_ReviewRequest -->
<g id="node9" class="node">
<title>m_ReviewRequest</title>
<path fill="none" stroke="black" d="M473,-106.5C473,-106.5 593,-106.5 593,-106.5 599,-106.5 605,-112.5 605,-118.5 605,-118.5 605,-163.5 605,-163.5 605,-169.5 599,-175.5 593,-175.5 593,-175.5 473,-175.5 473,-175.5 467,-175.5 461,-169.5 461,-163.5 461,-163.5 461,-118.5 461,-118.5 461,-112.5 467,-106.5 473,-106.5"/>
<text text-anchor="start" x="490" y="-162.7" font-family="Arial Bold" font-size="11.00">ReviewRequest</text>
<polyline fill="none" stroke="black" points="461,-155.5 605,-155.5 "/>
<text text-anchor="start" x="468" y="-142" font-family="Arial" font-size="10.00">answered </text>
<text text-anchor="start" x="514" y="-142" font-family="Arial Italic" font-size="10.00" fill="#999999">boolean ∗</text>
<text text-anchor="start" x="468" y="-129" font-family="Arial" font-size="10.00">question_id </text>
<text text-anchor="start" x="521" y="-129" font-family="Arial Italic" font-size="10.00" fill="#999999">integer (8) ∗ FK</text>
<text text-anchor="start" x="468" y="-116" font-family="Arial" font-size="10.00">user_id </text>
<text text-anchor="start" x="503" y="-116" font-family="Arial Italic" font-size="10.00" fill="#999999">integer (8) ∗ FK</text>
</g>
<!-- m_Question&#45;&gt;m_ReviewRequest -->
<g id="edge11" class="edge">
<title>m_Question&#45;&gt;m_ReviewRequest</title>
<path fill="none" stroke="black" d="M565.52,-212.46C560.9,-202.44 556.45,-192.81 552.41,-184.05"/>
<polygon fill="black" stroke="black" points="555.14,-182.46 548.51,-175.61 549.42,-185.1 555.14,-182.46"/>
</g>
<!-- m_User -->
<g id="node13" class="node">
<title>m_User</title>
<path fill="none" stroke="black" d="M376,-487.5C376,-487.5 514,-487.5 514,-487.5 520,-487.5 526,-493.5 526,-499.5 526,-499.5 526,-583.5 526,-583.5 526,-589.5 520,-595.5 514,-595.5 514,-595.5 376,-595.5 376,-595.5 370,-595.5 364,-589.5 364,-583.5 364,-583.5 364,-499.5 364,-499.5 364,-493.5 370,-487.5 376,-487.5"/>
<text text-anchor="start" x="430.5" y="-582.7" font-family="Arial Bold" font-size="11.00">User</text>
<polyline fill="none" stroke="black" points="364,-575.5 526,-575.5 "/>
<text text-anchor="start" x="371" y="-562.5" font-family="Arial" font-size="10.00">email </text>
<text text-anchor="start" x="398" y="-562.5" font-family="Arial Italic" font-size="10.00" fill="#999999">string ∗ U</text>
<text text-anchor="start" x="371" y="-549.5" font-family="Arial" font-size="10.00">encrypted_password </text>
<text text-anchor="start" x="465" y="-549.5" font-family="Arial Italic" font-size="10.00" fill="#999999">string ∗</text>
<text text-anchor="start" x="371" y="-536.5" font-family="Arial" font-size="10.00">name </text>
<text text-anchor="start" x="399" y="-536.5" font-family="Arial Italic" font-size="10.00" fill="#999999">string ∗</text>
<text text-anchor="start" x="371" y="-523.5" font-family="Arial" font-size="10.00">remember_created_at </text>
<text text-anchor="start" x="469" y="-523.5" font-family="Arial Italic" font-size="10.00" fill="#999999">datetime</text>
<text text-anchor="start" x="371" y="-510.5" font-family="Arial" font-size="10.00">reset_password_sent_at </text>
<text text-anchor="start" x="481" y="-510.5" font-family="Arial Italic" font-size="10.00" fill="#999999">datetime</text>
<text text-anchor="start" x="371" y="-497.5" font-family="Arial" font-size="10.00">reset_password_token </text>
<text text-anchor="start" x="473" y="-497.5" font-family="Arial Italic" font-size="10.00" fill="#999999">string</text>
</g>
<!-- m_ReviewFeedback&#45;&gt;m_User -->
<g id="edge10" class="edge">
<title>m_ReviewFeedback&#45;&gt;m_User</title>
<path fill="none" stroke="black" stroke-dasharray="1,5" d="M476.15,-69.57C464.01,-79.64 452.8,-91.85 446,-106 385.66,-231.62 411.89,-402.22 431.17,-487.46"/>
</g>
<!-- m_ReviewRequest&#45;&gt;m_ReviewFeedback -->
<g id="edge9" class="edge">
<title>m_ReviewRequest&#45;&gt;m_ReviewFeedback</title>
<path fill="none" stroke="black" d="M533,-106.23C533,-97.43 533,-87.82 533,-78.62"/>
<polygon fill="black" stroke="black" points="536.15,-78.6 533,-69.6 529.85,-78.6 536.15,-78.6"/>
</g>
<!-- m_Role -->
<g id="node10" class="node">
<title>m_Role</title>
<path fill="none" stroke="black" d="M385,-658.5C385,-658.5 505,-658.5 505,-658.5 511,-658.5 517,-664.5 517,-670.5 517,-670.5 517,-689.5 517,-689.5 517,-695.5 511,-701.5 505,-701.5 505,-701.5 385,-701.5 385,-701.5 379,-701.5 373,-695.5 373,-689.5 373,-689.5 373,-670.5 373,-670.5 373,-664.5 379,-658.5 385,-658.5"/>
<text text-anchor="start" x="430.5" y="-688.7" font-family="Arial Bold" font-size="11.00">Role</text>
<polyline fill="none" stroke="black" points="373,-681.5 517,-681.5 "/>
<text text-anchor="start" x="380" y="-668" font-family="Arial" font-size="10.00">name </text>
<text text-anchor="start" x="408" y="-668" font-family="Arial Italic" font-size="10.00" fill="#999999">string ∗ U</text>
</g>
<!-- m_Role&#45;&gt;m_User -->
<g id="edge3" class="edge">
<title>m_Role&#45;&gt;m_User</title>
<path fill="none" stroke="black" d="M445,-649.08C445,-635.99 445,-620.11 445,-604.65"/>
<polygon fill="black" stroke="black" points="441.85,-649.27 445,-658.27 448.15,-649.27 441.85,-649.27"/>
<polygon fill="black" stroke="black" points="448.15,-604.62 445,-595.62 441.85,-604.62 448.15,-604.62"/>
</g>
<!-- m_Subject&#45;&gt;m_Question -->
<g id="edge12" class="edge">
<title>m_Subject&#45;&gt;m_Question</title>
<path fill="none" stroke="black" d="M625.86,-506.62C625.41,-493.19 624.86,-476.84 624.28,-459.6"/>
<polygon fill="black" stroke="black" points="627.42,-459.4 623.97,-450.51 621.13,-459.61 627.42,-459.4"/>
</g>
<!-- m_Upload -->
<g id="node12" class="node">
<title>m_Upload</title>
<path fill="none" stroke="black" d="M203,-520C203,-520 323,-520 323,-520 329,-520 335,-526 335,-532 335,-532 335,-551 335,-551 335,-557 329,-563 323,-563 323,-563 203,-563 203,-563 197,-563 191,-557 191,-551 191,-551 191,-532 191,-532 191,-526 197,-520 203,-520"/>
<text text-anchor="start" x="242" y="-550.2" font-family="Arial Bold" font-size="11.00">Upload</text>
<polyline fill="none" stroke="black" points="191,-543 335,-543 "/>
<text text-anchor="start" x="198" y="-529.5" font-family="Arial" font-size="10.00">filename </text>
<text text-anchor="start" x="238" y="-529.5" font-family="Arial Italic" font-size="10.00" fill="#999999">string</text>
</g>
<!-- m_Upload&#45;&gt;m_ActiveStorage::Attachment -->
<g id="edge5" class="edge">
<title>m_Upload&#45;&gt;m_ActiveStorage::Attachment</title>
<path fill="none" stroke="black" d="M263,-519.8C263,-485.58 263,-416.64 263,-372.62"/>
</g>
<!-- m_User&#45;&gt;m_ActiveStorage::Attachment -->
<g id="edge6" class="edge">
<title>m_User&#45;&gt;m_ActiveStorage::Attachment</title>
<path fill="none" stroke="black" d="M398.6,-487.47C367.32,-451.73 326.7,-405.3 298.11,-372.62"/>
</g>
<!-- m_User&#45;&gt;m_ActiveStorage::Blob -->
<g id="edge7" class="edge">
<title>m_User&#45;&gt;m_ActiveStorage::Blob</title>
<path fill="none" stroke="black" stroke-dasharray="1,5" d="M375.51,-595.58C362.51,-603.16 348.57,-609.8 334.5,-614 273.18,-632.32 252.1,-631.35 190.5,-614 174.71,-609.55 158.95,-602.35 144.32,-594.18"/>
</g>
<!-- m_User&#45;&gt;m_Question -->
<g id="edge1" class="edge">
<title>m_User&#45;&gt;m_Question</title>
<path fill="none" stroke="black" d="M494.4,-487.05C504.97,-475.3 515.97,-462.83 526,-451 531.3,-444.75 536.7,-438.26 542.11,-431.68"/>
<polygon fill="black" stroke="black" points="544.71,-433.48 547.97,-424.52 539.83,-429.49 544.71,-433.48"/>
</g>
<!-- m_User&#45;&gt;m_ReviewRequest -->
<g id="edge2" class="edge">
<title>m_User&#45;&gt;m_ReviewRequest</title>
<path fill="none" stroke="black" d="M456.78,-487.17C474.43,-407.24 507.39,-257.96 523.56,-184.73"/>
<polygon fill="black" stroke="black" points="526.68,-185.23 525.54,-175.76 520.53,-183.87 526.68,-185.23"/>
</g>
</g>
</svg>
