<?xml version="1.0" encoding="UTF-8" standalone="no"?>
<!DOCTYPE svg PUBLIC "-//W3C//DTD SVG 1.1//EN"
 "http://www.w3.org/Graphics/SVG/1.1/DTD/svg11.dtd">
<!-- Generated by graphviz version 2.44.0 ()
 -->
<!-- Title: ProgressTest Pages: 1 -->
<svg width="1150pt" height="838pt"
 viewBox="0.00 0.00 1149.60 837.60" xmlns="http://www.w3.org/2000/svg" xmlns:xlink="http://www.w3.org/1999/xlink">
<g id="graph0" class="graph" transform="scale(1 1) rotate(0) translate(28.8 808.8)">
<title>ProgressTest</title>
<polygon fill="white" stroke="transparent" points="-28.8,28.8 -28.8,-808.8 1120.8,-808.8 1120.8,28.8 -28.8,28.8"/>
<text text-anchor="middle" x="546" y="-765.6" font-family="Arial Bold" font-size="13.00">Progress Test &#45; Models</text>
<!-- m_ActiveStorage::Attachment -->
<g id="node1" class="node">
<title>m_ActiveStorage::Attachment</title>
<path fill="none" stroke="black" d="M213.5,-171.5C213.5,-171.5 400.5,-171.5 400.5,-171.5 406.5,-171.5 412.5,-177.5 412.5,-183.5 412.5,-183.5 412.5,-241.5 412.5,-241.5 412.5,-247.5 406.5,-253.5 400.5,-253.5 400.5,-253.5 213.5,-253.5 213.5,-253.5 207.5,-253.5 201.5,-247.5 201.5,-241.5 201.5,-241.5 201.5,-183.5 201.5,-183.5 201.5,-177.5 207.5,-171.5 213.5,-171.5"/>
<text text-anchor="start" x="213" y="-240.7" font-family="Arial Bold" font-size="11.00">ActiveStorage::Attachment</text>
<polyline fill="none" stroke="black" points="201.5,-233.5 412.5,-233.5 "/>
<text text-anchor="start" x="209" y="-220.5" font-family="Arial" font-size="10.00">blob_id </text>
<text text-anchor="start" x="270" y="-220.5" font-family="Arial Italic" font-size="10.00" fill="#999999">integer (8) ∗ FK</text>
<text text-anchor="start" x="209" y="-207.5" font-family="Arial" font-size="10.00">name </text>
<text text-anchor="start" x="247" y="-207.5" font-family="Arial Italic" font-size="10.00" fill="#999999">string ∗</text>
<text text-anchor="start" x="209" y="-194.5" font-family="Arial" font-size="10.00">record_id </text>
<text text-anchor="start" x="285" y="-194.5" font-family="Arial Italic" font-size="10.00" fill="#999999">integer (8) ∗ FK</text>
<text text-anchor="start" x="209" y="-181.5" font-family="Arial" font-size="10.00">record_type </text>
<text text-anchor="start" x="300" y="-181.5" font-family="Arial Italic" font-size="10.00" fill="#999999">string ∗</text>
</g>
<!-- m_ActiveStorage::Blob -->
<g id="node2" class="node">
<title>m_ActiveStorage::Blob</title>
<path fill="none" stroke="black" d="M12,-368.5C12,-368.5 176,-368.5 176,-368.5 182,-368.5 188,-374.5 188,-380.5 188,-380.5 188,-464.5 188,-464.5 188,-470.5 182,-476.5 176,-476.5 176,-476.5 12,-476.5 12,-476.5 6,-476.5 0,-470.5 0,-464.5 0,-464.5 0,-380.5 0,-380.5 0,-374.5 6,-368.5 12,-368.5"/>
<text text-anchor="start" x="23" y="-463.7" font-family="Arial Bold" font-size="11.00">ActiveStorage::Blob</text>
<polyline fill="none" stroke="black" points="0,-456.5 188,-456.5 "/>
<text text-anchor="start" x="7" y="-443.5" font-family="Arial" font-size="10.00">byte_size </text>
<text text-anchor="start" x="83" y="-443.5" font-family="Arial Italic" font-size="10.00" fill="#999999">integer (8) ∗</text>
<text text-anchor="start" x="7" y="-430.5" font-family="Arial" font-size="10.00">checksum </text>
<text text-anchor="start" x="75" y="-430.5" font-family="Arial Italic" font-size="10.00" fill="#999999">string ∗</text>
<text text-anchor="start" x="7" y="-417.5" font-family="Arial" font-size="10.00">content_type </text>
<text text-anchor="start" x="105" y="-417.5" font-family="Arial Italic" font-size="10.00" fill="#999999">string</text>
<text text-anchor="start" x="7" y="-404.5" font-family="Arial" font-size="10.00">filename </text>
<text text-anchor="start" x="75" y="-404.5" font-family="Arial Italic" font-size="10.00" fill="#999999">string ∗</text>
<text text-anchor="start" x="7" y="-391.5" font-family="Arial" font-size="10.00">key </text>
<text text-anchor="start" x="38" y="-391.5" font-family="Arial Italic" font-size="10.00" fill="#999999">string ∗</text>
<text text-anchor="start" x="7" y="-378.5" font-family="Arial" font-size="10.00">metadata </text>
<text text-anchor="start" x="75" y="-378.5" font-family="Arial Italic" font-size="10.00" fill="#999999">text</text>
</g>
<!-- m_ActiveStorage::Blob&#45;&gt;m_ActiveStorage::Attachment -->
<g id="edge4" class="edge">
<title>m_ActiveStorage::Blob&#45;&gt;m_ActiveStorage::Attachment</title>
<path fill="none" stroke="black" d="M148.3,-368.47C184.91,-332.73 232.45,-286.3 265.91,-253.62"/>
</g>
<!-- m_ActiveStorage::Blob&#45;&gt;m_ActiveStorage::Blob -->
<g id="edge15" class="edge">
<title>m_ActiveStorage::Blob&#45;&gt;m_ActiveStorage::Blob</title>
<path fill="none" stroke="black" stroke-dasharray="1,5" d="M188.11,-443.37C205.11,-440.69 217,-433.74 217,-422.5 217,-411.26 205.11,-404.31 188.11,-401.63"/>
</g>
<!-- m_Axis -->
<g id="node3" class="node">
<title>m_Axis</title>
<path fill="none" stroke="black" d="M787,-693C787,-693 907,-693 907,-693 913,-693 919,-699 919,-705 919,-705 919,-724 919,-724 919,-730 913,-736 907,-736 907,-736 787,-736 787,-736 781,-736 775,-730 775,-724 775,-724 775,-705 775,-705 775,-699 781,-693 787,-693"/>
<text text-anchor="start" x="829.5" y="-723.2" font-family="Arial Bold" font-size="11.00">Axis</text>
<polyline fill="none" stroke="black" points="775,-716 919,-716 "/>
<text text-anchor="start" x="782" y="-702.5" font-family="Arial" font-size="10.00">name </text>
<text text-anchor="start" x="820" y="-702.5" font-family="Arial Italic" font-size="10.00" fill="#999999">string ∗ U</text>
</g>
<!-- m_Category -->
<g id="node4" class="node">
<title>m_Category</title>
<path fill="none" stroke="black" d="M787,-606.5C787,-606.5 907,-606.5 907,-606.5 913,-606.5 919,-612.5 919,-618.5 919,-618.5 919,-637.5 919,-637.5 919,-643.5 913,-649.5 907,-649.5 907,-649.5 787,-649.5 787,-649.5 781,-649.5 775,-643.5 775,-637.5 775,-637.5 775,-618.5 775,-618.5 775,-612.5 781,-606.5 787,-606.5"/>
<text text-anchor="start" x="814.5" y="-636.7" font-family="Arial Bold" font-size="11.00">Category</text>
<polyline fill="none" stroke="black" points="775,-629.5 919,-629.5 "/>
<text text-anchor="start" x="782" y="-616" font-family="Arial" font-size="10.00">name </text>
<text text-anchor="start" x="820" y="-616" font-family="Arial Italic" font-size="10.00" fill="#999999">string ∗ U</text>
</g>
<!-- m_Axis&#45;&gt;m_Category -->
<g id="edge8" class="edge">
<title>m_Axis&#45;&gt;m_Category</title>
<path fill="none" stroke="black" d="M847,-683.56C847,-675.49 847,-666.77 847,-658.72"/>
<polygon fill="black" stroke="black" points="843.85,-683.61 847,-692.61 850.15,-683.61 843.85,-683.61"/>
<polygon fill="black" stroke="black" points="850.15,-658.65 847,-649.65 843.85,-658.65 850.15,-658.65"/>
</g>
<!-- m_SubCategory -->
<g id="node9" class="node">
<title>m_SubCategory</title>
<path fill="none" stroke="black" d="M678.5,-513.5C678.5,-513.5 865.5,-513.5 865.5,-513.5 871.5,-513.5 877.5,-519.5 877.5,-525.5 877.5,-525.5 877.5,-557.5 877.5,-557.5 877.5,-563.5 871.5,-569.5 865.5,-569.5 865.5,-569.5 678.5,-569.5 678.5,-569.5 672.5,-569.5 666.5,-563.5 666.5,-557.5 666.5,-557.5 666.5,-525.5 666.5,-525.5 666.5,-519.5 672.5,-513.5 678.5,-513.5"/>
<text text-anchor="start" x="728.5" y="-556.7" font-family="Arial Bold" font-size="11.00">SubCategory</text>
<polyline fill="none" stroke="black" points="666.5,-549.5 877.5,-549.5 "/>
<text text-anchor="start" x="674" y="-536.5" font-family="Arial" font-size="10.00">category_id </text>
<text text-anchor="start" x="765" y="-536.5" font-family="Arial Italic" font-size="10.00" fill="#999999">integer (8) FK</text>
<text text-anchor="start" x="674" y="-523.5" font-family="Arial" font-size="10.00">name </text>
<text text-anchor="start" x="712" y="-523.5" font-family="Arial Italic" font-size="10.00" fill="#999999">string ∗ U</text>
</g>
<!-- m_Category&#45;&gt;m_SubCategory -->
<g id="edge9" class="edge">
<title>m_Category&#45;&gt;m_SubCategory</title>
<path fill="none" stroke="black" d="M828.46,-606.11C820.5,-597.14 810.98,-586.42 802.05,-576.36"/>
<polygon fill="black" stroke="black" points="804.32,-574.17 795.99,-569.53 799.61,-578.35 804.32,-574.17"/>
</g>
<!-- m_Subject -->
<g id="node10" class="node">
<title>m_Subject</title>
<path fill="none" stroke="black" d="M697.5,-388C697.5,-388 914.5,-388 914.5,-388 920.5,-388 926.5,-394 926.5,-400 926.5,-400 926.5,-445 926.5,-445 926.5,-451 920.5,-457 914.5,-457 914.5,-457 697.5,-457 697.5,-457 691.5,-457 685.5,-451 685.5,-445 685.5,-445 685.5,-400 685.5,-400 685.5,-394 691.5,-388 697.5,-388"/>
<text text-anchor="start" x="777.5" y="-444.2" font-family="Arial Bold" font-size="11.00">Subject</text>
<polyline fill="none" stroke="black" points="685.5,-437 926.5,-437 "/>
<text text-anchor="start" x="693" y="-423.5" font-family="Arial" font-size="10.00">category_id </text>
<text text-anchor="start" x="784" y="-423.5" font-family="Arial Italic" font-size="10.00" fill="#999999">integer (8) FK</text>
<text text-anchor="start" x="693" y="-410.5" font-family="Arial" font-size="10.00">name </text>
<text text-anchor="start" x="731" y="-410.5" font-family="Arial Italic" font-size="10.00" fill="#999999">string ∗ U</text>
<text text-anchor="start" x="693" y="-397.5" font-family="Arial" font-size="10.00">sub_category_id </text>
<text text-anchor="start" x="814" y="-397.5" font-family="Arial Italic" font-size="10.00" fill="#999999">integer (8) FK</text>
</g>
<!-- m_Category&#45;&gt;m_Subject -->
<g id="edge10" class="edge">
<title>m_Category&#45;&gt;m_Subject</title>
<path fill="none" stroke="black" d="M868.83,-606.38C877.85,-596.37 887.29,-583.58 892,-570 900.31,-546.07 901.46,-536.5 892,-513 884.46,-494.28 870.93,-477.28 856.8,-463.24"/>
<polygon fill="black" stroke="black" points="858.96,-460.95 850.28,-457.01 854.61,-465.5 858.96,-460.95"/>
</g>
<!-- m_JwtBlacklist -->
<g id="node5" class="node">
<title>m_JwtBlacklist</title>
<path fill="none" stroke="black" d="M960,-686.5C960,-686.5 1080,-686.5 1080,-686.5 1086,-686.5 1092,-692.5 1092,-698.5 1092,-698.5 1092,-730.5 1092,-730.5 1092,-736.5 1086,-742.5 1080,-742.5 1080,-742.5 960,-742.5 960,-742.5 954,-742.5 948,-736.5 948,-730.5 948,-730.5 948,-698.5 948,-698.5 948,-692.5 954,-686.5 960,-686.5"/>
<text text-anchor="start" x="972.5" y="-729.7" font-family="Arial Bold" font-size="11.00">JwtBlacklist</text>
<polyline fill="none" stroke="black" points="948,-722.5 1092,-722.5 "/>
<text text-anchor="start" x="955" y="-709.5" font-family="Arial" font-size="10.00">exp </text>
<text text-anchor="start" x="986" y="-709.5" font-family="Arial Italic" font-size="10.00" fill="#999999">datetime</text>
<text text-anchor="start" x="955" y="-696.5" font-family="Arial" font-size="10.00">jti </text>
<text text-anchor="start" x="986" y="-696.5" font-family="Arial Italic" font-size="10.00" fill="#999999">string</text>
</g>
<!-- m_Objective -->
<g id="node6" class="node">
<title>m_Objective</title>
<path fill="none" stroke="black" d="M588.5,-93.5C588.5,-93.5 767.5,-93.5 767.5,-93.5 773.5,-93.5 779.5,-99.5 779.5,-105.5 779.5,-105.5 779.5,-319.5 779.5,-319.5 779.5,-325.5 773.5,-331.5 767.5,-331.5 767.5,-331.5 588.5,-331.5 588.5,-331.5 582.5,-331.5 576.5,-325.5 576.5,-319.5 576.5,-319.5 576.5,-105.5 576.5,-105.5 576.5,-99.5 582.5,-93.5 588.5,-93.5"/>
<text text-anchor="start" x="642" y="-318.7" font-family="Arial Bold" font-size="11.00">Objective</text>
<polyline fill="none" stroke="black" points="576.5,-311.5 779.5,-311.5 "/>
<text text-anchor="start" x="584" y="-298.5" font-family="Arial" font-size="10.00">alternatives </text>
<text text-anchor="start" x="682" y="-298.5" font-family="Arial Italic" font-size="10.00" fill="#999999">jsonb</text>
<text text-anchor="start" x="584" y="-285.5" font-family="Arial" font-size="10.00">authorship_year </text>
<text text-anchor="start" x="705" y="-285.5" font-family="Arial Italic" font-size="10.00" fill="#999999">string</text>
<text text-anchor="start" x="584" y="-272.5" font-family="Arial" font-size="10.00">bloom_taxonomy </text>
<text text-anchor="start" x="697" y="-272.5" font-family="Arial Italic" font-size="10.00" fill="#999999">string</text>
<text text-anchor="start" x="584" y="-259.5" font-family="Arial" font-size="10.00">body </text>
<text text-anchor="start" x="622" y="-259.5" font-family="Arial Italic" font-size="10.00" fill="#999999">text</text>
<text text-anchor="start" x="584" y="-246.5" font-family="Arial" font-size="10.00">check_type </text>
<text text-anchor="start" x="667" y="-246.5" font-family="Arial Italic" font-size="10.00" fill="#999999">string</text>
<text text-anchor="start" x="584" y="-233.5" font-family="Arial" font-size="10.00">difficulty </text>
<text text-anchor="start" x="667" y="-233.5" font-family="Arial Italic" font-size="10.00" fill="#999999">string</text>
<text text-anchor="start" x="584" y="-220.5" font-family="Arial" font-size="10.00">explanation </text>
<text text-anchor="start" x="675" y="-220.5" font-family="Arial Italic" font-size="10.00" fill="#999999">text</text>
<text text-anchor="start" x="584" y="-207.5" font-family="Arial" font-size="10.00">instruction </text>
<text text-anchor="start" x="675" y="-207.5" font-family="Arial Italic" font-size="10.00" fill="#999999">text</text>
<text text-anchor="start" x="584" y="-194.5" font-family="Arial" font-size="10.00">introduction </text>
<text text-anchor="start" x="682" y="-194.5" font-family="Arial Italic" font-size="10.00" fill="#999999">string</text>
<text text-anchor="start" x="584" y="-181.5" font-family="Arial" font-size="10.00">own </text>
<text text-anchor="start" x="615" y="-181.5" font-family="Arial Italic" font-size="10.00" fill="#999999">boolean</text>
<text text-anchor="start" x="584" y="-168.5" font-family="Arial" font-size="10.00">references </text>
<text text-anchor="start" x="667" y="-168.5" font-family="Arial Italic" font-size="10.00" fill="#999999">text</text>
<text text-anchor="start" x="584" y="-155.5" font-family="Arial" font-size="10.00">source </text>
<text text-anchor="start" x="637" y="-155.5" font-family="Arial Italic" font-size="10.00" fill="#999999">string</text>
<text text-anchor="start" x="584" y="-142.5" font-family="Arial" font-size="10.00">status </text>
<text text-anchor="start" x="637" y="-142.5" font-family="Arial Italic" font-size="10.00" fill="#999999">string ∗</text>
<text text-anchor="start" x="584" y="-129.5" font-family="Arial" font-size="10.00">subject_id </text>
<text text-anchor="start" x="667" y="-129.5" font-family="Arial Italic" font-size="10.00" fill="#999999">integer (8) FK</text>
<text text-anchor="start" x="584" y="-116.5" font-family="Arial" font-size="10.00">support </text>
<text text-anchor="start" x="645" y="-116.5" font-family="Arial Italic" font-size="10.00" fill="#999999">text</text>
<text text-anchor="start" x="584" y="-103.5" font-family="Arial" font-size="10.00">user_id </text>
<text text-anchor="start" x="645" y="-103.5" font-family="Arial Italic" font-size="10.00" fill="#999999">integer (8) FK</text>
</g>
<!-- m_ReviewRequest -->
<g id="node7" class="node">
<title>m_ReviewRequest</title>
<path fill="none" stroke="black" d="M500.5,-0.5C500.5,-0.5 709.5,-0.5 709.5,-0.5 715.5,-0.5 721.5,-6.5 721.5,-12.5 721.5,-12.5 721.5,-44.5 721.5,-44.5 721.5,-50.5 715.5,-56.5 709.5,-56.5 709.5,-56.5 500.5,-56.5 500.5,-56.5 494.5,-56.5 488.5,-50.5 488.5,-44.5 488.5,-44.5 488.5,-12.5 488.5,-12.5 488.5,-6.5 494.5,-0.5 500.5,-0.5"/>
<text text-anchor="start" x="554" y="-43.7" font-family="Arial Bold" font-size="11.00">ReviewRequest</text>
<polyline fill="none" stroke="black" points="488.5,-36.5 721.5,-36.5 "/>
<text text-anchor="start" x="496" y="-23.5" font-family="Arial" font-size="10.00">objective_id </text>
<text text-anchor="start" x="594" y="-23.5" font-family="Arial Italic" font-size="10.00" fill="#999999">integer (8) ∗ FK</text>
<text text-anchor="start" x="496" y="-10.5" font-family="Arial" font-size="10.00">user_id </text>
<text text-anchor="start" x="557" y="-10.5" font-family="Arial Italic" font-size="10.00" fill="#999999">integer (8) ∗ FK</text>
</g>
<!-- m_Objective&#45;&gt;m_ReviewRequest -->
<g id="edge12" class="edge">
<title>m_Objective&#45;&gt;m_ReviewRequest</title>
<path fill="none" stroke="black" d="M630.63,-93.41C626.58,-83.3 622.72,-73.68 619.29,-65.12"/>
<polygon fill="black" stroke="black" points="622.14,-63.78 615.87,-56.6 616.3,-66.12 622.14,-63.78"/>
</g>
<!-- m_Role -->
<g id="node8" class="node">
<title>m_Role</title>
<path fill="none" stroke="black" d="M472,-520C472,-520 592,-520 592,-520 598,-520 604,-526 604,-532 604,-532 604,-551 604,-551 604,-557 598,-563 592,-563 592,-563 472,-563 472,-563 466,-563 460,-557 460,-551 460,-551 460,-532 460,-532 460,-526 466,-520 472,-520"/>
<text text-anchor="start" x="514.5" y="-550.2" font-family="Arial Bold" font-size="11.00">Role</text>
<polyline fill="none" stroke="black" points="460,-543 604,-543 "/>
<text text-anchor="start" x="467" y="-529.5" font-family="Arial" font-size="10.00">name </text>
<text text-anchor="start" x="505" y="-529.5" font-family="Arial Italic" font-size="10.00" fill="#999999">string ∗ U</text>
</g>
<!-- m_User -->
<g id="node12" class="node">
<title>m_User</title>
<path fill="none" stroke="black" d="M420,-368.5C420,-368.5 644,-368.5 644,-368.5 650,-368.5 656,-374.5 656,-380.5 656,-380.5 656,-464.5 656,-464.5 656,-470.5 650,-476.5 644,-476.5 644,-476.5 420,-476.5 420,-476.5 414,-476.5 408,-470.5 408,-464.5 408,-464.5 408,-380.5 408,-380.5 408,-374.5 414,-368.5 420,-368.5"/>
<text text-anchor="start" x="514.5" y="-463.7" font-family="Arial Bold" font-size="11.00">User</text>
<polyline fill="none" stroke="black" points="408,-456.5 656,-456.5 "/>
<text text-anchor="start" x="415" y="-443.5" font-family="Arial" font-size="10.00">email </text>
<text text-anchor="start" x="461" y="-443.5" font-family="Arial Italic" font-size="10.00" fill="#999999">string ∗ U</text>
<text text-anchor="start" x="415" y="-430.5" font-family="Arial" font-size="10.00">encrypted_password </text>
<text text-anchor="start" x="558" y="-430.5" font-family="Arial Italic" font-size="10.00" fill="#999999">string ∗</text>
<text text-anchor="start" x="415" y="-417.5" font-family="Arial" font-size="10.00">name </text>
<text text-anchor="start" x="453" y="-417.5" font-family="Arial Italic" font-size="10.00" fill="#999999">string</text>
<text text-anchor="start" x="415" y="-404.5" font-family="Arial" font-size="10.00">remember_created_at </text>
<text text-anchor="start" x="566" y="-404.5" font-family="Arial Italic" font-size="10.00" fill="#999999">datetime</text>
<text text-anchor="start" x="415" y="-391.5" font-family="Arial" font-size="10.00">reset_password_sent_at </text>
<text text-anchor="start" x="588" y="-391.5" font-family="Arial Italic" font-size="10.00" fill="#999999">datetime</text>
<text text-anchor="start" x="415" y="-378.5" font-family="Arial" font-size="10.00">reset_password_token </text>
<text text-anchor="start" x="573" y="-378.5" font-family="Arial Italic" font-size="10.00" fill="#999999">string</text>
</g>
<!-- m_Role&#45;&gt;m_User -->
<g id="edge3" class="edge">
<title>m_Role&#45;&gt;m_User</title>
<path fill="none" stroke="black" d="M532,-510.8C532,-503.07 532,-494.45 532,-485.71"/>
<polygon fill="black" stroke="black" points="528.85,-510.85 532,-519.85 535.15,-510.85 528.85,-510.85"/>
<polygon fill="black" stroke="black" points="535.15,-485.6 532,-476.6 528.85,-485.6 535.15,-485.6"/>
</g>
<!-- m_SubCategory&#45;&gt;m_Subject -->
<g id="edge13" class="edge">
<title>m_SubCategory&#45;&gt;m_Subject</title>
<path fill="none" stroke="black" d="M779.89,-513.36C783.95,-499.37 789.01,-481.97 793.58,-466.23"/>
<polygon fill="black" stroke="black" points="796.72,-466.71 796.21,-457.18 790.67,-464.95 796.72,-466.71"/>
</g>
<!-- m_Subject&#45;&gt;m_Objective -->
<g id="edge11" class="edge">
<title>m_Subject&#45;&gt;m_Objective</title>
<path fill="none" stroke="black" d="M785.15,-387.62C776.73,-373.94 766.45,-357.24 755.63,-339.65"/>
<polygon fill="black" stroke="black" points="758.02,-337.52 750.62,-331.51 752.66,-340.83 758.02,-337.52"/>
</g>
<!-- m_Upload -->
<g id="node11" class="node">
<title>m_Upload</title>
<path fill="none" stroke="black" d="M247,-401C247,-401 367,-401 367,-401 373,-401 379,-407 379,-413 379,-413 379,-432 379,-432 379,-438 373,-444 367,-444 367,-444 247,-444 247,-444 241,-444 235,-438 235,-432 235,-432 235,-413 235,-413 235,-407 241,-401 247,-401"/>
<text text-anchor="start" x="282" y="-431.2" font-family="Arial Bold" font-size="11.00">Upload</text>
<polyline fill="none" stroke="black" points="235,-424 379,-424 "/>
<text text-anchor="start" x="242" y="-410.5" font-family="Arial" font-size="10.00">filename </text>
<text text-anchor="start" x="310" y="-410.5" font-family="Arial Italic" font-size="10.00" fill="#999999">string</text>
</g>
<!-- m_Upload&#45;&gt;m_ActiveStorage::Attachment -->
<g id="edge5" class="edge">
<title>m_Upload&#45;&gt;m_ActiveStorage::Attachment</title>
<path fill="none" stroke="black" d="M307,-400.8C307,-366.58 307,-297.64 307,-253.62"/>
</g>
<!-- m_User&#45;&gt;m_ActiveStorage::Attachment -->
<g id="edge6" class="edge">
<title>m_User&#45;&gt;m_ActiveStorage::Attachment</title>
<path fill="none" stroke="black" d="M474.64,-368.47C435.97,-332.73 385.76,-286.3 350.4,-253.62"/>
</g>
<!-- m_User&#45;&gt;m_ActiveStorage::Blob -->
<g id="edge7" class="edge">
<title>m_User&#45;&gt;m_ActiveStorage::Blob</title>
<path fill="none" stroke="black" stroke-dasharray="1,5" d="M433.96,-476.53C416,-484.17 397.05,-490.84 378.5,-495 316.05,-509.01 296.69,-510.1 234.5,-495 217.43,-490.86 200.11,-484.25 183.74,-476.68"/>
</g>
<!-- m_User&#45;&gt;m_Objective -->
<g id="edge1" class="edge">
<title>m_User&#45;&gt;m_Objective</title>
<path fill="none" stroke="black" d="M569.22,-368.47C575.68,-359.27 582.63,-349.37 589.79,-339.17"/>
<polygon fill="black" stroke="black" points="592.44,-340.87 595.04,-331.69 587.29,-337.25 592.44,-340.87"/>
</g>
<!-- m_User&#45;&gt;m_ReviewRequest -->
<g id="edge2" class="edge">
<title>m_User&#45;&gt;m_ReviewRequest</title>
<path fill="none" stroke="black" d="M528.86,-368.28C526.71,-301.83 528.91,-185.62 562,-93 565.57,-83.01 571.08,-73.09 576.98,-64.16"/>
<polygon fill="black" stroke="black" points="579.69,-65.79 582.23,-56.6 574.51,-62.2 579.69,-65.79"/>
</g>
</g>
</svg>
