<?xml version="1.0" encoding="UTF-8" standalone="no"?>
<!DOCTYPE svg PUBLIC "-//W3C//DTD SVG 1.1//EN"
 "http://www.w3.org/Graphics/SVG/1.1/DTD/svg11.dtd">
<!-- Generated by graphviz version 2.44.1 (0)
 -->
<!-- Title: ProgressTest Pages: 1 -->
<svg width="1098pt" height="771pt"
 viewBox="0.00 0.00 1097.60 770.60" xmlns="http://www.w3.org/2000/svg" xmlns:xlink="http://www.w3.org/1999/xlink">
<g id="graph0" class="graph" transform="scale(1 1) rotate(0) translate(28.8 741.8)">
<title>ProgressTest</title>
<polygon fill="white" stroke="transparent" points="-28.8,28.8 -28.8,-741.8 1068.8,-741.8 1068.8,28.8 -28.8,28.8"/>
<text text-anchor="middle" x="520" y="-698.6" font-family="Arial Bold" font-size="13.00">Progress Test &#45; Models</text>
<!-- m_ActiveStorage::Attachment -->
<g id="node1" class="node">
<title>m_ActiveStorage::Attachment</title>
<path fill="none" stroke="black" d="M199,-284C199,-284 327,-284 327,-284 333,-284 339,-290 339,-296 339,-296 339,-354 339,-354 339,-360 333,-366 327,-366 327,-366 199,-366 199,-366 193,-366 187,-360 187,-354 187,-354 187,-296 187,-296 187,-290 193,-284 199,-284"/>
<text text-anchor="start" x="192" y="-353.2" font-family="Arial Bold" font-size="11.00">ActiveStorage::Attachment</text>
<polyline fill="none" stroke="black" points="187,-346 339,-346 "/>
<text text-anchor="start" x="198" y="-333" font-family="Arial" font-size="10.00">blob_id </text>
<text text-anchor="start" x="232" y="-333" font-family="Arial Italic" font-size="10.00" fill="#999999">integer (8) ∗ FK</text>
<text text-anchor="start" x="198" y="-320" font-family="Arial" font-size="10.00">name </text>
<text text-anchor="start" x="226" y="-320" font-family="Arial Italic" font-size="10.00" fill="#999999">string ∗</text>
<text text-anchor="start" x="198" y="-307" font-family="Arial" font-size="10.00">record_id </text>
<text text-anchor="start" x="241" y="-307" font-family="Arial Italic" font-size="10.00" fill="#999999">integer (8) ∗ FK</text>
<text text-anchor="start" x="198" y="-294" font-family="Arial" font-size="10.00">record_type </text>
<text text-anchor="start" x="253" y="-294" font-family="Arial Italic" font-size="10.00" fill="#999999">string ∗</text>
</g>
<!-- m_ActiveStorage::Blob -->
<g id="node2" class="node">
<title>m_ActiveStorage::Blob</title>
<path fill="none" stroke="black" d="M12,-474.5C12,-474.5 132,-474.5 132,-474.5 138,-474.5 144,-480.5 144,-486.5 144,-486.5 144,-570.5 144,-570.5 144,-576.5 138,-582.5 132,-582.5 132,-582.5 12,-582.5 12,-582.5 6,-582.5 0,-576.5 0,-570.5 0,-570.5 0,-486.5 0,-486.5 0,-480.5 6,-474.5 12,-474.5"/>
<text text-anchor="start" x="17" y="-569.7" font-family="Arial Bold" font-size="11.00">ActiveStorage::Blob</text>
<polyline fill="none" stroke="black" points="0,-562.5 144,-562.5 "/>
<text text-anchor="start" x="7" y="-549.5" font-family="Arial" font-size="10.00">byte_size </text>
<text text-anchor="start" x="52" y="-549.5" font-family="Arial Italic" font-size="10.00" fill="#999999">integer (8) ∗</text>
<text text-anchor="start" x="7" y="-536.5" font-family="Arial" font-size="10.00">checksum </text>
<text text-anchor="start" x="56" y="-536.5" font-family="Arial Italic" font-size="10.00" fill="#999999">string ∗</text>
<text text-anchor="start" x="7" y="-523.5" font-family="Arial" font-size="10.00">content_type </text>
<text text-anchor="start" x="67" y="-523.5" font-family="Arial Italic" font-size="10.00" fill="#999999">string</text>
<text text-anchor="start" x="7" y="-510.5" font-family="Arial" font-size="10.00">filename </text>
<text text-anchor="start" x="47" y="-510.5" font-family="Arial Italic" font-size="10.00" fill="#999999">string ∗</text>
<text text-anchor="start" x="7" y="-497.5" font-family="Arial" font-size="10.00">key </text>
<text text-anchor="start" x="26" y="-497.5" font-family="Arial Italic" font-size="10.00" fill="#999999">string ∗</text>
<text text-anchor="start" x="7" y="-484.5" font-family="Arial" font-size="10.00">metadata </text>
<text text-anchor="start" x="51" y="-484.5" font-family="Arial Italic" font-size="10.00" fill="#999999">text</text>
</g>
<!-- m_ActiveStorage::Blob&#45;&gt;m_ActiveStorage::Attachment -->
<g id="edge4" class="edge">
<title>m_ActiveStorage::Blob&#45;&gt;m_ActiveStorage::Attachment</title>
<path fill="none" stroke="black" d="M122.43,-474.29C154.59,-440.36 195.61,-397.1 225.02,-366.07"/>
</g>
<!-- m_ActiveStorage::Blob&#45;&gt;m_ActiveStorage::Blob -->
<g id="edge14" class="edge">
<title>m_ActiveStorage::Blob&#45;&gt;m_ActiveStorage::Blob</title>
<path fill="none" stroke="black" stroke-dasharray="1,5" d="M144.18,-550.14C160.79,-548.27 173,-541.06 173,-528.5 173,-515.94 160.79,-508.73 144.18,-506.86"/>
</g>
<!-- m_Axis -->
<g id="node3" class="node">
<title>m_Axis</title>
<path fill="none" stroke="black" d="M735,-626C735,-626 855,-626 855,-626 861,-626 867,-632 867,-638 867,-638 867,-657 867,-657 867,-663 861,-669 855,-669 855,-669 735,-669 735,-669 729,-669 723,-663 723,-657 723,-657 723,-638 723,-638 723,-632 729,-626 735,-626"/>
<text text-anchor="start" x="781" y="-656.2" font-family="Arial Bold" font-size="11.00">Axis</text>
<polyline fill="none" stroke="black" points="723,-649 867,-649 "/>
<text text-anchor="start" x="730" y="-635.5" font-family="Arial" font-size="10.00">name </text>
<text text-anchor="start" x="758" y="-635.5" font-family="Arial Italic" font-size="10.00" fill="#999999">string ∗ U</text>
</g>
<!-- m_Subject -->
<g id="node10" class="node">
<title>m_Subject</title>
<path fill="none" stroke="black" d="M567,-494C567,-494 687,-494 687,-494 693,-494 699,-500 699,-506 699,-506 699,-551 699,-551 699,-557 693,-563 687,-563 687,-563 567,-563 567,-563 561,-563 555,-557 555,-551 555,-551 555,-506 555,-506 555,-500 561,-494 567,-494"/>
<text text-anchor="start" x="605" y="-550.2" font-family="Arial Bold" font-size="11.00">Subject</text>
<polyline fill="none" stroke="black" points="555,-543 699,-543 "/>
<text text-anchor="start" x="562" y="-529.5" font-family="Arial" font-size="10.00">axis_id </text>
<text text-anchor="start" x="597" y="-529.5" font-family="Arial Italic" font-size="10.00" fill="#999999">integer (8) FK</text>
<text text-anchor="start" x="562" y="-516.5" font-family="Arial" font-size="10.00">category_id </text>
<text text-anchor="start" x="617" y="-516.5" font-family="Arial Italic" font-size="10.00" fill="#999999">integer (8) FK</text>
<text text-anchor="start" x="562" y="-503.5" font-family="Arial" font-size="10.00">name </text>
<text text-anchor="start" x="590" y="-503.5" font-family="Arial Italic" font-size="10.00" fill="#999999">string ∗ U</text>
</g>
<!-- m_Axis&#45;&gt;m_Subject -->
<g id="edge8" class="edge">
<title>m_Axis&#45;&gt;m_Subject</title>
<path fill="none" stroke="black" d="M765.35,-625.85C742.62,-610.02 710.58,-587.71 683.06,-568.54"/>
<polygon fill="black" stroke="black" points="684.62,-565.79 675.43,-563.23 681.02,-570.96 684.62,-565.79"/>
</g>
<!-- m_Category -->
<g id="node4" class="node">
<title>m_Category</title>
<path fill="none" stroke="black" d="M562,-626C562,-626 682,-626 682,-626 688,-626 694,-632 694,-638 694,-638 694,-657 694,-657 694,-663 688,-669 682,-669 682,-669 562,-669 562,-669 556,-669 550,-663 550,-657 550,-657 550,-638 550,-638 550,-632 556,-626 562,-626"/>
<text text-anchor="start" x="595.5" y="-656.2" font-family="Arial Bold" font-size="11.00">Category</text>
<polyline fill="none" stroke="black" points="550,-649 694,-649 "/>
<text text-anchor="start" x="557" y="-635.5" font-family="Arial" font-size="10.00">name </text>
<text text-anchor="start" x="585" y="-635.5" font-family="Arial Italic" font-size="10.00" fill="#999999">string ∗ U</text>
</g>
<!-- m_Category&#45;&gt;m_Subject -->
<g id="edge12" class="edge">
<title>m_Category&#45;&gt;m_Subject</title>
<path fill="none" stroke="black" d="M622.88,-625.85C623.52,-611.04 624.39,-590.54 625.17,-572.27"/>
<polygon fill="black" stroke="black" points="628.32,-572.35 625.56,-563.23 622.03,-572.09 628.32,-572.35"/>
</g>
<!-- m_JwtBlacklist -->
<g id="node5" class="node">
<title>m_JwtBlacklist</title>
<path fill="none" stroke="black" d="M908,-619.5C908,-619.5 1028,-619.5 1028,-619.5 1034,-619.5 1040,-625.5 1040,-631.5 1040,-631.5 1040,-663.5 1040,-663.5 1040,-669.5 1034,-675.5 1028,-675.5 1028,-675.5 908,-675.5 908,-675.5 902,-675.5 896,-669.5 896,-663.5 896,-663.5 896,-631.5 896,-631.5 896,-625.5 902,-619.5 908,-619.5"/>
<text text-anchor="start" x="934" y="-662.7" font-family="Arial Bold" font-size="11.00">JwtBlacklist</text>
<polyline fill="none" stroke="black" points="896,-655.5 1040,-655.5 "/>
<text text-anchor="start" x="903" y="-642.5" font-family="Arial" font-size="10.00">exp </text>
<text text-anchor="start" x="922" y="-642.5" font-family="Arial Italic" font-size="10.00" fill="#999999">datetime</text>
<text text-anchor="start" x="903" y="-629.5" font-family="Arial" font-size="10.00">jti </text>
<text text-anchor="start" x="914" y="-629.5" font-family="Arial Italic" font-size="10.00" fill="#999999">string</text>
</g>
<!-- m_Question -->
<g id="node6" class="node">
<title>m_Question</title>
<path fill="none" stroke="black" d="M501,-212.5C501,-212.5 621,-212.5 621,-212.5 627,-212.5 633,-218.5 633,-224.5 633,-224.5 633,-425.5 633,-425.5 633,-431.5 627,-437.5 621,-437.5 621,-437.5 501,-437.5 501,-437.5 495,-437.5 489,-431.5 489,-425.5 489,-425.5 489,-224.5 489,-224.5 489,-218.5 495,-212.5 501,-212.5"/>
<text text-anchor="start" x="534.5" y="-424.7" font-family="Arial Bold" font-size="11.00">Question</text>
<polyline fill="none" stroke="black" points="489,-417.5 633,-417.5 "/>
<text text-anchor="start" x="496" y="-404" font-family="Arial" font-size="10.00">alternatives </text>
<text text-anchor="start" x="549" y="-404" font-family="Arial Italic" font-size="10.00" fill="#999999">jsonb</text>
<text text-anchor="start" x="496" y="-391" font-family="Arial" font-size="10.00">authorship_year </text>
<text text-anchor="start" x="569" y="-391" font-family="Arial Italic" font-size="10.00" fill="#999999">string</text>
<text text-anchor="start" x="496" y="-378" font-family="Arial" font-size="10.00">bloom_taxonomy </text>
<text text-anchor="start" x="574" y="-378" font-family="Arial Italic" font-size="10.00" fill="#999999">string</text>
<text text-anchor="start" x="496" y="-365" font-family="Arial" font-size="10.00">body </text>
<text text-anchor="start" x="521" y="-365" font-family="Arial Italic" font-size="10.00" fill="#999999">text</text>
<text text-anchor="start" x="496" y="-352" font-family="Arial" font-size="10.00">check_type </text>
<text text-anchor="start" x="550" y="-352" font-family="Arial Italic" font-size="10.00" fill="#999999">string</text>
<text text-anchor="start" x="496" y="-339" font-family="Arial" font-size="10.00">difficulty </text>
<text text-anchor="start" x="536" y="-339" font-family="Arial Italic" font-size="10.00" fill="#999999">string</text>
<text text-anchor="start" x="496" y="-326" font-family="Arial" font-size="10.00">explanation </text>
<text text-anchor="start" x="549" y="-326" font-family="Arial Italic" font-size="10.00" fill="#999999">text</text>
<text text-anchor="start" x="496" y="-313" font-family="Arial" font-size="10.00">instruction </text>
<text text-anchor="start" x="545" y="-313" font-family="Arial Italic" font-size="10.00" fill="#999999">text</text>
<text text-anchor="start" x="496" y="-300" font-family="Arial" font-size="10.00">introduction </text>
<text text-anchor="start" x="550" y="-300" font-family="Arial Italic" font-size="10.00" fill="#999999">string</text>
<text text-anchor="start" x="496" y="-287" font-family="Arial" font-size="10.00">references </text>
<text text-anchor="start" x="545" y="-287" font-family="Arial Italic" font-size="10.00" fill="#999999">text</text>
<text text-anchor="start" x="496" y="-274" font-family="Arial" font-size="10.00">source </text>
<text text-anchor="start" x="529" y="-274" font-family="Arial Italic" font-size="10.00" fill="#999999">string</text>
<text text-anchor="start" x="496" y="-261" font-family="Arial" font-size="10.00">status </text>
<text text-anchor="start" x="527" y="-261" font-family="Arial Italic" font-size="10.00" fill="#999999">string ∗</text>
<text text-anchor="start" x="496" y="-248" font-family="Arial" font-size="10.00">subject_id </text>
<text text-anchor="start" x="544" y="-248" font-family="Arial Italic" font-size="10.00" fill="#999999">integer (8) FK</text>
<text text-anchor="start" x="496" y="-235" font-family="Arial" font-size="10.00">support </text>
<text text-anchor="start" x="533" y="-235" font-family="Arial Italic" font-size="10.00" fill="#999999">text</text>
<text text-anchor="start" x="496" y="-222" font-family="Arial" font-size="10.00">user_id </text>
<text text-anchor="start" x="531" y="-222" font-family="Arial Italic" font-size="10.00" fill="#999999">integer (8) FK</text>
</g>
<!-- m_ReviewRequest -->
<g id="node8" class="node">
<title>m_ReviewRequest</title>
<path fill="none" stroke="black" d="M443,-106.5C443,-106.5 563,-106.5 563,-106.5 569,-106.5 575,-112.5 575,-118.5 575,-118.5 575,-163.5 575,-163.5 575,-169.5 569,-175.5 563,-175.5 563,-175.5 443,-175.5 443,-175.5 437,-175.5 431,-169.5 431,-163.5 431,-163.5 431,-118.5 431,-118.5 431,-112.5 437,-106.5 443,-106.5"/>
<text text-anchor="start" x="460" y="-162.7" font-family="Arial Bold" font-size="11.00">ReviewRequest</text>
<polyline fill="none" stroke="black" points="431,-155.5 575,-155.5 "/>
<text text-anchor="start" x="438" y="-142" font-family="Arial" font-size="10.00">answered </text>
<text text-anchor="start" x="483" y="-142" font-family="Arial Italic" font-size="10.00" fill="#999999">boolean ∗</text>
<text text-anchor="start" x="438" y="-129" font-family="Arial" font-size="10.00">question_id </text>
<text text-anchor="start" x="491" y="-129" font-family="Arial Italic" font-size="10.00" fill="#999999">integer (8) ∗ FK</text>
<text text-anchor="start" x="438" y="-116" font-family="Arial" font-size="10.00">user_id </text>
<text text-anchor="start" x="473" y="-116" font-family="Arial Italic" font-size="10.00" fill="#999999">integer (8) ∗ FK</text>
</g>
<!-- m_Question&#45;&gt;m_ReviewRequest -->
<g id="edge10" class="edge">
<title>m_Question&#45;&gt;m_ReviewRequest</title>
<path fill="none" stroke="black" d="M525.42,-212.37C522.29,-202.54 519.27,-193.05 516.51,-184.39"/>
<polygon fill="black" stroke="black" points="519.47,-183.3 513.73,-175.68 513.47,-185.21 519.47,-183.3"/>
</g>
<!-- m_ReviewFeedback -->
<g id="node7" class="node">
<title>m_ReviewFeedback</title>
<path fill="none" stroke="black" d="M432,-0.5C432,-0.5 574,-0.5 574,-0.5 580,-0.5 586,-6.5 586,-12.5 586,-12.5 586,-57.5 586,-57.5 586,-63.5 580,-69.5 574,-69.5 574,-69.5 432,-69.5 432,-69.5 426,-69.5 420,-63.5 420,-57.5 420,-57.5 420,-12.5 420,-12.5 420,-6.5 426,-0.5 432,-0.5"/>
<text text-anchor="start" x="457" y="-56.7" font-family="Arial Bold" font-size="11.00">ReviewFeedback</text>
<polyline fill="none" stroke="black" points="420,-49.5 586,-49.5 "/>
<text text-anchor="start" x="427" y="-36" font-family="Arial" font-size="10.00">comment </text>
<text text-anchor="start" x="471" y="-36" font-family="Arial Italic" font-size="10.00" fill="#999999">text</text>
<text text-anchor="start" x="427" y="-23" font-family="Arial" font-size="10.00">review_request_id </text>
<text text-anchor="start" x="509" y="-23" font-family="Arial Italic" font-size="10.00" fill="#999999">integer (8) ∗ FK</text>
<text text-anchor="start" x="427" y="-10" font-family="Arial" font-size="10.00">status </text>
<text text-anchor="start" x="458" y="-10" font-family="Arial Italic" font-size="10.00" fill="#999999">string</text>
</g>
<!-- m_ReviewRequest&#45;&gt;m_ReviewFeedback -->
<g id="edge9" class="edge">
<title>m_ReviewRequest&#45;&gt;m_ReviewFeedback</title>
<path fill="none" stroke="black" d="M503,-106.23C503,-97.43 503,-87.82 503,-78.62"/>
<polygon fill="black" stroke="black" points="506.15,-78.6 503,-69.6 499.85,-78.6 506.15,-78.6"/>
</g>
<!-- m_Role -->
<g id="node9" class="node">
<title>m_Role</title>
<path fill="none" stroke="black" d="M385,-626C385,-626 505,-626 505,-626 511,-626 517,-632 517,-638 517,-638 517,-657 517,-657 517,-663 511,-669 505,-669 505,-669 385,-669 385,-669 379,-669 373,-663 373,-657 373,-657 373,-638 373,-638 373,-632 379,-626 385,-626"/>
<text text-anchor="start" x="430.5" y="-656.2" font-family="Arial Bold" font-size="11.00">Role</text>
<polyline fill="none" stroke="black" points="373,-649 517,-649 "/>
<text text-anchor="start" x="380" y="-635.5" font-family="Arial" font-size="10.00">name </text>
<text text-anchor="start" x="408" y="-635.5" font-family="Arial Italic" font-size="10.00" fill="#999999">string ∗ U</text>
</g>
<!-- m_User -->
<g id="node12" class="node">
<title>m_User</title>
<path fill="none" stroke="black" d="M376.5,-474.5C376.5,-474.5 513.5,-474.5 513.5,-474.5 519.5,-474.5 525.5,-480.5 525.5,-486.5 525.5,-486.5 525.5,-570.5 525.5,-570.5 525.5,-576.5 519.5,-582.5 513.5,-582.5 513.5,-582.5 376.5,-582.5 376.5,-582.5 370.5,-582.5 364.5,-576.5 364.5,-570.5 364.5,-570.5 364.5,-486.5 364.5,-486.5 364.5,-480.5 370.5,-474.5 376.5,-474.5"/>
<text text-anchor="start" x="430.5" y="-569.7" font-family="Arial Bold" font-size="11.00">User</text>
<polyline fill="none" stroke="black" points="364.5,-562.5 525.5,-562.5 "/>
<text text-anchor="start" x="372" y="-549.5" font-family="Arial" font-size="10.00">email </text>
<text text-anchor="start" x="399" y="-549.5" font-family="Arial Italic" font-size="10.00" fill="#999999">string ∗ U</text>
<text text-anchor="start" x="372" y="-536.5" font-family="Arial" font-size="10.00">encrypted_password </text>
<text text-anchor="start" x="466" y="-536.5" font-family="Arial Italic" font-size="10.00" fill="#999999">string ∗</text>
<text text-anchor="start" x="372" y="-523.5" font-family="Arial" font-size="10.00">name </text>
<text text-anchor="start" x="400" y="-523.5" font-family="Arial Italic" font-size="10.00" fill="#999999">string</text>
<text text-anchor="start" x="372" y="-510.5" font-family="Arial" font-size="10.00">remember_created_at </text>
<text text-anchor="start" x="470" y="-510.5" font-family="Arial Italic" font-size="10.00" fill="#999999">datetime</text>
<text text-anchor="start" x="372" y="-497.5" font-family="Arial" font-size="10.00">reset_password_sent_at </text>
<text text-anchor="start" x="481" y="-497.5" font-family="Arial Italic" font-size="10.00" fill="#999999">datetime</text>
<text text-anchor="start" x="372" y="-484.5" font-family="Arial" font-size="10.00">reset_password_token </text>
<text text-anchor="start" x="472" y="-484.5" font-family="Arial Italic" font-size="10.00" fill="#999999">string</text>
</g>
<!-- m_Role&#45;&gt;m_User -->
<g id="edge3" class="edge">
<title>m_Role&#45;&gt;m_User</title>
<path fill="none" stroke="black" d="M445,-616.8C445,-609.07 445,-600.45 445,-591.71"/>
<polygon fill="black" stroke="black" points="441.85,-616.85 445,-625.85 448.15,-616.85 441.85,-616.85"/>
<polygon fill="black" stroke="black" points="448.15,-591.6 445,-582.6 441.85,-591.6 448.15,-591.6"/>
</g>
<!-- m_Subject&#45;&gt;m_Question -->
<g id="edge11" class="edge">
<title>m_Subject&#45;&gt;m_Question</title>
<path fill="none" stroke="black" d="M615.95,-493.77C611.51,-480.2 606.09,-463.65 600.4,-446.3"/>
<polygon fill="black" stroke="black" points="603.39,-445.3 597.6,-437.73 597.4,-447.26 603.39,-445.3"/>
</g>
<!-- m_Upload -->
<g id="node11" class="node">
<title>m_Upload</title>
<path fill="none" stroke="black" d="M203,-507C203,-507 323,-507 323,-507 329,-507 335,-513 335,-519 335,-519 335,-538 335,-538 335,-544 329,-550 323,-550 323,-550 203,-550 203,-550 197,-550 191,-544 191,-538 191,-538 191,-519 191,-519 191,-513 197,-507 203,-507"/>
<text text-anchor="start" x="242" y="-537.2" font-family="Arial Bold" font-size="11.00">Upload</text>
<polyline fill="none" stroke="black" points="191,-530 335,-530 "/>
<text text-anchor="start" x="198" y="-516.5" font-family="Arial" font-size="10.00">filename </text>
<text text-anchor="start" x="238" y="-516.5" font-family="Arial Italic" font-size="10.00" fill="#999999">string</text>
</g>
<!-- m_Upload&#45;&gt;m_ActiveStorage::Attachment -->
<g id="edge5" class="edge">
<title>m_Upload&#45;&gt;m_ActiveStorage::Attachment</title>
<path fill="none" stroke="black" d="M263,-506.69C263,-473.61 263,-408.44 263,-366.07"/>
</g>
<!-- m_User&#45;&gt;m_ActiveStorage::Attachment -->
<g id="edge6" class="edge">
<title>m_User&#45;&gt;m_ActiveStorage::Attachment</title>
<path fill="none" stroke="black" d="M396.94,-474.29C366.3,-440.36 327.22,-397.1 299.19,-366.07"/>
</g>
<!-- m_User&#45;&gt;m_ActiveStorage::Blob -->
<g id="edge7" class="edge">
<title>m_User&#45;&gt;m_ActiveStorage::Blob</title>
<path fill="none" stroke="black" stroke-dasharray="1,5" d="M375.51,-582.58C362.51,-590.16 348.57,-596.8 334.5,-601 273.18,-619.32 252.1,-618.35 190.5,-601 174.71,-596.55 158.95,-589.35 144.32,-581.18"/>
</g>
<!-- m_User&#45;&gt;m_Question -->
<g id="edge1" class="edge">
<title>m_User&#45;&gt;m_Question</title>
<path fill="none" stroke="black" d="M475.63,-474.29C480.82,-465.28 486.39,-455.6 492.11,-445.67"/>
<polygon fill="black" stroke="black" points="494.96,-447.03 496.72,-437.66 489.5,-443.89 494.96,-447.03"/>
</g>
<!-- m_User&#45;&gt;m_ReviewRequest -->
<g id="edge2" class="edge">
<title>m_User&#45;&gt;m_ReviewRequest</title>
<path fill="none" stroke="black" d="M445.05,-474.22C446.21,-410.84 451.7,-302.25 474,-212 476.27,-202.81 479.56,-193.25 483.11,-184.26"/>
<polygon fill="black" stroke="black" points="486.06,-185.36 486.57,-175.84 480.24,-182.96 486.06,-185.36"/>
</g>
</g>
</svg>
