<?xml version="1.0" encoding="UTF-8" standalone="no"?>
<!DOCTYPE svg PUBLIC "-//W3C//DTD SVG 1.1//EN"
 "http://www.w3.org/Graphics/SVG/1.1/DTD/svg11.dtd">
<!-- Generated by graphviz version 2.44.1 (0)
 -->
<!-- Title: ProgressTest Pages: 1 -->
<svg width="930pt" height="732pt"
 viewBox="0.00 0.00 929.60 731.60" xmlns="http://www.w3.org/2000/svg" xmlns:xlink="http://www.w3.org/1999/xlink">
<g id="graph0" class="graph" transform="scale(1 1) rotate(0) translate(28.8 702.8)">
<title>ProgressTest</title>
<polygon fill="white" stroke="transparent" points="-28.8,28.8 -28.8,-702.8 900.8,-702.8 900.8,28.8 -28.8,28.8"/>
<text text-anchor="middle" x="436" y="-659.6" font-family="Arial Bold" font-size="13.00">Progress Test &#45; Models</text>
<!-- m_ActiveStorage::Attachment -->
<g id="node1" class="node">
<title>m_ActiveStorage::Attachment</title>
<path fill="none" stroke="black" d="M199,-65.5C199,-65.5 327,-65.5 327,-65.5 333,-65.5 339,-71.5 339,-77.5 339,-77.5 339,-135.5 339,-135.5 339,-141.5 333,-147.5 327,-147.5 327,-147.5 199,-147.5 199,-147.5 193,-147.5 187,-141.5 187,-135.5 187,-135.5 187,-77.5 187,-77.5 187,-71.5 193,-65.5 199,-65.5"/>
<text text-anchor="start" x="192" y="-134.7" font-family="Arial Bold" font-size="11.00">ActiveStorage::Attachment</text>
<polyline fill="none" stroke="black" points="187,-127.5 339,-127.5 "/>
<text text-anchor="start" x="198" y="-114.5" font-family="Arial" font-size="10.00">blob_id </text>
<text text-anchor="start" x="232" y="-114.5" font-family="Arial Italic" font-size="10.00" fill="#999999">integer (8) ∗ FK</text>
<text text-anchor="start" x="198" y="-101.5" font-family="Arial" font-size="10.00">name </text>
<text text-anchor="start" x="226" y="-101.5" font-family="Arial Italic" font-size="10.00" fill="#999999">string ∗</text>
<text text-anchor="start" x="198" y="-88.5" font-family="Arial" font-size="10.00">record_id </text>
<text text-anchor="start" x="241" y="-88.5" font-family="Arial Italic" font-size="10.00" fill="#999999">integer (8) ∗ FK</text>
<text text-anchor="start" x="198" y="-75.5" font-family="Arial" font-size="10.00">record_type </text>
<text text-anchor="start" x="253" y="-75.5" font-family="Arial Italic" font-size="10.00" fill="#999999">string ∗</text>
</g>
<!-- m_ActiveStorage::Blob -->
<g id="node2" class="node">
<title>m_ActiveStorage::Blob</title>
<path fill="none" stroke="black" d="M12,-249.5C12,-249.5 132,-249.5 132,-249.5 138,-249.5 144,-255.5 144,-261.5 144,-261.5 144,-345.5 144,-345.5 144,-351.5 138,-357.5 132,-357.5 132,-357.5 12,-357.5 12,-357.5 6,-357.5 0,-351.5 0,-345.5 0,-345.5 0,-261.5 0,-261.5 0,-255.5 6,-249.5 12,-249.5"/>
<text text-anchor="start" x="17" y="-344.7" font-family="Arial Bold" font-size="11.00">ActiveStorage::Blob</text>
<polyline fill="none" stroke="black" points="0,-337.5 144,-337.5 "/>
<text text-anchor="start" x="7" y="-324.5" font-family="Arial" font-size="10.00">byte_size </text>
<text text-anchor="start" x="52" y="-324.5" font-family="Arial Italic" font-size="10.00" fill="#999999">integer (8) ∗</text>
<text text-anchor="start" x="7" y="-311.5" font-family="Arial" font-size="10.00">checksum </text>
<text text-anchor="start" x="56" y="-311.5" font-family="Arial Italic" font-size="10.00" fill="#999999">string ∗</text>
<text text-anchor="start" x="7" y="-298.5" font-family="Arial" font-size="10.00">content_type </text>
<text text-anchor="start" x="67" y="-298.5" font-family="Arial Italic" font-size="10.00" fill="#999999">string</text>
<text text-anchor="start" x="7" y="-285.5" font-family="Arial" font-size="10.00">filename </text>
<text text-anchor="start" x="47" y="-285.5" font-family="Arial Italic" font-size="10.00" fill="#999999">string ∗</text>
<text text-anchor="start" x="7" y="-272.5" font-family="Arial" font-size="10.00">key </text>
<text text-anchor="start" x="26" y="-272.5" font-family="Arial Italic" font-size="10.00" fill="#999999">string ∗</text>
<text text-anchor="start" x="7" y="-259.5" font-family="Arial" font-size="10.00">metadata </text>
<text text-anchor="start" x="51" y="-259.5" font-family="Arial Italic" font-size="10.00" fill="#999999">text</text>
</g>
<!-- m_ActiveStorage::Blob&#45;&gt;m_ActiveStorage::Attachment -->
<g id="edge1" class="edge">
<title>m_ActiveStorage::Blob&#45;&gt;m_ActiveStorage::Attachment</title>
<path fill="none" stroke="black" d="M123.94,-249.47C155.42,-217.33 194.94,-176.98 223.8,-147.52"/>
</g>
<!-- m_ActiveStorage::Blob&#45;&gt;m_ActiveStorage::Blob -->
<g id="edge12" class="edge">
<title>m_ActiveStorage::Blob&#45;&gt;m_ActiveStorage::Blob</title>
<path fill="none" stroke="black" stroke-dasharray="1,5" d="M144.18,-325.14C160.79,-323.27 173,-316.06 173,-303.5 173,-290.94 160.79,-283.73 144.18,-281.86"/>
</g>
<!-- m_Axis -->
<g id="node3" class="node">
<title>m_Axis</title>
<path fill="none" stroke="black" d="M559,-394.5C559,-394.5 695,-394.5 695,-394.5 701,-394.5 707,-400.5 707,-406.5 707,-406.5 707,-438.5 707,-438.5 707,-444.5 701,-450.5 695,-450.5 695,-450.5 559,-450.5 559,-450.5 553,-450.5 547,-444.5 547,-438.5 547,-438.5 547,-406.5 547,-406.5 547,-400.5 553,-394.5 559,-394.5"/>
<text text-anchor="start" x="613" y="-437.7" font-family="Arial Bold" font-size="11.00">Axis</text>
<polyline fill="none" stroke="black" points="547,-430.5 707,-430.5 "/>
<text text-anchor="start" x="554" y="-417.5" font-family="Arial" font-size="10.00">name </text>
<text text-anchor="start" x="582" y="-417.5" font-family="Arial Italic" font-size="10.00" fill="#999999">string ∗ U</text>
<text text-anchor="start" x="554" y="-404.5" font-family="Arial" font-size="10.00">sub_category_id </text>
<text text-anchor="start" x="630" y="-404.5" font-family="Arial Italic" font-size="10.00" fill="#999999">integer (8) ∗ FK</text>
</g>
<!-- m_Subject -->
<g id="node9" class="node">
<title>m_Subject</title>
<path fill="none" stroke="black" d="M567,-275.5C567,-275.5 687,-275.5 687,-275.5 693,-275.5 699,-281.5 699,-287.5 699,-287.5 699,-319.5 699,-319.5 699,-325.5 693,-331.5 687,-331.5 687,-331.5 567,-331.5 567,-331.5 561,-331.5 555,-325.5 555,-319.5 555,-319.5 555,-287.5 555,-287.5 555,-281.5 561,-275.5 567,-275.5"/>
<text text-anchor="start" x="605" y="-318.7" font-family="Arial Bold" font-size="11.00">Subject</text>
<polyline fill="none" stroke="black" points="555,-311.5 699,-311.5 "/>
<text text-anchor="start" x="562" y="-298.5" font-family="Arial" font-size="10.00">axis_id </text>
<text text-anchor="start" x="597" y="-298.5" font-family="Arial Italic" font-size="10.00" fill="#999999">integer (8) ∗ FK</text>
<text text-anchor="start" x="562" y="-285.5" font-family="Arial" font-size="10.00">name </text>
<text text-anchor="start" x="590" y="-285.5" font-family="Arial Italic" font-size="10.00" fill="#999999">string ∗ U</text>
</g>
<!-- m_Axis&#45;&gt;m_Subject -->
<g id="edge9" class="edge">
<title>m_Axis&#45;&gt;m_Subject</title>
<path fill="none" stroke="black" d="M627,-394.36C627,-378.53 627,-358.34 627,-341.11"/>
<polygon fill="black" stroke="black" points="630.15,-340.89 627,-331.89 623.85,-340.89 630.15,-340.89"/>
</g>
<!-- m_Category -->
<g id="node4" class="node">
<title>m_Category</title>
<path fill="none" stroke="black" d="M567,-587C567,-587 687,-587 687,-587 693,-587 699,-593 699,-599 699,-599 699,-618 699,-618 699,-624 693,-630 687,-630 687,-630 567,-630 567,-630 561,-630 555,-624 555,-618 555,-618 555,-599 555,-599 555,-593 561,-587 567,-587"/>
<text text-anchor="start" x="600.5" y="-617.2" font-family="Arial Bold" font-size="11.00">Category</text>
<polyline fill="none" stroke="black" points="555,-610 699,-610 "/>
<text text-anchor="start" x="562" y="-596.5" font-family="Arial" font-size="10.00">name </text>
<text text-anchor="start" x="590" y="-596.5" font-family="Arial Italic" font-size="10.00" fill="#999999">string ∗ U</text>
</g>
<!-- m_SubCategory -->
<g id="node8" class="node">
<title>m_SubCategory</title>
<path fill="none" stroke="black" d="M567,-487.5C567,-487.5 687,-487.5 687,-487.5 693,-487.5 699,-493.5 699,-499.5 699,-499.5 699,-531.5 699,-531.5 699,-537.5 693,-543.5 687,-543.5 687,-543.5 567,-543.5 567,-543.5 561,-543.5 555,-537.5 555,-531.5 555,-531.5 555,-499.5 555,-499.5 555,-493.5 561,-487.5 567,-487.5"/>
<text text-anchor="start" x="590" y="-530.7" font-family="Arial Bold" font-size="11.00">SubCategory</text>
<polyline fill="none" stroke="black" points="555,-523.5 699,-523.5 "/>
<text text-anchor="start" x="562" y="-510.5" font-family="Arial" font-size="10.00">category_id </text>
<text text-anchor="start" x="617" y="-510.5" font-family="Arial Italic" font-size="10.00" fill="#999999">integer (8) ∗ FK</text>
<text text-anchor="start" x="562" y="-497.5" font-family="Arial" font-size="10.00">name </text>
<text text-anchor="start" x="590" y="-497.5" font-family="Arial Italic" font-size="10.00" fill="#999999">string ∗ U</text>
</g>
<!-- m_Category&#45;&gt;m_SubCategory -->
<g id="edge7" class="edge">
<title>m_Category&#45;&gt;m_SubCategory</title>
<path fill="none" stroke="black" d="M627,-586.85C627,-576.75 627,-564.3 627,-552.7"/>
<polygon fill="black" stroke="black" points="630.15,-552.63 627,-543.63 623.85,-552.63 630.15,-552.63"/>
</g>
<!-- m_JwtBlacklist -->
<g id="node5" class="node">
<title>m_JwtBlacklist</title>
<path fill="none" stroke="black" d="M740,-580.5C740,-580.5 860,-580.5 860,-580.5 866,-580.5 872,-586.5 872,-592.5 872,-592.5 872,-624.5 872,-624.5 872,-630.5 866,-636.5 860,-636.5 860,-636.5 740,-636.5 740,-636.5 734,-636.5 728,-630.5 728,-624.5 728,-624.5 728,-592.5 728,-592.5 728,-586.5 734,-580.5 740,-580.5"/>
<text text-anchor="start" x="766" y="-623.7" font-family="Arial Bold" font-size="11.00">JwtBlacklist</text>
<polyline fill="none" stroke="black" points="728,-616.5 872,-616.5 "/>
<text text-anchor="start" x="735" y="-603.5" font-family="Arial" font-size="10.00">exp </text>
<text text-anchor="start" x="754" y="-603.5" font-family="Arial Italic" font-size="10.00" fill="#999999">datetime</text>
<text text-anchor="start" x="735" y="-590.5" font-family="Arial" font-size="10.00">jti </text>
<text text-anchor="start" x="746" y="-590.5" font-family="Arial Italic" font-size="10.00" fill="#999999">string</text>
</g>
<!-- m_Objective -->
<g id="node6" class="node">
<title>m_Objective</title>
<path fill="none" stroke="black" d="M476,-0.5C476,-0.5 596,-0.5 596,-0.5 602,-0.5 608,-6.5 608,-12.5 608,-12.5 608,-200.5 608,-200.5 608,-206.5 602,-212.5 596,-212.5 596,-212.5 476,-212.5 476,-212.5 470,-212.5 464,-206.5 464,-200.5 464,-200.5 464,-12.5 464,-12.5 464,-6.5 470,-0.5 476,-0.5"/>
<text text-anchor="start" x="509.5" y="-199.7" font-family="Arial Bold" font-size="11.00">Objective</text>
<polyline fill="none" stroke="black" points="464,-192.5 608,-192.5 "/>
<text text-anchor="start" x="471" y="-179.5" font-family="Arial" font-size="10.00">alternatives </text>
<text text-anchor="start" x="524" y="-179.5" font-family="Arial Italic" font-size="10.00" fill="#999999">jsonb</text>
<text text-anchor="start" x="471" y="-166.5" font-family="Arial" font-size="10.00">authorship_year </text>
<text text-anchor="start" x="544" y="-166.5" font-family="Arial Italic" font-size="10.00" fill="#999999">string</text>
<text text-anchor="start" x="471" y="-153.5" font-family="Arial" font-size="10.00">bloom_taxonomy </text>
<text text-anchor="start" x="549" y="-153.5" font-family="Arial Italic" font-size="10.00" fill="#999999">string</text>
<text text-anchor="start" x="471" y="-140.5" font-family="Arial" font-size="10.00">body </text>
<text text-anchor="start" x="496" y="-140.5" font-family="Arial Italic" font-size="10.00" fill="#999999">text</text>
<text text-anchor="start" x="471" y="-127.5" font-family="Arial" font-size="10.00">check_type </text>
<text text-anchor="start" x="525" y="-127.5" font-family="Arial Italic" font-size="10.00" fill="#999999">string</text>
<text text-anchor="start" x="471" y="-114.5" font-family="Arial" font-size="10.00">difficulty </text>
<text text-anchor="start" x="511" y="-114.5" font-family="Arial Italic" font-size="10.00" fill="#999999">string</text>
<text text-anchor="start" x="471" y="-101.5" font-family="Arial" font-size="10.00">explanation </text>
<text text-anchor="start" x="524" y="-101.5" font-family="Arial Italic" font-size="10.00" fill="#999999">text</text>
<text text-anchor="start" x="471" y="-88.5" font-family="Arial" font-size="10.00">introduction </text>
<text text-anchor="start" x="525" y="-88.5" font-family="Arial Italic" font-size="10.00" fill="#999999">string</text>
<text text-anchor="start" x="471" y="-75.5" font-family="Arial" font-size="10.00">own </text>
<text text-anchor="start" x="493" y="-75.5" font-family="Arial Italic" font-size="10.00" fill="#999999">boolean</text>
<text text-anchor="start" x="471" y="-62.5" font-family="Arial" font-size="10.00">references </text>
<text text-anchor="start" x="520" y="-62.5" font-family="Arial Italic" font-size="10.00" fill="#999999">text</text>
<text text-anchor="start" x="471" y="-49.5" font-family="Arial" font-size="10.00">source </text>
<text text-anchor="start" x="504" y="-49.5" font-family="Arial Italic" font-size="10.00" fill="#999999">string</text>
<text text-anchor="start" x="471" y="-36.5" font-family="Arial" font-size="10.00">status </text>
<text text-anchor="start" x="502" y="-36.5" font-family="Arial Italic" font-size="10.00" fill="#999999">string ∗</text>
<text text-anchor="start" x="471" y="-23.5" font-family="Arial" font-size="10.00">subject_id </text>
<text text-anchor="start" x="519" y="-23.5" font-family="Arial Italic" font-size="10.00" fill="#999999">integer (8) FK</text>
<text text-anchor="start" x="471" y="-10.5" font-family="Arial" font-size="10.00">user_id </text>
<text text-anchor="start" x="506" y="-10.5" font-family="Arial Italic" font-size="10.00" fill="#999999">integer (8) FK</text>
</g>
<!-- m_Role -->
<g id="node7" class="node">
<title>m_Role</title>
<path fill="none" stroke="black" d="M385,-401C385,-401 505,-401 505,-401 511,-401 517,-407 517,-413 517,-413 517,-432 517,-432 517,-438 511,-444 505,-444 505,-444 385,-444 385,-444 379,-444 373,-438 373,-432 373,-432 373,-413 373,-413 373,-407 379,-401 385,-401"/>
<text text-anchor="start" x="430.5" y="-431.2" font-family="Arial Bold" font-size="11.00">Role</text>
<polyline fill="none" stroke="black" points="373,-424 517,-424 "/>
<text text-anchor="start" x="380" y="-410.5" font-family="Arial" font-size="10.00">name </text>
<text text-anchor="start" x="408" y="-410.5" font-family="Arial Italic" font-size="10.00" fill="#999999">string ∗ U</text>
</g>
<!-- m_User -->
<g id="node11" class="node">
<title>m_User</title>
<path fill="none" stroke="black" d="M376.5,-249.5C376.5,-249.5 513.5,-249.5 513.5,-249.5 519.5,-249.5 525.5,-255.5 525.5,-261.5 525.5,-261.5 525.5,-345.5 525.5,-345.5 525.5,-351.5 519.5,-357.5 513.5,-357.5 513.5,-357.5 376.5,-357.5 376.5,-357.5 370.5,-357.5 364.5,-351.5 364.5,-345.5 364.5,-345.5 364.5,-261.5 364.5,-261.5 364.5,-255.5 370.5,-249.5 376.5,-249.5"/>
<text text-anchor="start" x="430.5" y="-344.7" font-family="Arial Bold" font-size="11.00">User</text>
<polyline fill="none" stroke="black" points="364.5,-337.5 525.5,-337.5 "/>
<text text-anchor="start" x="372" y="-324.5" font-family="Arial" font-size="10.00">email </text>
<text text-anchor="start" x="399" y="-324.5" font-family="Arial Italic" font-size="10.00" fill="#999999">string ∗ U</text>
<text text-anchor="start" x="372" y="-311.5" font-family="Arial" font-size="10.00">encrypted_password </text>
<text text-anchor="start" x="466" y="-311.5" font-family="Arial Italic" font-size="10.00" fill="#999999">string ∗</text>
<text text-anchor="start" x="372" y="-298.5" font-family="Arial" font-size="10.00">name </text>
<text text-anchor="start" x="400" y="-298.5" font-family="Arial Italic" font-size="10.00" fill="#999999">string</text>
<text text-anchor="start" x="372" y="-285.5" font-family="Arial" font-size="10.00">remember_created_at </text>
<text text-anchor="start" x="470" y="-285.5" font-family="Arial Italic" font-size="10.00" fill="#999999">datetime</text>
<text text-anchor="start" x="372" y="-272.5" font-family="Arial" font-size="10.00">reset_password_sent_at </text>
<text text-anchor="start" x="481" y="-272.5" font-family="Arial Italic" font-size="10.00" fill="#999999">datetime</text>
<text text-anchor="start" x="372" y="-259.5" font-family="Arial" font-size="10.00">reset_password_token </text>
<text text-anchor="start" x="472" y="-259.5" font-family="Arial Italic" font-size="10.00" fill="#999999">string</text>
</g>
<!-- m_Role&#45;&gt;m_User -->
<g id="edge6" class="edge">
<title>m_Role&#45;&gt;m_User</title>
<path fill="none" stroke="black" d="M445,-391.8C445,-384.07 445,-375.45 445,-366.71"/>
<polygon fill="black" stroke="black" points="441.85,-391.85 445,-400.85 448.15,-391.85 441.85,-391.85"/>
<polygon fill="black" stroke="black" points="448.15,-366.6 445,-357.6 441.85,-366.6 448.15,-366.6"/>
</g>
<!-- m_SubCategory&#45;&gt;m_Axis -->
<g id="edge8" class="edge">
<title>m_SubCategory&#45;&gt;m_Axis</title>
<path fill="none" stroke="black" d="M627,-487.2C627,-478.65 627,-469.07 627,-460"/>
<polygon fill="black" stroke="black" points="630.15,-459.78 627,-450.78 623.85,-459.78 630.15,-459.78"/>
</g>
<!-- m_Subject&#45;&gt;m_Objective -->
<g id="edge10" class="edge">
<title>m_Subject&#45;&gt;m_Objective</title>
<path fill="none" stroke="black" d="M614.35,-275.39C607.48,-260.67 598.47,-241.37 589.02,-221.12"/>
<polygon fill="black" stroke="black" points="591.76,-219.53 585.1,-212.71 586.05,-222.19 591.76,-219.53"/>
</g>
<!-- m_Upload -->
<g id="node10" class="node">
<title>m_Upload</title>
<path fill="none" stroke="black" d="M203,-282C203,-282 323,-282 323,-282 329,-282 335,-288 335,-294 335,-294 335,-313 335,-313 335,-319 329,-325 323,-325 323,-325 203,-325 203,-325 197,-325 191,-319 191,-313 191,-313 191,-294 191,-294 191,-288 197,-282 203,-282"/>
<text text-anchor="start" x="242" y="-312.2" font-family="Arial Bold" font-size="11.00">Upload</text>
<polyline fill="none" stroke="black" points="191,-305 335,-305 "/>
<text text-anchor="start" x="198" y="-291.5" font-family="Arial" font-size="10.00">filename </text>
<text text-anchor="start" x="238" y="-291.5" font-family="Arial Italic" font-size="10.00" fill="#999999">string</text>
</g>
<!-- m_Upload&#45;&gt;m_ActiveStorage::Attachment -->
<g id="edge2" class="edge">
<title>m_Upload&#45;&gt;m_ActiveStorage::Attachment</title>
<path fill="none" stroke="black" d="M263,-281.63C263,-249.8 263,-188.52 263,-147.82"/>
</g>
<!-- m_User&#45;&gt;m_ActiveStorage::Attachment -->
<g id="edge3" class="edge">
<title>m_User&#45;&gt;m_ActiveStorage::Attachment</title>
<path fill="none" stroke="black" d="M395.51,-249.47C365.51,-217.33 327.85,-176.98 300.35,-147.52"/>
</g>
<!-- m_User&#45;&gt;m_ActiveStorage::Blob -->
<g id="edge4" class="edge">
<title>m_User&#45;&gt;m_ActiveStorage::Blob</title>
<path fill="none" stroke="black" stroke-dasharray="1,5" d="M375.51,-357.58C362.51,-365.16 348.57,-371.8 334.5,-376 273.18,-394.32 252.1,-393.35 190.5,-376 174.71,-371.55 158.95,-364.35 144.32,-356.18"/>
</g>
<!-- m_User&#45;&gt;m_Objective -->
<g id="edge5" class="edge">
<title>m_User&#45;&gt;m_Objective</title>
<path fill="none" stroke="black" d="M469.75,-249.47C473.94,-240.49 478.43,-230.86 483.03,-221"/>
<polygon fill="black" stroke="black" points="485.96,-222.17 486.91,-212.68 480.25,-219.51 485.96,-222.17"/>
</g>
</g>
</svg>
