<?xml version="1.0" encoding="UTF-8" standalone="no"?>
<!DOCTYPE svg PUBLIC "-//W3C//DTD SVG 1.1//EN"
 "http://www.w3.org/Graphics/SVG/1.1/DTD/svg11.dtd">
<!-- Generated by graphviz version 2.47.3 (0)
 -->
<!-- Title: ProgressTest Pages: 1 -->
<svg width="1086pt" height="758pt"
 viewBox="0.00 0.00 1085.60 757.60" xmlns="http://www.w3.org/2000/svg" xmlns:xlink="http://www.w3.org/1999/xlink">
<g id="graph0" class="graph" transform="scale(1 1) rotate(0) translate(28.8 728.8)">
<title>ProgressTest</title>
<polygon fill="white" stroke="transparent" points="-28.8,28.8 -28.8,-728.8 1056.8,-728.8 1056.8,28.8 -28.8,28.8"/>
<text text-anchor="middle" x="514" y="-685.6" font-family="Arial Bold" font-size="13.00">Progress Test &#45; Models</text>
<!-- m_ActiveStorage::Attachment -->
<g id="node1" class="node">
<title>m_ActiveStorage::Attachment</title>
<path fill="none" stroke="black" d="M198.5,-277.5C198.5,-277.5 327.5,-277.5 327.5,-277.5 333.5,-277.5 339.5,-283.5 339.5,-289.5 339.5,-289.5 339.5,-347.5 339.5,-347.5 339.5,-353.5 333.5,-359.5 327.5,-359.5 327.5,-359.5 198.5,-359.5 198.5,-359.5 192.5,-359.5 186.5,-353.5 186.5,-347.5 186.5,-347.5 186.5,-289.5 186.5,-289.5 186.5,-283.5 192.5,-277.5 198.5,-277.5"/>
<text text-anchor="start" x="192" y="-346.7" font-family="Arial Bold" font-size="11.00">ActiveStorage::Attachment</text>
<polyline fill="none" stroke="black" points="186.5,-339.5 339.5,-339.5 "/>
<text text-anchor="start" x="198" y="-326.5" font-family="Arial" font-size="10.00">blob_id </text>
<text text-anchor="start" x="232" y="-326.5" font-family="Arial Italic" font-size="10.00" fill="#999999">integer (8) ∗ FK</text>
<text text-anchor="start" x="198" y="-313.5" font-family="Arial" font-size="10.00">name </text>
<text text-anchor="start" x="226" y="-313.5" font-family="Arial Italic" font-size="10.00" fill="#999999">string ∗</text>
<text text-anchor="start" x="198" y="-300.5" font-family="Arial" font-size="10.00">record_id </text>
<text text-anchor="start" x="241" y="-300.5" font-family="Arial Italic" font-size="10.00" fill="#999999">integer (8) ∗ FK</text>
<text text-anchor="start" x="198" y="-287.5" font-family="Arial" font-size="10.00">record_type </text>
<text text-anchor="start" x="253" y="-287.5" font-family="Arial Italic" font-size="10.00" fill="#999999">string ∗</text>
</g>
<!-- m_ActiveStorage::Blob -->
<g id="node2" class="node">
<title>m_ActiveStorage::Blob</title>
<path fill="none" stroke="black" d="M12,-461.5C12,-461.5 132,-461.5 132,-461.5 138,-461.5 144,-467.5 144,-473.5 144,-473.5 144,-557.5 144,-557.5 144,-563.5 138,-569.5 132,-569.5 132,-569.5 12,-569.5 12,-569.5 6,-569.5 0,-563.5 0,-557.5 0,-557.5 0,-473.5 0,-473.5 0,-467.5 6,-461.5 12,-461.5"/>
<text text-anchor="start" x="16.5" y="-556.7" font-family="Arial Bold" font-size="11.00">ActiveStorage::Blob</text>
<polyline fill="none" stroke="black" points="0,-549.5 144,-549.5 "/>
<text text-anchor="start" x="7" y="-536.5" font-family="Arial" font-size="10.00">byte_size </text>
<text text-anchor="start" x="53" y="-536.5" font-family="Arial Italic" font-size="10.00" fill="#999999">integer (8) ∗</text>
<text text-anchor="start" x="7" y="-523.5" font-family="Arial" font-size="10.00">checksum </text>
<text text-anchor="start" x="56" y="-523.5" font-family="Arial Italic" font-size="10.00" fill="#999999">string ∗</text>
<text text-anchor="start" x="7" y="-510.5" font-family="Arial" font-size="10.00">content_type </text>
<text text-anchor="start" x="67" y="-510.5" font-family="Arial Italic" font-size="10.00" fill="#999999">string</text>
<text text-anchor="start" x="7" y="-497.5" font-family="Arial" font-size="10.00">filename </text>
<text text-anchor="start" x="47" y="-497.5" font-family="Arial Italic" font-size="10.00" fill="#999999">string ∗</text>
<text text-anchor="start" x="7" y="-484.5" font-family="Arial" font-size="10.00">key </text>
<text text-anchor="start" x="26" y="-484.5" font-family="Arial Italic" font-size="10.00" fill="#999999">string ∗</text>
<text text-anchor="start" x="7" y="-471.5" font-family="Arial" font-size="10.00">metadata </text>
<text text-anchor="start" x="51" y="-471.5" font-family="Arial Italic" font-size="10.00" fill="#999999">text</text>
</g>
<!-- m_ActiveStorage::Blob&#45;&gt;m_ActiveStorage::Attachment -->
<g id="edge4" class="edge">
<title>m_ActiveStorage::Blob&#45;&gt;m_ActiveStorage::Attachment</title>
<path fill="none" stroke="black" d="M123.94,-461.47C155.42,-429.33 194.94,-388.98 223.8,-359.52"/>
</g>
<!-- m_ActiveStorage::Blob&#45;&gt;m_ActiveStorage::Blob -->
<g id="edge16" class="edge">
<title>m_ActiveStorage::Blob&#45;&gt;m_ActiveStorage::Blob</title>
<path fill="none" stroke="black" stroke-dasharray="1,5" d="M144.18,-537.14C160.79,-535.27 173,-528.06 173,-515.5 173,-502.94 160.79,-495.73 144.18,-493.86"/>
</g>
<!-- m_Axis -->
<g id="node3" class="node">
<title>m_Axis</title>
<path fill="none" stroke="black" d="M550,-613C550,-613 670,-613 670,-613 676,-613 682,-619 682,-625 682,-625 682,-644 682,-644 682,-650 676,-656 670,-656 670,-656 550,-656 550,-656 544,-656 538,-650 538,-644 538,-644 538,-625 538,-625 538,-619 544,-613 550,-613"/>
<text text-anchor="start" x="596" y="-643.2" font-family="Arial Bold" font-size="11.00">Axis</text>
<polyline fill="none" stroke="black" points="538,-636 682,-636 "/>
<text text-anchor="start" x="545" y="-622.5" font-family="Arial" font-size="10.00">name </text>
<text text-anchor="start" x="573" y="-622.5" font-family="Arial Italic" font-size="10.00" fill="#999999">string ∗ U</text>
</g>
<!-- m_Subject -->
<g id="node10" class="node">
<title>m_Subject</title>
<path fill="none" stroke="black" d="M551,-481C551,-481 671,-481 671,-481 677,-481 683,-487 683,-493 683,-493 683,-538 683,-538 683,-544 677,-550 671,-550 671,-550 551,-550 551,-550 545,-550 539,-544 539,-538 539,-538 539,-493 539,-493 539,-487 545,-481 551,-481"/>
<text text-anchor="start" x="589" y="-537.2" font-family="Arial Bold" font-size="11.00">Subject</text>
<polyline fill="none" stroke="black" points="539,-530 683,-530 "/>
<text text-anchor="start" x="546" y="-516.5" font-family="Arial" font-size="10.00">axis_id </text>
<text text-anchor="start" x="580" y="-516.5" font-family="Arial Italic" font-size="10.00" fill="#999999">integer (8) FK</text>
<text text-anchor="start" x="546" y="-503.5" font-family="Arial" font-size="10.00">category_id </text>
<text text-anchor="start" x="600" y="-503.5" font-family="Arial Italic" font-size="10.00" fill="#999999">integer (8) FK</text>
<text text-anchor="start" x="546" y="-490.5" font-family="Arial" font-size="10.00">name </text>
<text text-anchor="start" x="574" y="-490.5" font-family="Arial Italic" font-size="10.00" fill="#999999">string ∗ U</text>
</g>
<!-- m_Axis&#45;&gt;m_Subject -->
<g id="edge8" class="edge">
<title>m_Axis&#45;&gt;m_Subject</title>
<path fill="none" stroke="black" d="M610.18,-612.85C610.3,-598.04 610.48,-577.54 610.63,-559.27"/>
<polygon fill="black" stroke="black" points="613.78,-559.26 610.71,-550.23 607.48,-559.2 613.78,-559.26"/>
</g>
<!-- m_Category -->
<g id="node4" class="node">
<title>m_Category</title>
<path fill="none" stroke="black" d="M723,-613C723,-613 843,-613 843,-613 849,-613 855,-619 855,-625 855,-625 855,-644 855,-644 855,-650 849,-656 843,-656 843,-656 723,-656 723,-656 717,-656 711,-650 711,-644 711,-644 711,-625 711,-625 711,-619 717,-613 723,-613"/>
<text text-anchor="start" x="756.5" y="-643.2" font-family="Arial Bold" font-size="11.00">Category</text>
<polyline fill="none" stroke="black" points="711,-636 855,-636 "/>
<text text-anchor="start" x="718" y="-622.5" font-family="Arial" font-size="10.00">name </text>
<text text-anchor="start" x="746" y="-622.5" font-family="Arial Italic" font-size="10.00" fill="#999999">string ∗ U</text>
</g>
<!-- m_Category&#45;&gt;m_Subject -->
<g id="edge14" class="edge">
<title>m_Category&#45;&gt;m_Subject</title>
<path fill="none" stroke="black" d="M752.65,-612.85C729.27,-596.95 696.29,-574.52 668.04,-555.3"/>
<polygon fill="black" stroke="black" points="669.8,-552.69 660.58,-550.23 666.25,-557.89 669.8,-552.69"/>
</g>
<!-- m_JwtBlacklist -->
<g id="node5" class="node">
<title>m_JwtBlacklist</title>
<path fill="none" stroke="black" d="M896,-606.5C896,-606.5 1016,-606.5 1016,-606.5 1022,-606.5 1028,-612.5 1028,-618.5 1028,-618.5 1028,-650.5 1028,-650.5 1028,-656.5 1022,-662.5 1016,-662.5 1016,-662.5 896,-662.5 896,-662.5 890,-662.5 884,-656.5 884,-650.5 884,-650.5 884,-618.5 884,-618.5 884,-612.5 890,-606.5 896,-606.5"/>
<text text-anchor="start" x="922" y="-649.7" font-family="Arial Bold" font-size="11.00">JwtBlacklist</text>
<polyline fill="none" stroke="black" points="884,-642.5 1028,-642.5 "/>
<text text-anchor="start" x="891" y="-629.5" font-family="Arial" font-size="10.00">exp </text>
<text text-anchor="start" x="910" y="-629.5" font-family="Arial Italic" font-size="10.00" fill="#999999">datetime</text>
<text text-anchor="start" x="891" y="-616.5" font-family="Arial" font-size="10.00">jti </text>
<text text-anchor="start" x="902" y="-616.5" font-family="Arial Italic" font-size="10.00" fill="#999999">string</text>
</g>
<!-- m_Question -->
<g id="node6" class="node">
<title>m_Question</title>
<path fill="none" stroke="black" d="M551,-212.5C551,-212.5 671,-212.5 671,-212.5 677,-212.5 683,-218.5 683,-224.5 683,-224.5 683,-412.5 683,-412.5 683,-418.5 677,-424.5 671,-424.5 671,-424.5 551,-424.5 551,-424.5 545,-424.5 539,-418.5 539,-412.5 539,-412.5 539,-224.5 539,-224.5 539,-218.5 545,-212.5 551,-212.5"/>
<text text-anchor="start" x="585" y="-411.7" font-family="Arial Bold" font-size="11.00">Question</text>
<polyline fill="none" stroke="black" points="539,-404.5 683,-404.5 "/>
<text text-anchor="start" x="546" y="-391.5" font-family="Arial" font-size="10.00">alternatives </text>
<text text-anchor="start" x="600" y="-391.5" font-family="Arial Italic" font-size="10.00" fill="#999999">jsonb ∗</text>
<text text-anchor="start" x="546" y="-378.5" font-family="Arial" font-size="10.00">authorship_year </text>
<text text-anchor="start" x="619" y="-378.5" font-family="Arial Italic" font-size="10.00" fill="#999999">string</text>
<text text-anchor="start" x="546" y="-365.5" font-family="Arial" font-size="10.00">bloom_taxonomy </text>
<text text-anchor="start" x="624" y="-365.5" font-family="Arial Italic" font-size="10.00" fill="#999999">string</text>
<text text-anchor="start" x="546" y="-352.5" font-family="Arial" font-size="10.00">body </text>
<text text-anchor="start" x="571" y="-352.5" font-family="Arial Italic" font-size="10.00" fill="#999999">text</text>
<text text-anchor="start" x="546" y="-339.5" font-family="Arial" font-size="10.00">check_type </text>
<text text-anchor="start" x="600" y="-339.5" font-family="Arial Italic" font-size="10.00" fill="#999999">string</text>
<text text-anchor="start" x="546" y="-326.5" font-family="Arial" font-size="10.00">difficulty </text>
<text text-anchor="start" x="586" y="-326.5" font-family="Arial Italic" font-size="10.00" fill="#999999">string</text>
<text text-anchor="start" x="546" y="-313.5" font-family="Arial" font-size="10.00">explanation </text>
<text text-anchor="start" x="599" y="-313.5" font-family="Arial Italic" font-size="10.00" fill="#999999">text</text>
<text text-anchor="start" x="546" y="-300.5" font-family="Arial" font-size="10.00">instruction </text>
<text text-anchor="start" x="595" y="-300.5" font-family="Arial Italic" font-size="10.00" fill="#999999">text</text>
<text text-anchor="start" x="546" y="-287.5" font-family="Arial" font-size="10.00">references </text>
<text text-anchor="start" x="595" y="-287.5" font-family="Arial Italic" font-size="10.00" fill="#999999">text</text>
<text text-anchor="start" x="546" y="-274.5" font-family="Arial" font-size="10.00">source </text>
<text text-anchor="start" x="579" y="-274.5" font-family="Arial Italic" font-size="10.00" fill="#999999">string</text>
<text text-anchor="start" x="546" y="-261.5" font-family="Arial" font-size="10.00">status </text>
<text text-anchor="start" x="577" y="-261.5" font-family="Arial Italic" font-size="10.00" fill="#999999">string ∗</text>
<text text-anchor="start" x="546" y="-248.5" font-family="Arial" font-size="10.00">subject_id </text>
<text text-anchor="start" x="594" y="-248.5" font-family="Arial Italic" font-size="10.00" fill="#999999">integer (8) FK</text>
<text text-anchor="start" x="546" y="-235.5" font-family="Arial" font-size="10.00">support </text>
<text text-anchor="start" x="582" y="-235.5" font-family="Arial Italic" font-size="10.00" fill="#999999">text</text>
<text text-anchor="start" x="546" y="-222.5" font-family="Arial" font-size="10.00">user_id </text>
<text text-anchor="start" x="581" y="-222.5" font-family="Arial Italic" font-size="10.00" fill="#999999">integer (8) FK</text>
</g>
<!-- m_ReviewFeedback -->
<g id="node7" class="node">
<title>m_ReviewFeedback</title>
<path fill="none" stroke="black" d="M453,-0.5C453,-0.5 595,-0.5 595,-0.5 601,-0.5 607,-6.5 607,-12.5 607,-12.5 607,-57.5 607,-57.5 607,-63.5 601,-69.5 595,-69.5 595,-69.5 453,-69.5 453,-69.5 447,-69.5 441,-63.5 441,-57.5 441,-57.5 441,-12.5 441,-12.5 441,-6.5 447,-0.5 453,-0.5"/>
<text text-anchor="start" x="478" y="-56.7" font-family="Arial Bold" font-size="11.00">ReviewFeedback</text>
<polyline fill="none" stroke="black" points="441,-49.5 607,-49.5 "/>
<text text-anchor="start" x="448" y="-36" font-family="Arial" font-size="10.00">comment </text>
<text text-anchor="start" x="492" y="-36" font-family="Arial Italic" font-size="10.00" fill="#999999">text</text>
<text text-anchor="start" x="448" y="-23" font-family="Arial" font-size="10.00">review_request_id </text>
<text text-anchor="start" x="530" y="-23" font-family="Arial Italic" font-size="10.00" fill="#999999">integer (8) ∗ FK</text>
<text text-anchor="start" x="448" y="-10" font-family="Arial" font-size="10.00">status </text>
<text text-anchor="start" x="479" y="-10" font-family="Arial Italic" font-size="10.00" fill="#999999">string</text>
</g>
<!-- m_Question&#45;&gt;m_ReviewFeedback -->
<g id="edge13" class="edge">
<title>m_Question&#45;&gt;m_ReviewFeedback</title>
<path fill="none" stroke="black" stroke-dasharray="1,5" d="M538.71,-279.65C500.89,-255.55 458.16,-220.48 437,-176 423.64,-147.91 423.56,-134.06 437,-106 442.46,-94.6 450.78,-84.47 460.14,-75.7"/>
<polygon fill="black" stroke="black" points="462.45,-77.87 467.13,-69.56 458.29,-73.14 462.45,-77.87"/>
</g>
<!-- m_ReviewRequest -->
<g id="node8" class="node">
<title>m_ReviewRequest</title>
<path fill="none" stroke="black" d="M464,-106.5C464,-106.5 584,-106.5 584,-106.5 590,-106.5 596,-112.5 596,-118.5 596,-118.5 596,-163.5 596,-163.5 596,-169.5 590,-175.5 584,-175.5 584,-175.5 464,-175.5 464,-175.5 458,-175.5 452,-169.5 452,-163.5 452,-163.5 452,-118.5 452,-118.5 452,-112.5 458,-106.5 464,-106.5"/>
<text text-anchor="start" x="481" y="-162.7" font-family="Arial Bold" font-size="11.00">ReviewRequest</text>
<polyline fill="none" stroke="black" points="452,-155.5 596,-155.5 "/>
<text text-anchor="start" x="459" y="-142" font-family="Arial" font-size="10.00">answered </text>
<text text-anchor="start" x="505" y="-142" font-family="Arial Italic" font-size="10.00" fill="#999999">boolean ∗</text>
<text text-anchor="start" x="459" y="-129" font-family="Arial" font-size="10.00">question_id </text>
<text text-anchor="start" x="512" y="-129" font-family="Arial Italic" font-size="10.00" fill="#999999">integer (8) ∗ FK</text>
<text text-anchor="start" x="459" y="-116" font-family="Arial" font-size="10.00">user_id </text>
<text text-anchor="start" x="494" y="-116" font-family="Arial Italic" font-size="10.00" fill="#999999">integer (8) ∗ FK</text>
</g>
<!-- m_Question&#45;&gt;m_ReviewRequest -->
<g id="edge11" class="edge">
<title>m_Question&#45;&gt;m_ReviewRequest</title>
<path fill="none" stroke="black" d="M558.88,-212.37C553.95,-202.41 549.17,-192.77 544.81,-183.97"/>
<polygon fill="black" stroke="black" points="547.58,-182.48 540.76,-175.82 541.94,-185.28 547.58,-182.48"/>
</g>
<!-- m_User -->
<g id="node12" class="node">
<title>m_User</title>
<path fill="none" stroke="black" d="M376,-487.5C376,-487.5 496,-487.5 496,-487.5 502,-487.5 508,-493.5 508,-499.5 508,-499.5 508,-531.5 508,-531.5 508,-537.5 502,-543.5 496,-543.5 496,-543.5 376,-543.5 376,-543.5 370,-543.5 364,-537.5 364,-531.5 364,-531.5 364,-499.5 364,-499.5 364,-493.5 370,-487.5 376,-487.5"/>
<text text-anchor="start" x="421.5" y="-530.7" font-family="Arial Bold" font-size="11.00">User</text>
<polyline fill="none" stroke="black" points="364,-523.5 508,-523.5 "/>
<text text-anchor="start" x="371" y="-510.5" font-family="Arial" font-size="10.00">email </text>
<text text-anchor="start" x="398" y="-510.5" font-family="Arial Italic" font-size="10.00" fill="#999999">string ∗</text>
<text text-anchor="start" x="371" y="-497.5" font-family="Arial" font-size="10.00">name </text>
<text text-anchor="start" x="399" y="-497.5" font-family="Arial Italic" font-size="10.00" fill="#999999">string ∗</text>
</g>
<!-- m_ReviewFeedback&#45;&gt;m_User -->
<g id="edge10" class="edge">
<title>m_ReviewFeedback&#45;&gt;m_User</title>
<path fill="none" stroke="black" stroke-dasharray="1,5" d="M467.15,-69.57C455.01,-79.64 443.8,-91.85 437,-106 374.2,-236.73 411.09,-419.27 428.48,-487.43"/>
</g>
<!-- m_ReviewRequest&#45;&gt;m_ReviewFeedback -->
<g id="edge9" class="edge">
<title>m_ReviewRequest&#45;&gt;m_ReviewFeedback</title>
<path fill="none" stroke="black" d="M524,-106.23C524,-97.43 524,-87.82 524,-78.62"/>
<polygon fill="black" stroke="black" points="527.15,-78.6 524,-69.6 520.85,-78.6 527.15,-78.6"/>
</g>
<!-- m_Role -->
<g id="node9" class="node">
<title>m_Role</title>
<path fill="none" stroke="black" d="M376,-613C376,-613 496,-613 496,-613 502,-613 508,-619 508,-625 508,-625 508,-644 508,-644 508,-650 502,-656 496,-656 496,-656 376,-656 376,-656 370,-656 364,-650 364,-644 364,-644 364,-625 364,-625 364,-619 370,-613 376,-613"/>
<text text-anchor="start" x="421.5" y="-643.2" font-family="Arial Bold" font-size="11.00">Role</text>
<polyline fill="none" stroke="black" points="364,-636 508,-636 "/>
<text text-anchor="start" x="371" y="-622.5" font-family="Arial" font-size="10.00">name </text>
<text text-anchor="start" x="399" y="-622.5" font-family="Arial Italic" font-size="10.00" fill="#999999">string ∗ U</text>
</g>
<!-- m_Role&#45;&gt;m_User -->
<g id="edge1" class="edge">
<title>m_Role&#45;&gt;m_User</title>
<path fill="none" stroke="black" d="M436,-603.68C436,-588.19 436,-569.14 436,-552.8"/>
<polygon fill="black" stroke="black" points="432.85,-603.85 436,-612.85 439.15,-603.85 432.85,-603.85"/>
<polygon fill="black" stroke="black" points="439.15,-552.54 436,-543.54 432.85,-552.54 439.15,-552.54"/>
</g>
<!-- m_Subject&#45;&gt;m_Question -->
<g id="edge12" class="edge">
<title>m_Subject&#45;&gt;m_Question</title>
<path fill="none" stroke="black" d="M611,-480.98C611,-467.44 611,-450.95 611,-433.75"/>
<polygon fill="black" stroke="black" points="614.15,-433.7 611,-424.7 607.85,-433.7 614.15,-433.7"/>
</g>
<!-- m_Upload -->
<g id="node11" class="node">
<title>m_Upload</title>
<path fill="none" stroke="black" d="M203,-497.5C203,-497.5 323,-497.5 323,-497.5 329,-497.5 335,-503.5 335,-509.5 335,-509.5 335,-521.5 335,-521.5 335,-527.5 329,-533.5 323,-533.5 323,-533.5 203,-533.5 203,-533.5 197,-533.5 191,-527.5 191,-521.5 191,-521.5 191,-509.5 191,-509.5 191,-503.5 197,-497.5 203,-497.5"/>
<text text-anchor="start" x="242" y="-512.7" font-family="Arial Bold" font-size="11.00">Upload</text>
</g>
<!-- m_Upload&#45;&gt;m_ActiveStorage::Attachment -->
<g id="edge5" class="edge">
<title>m_Upload&#45;&gt;m_ActiveStorage::Attachment</title>
<path fill="none" stroke="black" d="M263,-497.2C263,-466.53 263,-401.9 263,-359.62"/>
</g>
<!-- m_User&#45;&gt;m_ActiveStorage::Attachment -->
<g id="edge6" class="edge">
<title>m_User&#45;&gt;m_ActiveStorage::Attachment</title>
<path fill="none" stroke="black" d="M411.95,-487.39C382.51,-454.21 332.43,-397.76 298.55,-359.57"/>
</g>
<!-- m_User&#45;&gt;m_ActiveStorage::Blob -->
<g id="edge7" class="edge">
<title>m_User&#45;&gt;m_ActiveStorage::Blob</title>
<path fill="none" stroke="black" stroke-dasharray="1,5" d="M407.22,-543.54C388.25,-559.99 361.93,-579.21 334.5,-588 273.55,-607.53 252.1,-605.35 190.5,-588 174.71,-583.55 158.95,-576.35 144.32,-568.18"/>
</g>
<!-- m_User&#45;&gt;m_Question -->
<g id="edge2" class="edge">
<title>m_User&#45;&gt;m_Question</title>
<path fill="none" stroke="black" d="M460.87,-487.13C476.92,-469.44 498.24,-445.89 517,-425 522.12,-419.29 527.4,-413.41 532.71,-407.47"/>
<polygon fill="black" stroke="black" points="535.31,-409.29 538.96,-400.48 530.61,-405.09 535.31,-409.29"/>
</g>
<!-- m_User&#45;&gt;m_ReviewRequest -->
<g id="edge3" class="edge">
<title>m_User&#45;&gt;m_ReviewRequest</title>
<path fill="none" stroke="black" d="M442.4,-487.41C457.55,-423.3 495.68,-261.87 513.95,-184.56"/>
<polygon fill="black" stroke="black" points="517.07,-185.04 516.07,-175.56 510.94,-183.6 517.07,-185.04"/>
</g>
</g>
</svg>
