<?xml version="1.0" encoding="UTF-8" standalone="no"?>
<!DOCTYPE svg PUBLIC "-//W3C//DTD SVG 1.1//EN"
 "http://www.w3.org/Graphics/SVG/1.1/DTD/svg11.dtd">
<!-- Generated by graphviz version 2.49.0 (0)
 -->
<!-- Title: ProgressTest Pages: 1 -->
<svg width="912pt" height="652pt"
 viewBox="0.00 0.00 911.60 651.60" xmlns="http://www.w3.org/2000/svg" xmlns:xlink="http://www.w3.org/1999/xlink">
<g id="graph0" class="graph" transform="scale(1 1) rotate(0) translate(28.8 622.8)">
<title>ProgressTest</title>
<polygon fill="white" stroke="transparent" points="-28.8,28.8 -28.8,-622.8 882.8,-622.8 882.8,28.8 -28.8,28.8"/>
<text text-anchor="middle" x="427" y="-579.6" font-family="Arial Bold" font-size="13.00">Progress Test &#45; Models</text>
<!-- m_ActiveStorage::Attachment -->
<g id="node1" class="node">
<title>m_ActiveStorage::Attachment</title>
<path fill="none" stroke="black" d="M198.5,-178C198.5,-178 327.5,-178 327.5,-178 333.5,-178 339.5,-184 339.5,-190 339.5,-190 339.5,-248 339.5,-248 339.5,-254 333.5,-260 327.5,-260 327.5,-260 198.5,-260 198.5,-260 192.5,-260 186.5,-254 186.5,-248 186.5,-248 186.5,-190 186.5,-190 186.5,-184 192.5,-178 198.5,-178"/>
<text text-anchor="start" x="192" y="-247.2" font-family="Arial Bold" font-size="11.00">ActiveStorage::Attachment</text>
<polyline fill="none" stroke="black" points="186.5,-240 339.5,-240 "/>
<text text-anchor="start" x="198" y="-227" font-family="Arial" font-size="10.00">blob_id </text>
<text text-anchor="start" x="232" y="-227" font-family="Arial Italic" font-size="10.00" fill="#999999">integer (8) ∗ FK</text>
<text text-anchor="start" x="198" y="-214" font-family="Arial" font-size="10.00">name </text>
<text text-anchor="start" x="226" y="-214" font-family="Arial Italic" font-size="10.00" fill="#999999">string ∗</text>
<text text-anchor="start" x="198" y="-201" font-family="Arial" font-size="10.00">record_id </text>
<text text-anchor="start" x="241" y="-201" font-family="Arial Italic" font-size="10.00" fill="#999999">integer (8) ∗ FK</text>
<text text-anchor="start" x="198" y="-188" font-family="Arial" font-size="10.00">record_type </text>
<text text-anchor="start" x="253" y="-188" font-family="Arial Italic" font-size="10.00" fill="#999999">string ∗</text>
</g>
<!-- m_ActiveStorage::Blob -->
<g id="node2" class="node">
<title>m_ActiveStorage::Blob</title>
<path fill="none" stroke="black" d="M12,-368.5C12,-368.5 132,-368.5 132,-368.5 138,-368.5 144,-374.5 144,-380.5 144,-380.5 144,-464.5 144,-464.5 144,-470.5 138,-476.5 132,-476.5 132,-476.5 12,-476.5 12,-476.5 6,-476.5 0,-470.5 0,-464.5 0,-464.5 0,-380.5 0,-380.5 0,-374.5 6,-368.5 12,-368.5"/>
<text text-anchor="start" x="16.5" y="-463.7" font-family="Arial Bold" font-size="11.00">ActiveStorage::Blob</text>
<polyline fill="none" stroke="black" points="0,-456.5 144,-456.5 "/>
<text text-anchor="start" x="7" y="-443.5" font-family="Arial" font-size="10.00">byte_size </text>
<text text-anchor="start" x="53" y="-443.5" font-family="Arial Italic" font-size="10.00" fill="#999999">integer (8) ∗</text>
<text text-anchor="start" x="7" y="-430.5" font-family="Arial" font-size="10.00">checksum </text>
<text text-anchor="start" x="56" y="-430.5" font-family="Arial Italic" font-size="10.00" fill="#999999">string ∗</text>
<text text-anchor="start" x="7" y="-417.5" font-family="Arial" font-size="10.00">content_type </text>
<text text-anchor="start" x="67" y="-417.5" font-family="Arial Italic" font-size="10.00" fill="#999999">string</text>
<text text-anchor="start" x="7" y="-404.5" font-family="Arial" font-size="10.00">filename </text>
<text text-anchor="start" x="47" y="-404.5" font-family="Arial Italic" font-size="10.00" fill="#999999">string ∗</text>
<text text-anchor="start" x="7" y="-391.5" font-family="Arial" font-size="10.00">key </text>
<text text-anchor="start" x="26" y="-391.5" font-family="Arial Italic" font-size="10.00" fill="#999999">string ∗</text>
<text text-anchor="start" x="7" y="-378.5" font-family="Arial" font-size="10.00">metadata </text>
<text text-anchor="start" x="51" y="-378.5" font-family="Arial Italic" font-size="10.00" fill="#999999">text</text>
</g>
<!-- m_ActiveStorage::Blob&#45;&gt;m_ActiveStorage::Attachment -->
<g id="edge4" class="edge">
<title>m_ActiveStorage::Blob&#45;&gt;m_ActiveStorage::Attachment</title>
<path fill="none" stroke="black" d="M122.43,-368.29C154.59,-334.36 195.61,-291.1 225.02,-260.07"/>
</g>
<!-- m_ActiveStorage::Blob&#45;&gt;m_ActiveStorage::Blob -->
<g id="edge13" class="edge">
<title>m_ActiveStorage::Blob&#45;&gt;m_ActiveStorage::Blob</title>
<path fill="none" stroke="black" stroke-dasharray="1,5" d="M144.18,-443.04C160.79,-441.27 173,-434.42 173,-422.5 173,-410.58 160.79,-403.73 144.18,-401.96"/>
</g>
<!-- m_Axis -->
<g id="node3" class="node">
<title>m_Axis</title>
<path fill="none" stroke="black" d="M722,-513.5C722,-513.5 842,-513.5 842,-513.5 848,-513.5 854,-519.5 854,-525.5 854,-525.5 854,-544.5 854,-544.5 854,-550.5 848,-556.5 842,-556.5 842,-556.5 722,-556.5 722,-556.5 716,-556.5 710,-550.5 710,-544.5 710,-544.5 710,-525.5 710,-525.5 710,-519.5 716,-513.5 722,-513.5"/>
<text text-anchor="start" x="768" y="-543.7" font-family="Arial Bold" font-size="11.00">Axis</text>
<polyline fill="none" stroke="black" points="710,-536.5 854,-536.5 "/>
<text text-anchor="start" x="717" y="-523" font-family="Arial" font-size="10.00">name </text>
<text text-anchor="start" x="745" y="-523" font-family="Arial Italic" font-size="10.00" fill="#999999">string ∗ U</text>
</g>
<!-- m_Subject -->
<g id="node8" class="node">
<title>m_Subject</title>
<path fill="none" stroke="black" d="M549,-388C549,-388 669,-388 669,-388 675,-388 681,-394 681,-400 681,-400 681,-445 681,-445 681,-451 675,-457 669,-457 669,-457 549,-457 549,-457 543,-457 537,-451 537,-445 537,-445 537,-400 537,-400 537,-394 543,-388 549,-388"/>
<text text-anchor="start" x="587" y="-444.2" font-family="Arial Bold" font-size="11.00">Subject</text>
<polyline fill="none" stroke="black" points="537,-437 681,-437 "/>
<text text-anchor="start" x="544" y="-423.5" font-family="Arial" font-size="10.00">axis_id </text>
<text text-anchor="start" x="578" y="-423.5" font-family="Arial Italic" font-size="10.00" fill="#999999">integer (8) FK</text>
<text text-anchor="start" x="544" y="-410.5" font-family="Arial" font-size="10.00">category_id </text>
<text text-anchor="start" x="598" y="-410.5" font-family="Arial Italic" font-size="10.00" fill="#999999">integer (8) FK</text>
<text text-anchor="start" x="544" y="-397.5" font-family="Arial" font-size="10.00">name </text>
<text text-anchor="start" x="572" y="-397.5" font-family="Arial Italic" font-size="10.00" fill="#999999">string ∗ U</text>
</g>
<!-- m_Axis&#45;&gt;m_Subject -->
<g id="edge8" class="edge">
<title>m_Axis&#45;&gt;m_Subject</title>
<path fill="none" stroke="black" d="M749.87,-513.47C727.36,-499.1 696.61,-479.46 669.58,-462.19"/>
<polygon fill="black" stroke="black" points="670.97,-459.35 661.69,-457.16 667.58,-464.66 670.97,-459.35"/>
</g>
<!-- m_Category -->
<g id="node4" class="node">
<title>m_Category</title>
<path fill="none" stroke="black" d="M549,-513.5C549,-513.5 669,-513.5 669,-513.5 675,-513.5 681,-519.5 681,-525.5 681,-525.5 681,-544.5 681,-544.5 681,-550.5 675,-556.5 669,-556.5 669,-556.5 549,-556.5 549,-556.5 543,-556.5 537,-550.5 537,-544.5 537,-544.5 537,-525.5 537,-525.5 537,-519.5 543,-513.5 549,-513.5"/>
<text text-anchor="start" x="582.5" y="-543.7" font-family="Arial Bold" font-size="11.00">Category</text>
<polyline fill="none" stroke="black" points="537,-536.5 681,-536.5 "/>
<text text-anchor="start" x="544" y="-523" font-family="Arial" font-size="10.00">name </text>
<text text-anchor="start" x="572" y="-523" font-family="Arial Italic" font-size="10.00" fill="#999999">string ∗ U</text>
</g>
<!-- m_Category&#45;&gt;m_Subject -->
<g id="edge11" class="edge">
<title>m_Category&#45;&gt;m_Subject</title>
<path fill="none" stroke="black" d="M609,-513.47C609,-500.33 609,-482.77 609,-466.65"/>
<polygon fill="black" stroke="black" points="612.15,-466.37 609,-457.37 605.85,-466.37 612.15,-466.37"/>
</g>
<!-- m_Question -->
<g id="node5" class="node">
<title>m_Question</title>
<path fill="none" stroke="black" d="M492,-106.5C492,-106.5 612,-106.5 612,-106.5 618,-106.5 624,-112.5 624,-118.5 624,-118.5 624,-319.5 624,-319.5 624,-325.5 618,-331.5 612,-331.5 612,-331.5 492,-331.5 492,-331.5 486,-331.5 480,-325.5 480,-319.5 480,-319.5 480,-118.5 480,-118.5 480,-112.5 486,-106.5 492,-106.5"/>
<text text-anchor="start" x="526" y="-318.7" font-family="Arial Bold" font-size="11.00">Question</text>
<polyline fill="none" stroke="black" points="480,-311.5 624,-311.5 "/>
<text text-anchor="start" x="487" y="-298" font-family="Arial" font-size="10.00">alternatives </text>
<text text-anchor="start" x="541" y="-298" font-family="Arial Italic" font-size="10.00" fill="#999999">jsonb ∗</text>
<text text-anchor="start" x="487" y="-285" font-family="Arial" font-size="10.00">authorship_year </text>
<text text-anchor="start" x="560" y="-285" font-family="Arial Italic" font-size="10.00" fill="#999999">string</text>
<text text-anchor="start" x="487" y="-272" font-family="Arial" font-size="10.00">bloom_taxonomy </text>
<text text-anchor="start" x="565" y="-272" font-family="Arial Italic" font-size="10.00" fill="#999999">string</text>
<text text-anchor="start" x="487" y="-259" font-family="Arial" font-size="10.00">body </text>
<text text-anchor="start" x="512" y="-259" font-family="Arial Italic" font-size="10.00" fill="#999999">text</text>
<text text-anchor="start" x="487" y="-246" font-family="Arial" font-size="10.00">check_type </text>
<text text-anchor="start" x="541" y="-246" font-family="Arial Italic" font-size="10.00" fill="#999999">string</text>
<text text-anchor="start" x="487" y="-233" font-family="Arial" font-size="10.00">difficulty </text>
<text text-anchor="start" x="527" y="-233" font-family="Arial Italic" font-size="10.00" fill="#999999">string</text>
<text text-anchor="start" x="487" y="-220" font-family="Arial" font-size="10.00">explanation </text>
<text text-anchor="start" x="540" y="-220" font-family="Arial Italic" font-size="10.00" fill="#999999">text</text>
<text text-anchor="start" x="487" y="-207" font-family="Arial" font-size="10.00">instruction </text>
<text text-anchor="start" x="536" y="-207" font-family="Arial Italic" font-size="10.00" fill="#999999">text</text>
<text text-anchor="start" x="487" y="-194" font-family="Arial" font-size="10.00">intention </text>
<text text-anchor="start" x="527" y="-194" font-family="Arial Italic" font-size="10.00" fill="#999999">text</text>
<text text-anchor="start" x="487" y="-181" font-family="Arial" font-size="10.00">references </text>
<text text-anchor="start" x="536" y="-181" font-family="Arial Italic" font-size="10.00" fill="#999999">text</text>
<text text-anchor="start" x="487" y="-168" font-family="Arial" font-size="10.00">source </text>
<text text-anchor="start" x="520" y="-168" font-family="Arial Italic" font-size="10.00" fill="#999999">string</text>
<text text-anchor="start" x="487" y="-155" font-family="Arial" font-size="10.00">status </text>
<text text-anchor="start" x="518" y="-155" font-family="Arial Italic" font-size="10.00" fill="#999999">string ∗</text>
<text text-anchor="start" x="487" y="-142" font-family="Arial" font-size="10.00">subject_id </text>
<text text-anchor="start" x="535" y="-142" font-family="Arial Italic" font-size="10.00" fill="#999999">integer (8) FK</text>
<text text-anchor="start" x="487" y="-129" font-family="Arial" font-size="10.00">support </text>
<text text-anchor="start" x="523" y="-129" font-family="Arial Italic" font-size="10.00" fill="#999999">text</text>
<text text-anchor="start" x="487" y="-116" font-family="Arial" font-size="10.00">user_id </text>
<text text-anchor="start" x="522" y="-116" font-family="Arial Italic" font-size="10.00" fill="#999999">integer (8) FK</text>
</g>
<!-- m_ReviewRequest -->
<g id="node6" class="node">
<title>m_ReviewRequest</title>
<path fill="none" stroke="black" d="M434,-0.5C434,-0.5 554,-0.5 554,-0.5 560,-0.5 566,-6.5 566,-12.5 566,-12.5 566,-57.5 566,-57.5 566,-63.5 560,-69.5 554,-69.5 554,-69.5 434,-69.5 434,-69.5 428,-69.5 422,-63.5 422,-57.5 422,-57.5 422,-12.5 422,-12.5 422,-6.5 428,-0.5 434,-0.5"/>
<text text-anchor="start" x="451" y="-56.7" font-family="Arial Bold" font-size="11.00">ReviewRequest</text>
<polyline fill="none" stroke="black" points="422,-49.5 566,-49.5 "/>
<text text-anchor="start" x="429" y="-36" font-family="Arial" font-size="10.00">answered </text>
<text text-anchor="start" x="475" y="-36" font-family="Arial Italic" font-size="10.00" fill="#999999">boolean ∗</text>
<text text-anchor="start" x="429" y="-23" font-family="Arial" font-size="10.00">question_id </text>
<text text-anchor="start" x="482" y="-23" font-family="Arial Italic" font-size="10.00" fill="#999999">integer (8) ∗ FK</text>
<text text-anchor="start" x="429" y="-10" font-family="Arial" font-size="10.00">user_id </text>
<text text-anchor="start" x="464" y="-10" font-family="Arial Italic" font-size="10.00" fill="#999999">integer (8) ∗ FK</text>
</g>
<!-- m_Question&#45;&gt;m_ReviewRequest -->
<g id="edge9" class="edge">
<title>m_Question&#45;&gt;m_ReviewRequest</title>
<path fill="none" stroke="black" d="M516.42,-106.37C513.29,-96.54 510.27,-87.05 507.51,-78.39"/>
<polygon fill="black" stroke="black" points="510.47,-77.3 504.73,-69.68 504.47,-79.21 510.47,-77.3"/>
</g>
<!-- m_Role -->
<g id="node7" class="node">
<title>m_Role</title>
<path fill="none" stroke="black" d="M376,-513.5C376,-513.5 496,-513.5 496,-513.5 502,-513.5 508,-519.5 508,-525.5 508,-525.5 508,-544.5 508,-544.5 508,-550.5 502,-556.5 496,-556.5 496,-556.5 376,-556.5 376,-556.5 370,-556.5 364,-550.5 364,-544.5 364,-544.5 364,-525.5 364,-525.5 364,-519.5 370,-513.5 376,-513.5"/>
<text text-anchor="start" x="421.5" y="-543.7" font-family="Arial Bold" font-size="11.00">Role</text>
<polyline fill="none" stroke="black" points="364,-536.5 508,-536.5 "/>
<text text-anchor="start" x="371" y="-523" font-family="Arial" font-size="10.00">name </text>
<text text-anchor="start" x="399" y="-523" font-family="Arial Italic" font-size="10.00" fill="#999999">string ∗ U</text>
</g>
<!-- m_User -->
<g id="node10" class="node">
<title>m_User</title>
<path fill="none" stroke="black" d="M376,-394.5C376,-394.5 496,-394.5 496,-394.5 502,-394.5 508,-400.5 508,-406.5 508,-406.5 508,-438.5 508,-438.5 508,-444.5 502,-450.5 496,-450.5 496,-450.5 376,-450.5 376,-450.5 370,-450.5 364,-444.5 364,-438.5 364,-438.5 364,-406.5 364,-406.5 364,-400.5 370,-394.5 376,-394.5"/>
<text text-anchor="start" x="421.5" y="-437.7" font-family="Arial Bold" font-size="11.00">User</text>
<polyline fill="none" stroke="black" points="364,-430.5 508,-430.5 "/>
<text text-anchor="start" x="371" y="-417.5" font-family="Arial" font-size="10.00">email </text>
<text text-anchor="start" x="398" y="-417.5" font-family="Arial Italic" font-size="10.00" fill="#999999">string ∗ U</text>
<text text-anchor="start" x="371" y="-404.5" font-family="Arial" font-size="10.00">name </text>
<text text-anchor="start" x="399" y="-404.5" font-family="Arial Italic" font-size="10.00" fill="#999999">string ∗</text>
</g>
<!-- m_Role&#45;&gt;m_User -->
<g id="edge1" class="edge">
<title>m_Role&#45;&gt;m_User</title>
<path fill="none" stroke="black" d="M436,-504.17C436,-490.47 436,-474.11 436,-459.72"/>
<polygon fill="black" stroke="black" points="432.85,-504.47 436,-513.47 439.15,-504.47 432.85,-504.47"/>
<polygon fill="black" stroke="black" points="439.15,-459.59 436,-450.59 432.85,-459.59 439.15,-459.59"/>
</g>
<!-- m_Subject&#45;&gt;m_Question -->
<g id="edge10" class="edge">
<title>m_Subject&#45;&gt;m_Question</title>
<path fill="none" stroke="black" d="M599.46,-387.77C595.65,-374.32 591.02,-357.95 586.16,-340.77"/>
<polygon fill="black" stroke="black" points="589.09,-339.53 583.61,-331.73 583.02,-341.24 589.09,-339.53"/>
</g>
<!-- m_Upload -->
<g id="node9" class="node">
<title>m_Upload</title>
<path fill="none" stroke="black" d="M203,-404.5C203,-404.5 323,-404.5 323,-404.5 329,-404.5 335,-410.5 335,-416.5 335,-416.5 335,-428.5 335,-428.5 335,-434.5 329,-440.5 323,-440.5 323,-440.5 203,-440.5 203,-440.5 197,-440.5 191,-434.5 191,-428.5 191,-428.5 191,-416.5 191,-416.5 191,-410.5 197,-404.5 203,-404.5"/>
<text text-anchor="start" x="242" y="-419.7" font-family="Arial Bold" font-size="11.00">Upload</text>
</g>
<!-- m_Upload&#45;&gt;m_ActiveStorage::Attachment -->
<g id="edge5" class="edge">
<title>m_Upload&#45;&gt;m_ActiveStorage::Attachment</title>
<path fill="none" stroke="black" d="M263,-404.32C263,-372.63 263,-304.19 263,-260.21"/>
</g>
<!-- m_User&#45;&gt;m_ActiveStorage::Attachment -->
<g id="edge6" class="edge">
<title>m_User&#45;&gt;m_ActiveStorage::Attachment</title>
<path fill="none" stroke="black" d="M412.67,-394.32C383.06,-359.84 331.75,-300.08 297.59,-260.28"/>
</g>
<!-- m_User&#45;&gt;m_ActiveStorage::Blob -->
<g id="edge7" class="edge">
<title>m_User&#45;&gt;m_ActiveStorage::Blob</title>
<path fill="none" stroke="black" stroke-dasharray="1,5" d="M407.22,-450.54C388.25,-466.99 361.93,-486.21 334.5,-495 273.55,-514.53 252.1,-512.35 190.5,-495 174.71,-490.55 158.95,-483.35 144.32,-475.18"/>
</g>
<!-- m_User&#45;&gt;m_Question -->
<g id="edge2" class="edge">
<title>m_User&#45;&gt;m_Question</title>
<path fill="none" stroke="black" d="M451.64,-394.32C460.14,-379.56 471.31,-360.16 483.1,-339.68"/>
<polygon fill="black" stroke="black" points="485.89,-341.15 487.65,-331.78 480.43,-338.01 485.89,-341.15"/>
</g>
<!-- m_User&#45;&gt;m_ReviewRequest -->
<g id="edge3" class="edge">
<title>m_User&#45;&gt;m_ReviewRequest</title>
<path fill="none" stroke="black" d="M435.77,-394.46C435.9,-339.34 439.21,-210.4 465,-106 467.27,-96.81 470.56,-87.25 474.11,-78.26"/>
<polygon fill="black" stroke="black" points="477.06,-79.36 477.57,-69.84 471.24,-76.96 477.06,-79.36"/>
</g>
</g>
</svg>
