<?xml version="1.0" encoding="UTF-8" standalone="no"?>
<!DOCTYPE svg PUBLIC "-//W3C//DTD SVG 1.1//EN"
 "http://www.w3.org/Graphics/SVG/1.1/DTD/svg11.dtd">
<!-- Generated by graphviz version 2.44.1 (0)
 -->
<!-- Title: ProgressTest Pages: 1 -->
<svg width="930pt" height="758pt"
 viewBox="0.00 0.00 929.60 757.60" xmlns="http://www.w3.org/2000/svg" xmlns:xlink="http://www.w3.org/1999/xlink">
<g id="graph0" class="graph" transform="scale(1 1) rotate(0) translate(28.8 728.8)">
<title>ProgressTest</title>
<polygon fill="white" stroke="transparent" points="-28.8,28.8 -28.8,-728.8 900.8,-728.8 900.8,28.8 -28.8,28.8"/>
<text text-anchor="middle" x="436" y="-685.6" font-family="Arial Bold" font-size="13.00">Progress Test &#45; Models</text>
<!-- m_ActiveStorage::Attachment -->
<g id="node1" class="node">
<title>m_ActiveStorage::Attachment</title>
<path fill="none" stroke="black" d="M199,-78.5C199,-78.5 327,-78.5 327,-78.5 333,-78.5 339,-84.5 339,-90.5 339,-90.5 339,-148.5 339,-148.5 339,-154.5 333,-160.5 327,-160.5 327,-160.5 199,-160.5 199,-160.5 193,-160.5 187,-154.5 187,-148.5 187,-148.5 187,-90.5 187,-90.5 187,-84.5 193,-78.5 199,-78.5"/>
<text text-anchor="start" x="192" y="-147.7" font-family="Arial Bold" font-size="11.00">ActiveStorage::Attachment</text>
<polyline fill="none" stroke="black" points="187,-140.5 339,-140.5 "/>
<text text-anchor="start" x="198" y="-127.5" font-family="Arial" font-size="10.00">blob_id </text>
<text text-anchor="start" x="232" y="-127.5" font-family="Arial Italic" font-size="10.00" fill="#999999">integer (8) ∗ FK</text>
<text text-anchor="start" x="198" y="-114.5" font-family="Arial" font-size="10.00">name </text>
<text text-anchor="start" x="226" y="-114.5" font-family="Arial Italic" font-size="10.00" fill="#999999">string ∗</text>
<text text-anchor="start" x="198" y="-101.5" font-family="Arial" font-size="10.00">record_id </text>
<text text-anchor="start" x="241" y="-101.5" font-family="Arial Italic" font-size="10.00" fill="#999999">integer (8) ∗ FK</text>
<text text-anchor="start" x="198" y="-88.5" font-family="Arial" font-size="10.00">record_type </text>
<text text-anchor="start" x="253" y="-88.5" font-family="Arial Italic" font-size="10.00" fill="#999999">string ∗</text>
</g>
<!-- m_ActiveStorage::Blob -->
<g id="node2" class="node">
<title>m_ActiveStorage::Blob</title>
<path fill="none" stroke="black" d="M12,-275.5C12,-275.5 132,-275.5 132,-275.5 138,-275.5 144,-281.5 144,-287.5 144,-287.5 144,-371.5 144,-371.5 144,-377.5 138,-383.5 132,-383.5 132,-383.5 12,-383.5 12,-383.5 6,-383.5 0,-377.5 0,-371.5 0,-371.5 0,-287.5 0,-287.5 0,-281.5 6,-275.5 12,-275.5"/>
<text text-anchor="start" x="17" y="-370.7" font-family="Arial Bold" font-size="11.00">ActiveStorage::Blob</text>
<polyline fill="none" stroke="black" points="0,-363.5 144,-363.5 "/>
<text text-anchor="start" x="7" y="-350.5" font-family="Arial" font-size="10.00">byte_size </text>
<text text-anchor="start" x="52" y="-350.5" font-family="Arial Italic" font-size="10.00" fill="#999999">integer (8) ∗</text>
<text text-anchor="start" x="7" y="-337.5" font-family="Arial" font-size="10.00">checksum </text>
<text text-anchor="start" x="56" y="-337.5" font-family="Arial Italic" font-size="10.00" fill="#999999">string ∗</text>
<text text-anchor="start" x="7" y="-324.5" font-family="Arial" font-size="10.00">content_type </text>
<text text-anchor="start" x="67" y="-324.5" font-family="Arial Italic" font-size="10.00" fill="#999999">string</text>
<text text-anchor="start" x="7" y="-311.5" font-family="Arial" font-size="10.00">filename </text>
<text text-anchor="start" x="47" y="-311.5" font-family="Arial Italic" font-size="10.00" fill="#999999">string ∗</text>
<text text-anchor="start" x="7" y="-298.5" font-family="Arial" font-size="10.00">key </text>
<text text-anchor="start" x="26" y="-298.5" font-family="Arial Italic" font-size="10.00" fill="#999999">string ∗</text>
<text text-anchor="start" x="7" y="-285.5" font-family="Arial" font-size="10.00">metadata </text>
<text text-anchor="start" x="51" y="-285.5" font-family="Arial Italic" font-size="10.00" fill="#999999">text</text>
</g>
<!-- m_ActiveStorage::Blob&#45;&gt;m_ActiveStorage::Attachment -->
<g id="edge1" class="edge">
<title>m_ActiveStorage::Blob&#45;&gt;m_ActiveStorage::Attachment</title>
<path fill="none" stroke="black" d="M120.69,-275.47C153.52,-239.73 196.15,-193.3 226.16,-160.62"/>
</g>
<!-- m_ActiveStorage::Blob&#45;&gt;m_ActiveStorage::Blob -->
<g id="edge12" class="edge">
<title>m_ActiveStorage::Blob&#45;&gt;m_ActiveStorage::Blob</title>
<path fill="none" stroke="black" stroke-dasharray="1,5" d="M144.18,-351.14C160.79,-349.27 173,-342.06 173,-329.5 173,-316.94 160.79,-309.73 144.18,-307.86"/>
</g>
<!-- m_Axis -->
<g id="node3" class="node">
<title>m_Axis</title>
<path fill="none" stroke="black" d="M559,-420.5C559,-420.5 695,-420.5 695,-420.5 701,-420.5 707,-426.5 707,-432.5 707,-432.5 707,-464.5 707,-464.5 707,-470.5 701,-476.5 695,-476.5 695,-476.5 559,-476.5 559,-476.5 553,-476.5 547,-470.5 547,-464.5 547,-464.5 547,-432.5 547,-432.5 547,-426.5 553,-420.5 559,-420.5"/>
<text text-anchor="start" x="613" y="-463.7" font-family="Arial Bold" font-size="11.00">Axis</text>
<polyline fill="none" stroke="black" points="547,-456.5 707,-456.5 "/>
<text text-anchor="start" x="554" y="-443.5" font-family="Arial" font-size="10.00">name </text>
<text text-anchor="start" x="582" y="-443.5" font-family="Arial Italic" font-size="10.00" fill="#999999">string ∗ U</text>
<text text-anchor="start" x="554" y="-430.5" font-family="Arial" font-size="10.00">sub_category_id </text>
<text text-anchor="start" x="630" y="-430.5" font-family="Arial Italic" font-size="10.00" fill="#999999">integer (8) ∗ FK</text>
</g>
<!-- m_Subject -->
<g id="node9" class="node">
<title>m_Subject</title>
<path fill="none" stroke="black" d="M567,-301.5C567,-301.5 687,-301.5 687,-301.5 693,-301.5 699,-307.5 699,-313.5 699,-313.5 699,-345.5 699,-345.5 699,-351.5 693,-357.5 687,-357.5 687,-357.5 567,-357.5 567,-357.5 561,-357.5 555,-351.5 555,-345.5 555,-345.5 555,-313.5 555,-313.5 555,-307.5 561,-301.5 567,-301.5"/>
<text text-anchor="start" x="605" y="-344.7" font-family="Arial Bold" font-size="11.00">Subject</text>
<polyline fill="none" stroke="black" points="555,-337.5 699,-337.5 "/>
<text text-anchor="start" x="562" y="-324.5" font-family="Arial" font-size="10.00">axis_id </text>
<text text-anchor="start" x="597" y="-324.5" font-family="Arial Italic" font-size="10.00" fill="#999999">integer (8) ∗ FK</text>
<text text-anchor="start" x="562" y="-311.5" font-family="Arial" font-size="10.00">name </text>
<text text-anchor="start" x="590" y="-311.5" font-family="Arial Italic" font-size="10.00" fill="#999999">string ∗ U</text>
</g>
<!-- m_Axis&#45;&gt;m_Subject -->
<g id="edge9" class="edge">
<title>m_Axis&#45;&gt;m_Subject</title>
<path fill="none" stroke="black" d="M627,-420.36C627,-404.53 627,-384.34 627,-367.11"/>
<polygon fill="black" stroke="black" points="630.15,-366.89 627,-357.89 623.85,-366.89 630.15,-366.89"/>
</g>
<!-- m_Category -->
<g id="node4" class="node">
<title>m_Category</title>
<path fill="none" stroke="black" d="M567,-613C567,-613 687,-613 687,-613 693,-613 699,-619 699,-625 699,-625 699,-644 699,-644 699,-650 693,-656 687,-656 687,-656 567,-656 567,-656 561,-656 555,-650 555,-644 555,-644 555,-625 555,-625 555,-619 561,-613 567,-613"/>
<text text-anchor="start" x="600.5" y="-643.2" font-family="Arial Bold" font-size="11.00">Category</text>
<polyline fill="none" stroke="black" points="555,-636 699,-636 "/>
<text text-anchor="start" x="562" y="-622.5" font-family="Arial" font-size="10.00">name </text>
<text text-anchor="start" x="590" y="-622.5" font-family="Arial Italic" font-size="10.00" fill="#999999">string ∗ U</text>
</g>
<!-- m_SubCategory -->
<g id="node8" class="node">
<title>m_SubCategory</title>
<path fill="none" stroke="black" d="M567,-513.5C567,-513.5 687,-513.5 687,-513.5 693,-513.5 699,-519.5 699,-525.5 699,-525.5 699,-557.5 699,-557.5 699,-563.5 693,-569.5 687,-569.5 687,-569.5 567,-569.5 567,-569.5 561,-569.5 555,-563.5 555,-557.5 555,-557.5 555,-525.5 555,-525.5 555,-519.5 561,-513.5 567,-513.5"/>
<text text-anchor="start" x="590" y="-556.7" font-family="Arial Bold" font-size="11.00">SubCategory</text>
<polyline fill="none" stroke="black" points="555,-549.5 699,-549.5 "/>
<text text-anchor="start" x="562" y="-536.5" font-family="Arial" font-size="10.00">category_id </text>
<text text-anchor="start" x="617" y="-536.5" font-family="Arial Italic" font-size="10.00" fill="#999999">integer (8) ∗ FK</text>
<text text-anchor="start" x="562" y="-523.5" font-family="Arial" font-size="10.00">name </text>
<text text-anchor="start" x="590" y="-523.5" font-family="Arial Italic" font-size="10.00" fill="#999999">string ∗ U</text>
</g>
<!-- m_Category&#45;&gt;m_SubCategory -->
<g id="edge7" class="edge">
<title>m_Category&#45;&gt;m_SubCategory</title>
<path fill="none" stroke="black" d="M627,-612.85C627,-602.75 627,-590.3 627,-578.7"/>
<polygon fill="black" stroke="black" points="630.15,-578.63 627,-569.63 623.85,-578.63 630.15,-578.63"/>
</g>
<!-- m_JwtBlacklist -->
<g id="node5" class="node">
<title>m_JwtBlacklist</title>
<path fill="none" stroke="black" d="M740,-606.5C740,-606.5 860,-606.5 860,-606.5 866,-606.5 872,-612.5 872,-618.5 872,-618.5 872,-650.5 872,-650.5 872,-656.5 866,-662.5 860,-662.5 860,-662.5 740,-662.5 740,-662.5 734,-662.5 728,-656.5 728,-650.5 728,-650.5 728,-618.5 728,-618.5 728,-612.5 734,-606.5 740,-606.5"/>
<text text-anchor="start" x="766" y="-649.7" font-family="Arial Bold" font-size="11.00">JwtBlacklist</text>
<polyline fill="none" stroke="black" points="728,-642.5 872,-642.5 "/>
<text text-anchor="start" x="735" y="-629.5" font-family="Arial" font-size="10.00">exp </text>
<text text-anchor="start" x="754" y="-629.5" font-family="Arial Italic" font-size="10.00" fill="#999999">datetime</text>
<text text-anchor="start" x="735" y="-616.5" font-family="Arial" font-size="10.00">jti </text>
<text text-anchor="start" x="746" y="-616.5" font-family="Arial Italic" font-size="10.00" fill="#999999">string</text>
</g>
<!-- m_Objective -->
<g id="node6" class="node">
<title>m_Objective</title>
<path fill="none" stroke="black" d="M476,-0.5C476,-0.5 596,-0.5 596,-0.5 602,-0.5 608,-6.5 608,-12.5 608,-12.5 608,-226.5 608,-226.5 608,-232.5 602,-238.5 596,-238.5 596,-238.5 476,-238.5 476,-238.5 470,-238.5 464,-232.5 464,-226.5 464,-226.5 464,-12.5 464,-12.5 464,-6.5 470,-0.5 476,-0.5"/>
<text text-anchor="start" x="509.5" y="-225.7" font-family="Arial Bold" font-size="11.00">Objective</text>
<polyline fill="none" stroke="black" points="464,-218.5 608,-218.5 "/>
<text text-anchor="start" x="471" y="-205.5" font-family="Arial" font-size="10.00">alternatives </text>
<text text-anchor="start" x="524" y="-205.5" font-family="Arial Italic" font-size="10.00" fill="#999999">jsonb</text>
<text text-anchor="start" x="471" y="-192.5" font-family="Arial" font-size="10.00">authorship_year </text>
<text text-anchor="start" x="544" y="-192.5" font-family="Arial Italic" font-size="10.00" fill="#999999">string</text>
<text text-anchor="start" x="471" y="-179.5" font-family="Arial" font-size="10.00">bloom_taxonomy </text>
<text text-anchor="start" x="549" y="-179.5" font-family="Arial Italic" font-size="10.00" fill="#999999">string</text>
<text text-anchor="start" x="471" y="-166.5" font-family="Arial" font-size="10.00">body </text>
<text text-anchor="start" x="496" y="-166.5" font-family="Arial Italic" font-size="10.00" fill="#999999">text</text>
<text text-anchor="start" x="471" y="-153.5" font-family="Arial" font-size="10.00">check_type </text>
<text text-anchor="start" x="525" y="-153.5" font-family="Arial Italic" font-size="10.00" fill="#999999">string</text>
<text text-anchor="start" x="471" y="-140.5" font-family="Arial" font-size="10.00">difficulty </text>
<text text-anchor="start" x="511" y="-140.5" font-family="Arial Italic" font-size="10.00" fill="#999999">string</text>
<text text-anchor="start" x="471" y="-127.5" font-family="Arial" font-size="10.00">explanation </text>
<text text-anchor="start" x="524" y="-127.5" font-family="Arial Italic" font-size="10.00" fill="#999999">text</text>
<text text-anchor="start" x="471" y="-114.5" font-family="Arial" font-size="10.00">instruction </text>
<text text-anchor="start" x="520" y="-114.5" font-family="Arial Italic" font-size="10.00" fill="#999999">text</text>
<text text-anchor="start" x="471" y="-101.5" font-family="Arial" font-size="10.00">introduction </text>
<text text-anchor="start" x="525" y="-101.5" font-family="Arial Italic" font-size="10.00" fill="#999999">string</text>
<text text-anchor="start" x="471" y="-88.5" font-family="Arial" font-size="10.00">own </text>
<text text-anchor="start" x="493" y="-88.5" font-family="Arial Italic" font-size="10.00" fill="#999999">boolean</text>
<text text-anchor="start" x="471" y="-75.5" font-family="Arial" font-size="10.00">references </text>
<text text-anchor="start" x="520" y="-75.5" font-family="Arial Italic" font-size="10.00" fill="#999999">text</text>
<text text-anchor="start" x="471" y="-62.5" font-family="Arial" font-size="10.00">source </text>
<text text-anchor="start" x="504" y="-62.5" font-family="Arial Italic" font-size="10.00" fill="#999999">string</text>
<text text-anchor="start" x="471" y="-49.5" font-family="Arial" font-size="10.00">status </text>
<text text-anchor="start" x="502" y="-49.5" font-family="Arial Italic" font-size="10.00" fill="#999999">string ∗</text>
<text text-anchor="start" x="471" y="-36.5" font-family="Arial" font-size="10.00">subject_id </text>
<text text-anchor="start" x="519" y="-36.5" font-family="Arial Italic" font-size="10.00" fill="#999999">integer (8) FK</text>
<text text-anchor="start" x="471" y="-23.5" font-family="Arial" font-size="10.00">support </text>
<text text-anchor="start" x="508" y="-23.5" font-family="Arial Italic" font-size="10.00" fill="#999999">text</text>
<text text-anchor="start" x="471" y="-10.5" font-family="Arial" font-size="10.00">user_id </text>
<text text-anchor="start" x="506" y="-10.5" font-family="Arial Italic" font-size="10.00" fill="#999999">integer (8) FK</text>
</g>
<!-- m_Role -->
<g id="node7" class="node">
<title>m_Role</title>
<path fill="none" stroke="black" d="M385,-427C385,-427 505,-427 505,-427 511,-427 517,-433 517,-439 517,-439 517,-458 517,-458 517,-464 511,-470 505,-470 505,-470 385,-470 385,-470 379,-470 373,-464 373,-458 373,-458 373,-439 373,-439 373,-433 379,-427 385,-427"/>
<text text-anchor="start" x="430.5" y="-457.2" font-family="Arial Bold" font-size="11.00">Role</text>
<polyline fill="none" stroke="black" points="373,-450 517,-450 "/>
<text text-anchor="start" x="380" y="-436.5" font-family="Arial" font-size="10.00">name </text>
<text text-anchor="start" x="408" y="-436.5" font-family="Arial Italic" font-size="10.00" fill="#999999">string ∗ U</text>
</g>
<!-- m_User -->
<g id="node11" class="node">
<title>m_User</title>
<path fill="none" stroke="black" d="M376.5,-275.5C376.5,-275.5 513.5,-275.5 513.5,-275.5 519.5,-275.5 525.5,-281.5 525.5,-287.5 525.5,-287.5 525.5,-371.5 525.5,-371.5 525.5,-377.5 519.5,-383.5 513.5,-383.5 513.5,-383.5 376.5,-383.5 376.5,-383.5 370.5,-383.5 364.5,-377.5 364.5,-371.5 364.5,-371.5 364.5,-287.5 364.5,-287.5 364.5,-281.5 370.5,-275.5 376.5,-275.5"/>
<text text-anchor="start" x="430.5" y="-370.7" font-family="Arial Bold" font-size="11.00">User</text>
<polyline fill="none" stroke="black" points="364.5,-363.5 525.5,-363.5 "/>
<text text-anchor="start" x="372" y="-350.5" font-family="Arial" font-size="10.00">email </text>
<text text-anchor="start" x="399" y="-350.5" font-family="Arial Italic" font-size="10.00" fill="#999999">string ∗ U</text>
<text text-anchor="start" x="372" y="-337.5" font-family="Arial" font-size="10.00">encrypted_password </text>
<text text-anchor="start" x="466" y="-337.5" font-family="Arial Italic" font-size="10.00" fill="#999999">string ∗</text>
<text text-anchor="start" x="372" y="-324.5" font-family="Arial" font-size="10.00">name </text>
<text text-anchor="start" x="400" y="-324.5" font-family="Arial Italic" font-size="10.00" fill="#999999">string</text>
<text text-anchor="start" x="372" y="-311.5" font-family="Arial" font-size="10.00">remember_created_at </text>
<text text-anchor="start" x="470" y="-311.5" font-family="Arial Italic" font-size="10.00" fill="#999999">datetime</text>
<text text-anchor="start" x="372" y="-298.5" font-family="Arial" font-size="10.00">reset_password_sent_at </text>
<text text-anchor="start" x="481" y="-298.5" font-family="Arial Italic" font-size="10.00" fill="#999999">datetime</text>
<text text-anchor="start" x="372" y="-285.5" font-family="Arial" font-size="10.00">reset_password_token </text>
<text text-anchor="start" x="472" y="-285.5" font-family="Arial Italic" font-size="10.00" fill="#999999">string</text>
</g>
<!-- m_Role&#45;&gt;m_User -->
<g id="edge6" class="edge">
<title>m_Role&#45;&gt;m_User</title>
<path fill="none" stroke="black" d="M445,-417.8C445,-410.07 445,-401.45 445,-392.71"/>
<polygon fill="black" stroke="black" points="441.85,-417.85 445,-426.85 448.15,-417.85 441.85,-417.85"/>
<polygon fill="black" stroke="black" points="448.15,-392.6 445,-383.6 441.85,-392.6 448.15,-392.6"/>
</g>
<!-- m_SubCategory&#45;&gt;m_Axis -->
<g id="edge8" class="edge">
<title>m_SubCategory&#45;&gt;m_Axis</title>
<path fill="none" stroke="black" d="M627,-513.2C627,-504.65 627,-495.07 627,-486"/>
<polygon fill="black" stroke="black" points="630.15,-485.78 627,-476.78 623.85,-485.78 630.15,-485.78"/>
</g>
<!-- m_Subject&#45;&gt;m_Objective -->
<g id="edge10" class="edge">
<title>m_Subject&#45;&gt;m_Objective</title>
<path fill="none" stroke="black" d="M615.1,-301.31C608.71,-286.69 600.32,-267.51 591.39,-247.1"/>
<polygon fill="black" stroke="black" points="594.16,-245.59 587.67,-238.61 588.39,-248.11 594.16,-245.59"/>
</g>
<!-- m_Upload -->
<g id="node10" class="node">
<title>m_Upload</title>
<path fill="none" stroke="black" d="M203,-308C203,-308 323,-308 323,-308 329,-308 335,-314 335,-320 335,-320 335,-339 335,-339 335,-345 329,-351 323,-351 323,-351 203,-351 203,-351 197,-351 191,-345 191,-339 191,-339 191,-320 191,-320 191,-314 197,-308 203,-308"/>
<text text-anchor="start" x="242" y="-338.2" font-family="Arial Bold" font-size="11.00">Upload</text>
<polyline fill="none" stroke="black" points="191,-331 335,-331 "/>
<text text-anchor="start" x="198" y="-317.5" font-family="Arial" font-size="10.00">filename </text>
<text text-anchor="start" x="238" y="-317.5" font-family="Arial Italic" font-size="10.00" fill="#999999">string</text>
</g>
<!-- m_Upload&#45;&gt;m_ActiveStorage::Attachment -->
<g id="edge2" class="edge">
<title>m_Upload&#45;&gt;m_ActiveStorage::Attachment</title>
<path fill="none" stroke="black" d="M263,-307.8C263,-273.58 263,-204.64 263,-160.62"/>
</g>
<!-- m_User&#45;&gt;m_ActiveStorage::Attachment -->
<g id="edge3" class="edge">
<title>m_User&#45;&gt;m_ActiveStorage::Attachment</title>
<path fill="none" stroke="black" d="M398.6,-275.47C367.32,-239.73 326.7,-193.3 298.11,-160.62"/>
</g>
<!-- m_User&#45;&gt;m_ActiveStorage::Blob -->
<g id="edge4" class="edge">
<title>m_User&#45;&gt;m_ActiveStorage::Blob</title>
<path fill="none" stroke="black" stroke-dasharray="1,5" d="M375.51,-383.58C362.51,-391.16 348.57,-397.8 334.5,-402 273.18,-420.32 252.1,-419.35 190.5,-402 174.71,-397.55 158.95,-390.35 144.32,-382.18"/>
</g>
<!-- m_User&#45;&gt;m_Objective -->
<g id="edge5" class="edge">
<title>m_User&#45;&gt;m_Objective</title>
<path fill="none" stroke="black" d="M468.2,-275.47C472.11,-266.54 476.31,-256.94 480.63,-247.06"/>
<polygon fill="black" stroke="black" points="483.57,-248.2 484.29,-238.69 477.8,-245.68 483.57,-248.2"/>
</g>
</g>
</svg>
