<?xml version="1.0" encoding="UTF-8" standalone="no"?>
<!DOCTYPE svg PUBLIC "-//W3C//DTD SVG 1.1//EN"
 "http://www.w3.org/Graphics/SVG/1.1/DTD/svg11.dtd">
<!-- Generated by graphviz version 2.44.1 (0)
 -->
<!-- Title: ProgressTest Pages: 1 -->
<svg width="748pt" height="533pt"
 viewBox="0.00 0.00 747.60 532.60" xmlns="http://www.w3.org/2000/svg" xmlns:xlink="http://www.w3.org/1999/xlink">
<g id="graph0" class="graph" transform="scale(1 1) rotate(0) translate(28.8 503.8)">
<title>ProgressTest</title>
<polygon fill="white" stroke="transparent" points="-28.8,28.8 -28.8,-503.8 718.8,-503.8 718.8,28.8 -28.8,28.8"/>
<text text-anchor="middle" x="345" y="-460.6" font-family="Arial Bold" font-size="13.00">Progress Test &#45; Models</text>
<!-- m_ActiveStorage::Attachment -->
<g id="node1" class="node">
<title>m_ActiveStorage::Attachment</title>
<path fill="none" stroke="black" d="M199,-59C199,-59 327,-59 327,-59 333,-59 339,-65 339,-71 339,-71 339,-129 339,-129 339,-135 333,-141 327,-141 327,-141 199,-141 199,-141 193,-141 187,-135 187,-129 187,-129 187,-71 187,-71 187,-65 193,-59 199,-59"/>
<text text-anchor="start" x="192" y="-128.2" font-family="Arial Bold" font-size="11.00">ActiveStorage::Attachment</text>
<polyline fill="none" stroke="black" points="187,-121 339,-121 "/>
<text text-anchor="start" x="198" y="-108" font-family="Arial" font-size="10.00">blob_id </text>
<text text-anchor="start" x="232" y="-108" font-family="Arial Italic" font-size="10.00" fill="#999999">integer (8) ∗ FK</text>
<text text-anchor="start" x="198" y="-95" font-family="Arial" font-size="10.00">name </text>
<text text-anchor="start" x="226" y="-95" font-family="Arial Italic" font-size="10.00" fill="#999999">string ∗</text>
<text text-anchor="start" x="198" y="-82" font-family="Arial" font-size="10.00">record_id </text>
<text text-anchor="start" x="241" y="-82" font-family="Arial Italic" font-size="10.00" fill="#999999">integer (8) ∗ FK</text>
<text text-anchor="start" x="198" y="-69" font-family="Arial" font-size="10.00">record_type </text>
<text text-anchor="start" x="253" y="-69" font-family="Arial Italic" font-size="10.00" fill="#999999">string ∗</text>
</g>
<!-- m_ActiveStorage::Blob -->
<g id="node2" class="node">
<title>m_ActiveStorage::Blob</title>
<path fill="none" stroke="black" d="M12,-236.5C12,-236.5 132,-236.5 132,-236.5 138,-236.5 144,-242.5 144,-248.5 144,-248.5 144,-332.5 144,-332.5 144,-338.5 138,-344.5 132,-344.5 132,-344.5 12,-344.5 12,-344.5 6,-344.5 0,-338.5 0,-332.5 0,-332.5 0,-248.5 0,-248.5 0,-242.5 6,-236.5 12,-236.5"/>
<text text-anchor="start" x="17" y="-331.7" font-family="Arial Bold" font-size="11.00">ActiveStorage::Blob</text>
<polyline fill="none" stroke="black" points="0,-324.5 144,-324.5 "/>
<text text-anchor="start" x="7" y="-311.5" font-family="Arial" font-size="10.00">byte_size </text>
<text text-anchor="start" x="52" y="-311.5" font-family="Arial Italic" font-size="10.00" fill="#999999">integer (8) ∗</text>
<text text-anchor="start" x="7" y="-298.5" font-family="Arial" font-size="10.00">checksum </text>
<text text-anchor="start" x="56" y="-298.5" font-family="Arial Italic" font-size="10.00" fill="#999999">string ∗</text>
<text text-anchor="start" x="7" y="-285.5" font-family="Arial" font-size="10.00">content_type </text>
<text text-anchor="start" x="67" y="-285.5" font-family="Arial Italic" font-size="10.00" fill="#999999">string</text>
<text text-anchor="start" x="7" y="-272.5" font-family="Arial" font-size="10.00">filename </text>
<text text-anchor="start" x="47" y="-272.5" font-family="Arial Italic" font-size="10.00" fill="#999999">string ∗</text>
<text text-anchor="start" x="7" y="-259.5" font-family="Arial" font-size="10.00">key </text>
<text text-anchor="start" x="26" y="-259.5" font-family="Arial Italic" font-size="10.00" fill="#999999">string ∗</text>
<text text-anchor="start" x="7" y="-246.5" font-family="Arial" font-size="10.00">metadata </text>
<text text-anchor="start" x="51" y="-246.5" font-family="Arial Italic" font-size="10.00" fill="#999999">text</text>
</g>
<!-- m_ActiveStorage::Blob&#45;&gt;m_ActiveStorage::Attachment -->
<g id="edge1" class="edge">
<title>m_ActiveStorage::Blob&#45;&gt;m_ActiveStorage::Attachment</title>
<path fill="none" stroke="black" d="M125.71,-236.49C156.39,-206.22 194.22,-168.88 222.4,-141.06"/>
</g>
<!-- m_ActiveStorage::Blob&#45;&gt;m_ActiveStorage::Blob -->
<g id="edge8" class="edge">
<title>m_ActiveStorage::Blob&#45;&gt;m_ActiveStorage::Blob</title>
<path fill="none" stroke="black" stroke-dasharray="1,5" d="M144.18,-312.14C160.79,-310.27 173,-303.06 173,-290.5 173,-277.94 160.79,-270.73 144.18,-268.86"/>
</g>
<!-- m_JwtBlacklist -->
<g id="node3" class="node">
<title>m_JwtBlacklist</title>
<path fill="none" stroke="black" d="M558,-381.5C558,-381.5 678,-381.5 678,-381.5 684,-381.5 690,-387.5 690,-393.5 690,-393.5 690,-425.5 690,-425.5 690,-431.5 684,-437.5 678,-437.5 678,-437.5 558,-437.5 558,-437.5 552,-437.5 546,-431.5 546,-425.5 546,-425.5 546,-393.5 546,-393.5 546,-387.5 552,-381.5 558,-381.5"/>
<text text-anchor="start" x="584" y="-424.7" font-family="Arial Bold" font-size="11.00">JwtBlacklist</text>
<polyline fill="none" stroke="black" points="546,-417.5 690,-417.5 "/>
<text text-anchor="start" x="553" y="-404.5" font-family="Arial" font-size="10.00">exp </text>
<text text-anchor="start" x="572" y="-404.5" font-family="Arial Italic" font-size="10.00" fill="#999999">datetime</text>
<text text-anchor="start" x="553" y="-391.5" font-family="Arial" font-size="10.00">jti </text>
<text text-anchor="start" x="564" y="-391.5" font-family="Arial Italic" font-size="10.00" fill="#999999">string</text>
</g>
<!-- m_Objective -->
<g id="node4" class="node">
<title>m_Objective</title>
<path fill="none" stroke="black" d="M385,-0.5C385,-0.5 505,-0.5 505,-0.5 511,-0.5 517,-6.5 517,-12.5 517,-12.5 517,-187.5 517,-187.5 517,-193.5 511,-199.5 505,-199.5 505,-199.5 385,-199.5 385,-199.5 379,-199.5 373,-193.5 373,-187.5 373,-187.5 373,-12.5 373,-12.5 373,-6.5 379,-0.5 385,-0.5"/>
<text text-anchor="start" x="418.5" y="-186.7" font-family="Arial Bold" font-size="11.00">Objective</text>
<polyline fill="none" stroke="black" points="373,-179.5 517,-179.5 "/>
<text text-anchor="start" x="380" y="-166" font-family="Arial" font-size="10.00">alternatives </text>
<text text-anchor="start" x="433" y="-166" font-family="Arial Italic" font-size="10.00" fill="#999999">jsonb</text>
<text text-anchor="start" x="380" y="-153" font-family="Arial" font-size="10.00">authorship_year </text>
<text text-anchor="start" x="453" y="-153" font-family="Arial Italic" font-size="10.00" fill="#999999">string</text>
<text text-anchor="start" x="380" y="-140" font-family="Arial" font-size="10.00">bloom_taxonomy </text>
<text text-anchor="start" x="458" y="-140" font-family="Arial Italic" font-size="10.00" fill="#999999">string</text>
<text text-anchor="start" x="380" y="-127" font-family="Arial" font-size="10.00">body </text>
<text text-anchor="start" x="405" y="-127" font-family="Arial Italic" font-size="10.00" fill="#999999">text</text>
<text text-anchor="start" x="380" y="-114" font-family="Arial" font-size="10.00">check_type </text>
<text text-anchor="start" x="434" y="-114" font-family="Arial Italic" font-size="10.00" fill="#999999">string</text>
<text text-anchor="start" x="380" y="-101" font-family="Arial" font-size="10.00">difficulty </text>
<text text-anchor="start" x="420" y="-101" font-family="Arial Italic" font-size="10.00" fill="#999999">string</text>
<text text-anchor="start" x="380" y="-88" font-family="Arial" font-size="10.00">explanation </text>
<text text-anchor="start" x="433" y="-88" font-family="Arial Italic" font-size="10.00" fill="#999999">text</text>
<text text-anchor="start" x="380" y="-75" font-family="Arial" font-size="10.00">introduction </text>
<text text-anchor="start" x="434" y="-75" font-family="Arial Italic" font-size="10.00" fill="#999999">string</text>
<text text-anchor="start" x="380" y="-62" font-family="Arial" font-size="10.00">own </text>
<text text-anchor="start" x="402" y="-62" font-family="Arial Italic" font-size="10.00" fill="#999999">boolean</text>
<text text-anchor="start" x="380" y="-49" font-family="Arial" font-size="10.00">references </text>
<text text-anchor="start" x="429" y="-49" font-family="Arial Italic" font-size="10.00" fill="#999999">text</text>
<text text-anchor="start" x="380" y="-36" font-family="Arial" font-size="10.00">source </text>
<text text-anchor="start" x="413" y="-36" font-family="Arial Italic" font-size="10.00" fill="#999999">string</text>
<text text-anchor="start" x="380" y="-23" font-family="Arial" font-size="10.00">status </text>
<text text-anchor="start" x="411" y="-23" font-family="Arial Italic" font-size="10.00" fill="#999999">string ∗</text>
<text text-anchor="start" x="380" y="-10" font-family="Arial" font-size="10.00">user_id </text>
<text text-anchor="start" x="415" y="-10" font-family="Arial Italic" font-size="10.00" fill="#999999">integer (8) FK</text>
</g>
<!-- m_Role -->
<g id="node5" class="node">
<title>m_Role</title>
<path fill="none" stroke="black" d="M385,-388C385,-388 505,-388 505,-388 511,-388 517,-394 517,-400 517,-400 517,-419 517,-419 517,-425 511,-431 505,-431 505,-431 385,-431 385,-431 379,-431 373,-425 373,-419 373,-419 373,-400 373,-400 373,-394 379,-388 385,-388"/>
<text text-anchor="start" x="430.5" y="-418.2" font-family="Arial Bold" font-size="11.00">Role</text>
<polyline fill="none" stroke="black" points="373,-411 517,-411 "/>
<text text-anchor="start" x="380" y="-397.5" font-family="Arial" font-size="10.00">name </text>
<text text-anchor="start" x="408" y="-397.5" font-family="Arial Italic" font-size="10.00" fill="#999999">string ∗ U</text>
</g>
<!-- m_User -->
<g id="node7" class="node">
<title>m_User</title>
<path fill="none" stroke="black" d="M376.5,-236.5C376.5,-236.5 513.5,-236.5 513.5,-236.5 519.5,-236.5 525.5,-242.5 525.5,-248.5 525.5,-248.5 525.5,-332.5 525.5,-332.5 525.5,-338.5 519.5,-344.5 513.5,-344.5 513.5,-344.5 376.5,-344.5 376.5,-344.5 370.5,-344.5 364.5,-338.5 364.5,-332.5 364.5,-332.5 364.5,-248.5 364.5,-248.5 364.5,-242.5 370.5,-236.5 376.5,-236.5"/>
<text text-anchor="start" x="430.5" y="-331.7" font-family="Arial Bold" font-size="11.00">User</text>
<polyline fill="none" stroke="black" points="364.5,-324.5 525.5,-324.5 "/>
<text text-anchor="start" x="372" y="-311.5" font-family="Arial" font-size="10.00">email </text>
<text text-anchor="start" x="399" y="-311.5" font-family="Arial Italic" font-size="10.00" fill="#999999">string ∗ U</text>
<text text-anchor="start" x="372" y="-298.5" font-family="Arial" font-size="10.00">encrypted_password </text>
<text text-anchor="start" x="466" y="-298.5" font-family="Arial Italic" font-size="10.00" fill="#999999">string ∗</text>
<text text-anchor="start" x="372" y="-285.5" font-family="Arial" font-size="10.00">name </text>
<text text-anchor="start" x="400" y="-285.5" font-family="Arial Italic" font-size="10.00" fill="#999999">string</text>
<text text-anchor="start" x="372" y="-272.5" font-family="Arial" font-size="10.00">remember_created_at </text>
<text text-anchor="start" x="470" y="-272.5" font-family="Arial Italic" font-size="10.00" fill="#999999">datetime</text>
<text text-anchor="start" x="372" y="-259.5" font-family="Arial" font-size="10.00">reset_password_sent_at </text>
<text text-anchor="start" x="481" y="-259.5" font-family="Arial Italic" font-size="10.00" fill="#999999">datetime</text>
<text text-anchor="start" x="372" y="-246.5" font-family="Arial" font-size="10.00">reset_password_token </text>
<text text-anchor="start" x="472" y="-246.5" font-family="Arial Italic" font-size="10.00" fill="#999999">string</text>
</g>
<!-- m_Role&#45;&gt;m_User -->
<g id="edge6" class="edge">
<title>m_Role&#45;&gt;m_User</title>
<path fill="none" stroke="black" d="M445,-378.8C445,-371.07 445,-362.45 445,-353.71"/>
<polygon fill="black" stroke="black" points="441.85,-378.85 445,-387.85 448.15,-378.85 441.85,-378.85"/>
<polygon fill="black" stroke="black" points="448.15,-353.6 445,-344.6 441.85,-353.6 448.15,-353.6"/>
</g>
<!-- m_Upload -->
<g id="node6" class="node">
<title>m_Upload</title>
<path fill="none" stroke="black" d="M203,-269C203,-269 323,-269 323,-269 329,-269 335,-275 335,-281 335,-281 335,-300 335,-300 335,-306 329,-312 323,-312 323,-312 203,-312 203,-312 197,-312 191,-306 191,-300 191,-300 191,-281 191,-281 191,-275 197,-269 203,-269"/>
<text text-anchor="start" x="242" y="-299.2" font-family="Arial Bold" font-size="11.00">Upload</text>
<polyline fill="none" stroke="black" points="191,-292 335,-292 "/>
<text text-anchor="start" x="198" y="-278.5" font-family="Arial" font-size="10.00">filename </text>
<text text-anchor="start" x="238" y="-278.5" font-family="Arial Italic" font-size="10.00" fill="#999999">string</text>
</g>
<!-- m_Upload&#45;&gt;m_ActiveStorage::Attachment -->
<g id="edge2" class="edge">
<title>m_Upload&#45;&gt;m_ActiveStorage::Attachment</title>
<path fill="none" stroke="black" d="M263,-268.97C263,-238.43 263,-180.45 263,-141.26"/>
</g>
<!-- m_User&#45;&gt;m_ActiveStorage::Attachment -->
<g id="edge3" class="edge">
<title>m_User&#45;&gt;m_ActiveStorage::Attachment</title>
<path fill="none" stroke="black" d="M393.82,-236.49C364.59,-206.22 328.53,-168.88 301.68,-141.06"/>
</g>
<!-- m_User&#45;&gt;m_ActiveStorage::Blob -->
<g id="edge4" class="edge">
<title>m_User&#45;&gt;m_ActiveStorage::Blob</title>
<path fill="none" stroke="black" stroke-dasharray="1,5" d="M376.19,-344.57C363.3,-352.16 349.47,-358.79 335.5,-363 273.79,-381.58 252.53,-380.47 190.5,-363 174.71,-358.55 158.95,-351.35 144.32,-343.18"/>
</g>
<!-- m_User&#45;&gt;m_Objective -->
<g id="edge5" class="edge">
<title>m_User&#45;&gt;m_Objective</title>
<path fill="none" stroke="black" d="M445,-236.49C445,-227.74 445,-218.41 445,-208.88"/>
<polygon fill="black" stroke="black" points="448.15,-208.7 445,-199.7 441.85,-208.7 448.15,-208.7"/>
</g>
</g>
</svg>
