<?xml version="1.0" encoding="UTF-8" standalone="no"?>
<!DOCTYPE svg PUBLIC "-//W3C//DTD SVG 1.1//EN"
 "http://www.w3.org/Graphics/SVG/1.1/DTD/svg11.dtd">
<!-- Generated by graphviz version 2.44.0 ()
 -->
<!-- Title: ProgressTest Pages: 1 -->
<svg width="1336pt" height="771pt"
 viewBox="0.00 0.00 1335.60 770.60" xmlns="http://www.w3.org/2000/svg" xmlns:xlink="http://www.w3.org/1999/xlink">
<g id="graph0" class="graph" transform="scale(1 1) rotate(0) translate(28.8 741.8)">
<title>ProgressTest</title>
<polygon fill="white" stroke="transparent" points="-28.8,28.8 -28.8,-741.8 1306.8,-741.8 1306.8,28.8 -28.8,28.8"/>
<text text-anchor="middle" x="639" y="-698.6" font-family="Arial Bold" font-size="13.00">Progress Test &#45; Models</text>
<!-- m_ActiveStorage::Attachment -->
<g id="node1" class="node">
<title>m_ActiveStorage::Attachment</title>
<path fill="none" stroke="black" d="M213.5,-277.5C213.5,-277.5 400.5,-277.5 400.5,-277.5 406.5,-277.5 412.5,-283.5 412.5,-289.5 412.5,-289.5 412.5,-347.5 412.5,-347.5 412.5,-353.5 406.5,-359.5 400.5,-359.5 400.5,-359.5 213.5,-359.5 213.5,-359.5 207.5,-359.5 201.5,-353.5 201.5,-347.5 201.5,-347.5 201.5,-289.5 201.5,-289.5 201.5,-283.5 207.5,-277.5 213.5,-277.5"/>
<text text-anchor="start" x="213" y="-346.7" font-family="Arial Bold" font-size="11.00">ActiveStorage::Attachment</text>
<polyline fill="none" stroke="black" points="201.5,-339.5 412.5,-339.5 "/>
<text text-anchor="start" x="209" y="-326.5" font-family="Arial" font-size="10.00">blob_id </text>
<text text-anchor="start" x="270" y="-326.5" font-family="Arial Italic" font-size="10.00" fill="#999999">integer (8) ∗ FK</text>
<text text-anchor="start" x="209" y="-313.5" font-family="Arial" font-size="10.00">name </text>
<text text-anchor="start" x="247" y="-313.5" font-family="Arial Italic" font-size="10.00" fill="#999999">string ∗</text>
<text text-anchor="start" x="209" y="-300.5" font-family="Arial" font-size="10.00">record_id </text>
<text text-anchor="start" x="285" y="-300.5" font-family="Arial Italic" font-size="10.00" fill="#999999">integer (8) ∗ FK</text>
<text text-anchor="start" x="209" y="-287.5" font-family="Arial" font-size="10.00">record_type </text>
<text text-anchor="start" x="300" y="-287.5" font-family="Arial Italic" font-size="10.00" fill="#999999">string ∗</text>
</g>
<!-- m_ActiveStorage::Blob -->
<g id="node2" class="node">
<title>m_ActiveStorage::Blob</title>
<path fill="none" stroke="black" d="M12,-474.5C12,-474.5 176,-474.5 176,-474.5 182,-474.5 188,-480.5 188,-486.5 188,-486.5 188,-570.5 188,-570.5 188,-576.5 182,-582.5 176,-582.5 176,-582.5 12,-582.5 12,-582.5 6,-582.5 0,-576.5 0,-570.5 0,-570.5 0,-486.5 0,-486.5 0,-480.5 6,-474.5 12,-474.5"/>
<text text-anchor="start" x="23" y="-569.7" font-family="Arial Bold" font-size="11.00">ActiveStorage::Blob</text>
<polyline fill="none" stroke="black" points="0,-562.5 188,-562.5 "/>
<text text-anchor="start" x="7" y="-549.5" font-family="Arial" font-size="10.00">byte_size </text>
<text text-anchor="start" x="83" y="-549.5" font-family="Arial Italic" font-size="10.00" fill="#999999">integer (8) ∗</text>
<text text-anchor="start" x="7" y="-536.5" font-family="Arial" font-size="10.00">checksum </text>
<text text-anchor="start" x="75" y="-536.5" font-family="Arial Italic" font-size="10.00" fill="#999999">string ∗</text>
<text text-anchor="start" x="7" y="-523.5" font-family="Arial" font-size="10.00">content_type </text>
<text text-anchor="start" x="105" y="-523.5" font-family="Arial Italic" font-size="10.00" fill="#999999">string</text>
<text text-anchor="start" x="7" y="-510.5" font-family="Arial" font-size="10.00">filename </text>
<text text-anchor="start" x="75" y="-510.5" font-family="Arial Italic" font-size="10.00" fill="#999999">string ∗</text>
<text text-anchor="start" x="7" y="-497.5" font-family="Arial" font-size="10.00">key </text>
<text text-anchor="start" x="38" y="-497.5" font-family="Arial Italic" font-size="10.00" fill="#999999">string ∗</text>
<text text-anchor="start" x="7" y="-484.5" font-family="Arial" font-size="10.00">metadata </text>
<text text-anchor="start" x="75" y="-484.5" font-family="Arial Italic" font-size="10.00" fill="#999999">text</text>
</g>
<!-- m_ActiveStorage::Blob&#45;&gt;m_ActiveStorage::Attachment -->
<g id="edge4" class="edge">
<title>m_ActiveStorage::Blob&#45;&gt;m_ActiveStorage::Attachment</title>
<path fill="none" stroke="black" d="M148.3,-474.47C184.91,-438.73 232.45,-392.3 265.91,-359.62"/>
</g>
<!-- m_ActiveStorage::Blob&#45;&gt;m_ActiveStorage::Blob -->
<g id="edge15" class="edge">
<title>m_ActiveStorage::Blob&#45;&gt;m_ActiveStorage::Blob</title>
<path fill="none" stroke="black" stroke-dasharray="1,5" d="M188.11,-549.37C205.11,-546.69 217,-539.74 217,-528.5 217,-517.26 205.11,-510.31 188.11,-507.63"/>
</g>
<!-- m_Axis -->
<g id="node3" class="node">
<title>m_Axis</title>
<path fill="none" stroke="black" d="M973,-626C973,-626 1093,-626 1093,-626 1099,-626 1105,-632 1105,-638 1105,-638 1105,-657 1105,-657 1105,-663 1099,-669 1093,-669 1093,-669 973,-669 973,-669 967,-669 961,-663 961,-657 961,-657 961,-638 961,-638 961,-632 967,-626 973,-626"/>
<text text-anchor="start" x="1015.5" y="-656.2" font-family="Arial Bold" font-size="11.00">Axis</text>
<polyline fill="none" stroke="black" points="961,-649 1105,-649 "/>
<text text-anchor="start" x="968" y="-635.5" font-family="Arial" font-size="10.00">name </text>
<text text-anchor="start" x="1006" y="-635.5" font-family="Arial Italic" font-size="10.00" fill="#999999">string ∗ U</text>
</g>
<!-- m_Subject -->
<g id="node11" class="node">
<title>m_Subject</title>
<path fill="none" stroke="black" d="M733.5,-487.5C733.5,-487.5 950.5,-487.5 950.5,-487.5 956.5,-487.5 962.5,-493.5 962.5,-499.5 962.5,-499.5 962.5,-557.5 962.5,-557.5 962.5,-563.5 956.5,-569.5 950.5,-569.5 950.5,-569.5 733.5,-569.5 733.5,-569.5 727.5,-569.5 721.5,-563.5 721.5,-557.5 721.5,-557.5 721.5,-499.5 721.5,-499.5 721.5,-493.5 727.5,-487.5 733.5,-487.5"/>
<text text-anchor="start" x="813.5" y="-556.7" font-family="Arial Bold" font-size="11.00">Subject</text>
<polyline fill="none" stroke="black" points="721.5,-549.5 962.5,-549.5 "/>
<text text-anchor="start" x="729" y="-536.5" font-family="Arial" font-size="10.00">axis_id </text>
<text text-anchor="start" x="790" y="-536.5" font-family="Arial Italic" font-size="10.00" fill="#999999">integer (8) ∗ FK</text>
<text text-anchor="start" x="729" y="-523.5" font-family="Arial" font-size="10.00">category_id </text>
<text text-anchor="start" x="820" y="-523.5" font-family="Arial Italic" font-size="10.00" fill="#999999">integer (8) ∗ FK</text>
<text text-anchor="start" x="729" y="-510.5" font-family="Arial" font-size="10.00">name </text>
<text text-anchor="start" x="767" y="-510.5" font-family="Arial Italic" font-size="10.00" fill="#999999">string ∗ U</text>
<text text-anchor="start" x="729" y="-497.5" font-family="Arial" font-size="10.00">sub_category_id </text>
<text text-anchor="start" x="850" y="-497.5" font-family="Arial Italic" font-size="10.00" fill="#999999">integer (8) FK</text>
</g>
<!-- m_Axis&#45;&gt;m_Subject -->
<g id="edge9" class="edge">
<title>m_Axis&#45;&gt;m_Subject</title>
<path fill="none" stroke="black" d="M999.29,-625.85C975.99,-611.58 944.09,-592.04 915.11,-574.29"/>
<polygon fill="black" stroke="black" points="916.74,-571.59 907.42,-569.57 913.45,-576.96 916.74,-571.59"/>
</g>
<!-- m_Category -->
<g id="node4" class="node">
<title>m_Category</title>
<path fill="none" stroke="black" d="M627,-626C627,-626 747,-626 747,-626 753,-626 759,-632 759,-638 759,-638 759,-657 759,-657 759,-663 753,-669 747,-669 747,-669 627,-669 627,-669 621,-669 615,-663 615,-657 615,-657 615,-638 615,-638 615,-632 621,-626 627,-626"/>
<text text-anchor="start" x="654.5" y="-656.2" font-family="Arial Bold" font-size="11.00">Category</text>
<polyline fill="none" stroke="black" points="615,-649 759,-649 "/>
<text text-anchor="start" x="622" y="-635.5" font-family="Arial" font-size="10.00">name </text>
<text text-anchor="start" x="660" y="-635.5" font-family="Arial Italic" font-size="10.00" fill="#999999">string ∗ U</text>
</g>
<!-- m_Category&#45;&gt;m_Subject -->
<g id="edge8" class="edge">
<title>m_Category&#45;&gt;m_Subject</title>
<path fill="none" stroke="black" d="M714.35,-625.85C732.94,-611.82 758.27,-592.7 781.47,-575.19"/>
<polygon fill="black" stroke="black" points="783.63,-577.51 788.91,-569.57 779.83,-572.48 783.63,-577.51"/>
</g>
<!-- m_JwtBlacklist -->
<g id="node5" class="node">
<title>m_JwtBlacklist</title>
<path fill="none" stroke="black" d="M1146,-619.5C1146,-619.5 1266,-619.5 1266,-619.5 1272,-619.5 1278,-625.5 1278,-631.5 1278,-631.5 1278,-663.5 1278,-663.5 1278,-669.5 1272,-675.5 1266,-675.5 1266,-675.5 1146,-675.5 1146,-675.5 1140,-675.5 1134,-669.5 1134,-663.5 1134,-663.5 1134,-631.5 1134,-631.5 1134,-625.5 1140,-619.5 1146,-619.5"/>
<text text-anchor="start" x="1158.5" y="-662.7" font-family="Arial Bold" font-size="11.00">JwtBlacklist</text>
<polyline fill="none" stroke="black" points="1134,-655.5 1278,-655.5 "/>
<text text-anchor="start" x="1141" y="-642.5" font-family="Arial" font-size="10.00">exp </text>
<text text-anchor="start" x="1172" y="-642.5" font-family="Arial Italic" font-size="10.00" fill="#999999">datetime</text>
<text text-anchor="start" x="1141" y="-629.5" font-family="Arial" font-size="10.00">jti </text>
<text text-anchor="start" x="1172" y="-629.5" font-family="Arial Italic" font-size="10.00" fill="#999999">string</text>
</g>
<!-- m_Objective -->
<g id="node6" class="node">
<title>m_Objective</title>
<path fill="none" stroke="black" d="M588.5,-199.5C588.5,-199.5 767.5,-199.5 767.5,-199.5 773.5,-199.5 779.5,-205.5 779.5,-211.5 779.5,-211.5 779.5,-425.5 779.5,-425.5 779.5,-431.5 773.5,-437.5 767.5,-437.5 767.5,-437.5 588.5,-437.5 588.5,-437.5 582.5,-437.5 576.5,-431.5 576.5,-425.5 576.5,-425.5 576.5,-211.5 576.5,-211.5 576.5,-205.5 582.5,-199.5 588.5,-199.5"/>
<text text-anchor="start" x="642" y="-424.7" font-family="Arial Bold" font-size="11.00">Objective</text>
<polyline fill="none" stroke="black" points="576.5,-417.5 779.5,-417.5 "/>
<text text-anchor="start" x="584" y="-404.5" font-family="Arial" font-size="10.00">alternatives </text>
<text text-anchor="start" x="682" y="-404.5" font-family="Arial Italic" font-size="10.00" fill="#999999">jsonb</text>
<text text-anchor="start" x="584" y="-391.5" font-family="Arial" font-size="10.00">authorship_year </text>
<text text-anchor="start" x="705" y="-391.5" font-family="Arial Italic" font-size="10.00" fill="#999999">string</text>
<text text-anchor="start" x="584" y="-378.5" font-family="Arial" font-size="10.00">bloom_taxonomy </text>
<text text-anchor="start" x="697" y="-378.5" font-family="Arial Italic" font-size="10.00" fill="#999999">string</text>
<text text-anchor="start" x="584" y="-365.5" font-family="Arial" font-size="10.00">body </text>
<text text-anchor="start" x="622" y="-365.5" font-family="Arial Italic" font-size="10.00" fill="#999999">text</text>
<text text-anchor="start" x="584" y="-352.5" font-family="Arial" font-size="10.00">check_type </text>
<text text-anchor="start" x="667" y="-352.5" font-family="Arial Italic" font-size="10.00" fill="#999999">string</text>
<text text-anchor="start" x="584" y="-339.5" font-family="Arial" font-size="10.00">difficulty </text>
<text text-anchor="start" x="667" y="-339.5" font-family="Arial Italic" font-size="10.00" fill="#999999">string</text>
<text text-anchor="start" x="584" y="-326.5" font-family="Arial" font-size="10.00">explanation </text>
<text text-anchor="start" x="675" y="-326.5" font-family="Arial Italic" font-size="10.00" fill="#999999">text</text>
<text text-anchor="start" x="584" y="-313.5" font-family="Arial" font-size="10.00">instruction </text>
<text text-anchor="start" x="675" y="-313.5" font-family="Arial Italic" font-size="10.00" fill="#999999">text</text>
<text text-anchor="start" x="584" y="-300.5" font-family="Arial" font-size="10.00">introduction </text>
<text text-anchor="start" x="682" y="-300.5" font-family="Arial Italic" font-size="10.00" fill="#999999">string</text>
<text text-anchor="start" x="584" y="-287.5" font-family="Arial" font-size="10.00">own </text>
<text text-anchor="start" x="615" y="-287.5" font-family="Arial Italic" font-size="10.00" fill="#999999">boolean</text>
<text text-anchor="start" x="584" y="-274.5" font-family="Arial" font-size="10.00">references </text>
<text text-anchor="start" x="667" y="-274.5" font-family="Arial Italic" font-size="10.00" fill="#999999">text</text>
<text text-anchor="start" x="584" y="-261.5" font-family="Arial" font-size="10.00">source </text>
<text text-anchor="start" x="637" y="-261.5" font-family="Arial Italic" font-size="10.00" fill="#999999">string</text>
<text text-anchor="start" x="584" y="-248.5" font-family="Arial" font-size="10.00">status </text>
<text text-anchor="start" x="637" y="-248.5" font-family="Arial Italic" font-size="10.00" fill="#999999">string ∗</text>
<text text-anchor="start" x="584" y="-235.5" font-family="Arial" font-size="10.00">subject_id </text>
<text text-anchor="start" x="667" y="-235.5" font-family="Arial Italic" font-size="10.00" fill="#999999">integer (8) FK</text>
<text text-anchor="start" x="584" y="-222.5" font-family="Arial" font-size="10.00">support </text>
<text text-anchor="start" x="645" y="-222.5" font-family="Arial Italic" font-size="10.00" fill="#999999">text</text>
<text text-anchor="start" x="584" y="-209.5" font-family="Arial" font-size="10.00">user_id </text>
<text text-anchor="start" x="645" y="-209.5" font-family="Arial Italic" font-size="10.00" fill="#999999">integer (8) FK</text>
</g>
<!-- m_ReviewRequest -->
<g id="node8" class="node">
<title>m_ReviewRequest</title>
<path fill="none" stroke="black" d="M500.5,-106.5C500.5,-106.5 709.5,-106.5 709.5,-106.5 715.5,-106.5 721.5,-112.5 721.5,-118.5 721.5,-118.5 721.5,-150.5 721.5,-150.5 721.5,-156.5 715.5,-162.5 709.5,-162.5 709.5,-162.5 500.5,-162.5 500.5,-162.5 494.5,-162.5 488.5,-156.5 488.5,-150.5 488.5,-150.5 488.5,-118.5 488.5,-118.5 488.5,-112.5 494.5,-106.5 500.5,-106.5"/>
<text text-anchor="start" x="554" y="-149.7" font-family="Arial Bold" font-size="11.00">ReviewRequest</text>
<polyline fill="none" stroke="black" points="488.5,-142.5 721.5,-142.5 "/>
<text text-anchor="start" x="496" y="-129.5" font-family="Arial" font-size="10.00">objective_id </text>
<text text-anchor="start" x="594" y="-129.5" font-family="Arial Italic" font-size="10.00" fill="#999999">integer (8) ∗ FK</text>
<text text-anchor="start" x="496" y="-116.5" font-family="Arial" font-size="10.00">user_id </text>
<text text-anchor="start" x="557" y="-116.5" font-family="Arial Italic" font-size="10.00" fill="#999999">integer (8) ∗ FK</text>
</g>
<!-- m_Objective&#45;&gt;m_ReviewRequest -->
<g id="edge11" class="edge">
<title>m_Objective&#45;&gt;m_ReviewRequest</title>
<path fill="none" stroke="black" d="M630.63,-199.41C626.58,-189.3 622.72,-179.68 619.29,-171.12"/>
<polygon fill="black" stroke="black" points="622.14,-169.78 615.87,-162.6 616.3,-172.12 622.14,-169.78"/>
</g>
<!-- m_ReviewFeedback -->
<g id="node7" class="node">
<title>m_ReviewFeedback</title>
<path fill="none" stroke="black" d="M481.5,-0.5C481.5,-0.5 728.5,-0.5 728.5,-0.5 734.5,-0.5 740.5,-6.5 740.5,-12.5 740.5,-12.5 740.5,-57.5 740.5,-57.5 740.5,-63.5 734.5,-69.5 728.5,-69.5 728.5,-69.5 481.5,-69.5 481.5,-69.5 475.5,-69.5 469.5,-63.5 469.5,-57.5 469.5,-57.5 469.5,-12.5 469.5,-12.5 469.5,-6.5 475.5,-0.5 481.5,-0.5"/>
<text text-anchor="start" x="550" y="-56.7" font-family="Arial Bold" font-size="11.00">ReviewFeedback</text>
<polyline fill="none" stroke="black" points="469.5,-49.5 740.5,-49.5 "/>
<text text-anchor="start" x="477" y="-36" font-family="Arial" font-size="10.00">comment </text>
<text text-anchor="start" x="538" y="-36" font-family="Arial Italic" font-size="10.00" fill="#999999">text</text>
<text text-anchor="start" x="477" y="-23" font-family="Arial" font-size="10.00">review_request_id </text>
<text text-anchor="start" x="613" y="-23" font-family="Arial Italic" font-size="10.00" fill="#999999">integer (8) ∗ FK</text>
<text text-anchor="start" x="477" y="-10" font-family="Arial" font-size="10.00">status </text>
<text text-anchor="start" x="530" y="-10" font-family="Arial Italic" font-size="10.00" fill="#999999">string</text>
</g>
<!-- m_ReviewRequest&#45;&gt;m_ReviewFeedback -->
<g id="edge13" class="edge">
<title>m_ReviewRequest&#45;&gt;m_ReviewFeedback</title>
<path fill="none" stroke="black" d="M605,-106.34C605,-97.8 605,-88.16 605,-78.81"/>
<polygon fill="black" stroke="black" points="608.15,-78.62 605,-69.62 601.85,-78.62 608.15,-78.62"/>
</g>
<!-- m_Role -->
<g id="node9" class="node">
<title>m_Role</title>
<path fill="none" stroke="black" d="M454,-626C454,-626 574,-626 574,-626 580,-626 586,-632 586,-638 586,-638 586,-657 586,-657 586,-663 580,-669 574,-669 574,-669 454,-669 454,-669 448,-669 442,-663 442,-657 442,-657 442,-638 442,-638 442,-632 448,-626 454,-626"/>
<text text-anchor="start" x="496.5" y="-656.2" font-family="Arial Bold" font-size="11.00">Role</text>
<polyline fill="none" stroke="black" points="442,-649 586,-649 "/>
<text text-anchor="start" x="449" y="-635.5" font-family="Arial" font-size="10.00">name </text>
<text text-anchor="start" x="487" y="-635.5" font-family="Arial Italic" font-size="10.00" fill="#999999">string ∗ U</text>
</g>
<!-- m_User -->
<g id="node13" class="node">
<title>m_User</title>
<path fill="none" stroke="black" d="M420,-474.5C420,-474.5 644,-474.5 644,-474.5 650,-474.5 656,-480.5 656,-486.5 656,-486.5 656,-570.5 656,-570.5 656,-576.5 650,-582.5 644,-582.5 644,-582.5 420,-582.5 420,-582.5 414,-582.5 408,-576.5 408,-570.5 408,-570.5 408,-486.5 408,-486.5 408,-480.5 414,-474.5 420,-474.5"/>
<text text-anchor="start" x="514.5" y="-569.7" font-family="Arial Bold" font-size="11.00">User</text>
<polyline fill="none" stroke="black" points="408,-562.5 656,-562.5 "/>
<text text-anchor="start" x="415" y="-549.5" font-family="Arial" font-size="10.00">email </text>
<text text-anchor="start" x="461" y="-549.5" font-family="Arial Italic" font-size="10.00" fill="#999999">string ∗ U</text>
<text text-anchor="start" x="415" y="-536.5" font-family="Arial" font-size="10.00">encrypted_password </text>
<text text-anchor="start" x="558" y="-536.5" font-family="Arial Italic" font-size="10.00" fill="#999999">string ∗</text>
<text text-anchor="start" x="415" y="-523.5" font-family="Arial" font-size="10.00">name </text>
<text text-anchor="start" x="453" y="-523.5" font-family="Arial Italic" font-size="10.00" fill="#999999">string</text>
<text text-anchor="start" x="415" y="-510.5" font-family="Arial" font-size="10.00">remember_created_at </text>
<text text-anchor="start" x="566" y="-510.5" font-family="Arial Italic" font-size="10.00" fill="#999999">datetime</text>
<text text-anchor="start" x="415" y="-497.5" font-family="Arial" font-size="10.00">reset_password_sent_at </text>
<text text-anchor="start" x="588" y="-497.5" font-family="Arial Italic" font-size="10.00" fill="#999999">datetime</text>
<text text-anchor="start" x="415" y="-484.5" font-family="Arial" font-size="10.00">reset_password_token </text>
<text text-anchor="start" x="573" y="-484.5" font-family="Arial Italic" font-size="10.00" fill="#999999">string</text>
</g>
<!-- m_Role&#45;&gt;m_User -->
<g id="edge3" class="edge">
<title>m_Role&#45;&gt;m_User</title>
<path fill="none" stroke="black" d="M518.57,-616.8C519.76,-609.07 521.09,-600.45 522.43,-591.71"/>
<polygon fill="black" stroke="black" points="515.43,-616.48 517.18,-625.85 521.66,-617.44 515.43,-616.48"/>
<polygon fill="black" stroke="black" points="525.58,-591.98 523.83,-582.6 519.35,-591.02 525.58,-591.98"/>
</g>
<!-- m_SubCategory -->
<g id="node10" class="node">
<title>m_SubCategory</title>
<path fill="none" stroke="black" d="M800,-626C800,-626 920,-626 920,-626 926,-626 932,-632 932,-638 932,-638 932,-657 932,-657 932,-663 926,-669 920,-669 920,-669 800,-669 800,-669 794,-669 788,-663 788,-657 788,-657 788,-638 788,-638 788,-632 794,-626 800,-626"/>
<text text-anchor="start" x="816.5" y="-656.2" font-family="Arial Bold" font-size="11.00">SubCategory</text>
<polyline fill="none" stroke="black" points="788,-649 932,-649 "/>
<text text-anchor="start" x="795" y="-635.5" font-family="Arial" font-size="10.00">name </text>
<text text-anchor="start" x="833" y="-635.5" font-family="Arial Italic" font-size="10.00" fill="#999999">string ∗ U</text>
</g>
<!-- m_SubCategory&#45;&gt;m_Subject -->
<g id="edge12" class="edge">
<title>m_SubCategory&#45;&gt;m_Subject</title>
<path fill="none" stroke="black" d="M856.82,-625.85C854.81,-612.79 852.13,-595.31 849.59,-578.83"/>
<polygon fill="black" stroke="black" points="852.68,-578.23 848.2,-569.81 846.46,-579.19 852.68,-578.23"/>
</g>
<!-- m_Subject&#45;&gt;m_Objective -->
<g id="edge10" class="edge">
<title>m_Subject&#45;&gt;m_Objective</title>
<path fill="none" stroke="black" d="M810.38,-487.4C800.54,-474.92 789.12,-460.43 777.2,-445.31"/>
<polygon fill="black" stroke="black" points="779.35,-442.95 771.3,-437.84 774.4,-446.85 779.35,-442.95"/>
</g>
<!-- m_Upload -->
<g id="node12" class="node">
<title>m_Upload</title>
<path fill="none" stroke="black" d="M247,-507C247,-507 367,-507 367,-507 373,-507 379,-513 379,-519 379,-519 379,-538 379,-538 379,-544 373,-550 367,-550 367,-550 247,-550 247,-550 241,-550 235,-544 235,-538 235,-538 235,-519 235,-519 235,-513 241,-507 247,-507"/>
<text text-anchor="start" x="282" y="-537.2" font-family="Arial Bold" font-size="11.00">Upload</text>
<polyline fill="none" stroke="black" points="235,-530 379,-530 "/>
<text text-anchor="start" x="242" y="-516.5" font-family="Arial" font-size="10.00">filename </text>
<text text-anchor="start" x="310" y="-516.5" font-family="Arial Italic" font-size="10.00" fill="#999999">string</text>
</g>
<!-- m_Upload&#45;&gt;m_ActiveStorage::Attachment -->
<g id="edge5" class="edge">
<title>m_Upload&#45;&gt;m_ActiveStorage::Attachment</title>
<path fill="none" stroke="black" d="M307,-506.8C307,-472.58 307,-403.64 307,-359.62"/>
</g>
<!-- m_User&#45;&gt;m_ActiveStorage::Attachment -->
<g id="edge6" class="edge">
<title>m_User&#45;&gt;m_ActiveStorage::Attachment</title>
<path fill="none" stroke="black" d="M474.64,-474.47C435.97,-438.73 385.76,-392.3 350.4,-359.62"/>
</g>
<!-- m_User&#45;&gt;m_ActiveStorage::Blob -->
<g id="edge7" class="edge">
<title>m_User&#45;&gt;m_ActiveStorage::Blob</title>
<path fill="none" stroke="black" stroke-dasharray="1,5" d="M433.96,-582.53C416,-590.17 397.05,-596.84 378.5,-601 316.05,-615.01 296.69,-616.1 234.5,-601 217.43,-596.86 200.11,-590.25 183.74,-582.68"/>
</g>
<!-- m_User&#45;&gt;m_Objective -->
<g id="edge1" class="edge">
<title>m_User&#45;&gt;m_Objective</title>
<path fill="none" stroke="black" d="M569.22,-474.47C575.68,-465.27 582.63,-455.37 589.79,-445.17"/>
<polygon fill="black" stroke="black" points="592.44,-446.87 595.04,-437.69 587.29,-443.25 592.44,-446.87"/>
</g>
<!-- m_User&#45;&gt;m_ReviewRequest -->
<g id="edge2" class="edge">
<title>m_User&#45;&gt;m_ReviewRequest</title>
<path fill="none" stroke="black" d="M528.86,-474.28C526.71,-407.83 528.91,-291.62 562,-199 565.57,-189.01 571.08,-179.09 576.98,-170.16"/>
<polygon fill="black" stroke="black" points="579.69,-171.79 582.23,-162.6 574.51,-168.2 579.69,-171.79"/>
</g>
</g>
</svg>
